<svg width="148" height="134" fill="none" xmlns="http://www.w3.org/2000/svg"><path fill="#fff" d="M74 2.392 135.68 66 74 129.608 12.32 66z"/><path fill-rule="evenodd" clip-rule="evenodd" d="m25.501 36.834 1.378 3.04 1.554-.77c1.44-.713 1.93-1.595 1.464-2.622-.466-1.028-1.374-1.144-2.842-.417l-1.554.77Zm2.304 5.08 1 2.205c.33.729.077 1.402-.535 1.706-.613.303-1.258.075-1.59-.655l-3.586-7.91c-.405-.893-.143-1.661.712-2.085l2.694-1.334c1.184-.586 2.266-.739 3.263-.466.996.272 1.737.944 2.224 2.017.493 1.088.535 2.143.112 3.173-.423 1.03-1.215 1.824-2.37 2.396l-1.924.953Zm9.321-6.27c.53 1.66 1.598 2.509 2.968 1.992 1.383-.522 1.785-1.716 1.187-3.593l-1.583-4.965c-.242-.76.052-1.392.665-1.624.614-.232 1.204.067 1.447.828l1.557 4.887c1.034 3.243.024 5.587-2.6 6.577-2.625.99-4.753-.172-5.787-3.414l-1.558-4.887c-.242-.76.052-1.393.665-1.624.613-.231 1.204.068 1.446.827l1.593 4.996Zm11.096-8.237.732 3.386 1.722-.412c1.595-.38 2.275-1.153 2.027-2.3-.248-1.144-1.133-1.475-2.76-1.085l-1.72.41Zm1.223 5.66.532 2.458c.175.813-.222 1.431-.901 1.594-.68.162-1.277-.22-1.452-1.032l-1.906-8.816c-.216-.996.212-1.709 1.16-1.935l2.984-.713c1.31-.314 2.429-.214 3.37.295.94.51 1.54 1.36 1.797 2.556.262 1.212.08 2.285-.565 3.225-.644.94-1.607 1.553-2.887 1.86l-2.132.508Zm10.14-8.082.396 3.263 1.79-.206c1.657-.19 2.427-.847 2.293-1.95-.134-1.104-.999-1.507-2.69-1.313l-1.789.206Zm.661 5.454.287 2.368c.095.784-.372 1.324-1.078 1.405-.706.081-1.273-.34-1.368-1.124l-1.03-8.493c-.116-.96.39-1.586 1.376-1.7l3.103-.356c1.362-.157 2.487.055 3.39.631.902.579 1.422 1.443 1.562 2.594.142 1.168-.155 2.159-.905 2.975-.75.816-1.79 1.293-3.12 1.446l-2.217.255Zm14.075-1.323.046 2.808c.013.804-.424 1.307-1.042 1.32-.618.013-1.071-.47-1.084-1.275l-.047-2.807-2.696-5.789c-.3-.765-.065-1.346.505-1.637.513-.274 1.092-.024 1.405.693l1.807 4.067 1.685-4.142c.29-.73.86-1.003 1.383-.752.579.267.832.835.558 1.614l-2.52 5.9Zm13.689-4.504c-.4.503-.997.566-1.58.06-.61-.571-1.3-.89-2.067-.954-.95-.081-1.585.32-1.634.983-.045.614.422 1.06 1.417 1.34l.877.236c2.335.604 3.438 1.885 3.294 3.84-.076 1.034-.529 1.841-1.344 2.406-.815.565-1.847.803-3.113.696-1.37-.116-2.573-.657-3.623-1.64-.553-.519-.573-1.268-.13-1.735.4-.502 1.013-.58 1.581-.061.747.763 1.581 1.174 2.47 1.25 1.145.097 1.875-.362 1.928-1.073.044-.597-.424-1.044-1.389-1.32l-1.127-.323c-2.035-.58-3.216-1.818-3.078-3.692.077-1.05.514-1.842 1.328-2.391.814-.565 1.755-.795 2.825-.704 1.28.108 2.368.558 3.235 1.347.57.504.573 1.268.13 1.735Zm6.952 1.531-.622 3.113 1.783.31c1.652.286 2.592-.102 2.802-1.156.21-1.052-.496-1.665-2.18-1.957l-1.784-.31Zm-1.04 5.203-.45 2.257c-.15.748-.764 1.115-1.468.993-.703-.122-1.119-.668-.97-1.416l1.618-8.1c.183-.916.862-1.35 1.843-1.18l3.091.537c1.358.236 2.373.743 3.063 1.527.69.782.925 1.723.706 2.822-.223 1.113-.811 1.942-1.783 2.484-.97.541-2.117.69-3.442.46l-2.207-.384Zm10.646 3.604c.367.844 1.032 1.413 2.002 1.724.941.302 1.8.223 2.552-.262.767-.48 1.292-1.191 1.585-2.161.283-.94.226-1.838-.156-2.687-.383-.85-1.012-1.424-1.923-1.716-.956-.307-1.814-.228-2.597.248-.767.48-1.292 1.19-1.58 2.146-.293.97-.251 1.863.117 2.708Zm.35-6.92c1.35-.732 2.792-.843 4.3-.36 1.523.49 2.65 1.426 3.374 2.825.729 1.383.853 2.876.369 4.479-.487 1.618-1.41 2.776-2.775 3.503-1.361.713-2.804.824-4.326.335-1.509-.484-2.635-1.42-3.349-2.799-.71-1.394-.833-2.887-.345-4.505.483-1.603 1.405-2.76 2.752-3.477Zm18.868 6.151c.621.307.833.95.594 1.577-.235.61-.795.873-1.417.567l-1.905-.939-2.935 7.65c-.294.767-.916 1.018-1.51.726-.593-.293-.841-.973-.547-1.74l2.936-7.65-1.891-.932c-.621-.306-.834-.95-.599-1.56.24-.627.8-.89 1.421-.583l5.853 2.884Z" fill="#000"/><path d="M92.466 59.177H48.948c-1.786-.135-3.266-1.404-3.72-3.114l-.003-.008c-.742-2.847-3.6-5.08-6.703-5.204-4.203-.168-7.662 3.26-7.662 7.513a7.56 7.56 0 0 0 2.15 5.305c1.01 1.034.994 2.662-.014 3.698a7.576 7.576 0 0 0-2.128 5.653c.176 3.842 3.298 7.002 7.064 7.152 3.404.136 6.32-2.088 7.305-5.197l.003-.01c.461-1.72 1.95-3.003 3.754-3.12h50.058c1.786.136 3.266 1.405 3.721 3.116l.002.006c.742 2.849 3.599 5.082 6.703 5.205 4.203.168 7.663-3.26 7.663-7.513a7.568 7.568 0 0 0-2.15-5.306c-1.011-1.033-.995-2.66.013-3.697a7.573 7.573 0 0 0 2.128-5.653c-.176-3.842-3.298-7.002-7.064-7.152-3.404-.136-6.319 2.088-7.305 5.197l-.003.01c-.461 1.72-1.95 3.003-3.753 3.119h-6.541Z" fill="#9DD87D"/><path fill-rule="evenodd" clip-rule="evenodd" d="m135.77 65.491-25.266 26.42h2.23L138 65.491 122.123 48.89h-2.23l15.877 16.602ZM57.79 18.578 74 2.29l16.21 16.287h2.279L74 0 55.511 18.578h2.28Z" fill="#66AF37"/><mask id="a" mask-type="alpha" maskUnits="userSpaceOnUse" x="10" y="49" width="29" height="43"><path fill-rule="evenodd" clip-rule="evenodd" d="M10 49.248h28.067v42.615H10V49.249Z" fill="#fff"/></mask><g mask="url(#a)"><path fill-rule="evenodd" clip-rule="evenodd" d="m38.067 91.863-25.79-26.17 16.206-16.444h-2.277L10 65.692l25.79 26.17h2.277Z" fill="#66AF37"/></g><path fill-rule="evenodd" clip-rule="evenodd" d="M88.345 115.378 74 129.749l-14.346-14.371h-2.247L74 132l16.592-16.622h-2.247Z" fill="#66AF37"/><path fill-rule="evenodd" clip-rule="evenodd" d="M39.784 100.417v3.396h1.667c1.544 0 2.324-.583 2.324-1.731 0-1.148-.749-1.665-2.324-1.665h-1.667Zm0 5.676v2.463c0 .816-.49 1.315-1.147 1.315s-1.132-.499-1.132-1.315v-8.837c0-1 .535-1.581 1.453-1.581h2.89c1.27 0 2.28.349 3.044 1.048.764.699 1.147 1.648 1.147 2.846 0 1.215-.383 2.197-1.162 2.946-.78.749-1.79 1.115-3.029 1.115h-2.064Zm10.689-5.676v3.363h1.759c1.483 0 2.232-.566 2.232-1.715 0-1.131-.688-1.648-2.232-1.648h-1.759Zm1.82 5.626h-1.82v2.513c0 .816-.49 1.315-1.147 1.315s-1.131-.499-1.131-1.315v-8.837c0-1 .535-1.581 1.453-1.581h2.981c1.209 0 2.187.332 2.952 1.015.764.666 1.147 1.597 1.147 2.78 0 1.647-.826 2.978-2.11 3.644l1.651 2.297c.443.666.321 1.414-.23 1.798-.504.349-1.192.149-1.636-.516l-2.11-3.113Zm10.155.518c.598.698 1.4 1.038 2.423 1.038.992 0 1.795-.34 2.377-1.038.598-.698.897-1.542.897-2.565 0-.989-.315-1.834-.929-2.531-.614-.698-1.384-1.055-2.345-1.055-1.007 0-1.81.341-2.423 1.038-.598.699-.897 1.542-.897 2.548 0 1.023.3 1.867.897 2.565ZM60.78 99.81c1.085-1.12 2.439-1.672 4.028-1.672 1.606 0 2.959.552 4.06 1.672 1.102 1.103 1.653 2.499 1.653 4.186 0 1.704-.55 3.1-1.653 4.22-1.101 1.104-2.454 1.655-4.06 1.655-1.59 0-2.943-.551-4.028-1.655-1.086-1.12-1.637-2.516-1.637-4.22 0-1.687.551-3.083 1.637-4.186Zm16.952 4.924 2.686-5.76c.255-.558.675-.836 1.276-.836.795 0 1.26.558 1.26 1.46v8.976c0 .804-.465 1.297-1.11 1.297-.646 0-1.11-.493-1.11-1.297v-5.316l-1.786 3.725c-.271.557-.676.837-1.216.837-.54 0-.946-.28-1.2-.821l-1.786-3.741v5.316c0 .804-.466 1.297-1.111 1.297s-1.11-.493-1.11-1.297v-8.976c0-.902.465-1.46 1.26-1.46.585 0 1.02.278 1.276.836l2.67 5.76Zm8.174-5.294c0-.807.397-1.302.948-1.302.55 0 .948.495.948 1.303v9.126c0 .808-.397 1.304-.948 1.304-.551 0-.948-.496-.948-1.304v-9.126Zm12.683 1.489c-.366.535-.96.649-1.585.195-.656-.519-1.372-.779-2.149-.779-.96 0-1.57.454-1.57 1.119 0 .617.503 1.023 1.524 1.218l.9.162c2.392.406 3.596 1.59 3.596 3.554 0 1.039-.396 1.883-1.174 2.515-.777.633-1.798.958-3.078.958-1.387 0-2.636-.438-3.764-1.331-.594-.47-.67-1.217-.26-1.72.366-.535.976-.665 1.586-.194.807.697 1.676 1.038 2.575 1.038 1.158 0 1.86-.519 1.86-1.234 0-.6-.503-1.005-1.494-1.2l-1.158-.228c-2.088-.406-3.368-1.541-3.368-3.424 0-1.055.38-1.883 1.158-2.5.777-.632 1.707-.94 2.789-.94 1.295 0 2.423.357 3.353 1.071.61.454.67 1.217.259 1.72Zm5.276 4.081v2.564h4.39c.647 0 1.05.486 1.05 1.157 0 .654-.403 1.14-1.05 1.14h-5.167c-.864 0-1.368-.587-1.368-1.592V99.73c0-1.005.504-1.592 1.368-1.592h5.167c.647 0 1.05.486 1.05 1.156 0 .654-.403 1.14-1.05 1.14h-4.39v2.313h4.16c.633 0 1.036.487 1.036 1.14 0 .62-.403 1.123-1.036 1.123h-4.16Z" fill="#000"/><path fill-rule="evenodd" clip-rule="evenodd" d="M91.49 48.428c-3.33-3.841-9.878-4.481-14.31.121-2.55 2.646-2.952 4.056-3.654 5.075-.703-1.019-1.106-2.43-3.654-5.075-4.433-4.602-10.98-3.962-14.31-.12-2.67 3.476-2.948 7.516-2.244 11.912.505 3.16 2.708 7.932 4.931 11.114 4.256 6.088 9.592 11.567 15.276 16.204 5.685-4.637 11.022-10.116 15.277-16.204 2.224-3.182 4.426-7.953 4.932-11.114.703-4.396.426-8.436-2.244-11.913Z" fill="#FF9100" style="mix-blend-mode:multiply"/><path fill-rule="evenodd" clip-rule="evenodd" d="M25.17 66.489c0 .54-.425.977-.948.977-.524 0-.948-.438-.948-.977 0-.54.424-.978.948-.978.523 0 .948.438.948.978Zm99.556 0c0 .54-.425.977-.948.977-.524 0-.948-.438-.948-.977 0-.54.424-.978.948-.978.523 0 .948.438.948.978Z" fill="#333"/></svg>