<svg viewBox="0 0 1254 535" version="1.1" xmlns="http://www.w3.org/2000/svg" xmlns:xlink="http://www.w3.org/1999/xlink">
    <style type="text/css">
        <![CDATA[
            @keyframes fades {0% {opacity: 1}80% {opacity: 0}100% {opacity: 0}}
            .paw {fill:#66af37;opacity: 0;}
            #paw-1 {opacity: 1;animation: fades 3s infinite;}
            #paw-2 {animation: fades 3s infinite;animation-delay: .5s;}
            #paw-3 {animation: fades 3s infinite;animation-delay: 1s;}
            #paw-4 {animation: fades 3s infinite;animation-delay: 1.5s;}
        ]]>
    </style>
    <g id="t" transform="translate(-2.000000, -126.000000)" fill="#FF7A00" fill-rule="nonzero">
        <path d="M97.0965802,237.93738 C115.273982,233.167531 124.368994,208.675703 117.412331,183.234598 C110.456242,157.793492 90.0813952,141.041798 71.9034198,145.811076 C53.7260182,150.580353 44.6310061,175.072753 51.5876691,200.513859 C58.5437583,225.954964 78.9243422,242.71238 97.0965802,237.93738 Z M216.412331,200.515402 C223.368994,175.074297 214.273982,150.588191 196.09658,145.81262 C177.918605,141.03762 157.543758,157.795036 150.587669,183.236141 C143.631006,208.677247 152.726018,233.169075 170.90342,237.938924 C189.081395,242.708202 209.456242,225.956508 216.412331,200.515402 Z M28.0987724,294.25832 C45.2580053,290.179721 54.196988,270.41671 48.068485,250.114119 C41.9405575,229.812101 23.0607402,216.663654 5.90150728,220.741681 C-11.2577256,224.819708 -20.1967083,244.583291 -14.0687807,264.885309 C-7.94027776,285.1879 10.9395395,298.336347 28.0987724,294.25832 Z M282.068485,264.885881 C288.196988,244.58329 279.258005,224.820279 262.098772,220.74168 C244.93954,216.663653 226.065477,229.8121 219.931219,250.114691 C213.803292,270.416709 222.742274,290.180292 239.901507,294.258319 C257.06074,298.336346 275.934228,285.187899 282.068485,264.885881 Z M204.464706,407.5 C230.791267,407.5 246.5,395.283432 246.5,374.833984 C246.5,329.42955 180.529388,257.5 134,257.5 C87.4706116,257.5 21.5,329.42955 21.5,374.833984 C21.5,395.283432 37.2087326,407.5 63.5352936,407.5 C92.1523895,407.5 111.048874,392.804642 134,392.804642 C157.150253,392.804642 176.09938,407.5 204.464706,407.5 Z" class="paw" id="paw-1" transform="translate(134.000000, 276.250000) rotate(-270.000000) translate(-134.000000, -276.250000) "></path>
        <path d="M756.34658,237.93738 C774.523982,233.167531 783.618994,208.675703 776.662331,183.234598 C769.706242,157.793492 749.331395,141.041798 731.15342,145.811076 C712.976018,150.580353 703.881006,175.072753 710.837669,200.513859 C717.793758,225.954964 738.174342,242.71238 756.34658,237.93738 Z M875.662331,200.515402 C882.618994,175.074297 873.523982,150.588191 855.34658,145.81262 C837.168605,141.03762 816.793758,157.795036 809.837669,183.236141 C802.881006,208.677247 811.976018,233.169075 830.15342,237.938924 C848.331395,242.708202 868.706242,225.956508 875.662331,200.515402 Z M687.348772,294.25832 C704.508005,290.179721 713.446988,270.41671 707.318485,250.114119 C701.190557,229.812101 682.31074,216.663654 665.151507,220.741681 C647.992274,224.819708 639.053292,244.583291 645.181219,264.885309 C651.309722,285.1879 670.18954,298.336347 687.348772,294.25832 Z M941.318485,264.885881 C947.446988,244.58329 938.508005,224.820279 921.348772,220.74168 C904.18954,216.663653 885.315477,229.8121 879.181219,250.114691 C873.053292,270.416709 881.992274,290.180292 899.151507,294.258319 C916.31074,298.336346 935.184228,285.187899 941.318485,264.885881 Z M863.714706,407.5 C890.041267,407.5 905.75,395.283432 905.75,374.833984 C905.75,329.42955 839.779388,257.5 793.25,257.5 C746.720612,257.5 680.75,329.42955 680.75,374.833984 C680.75,395.283432 696.458733,407.5 722.785294,407.5 C751.40239,407.5 770.298874,392.804642 793.25,392.804642 C816.400253,392.804642 835.34938,407.5 863.714706,407.5 Z" class="paw" id="paw-3" transform="translate(793.250000, 276.250000) rotate(-270.000000) translate(-793.250000, -276.250000) "></path>
        <path d="M426.34658,471.93738 C444.523982,467.167531 453.618994,442.675703 446.662331,417.234598 C439.706242,391.793492 419.331395,375.041798 401.15342,379.811076 C382.976018,384.580353 373.881006,409.072753 380.837669,434.513859 C387.793758,459.954964 408.174342,476.71238 426.34658,471.93738 Z M545.662331,434.515402 C552.618994,409.074297 543.523982,384.588191 525.34658,379.81262 C507.168605,375.03762 486.793758,391.795036 479.837669,417.236141 C472.881006,442.677247 481.976018,467.169075 500.15342,471.938924 C518.331395,476.708202 538.706242,459.956508 545.662331,434.515402 Z M357.348772,528.25832 C374.508005,524.179721 383.446988,504.41671 377.318485,484.114119 C371.190557,463.812101 352.31074,450.663654 335.151507,454.741681 C317.992274,458.819708 309.053292,478.583291 315.181219,498.885309 C321.309722,519.1879 340.18954,532.336347 357.348772,528.25832 Z M611.318485,498.885881 C617.446988,478.58329 608.508005,458.820279 591.348772,454.74168 C574.18954,450.663653 555.315477,463.8121 549.181219,484.114691 C543.053292,504.416709 551.992274,524.180292 569.151507,528.258319 C586.31074,532.336346 605.184228,519.187899 611.318485,498.885881 Z M533.714706,641.5 C560.041267,641.5 575.75,629.283432 575.75,608.833984 C575.75,563.42955 509.779388,491.5 463.25,491.5 C416.720612,491.5 350.75,563.42955 350.75,608.833984 C350.75,629.283432 366.458733,641.5 392.785294,641.5 C421.40239,641.5 440.298874,626.804642 463.25,626.804642 C486.400253,626.804642 505.34938,641.5 533.714706,641.5 Z" class="paw"  id="paw-2" transform="translate(463.250000, 510.250000) rotate(-270.000000) translate(-463.250000, -510.250000) "></path>
        <path d="M1087.34658,471.93738 C1105.52398,467.167531 1114.61899,442.675703 1107.66233,417.234598 C1100.70624,391.793492 1080.3314,375.041798 1062.15342,379.811076 C1043.97602,384.580353 1034.88101,409.072753 1041.83767,434.513859 C1048.79376,459.954964 1069.17434,476.71238 1087.34658,471.93738 Z M1206.66233,434.515402 C1213.61899,409.074297 1204.52398,384.588191 1186.34658,379.81262 C1168.1686,375.03762 1147.79376,391.795036 1140.83767,417.236141 C1133.88101,442.677247 1142.97602,467.169075 1161.15342,471.938924 C1179.3314,476.708202 1199.70624,459.956508 1206.66233,434.515402 Z M1018.34877,528.25832 C1035.50801,524.179721 1044.44699,504.41671 1038.31848,484.114119 C1032.19056,463.812101 1013.31074,450.663654 996.151507,454.741681 C978.992274,458.819708 970.053292,478.583291 976.181219,498.885309 C982.309722,519.1879 1001.18954,532.336347 1018.34877,528.25832 Z M1272.31848,498.885881 C1278.44699,478.58329 1269.50801,458.820279 1252.34877,454.74168 C1235.18954,450.663653 1216.31548,463.8121 1210.18122,484.114691 C1204.05329,504.416709 1212.99227,524.180292 1230.15151,528.258319 C1247.31074,532.336346 1266.18423,519.187899 1272.31848,498.885881 Z M1194.71471,641.5 C1221.04127,641.5 1236.75,629.283432 1236.75,608.833984 C1236.75,563.42955 1170.77939,491.5 1124.25,491.5 C1077.72061,491.5 1011.75,563.42955 1011.75,608.833984 C1011.75,629.283432 1027.45873,641.5 1053.78529,641.5 C1082.40239,641.5 1101.29887,626.804642 1124.25,626.804642 C1147.40025,626.804642 1166.34938,641.5 1194.71471,641.5 Z" class="paw" id="paw-4" transform="translate(1124.250000, 510.250000) rotate(-270.000000) translate(-1124.250000, -510.250000) "></path>
    </g>
</svg>
