<svg width="564" height="341" fill="none" xmlns="http://www.w3.org/2000/svg"><path fill="#F2F2F2" d="M0 0h564v341H0z"/><path fill="#F2F2F2" d="M24 24h516v293H24z"/><g opacity=".45"><path d="M247.519 113.61c-.35-2.795-1.402-6.289-7.011-6.289-3.156-.489-9.466 2.795-9.466 6.289 0 1.901 4.382 2.621 8.764 2.621 4.383 0 7.873-1.346 7.713-2.621Z" fill="#000"/><path fill-rule="evenodd" clip-rule="evenodd" d="M232.993 111.829c-.538.665-.772 1.27-.772 1.781v.002l.012.021a.855.855 0 0 0 .236.219c.311.218.839.442 1.602.636 1.508.383 3.589.561 5.735.561 2.085 0 3.916-.322 5.167-.765.634-.224 1.052-.456 1.279-.642.03-.025.054-.046.073-.064-.174-1.281-.499-2.497-1.249-3.408-.735-.891-2.03-1.667-4.568-1.667-.061 0-.121-.005-.181-.014-.559-.086-1.363-.014-2.308.254-.93.264-1.917.694-2.817 1.24-.903.548-1.675 1.187-2.209 1.846Zm13.395 1.678s-.002.005-.009.014l.009-.014Zm-5.794-7.367c-.996-.135-2.128.02-3.218.329a14.095 14.095 0 0 0-3.396 1.492c-1.069.649-2.071 1.456-2.819 2.38-.744.918-1.299 2.034-1.299 3.269 0 1.004.599 1.721 1.258 2.181.648.453 1.489.764 2.37.988 1.473.374 3.303.563 5.158.617.038 1.484.066 3.191-.515 5.34-.396 1.47-.746 3.09-1.094 4.703-.233 1.079-.465 2.154-.71 3.18-.632 2.644-1.385 5.138-2.542 7.242-1.146 2.085-2.673 3.757-4.858 4.809-2.196 1.057-5.174 1.544-9.314 1.039a1.18 1.18 0 0 0-.286 2.346c4.449.543 7.91.051 10.622-1.255 2.725-1.312 4.577-3.388 5.903-5.798 1.314-2.39 2.125-5.134 2.769-7.833.212-.887.404-1.753.587-2.601 1.053 3.675 2.704 7.361 4.821 10.396 3.139 4.498 7.553 7.888 12.782 7.086a1.182 1.182 0 0 0-.357-2.337c-3.886.596-7.535-1.867-10.49-6.103-2.883-4.132-4.866-9.647-5.495-14.487.596-2.331.578-4.29.54-5.743 1.824-.098 3.474-.416 4.748-.867.767-.271 1.466-.615 1.985-1.04.487-.398 1.062-1.083.946-2.01-.182-1.448-.564-3.305-1.795-4.798-1.269-1.54-3.278-2.507-6.301-2.525Z" fill="#000" stroke="#000" stroke-width=".5" stroke-linecap="round" stroke-linejoin="round"/><path d="M349.436 144.929c-.378-2.795-1.513-6.289-7.568-6.289-3.406-.49-10.217 2.795-10.217 6.289 0 1.9 4.73 2.62 9.46 2.62s8.498-1.346 8.325-2.62Z" fill="#000"/><path fill-rule="evenodd" clip-rule="evenodd" d="M333.132 144.804c.029.024.071.056.132.095.311.201.861.422 1.68.615 1.616.38 3.853.558 6.167.558 2.242 0 4.207-.321 5.542-.759.618-.203 1.03-.407 1.265-.568-.19-1.17-.529-2.229-1.238-3.026-.735-.826-2.081-1.602-4.812-1.602-.07 0-.14-.005-.209-.015-1.25-.18-3.465.358-5.455 1.477-.964.542-1.775 1.167-2.326 1.797-.502.574-.708 1.057-.746 1.428Zm14.962-.203a.11.11 0 0 1-.019.021.108.108 0 0 1 .019-.021Zm-15.007.161-.01-.013c.001 0 .005.004.01.013Zm8.881-7.6c-2.144-.265-4.979.587-7.208 1.84-1.164.655-2.269 1.475-3.101 2.428-.824.942-1.483 2.136-1.483 3.499 0 1.188.764 1.984 1.487 2.452.724.468 1.652.784 2.607 1.009 1.548.364 3.456.553 5.397.614.034 1.408.025 2.978-.548 4.945-.43 1.475-.813 3.118-1.191 4.743-.251 1.076-.5 2.145-.76 3.151-.679 2.633-1.481 5.089-2.706 7.152-1.208 2.035-2.818 3.673-5.139 4.709-2.342 1.044-5.535 1.532-9.995 1.028a1.478 1.478 0 0 0-.331 2.936c4.812.544 8.569.054 11.525-1.265 2.978-1.328 5.015-3.439 6.475-5.898 1.443-2.431 2.328-5.214 3.027-7.923.168-.654.324-1.292.472-1.918 1.153 3.49 2.873 6.95 5.042 9.83 3.43 4.556 8.25 7.977 13.944 7.168a1.475 1.475 0 0 0 1.253-1.67 1.475 1.475 0 0 0-1.667-1.255c-4.145.589-8.028-1.842-11.175-6.022-3.062-4.066-5.173-9.489-5.855-14.249.592-2.192.616-4.07.583-5.483 1.895-.11 3.61-.423 4.95-.862.833-.273 1.607-.623 2.192-1.067.523-.397 1.289-1.184 1.135-2.324-.2-1.474-.627-3.415-2.016-4.977-1.427-1.603-3.645-2.571-6.914-2.591Z" fill="#000"/><path fill-rule="evenodd" clip-rule="evenodd" d="M198.606 58.858c.427-.114.882.021 1.179.35.937 1.04 2.837 2.87 5.264 5.204a691.434 691.434 0 0 1 5.306 5.144c4.6 4.519 9.731 9.775 13.443 14.468 3.595-.635 7.647-.999 11.08-1l.05-.001.194-.005.731-.016c.63-.01 1.532-.022 2.622-.022 2.178 0 5.116.044 8.141.222 3.017.176 6.163.487 8.741 1.032 1.287.271 2.475.61 3.45 1.039.944.416 1.849.986 2.367 1.814a1.183 1.183 0 0 1-.373 1.629 1.178 1.178 0 0 1-1.626-.374c-.141-.224-.519-.554-1.318-.905-.767-.338-1.781-.636-2.987-.89-2.408-.509-5.418-.811-8.391-.986a140.323 140.323 0 0 0-8.004-.217 147.95 147.95 0 0 0-3.481.042h-.047l-.014.001-.003-.062.002.062h-.036c-3.513 0-7.738.4-11.367 1.089a1.18 1.18 0 0 1-1.152-.437c-3.633-4.695-8.892-10.098-13.674-14.795a684.053 684.053 0 0 0-5.165-5.007c-2.028-1.953-3.736-3.596-4.837-4.734a2.598 2.598 0 0 0-.315.499c-.304.61-.542 1.52-.659 2.733-.234 2.418.035 5.763.865 9.618 1.658 7.703 5.497 17.177 11.599 24.907.138.174.224.384.248.605.193 1.787-.038 4.277-.433 7.009-.357 2.466-.863 5.232-1.373 8.014l-.181.994c-.572 3.128-1.125 6.238-1.472 8.999-.349 2.787-.471 5.103-.234 6.685.99 6.594 4.406 9.444 6.909 10.695a1.182 1.182 0 0 1-1.054 2.115c-3.114-1.556-7.072-5.021-8.188-12.459-.289-1.927-.126-4.522.226-7.331.356-2.836.922-6.008 1.492-9.129l.181-.993c.511-2.79 1.009-5.51 1.358-7.929.367-2.536.553-4.634.452-6.088-6.234-8.004-10.135-17.69-11.837-25.595-.859-3.994-1.172-7.6-.907-10.345.133-1.368.415-2.594.897-3.561.486-.974 1.236-1.796 2.331-2.088Z" fill="#000" stroke="#000" stroke-width=".5" stroke-linecap="round" stroke-linejoin="round"/><path fill-rule="evenodd" clip-rule="evenodd" d="m323.291 114.378-.326-.387c-3.433-4.08-6.153-7.312-8.653-9.401-1.412-1.18-2.834-2.068-4.365-2.543-1.555-.483-3.139-.513-4.821-.102-1.206.295-2.042 1.086-2.558 2.082-.491.948-.706 2.094-.778 3.267-.144 2.351.262 5.312.844 8.297.539 2.767 1.253 5.666 1.895 8.276l.166.676c.695 2.827 1.256 5.182 1.435 6.702.166 1.408-.028 3.596-.461 6.345-.382 2.424-.926 5.15-1.486 7.958l-.199.998c-.625 3.137-1.247 6.338-1.639 9.202-.387 2.828-.574 5.488-.247 7.486 1.249 7.631 5.68 11.171 9.117 12.746a1.478 1.478 0 0 0 1.227-2.687c-2.721-1.247-6.373-4.056-7.433-10.537-.25-1.528-.125-3.808.258-6.607.378-2.763.983-5.879 1.609-9.025l.2-1c.558-2.796 1.114-5.585 1.507-8.073.432-2.746.695-5.298.476-7.153-.205-1.743-.823-4.305-1.5-7.061l-.164-.667c-.645-2.622-1.342-5.453-1.866-8.145-.574-2.946-.914-5.596-.795-7.55.06-.979.23-1.659.452-2.087.196-.379.401-.515.639-.573 1.204-.294 2.242-.258 3.249.054 1.032.321 2.113.957 3.348 1.99 2.288 1.912 4.829 4.929 8.342 9.101l1.1 1.306a1.474 1.474 0 0 0 2.079.174c.65-.551 1.61-.82 2.995-.767 1.386.053 3.004.422 4.766.937.873.255 1.757.538 2.647.825l.171.055c.828.267 1.663.536 2.472.777 1.696.504 3.438.935 4.947.935 1.469 0 3.36-.394 5.261-.824l1.153-.263c1.621-.373 3.295-.757 4.954-1.032 2.061-.342 3.962-.488 5.54-.259 1.555.227 2.657.793 3.361 1.767a1.473 1.473 0 0 0 2.059.331c.66-.479.808-1.402.33-2.063-1.32-1.826-3.274-2.66-5.326-2.958-2.028-.296-4.284-.092-6.445.267-1.758.291-3.544.702-5.17 1.076-.378.087-.747.172-1.105.252-1.969.446-3.531.752-4.612.752-1.042 0-2.423-.313-4.107-.814-.776-.23-1.581-.49-2.418-.759l-.162-.053a106.36 106.36 0 0 0-2.724-.848c-1.816-.531-3.718-.986-5.479-1.053-1.282-.049-2.59.103-3.76.657Z" fill="#000"/><path fill-rule="evenodd" clip-rule="evenodd" d="m277.51 64.123-.093.126c-.624.84-1.441 1.806-2.376 2.847-1.869 2.08-4.277 4.535-6.693 6.996l-.026.027c-2.417 2.463-4.842 4.935-6.797 7.094-.98 1.083-1.829 2.074-2.493 2.935-.676.878-1.111 1.558-1.314 2.03a1.18 1.18 0 1 1-2.166-.94c.325-.75.908-1.62 1.613-2.534.717-.93 1.612-1.973 2.612-3.078 1.987-2.195 4.439-4.695 6.84-7.14l.049-.05c2.426-2.473 4.794-4.887 6.622-6.922.914-1.017 1.675-1.92 2.235-2.675.588-.793.858-1.299.926-1.547.046-.165.109-.352.204-.528.079-.149.268-.456.643-.636.486-.234.97-.117 1.289.097.257.173.408.4.486.532.167.283.287.637.379.974.099.358.191.785.273 1.265.329 1.91.563 4.897.496 8.348-.131 6.732-1.412 15.574-5.671 21.717.034.994.2 2.29.445 3.874.115.745.256 1.602.406 2.514.188 1.143.39 2.375.575 3.587.692 4.529 1.323 9.892 1.03 15.331-.293 5.441-1.513 11.02-4.572 15.944-3.072 4.944-7.945 9.142-15.389 11.889a1.183 1.183 0 0 1-.816-2.218c6.994-2.58 11.43-6.46 14.201-10.92 2.784-4.48 3.941-9.632 4.22-14.822.28-5.194-.322-10.365-1.006-14.847a285.954 285.954 0 0 0-.562-3.5c-.147-.891-.287-1.743-.419-2.596-.275-1.779-.48-3.365-.48-4.603 0-.248.079-.49.224-.692 4.008-5.55 5.324-13.977 5.455-20.704.056-2.907-.11-5.43-.35-7.175Z" fill="#000" stroke="#000" stroke-width=".5" stroke-linecap="round" stroke-linejoin="round"/><path fill-rule="evenodd" clip-rule="evenodd" d="M363.714 112.915c-1.527 1.655-2.621 3.133-3.105 4.16a1.474 1.474 0 0 1-1.964.704 1.479 1.479 0 0 1-.703-1.967c.68-1.442 2.022-3.186 3.606-4.902a50.145 50.145 0 0 1 5.549-5.136c1.981-1.572 4.061-2.959 5.93-3.807.933-.423 1.876-.741 2.768-.854.886-.112 1.867-.038 2.715.506 1.302.834 2.034 2.402 2.459 3.986.442 1.65.636 3.643.623 5.733-.026 4.06-.834 8.751-2.398 12.454.032.981.212 2.289.488 3.925.135.799.289 1.654.453 2.567l.057.319c.186 1.031.381 2.128.573 3.276.763 4.581 1.465 10.03 1.139 15.566-.325 5.543-1.684 11.244-5.098 16.278-3.426 5.051-8.84 9.308-17.059 12.086a1.478 1.478 0 0 1-.943-2.8c7.697-2.601 12.546-6.501 15.562-10.947 3.027-4.462 4.289-9.597 4.594-14.79.306-5.201-.352-10.389-1.104-14.907a258.63 258.63 0 0 0-.624-3.558c-.164-.911-.32-1.782-.458-2.597-.303-1.795-.534-3.426-.534-4.712 0-.205.043-.408.125-.595 1.455-3.307 2.253-7.73 2.277-11.583.012-1.923-.17-3.634-.522-4.949-.37-1.381-.851-2.04-1.2-2.263-.056-.037-.257-.127-.756-.064-.492.063-1.137.259-1.92.614-1.564.71-3.431 1.936-5.316 3.432a47.194 47.194 0 0 0-5.214 4.825Z" fill="#000"/><path fill-rule="evenodd" clip-rule="evenodd" d="M203.456 200.646a1.181 1.181 0 0 1 1.021 1.322c-1.563 12.281-.348 34.196 1.412 58.39.018.244-.041.487-.167.697-1.331 2.209-3.29 4.395-5.069 6.38-.431.479-.85.948-1.248 1.401-1.049 1.197-1.951 2.298-2.59 3.313-.65 1.032-.939 1.841-.939 2.47 0 1.388.91 2.609 2.745 3.572 1.826.958 4.341 1.519 6.925 1.613 2.585.094 5.098-.283 6.915-1.076 1.839-.801 2.668-1.866 2.668-3.059 0-3.834-.644-8.474-1.304-12.816l-.249-1.625c-.563-3.652-1.082-7.023-1.082-9.184 0-2.472.808-9.044 1.925-16.217 1.122-7.208 2.578-15.169 3.909-20.472a1.18 1.18 0 1 1 2.288.577c-1.305 5.197-2.748 13.074-3.866 20.259-1.124 7.221-1.897 13.6-1.897 15.853 0 1.964.486 5.12 1.055 8.824l.25 1.629c.657 4.322 1.331 9.132 1.331 13.172 0 2.57-1.873 4.262-4.086 5.227-2.235.974-5.125 1.373-7.943 1.27-2.82-.103-5.707-.712-7.934-1.881-2.217-1.164-4.009-3.028-4.009-5.666 0-1.295.568-2.564 1.302-3.731.745-1.183 1.753-2.401 2.813-3.611.441-.504.891-1.006 1.341-1.508 1.673-1.869 3.341-3.731 4.535-5.621-1.739-23.958-2.963-45.977-1.372-58.479a1.18 1.18 0 0 1 1.32-1.023Z" fill="#000" stroke="#000" stroke-width=".5" stroke-linecap="round" stroke-linejoin="round"/><path fill-rule="evenodd" clip-rule="evenodd" d="M309.889 221.037c.806.111 1.37.857 1.259 1.665-.719 5.211-.554 10.035.009 16.216.203 2.219.459 4.634.742 7.306.5 4.709 1.085 10.218 1.61 16.873.025.326-.058.652-.236.925-1.275 1.953-3.153 3.885-4.823 5.603-.399.411-.787.81-1.151 1.194-.983 1.034-1.808 1.964-2.385 2.81-.595.873-.793 1.467-.793 1.85 0 .897.633 1.842 2.334 2.666 1.66.804 3.975 1.285 6.375 1.366 2.4.08 4.715-.245 6.368-.91 1.719-.691 2.241-1.513 2.241-2.213 0-3.268-.596-7.242-1.216-11.003l-.233-1.404c-.526-3.148-1.022-6.117-1.022-8.036 0-4.277 1.595-14.504 4.081-23.644a1.475 1.475 0 1 1 2.846.777c-2.457 9.03-3.978 18.968-3.978 22.867 0 1.651.446 4.331.983 7.551l.233 1.408c.616 3.734 1.256 7.937 1.256 11.484 0 2.555-2.011 4.118-4.092 4.955-2.148.864-4.9 1.21-7.566 1.121-2.668-.09-5.42-.622-7.56-1.659-2.099-1.017-4-2.74-4-5.326 0-1.283.605-2.486 1.308-3.516.721-1.057 1.687-2.133 2.683-3.181.423-.445.851-.887 1.277-1.325 1.519-1.566 3.002-3.095 4.088-4.643-.512-6.404-1.068-11.637-1.551-16.182-.285-2.689-.546-5.137-.756-7.445-.571-6.264-.758-11.349.006-16.889a1.475 1.475 0 0 1 1.663-1.261Z" fill="#000"/><path fill-rule="evenodd" clip-rule="evenodd" d="M263.61 203.01a1.181 1.181 0 0 0-1.019 1.323c.773 5.993-.255 13.885-1.747 23.451a1861.3 1861.3 0 0 1-.634 4.01c-1.357 8.553-2.889 18.204-3.658 28.633-.018.247.041.493.17.704 1.344 2.202 3.323 4.381 5.12 6.359.434.478.858.944 1.26 1.396 1.059 1.193 1.97 2.29 2.615 3.301.656 1.029.946 1.832.946 2.454 0 1.372-.913 2.59-2.773 3.553-1.846.957-4.39 1.516-7.003 1.61-2.613.094-5.155-.283-6.994-1.074-1.866-.802-2.696-1.865-2.696-3.042 0-3.82.65-8.443 1.317-12.77l.251-1.62c.569-3.639 1.093-6.999 1.093-9.155v-.027c0-4.715 0-17.213-2.698-27.821a1.18 1.18 0 1 0-2.286.584c2.62 10.3 2.625 22.54 2.625 27.264 0 1.955-.49 5.099-1.065 8.792l-.252 1.623c-.664 4.306-1.345 9.101-1.345 13.13 0 2.572 1.898 4.256 4.125 5.214 2.253.969 5.167 1.366 8.01 1.264 2.844-.102 5.757-.709 8.002-1.872 2.233-1.157 4.048-3.014 4.048-5.653 0-1.296-.575-2.564-1.316-3.726-.753-1.18-1.771-2.394-2.841-3.599-.446-.502-.901-1.003-1.355-1.504-1.688-1.86-3.371-3.715-4.576-5.596.77-10.175 2.264-19.589 3.605-28.038.217-1.369.43-2.712.636-4.029 1.48-9.489 2.581-17.729 1.756-24.119a1.18 1.18 0 0 0-1.321-1.02Z" fill="#000" stroke="#000" stroke-width=".5" stroke-linecap="round" stroke-linejoin="round"/><path fill-rule="evenodd" clip-rule="evenodd" d="M365.885 219.855a1.477 1.477 0 0 0-1.256 1.668c.72 5.138.037 10.151-1.089 16.647-.145.838-.297 1.7-.454 2.587-1.054 5.959-2.314 13.091-3.051 22.284-.026.33.059.66.242.936 1.298 1.958 3.21 3.895 4.911 5.618.407.413.802.813 1.174 1.198 1 1.037 1.841 1.971 2.43 2.82.607.876.806 1.47.806 1.849 0 .89-.64 1.842-2.385 2.675-1.697.809-4.063 1.292-6.512 1.374-2.45.081-4.815-.246-6.506-.916-1.765-.699-2.293-1.529-2.293-2.222 0-3.276.607-7.26 1.238-11.033l.238-1.408c.536-3.158 1.042-6.137 1.042-8.063v-.014c0-4.127 0-12.068-2.572-21.375a1.475 1.475 0 1 0-2.842.788c2.461 8.91 2.464 16.522 2.464 20.601 0 1.654-.454 4.34-1 7.57-.078.461-.158.932-.238 1.413-.628 3.745-1.28 7.963-1.28 11.521 0 2.573 2.053 4.136 4.159 4.97 2.18.863 4.976 1.21 7.688 1.121 2.712-.09 5.509-.623 7.682-1.66 2.126-1.014 4.067-2.738 4.067-5.342 0-1.292-.619-2.502-1.333-3.533-.734-1.059-1.719-2.138-2.732-3.189-.431-.447-.867-.89-1.301-1.33-1.546-1.569-3.057-3.103-4.164-4.655.73-8.793 1.938-15.632 2.971-21.474.157-.89.311-1.758.457-2.606 1.125-6.488 1.895-11.916 1.104-17.562a1.476 1.476 0 0 0-1.665-1.258Z" fill="#000"/><path fill-rule="evenodd" clip-rule="evenodd" d="M209.759 139.816c.628.174.996.825.822 1.454-.697 2.518-1.881 5.194-3.224 8.023-.39.82-.792 1.653-1.203 2.502-1.02 2.109-2.087 4.317-3.118 6.675-2.879 6.585-5.39 14.168-5.39 23.139 0 9.169.444 15.126 1.444 20.185.999 5.053 2.563 9.259 4.869 14.943a1.18 1.18 0 1 1-2.186.89c-2.315-5.707-3.952-10.087-4.997-15.373-1.044-5.28-1.489-11.414-1.489-20.645 0-9.428 2.644-17.353 5.587-24.087 1.051-2.402 2.15-4.675 3.176-6.799.406-.839.8-1.654 1.176-2.445 1.34-2.823 2.444-5.338 3.081-7.639a1.179 1.179 0 0 1 1.452-.823Z" fill="#000" stroke="#000" stroke-width=".5" stroke-linecap="round" stroke-linejoin="round"/><path fill-rule="evenodd" clip-rule="evenodd" d="M302.056 198.568c.815 0 1.475.662 1.475 1.477 0 15.827 2.033 24.478 6.331 33.017a1.478 1.478 0 0 1-.653 1.984 1.473 1.473 0 0 1-1.981-.654c-4.564-9.069-6.647-18.21-6.646-34.347 0-.815.66-1.477 1.474-1.477Z" fill="#000"/><path fill-rule="evenodd" clip-rule="evenodd" d="M265.699 139.816a1.181 1.181 0 0 0-.822 1.454c.355 1.283.731 2.582 1.116 3.911 2.504 8.655 5.389 18.622 5.389 34.339 0 18.09-5.946 35.368-10.531 46.671a1.182 1.182 0 0 0 .649 1.54 1.179 1.179 0 0 0 1.537-.65c4.617-11.382 10.705-29.004 10.705-47.561 0-16.067-2.973-26.332-5.486-35.01a341.586 341.586 0 0 1-1.105-3.871 1.179 1.179 0 0 0-1.452-.823Z" fill="#000" stroke="#000" stroke-width=".5" stroke-linecap="round" stroke-linejoin="round"/><path fill-rule="evenodd" clip-rule="evenodd" d="M371.65 169.083a1.479 1.479 0 0 0-.996 1.836c.592 2.003 1.184 3.643 1.729 5.154l.099.274c.574 1.592 1.09 3.048 1.531 4.725.877 3.329 1.484 7.63 1.484 15.48 0 12.96-4.75 23.296-8.834 32.184-.788 1.716-1.552 3.378-2.252 4.994a1.478 1.478 0 0 0 .766 1.943 1.473 1.473 0 0 0 1.94-.767c.662-1.53 1.4-3.13 2.172-4.806 4.093-8.886 9.158-19.881 9.158-33.548-.001-8.003-.619-12.577-1.582-16.234-.478-1.816-1.034-3.382-1.609-4.975l-.095-.263c-.547-1.517-1.113-3.082-1.678-4.999a1.476 1.476 0 0 0-1.833-.998Z" fill="#000"/><path fill-rule="evenodd" clip-rule="evenodd" d="M277.746 219.174c-3.013-.658-7.07.153-11.654 2.597a1.182 1.182 0 0 1-1.108-2.086c4.829-2.575 9.482-3.646 13.264-2.821 3.904.852 6.658 3.676 7.621 8.296 1.157 5.554-1.652 11.808-6.173 17.287-4.561 5.528-11.068 10.526-17.852 13.628a1.182 1.182 0 0 1-.98-2.15c6.465-2.956 12.684-7.737 17.014-12.984 4.37-5.296 6.616-10.812 5.681-15.298-.795-3.816-2.922-5.838-5.813-6.469Z" fill="#000" stroke="#000" stroke-width=".5" stroke-linecap="round" stroke-linejoin="round"/><path fill-rule="evenodd" clip-rule="evenodd" d="M380.267 227.71c-2.681-.562-6.35.125-10.551 2.278a1.474 1.474 0 0 1-1.985-.643 1.479 1.479 0 0 1 .642-1.988c4.506-2.309 8.893-3.294 12.498-2.539 1.826.383 3.449 1.215 4.735 2.538 1.283 1.32 2.163 3.06 2.618 5.157 1.118 5.157-1.603 10.863-5.806 15.759-4.261 4.962-10.329 9.439-16.652 12.217a1.477 1.477 0 0 1-1.184-2.705c5.933-2.607 11.637-6.824 15.6-11.439 4.02-4.682 5.976-9.438 5.159-13.205-.358-1.652-1.013-2.864-1.848-3.723-.832-.856-1.909-1.43-3.226-1.707Z" fill="#000"/><path fill-rule="evenodd" clip-rule="evenodd" d="M213.075 255.724a1.18 1.18 0 0 1 1.545-.632c3.489 1.469 8.976 3.511 15.017 4.304 6.045.792 12.53.319 18.124-3.109a1.179 1.179 0 0 1 1.622.392c.34.557.165 1.284-.391 1.625-6.222 3.812-13.317 4.267-19.661 3.435-6.348-.832-12.06-2.967-15.625-4.468a1.182 1.182 0 0 1-.631-1.547Z" fill="#000" stroke="#000" stroke-width=".5" stroke-linecap="round" stroke-linejoin="round"/><path fill-rule="evenodd" clip-rule="evenodd" d="M319.536 259.254a1.474 1.474 0 0 1 1.87-.926c3.24 1.099 8.335 2.627 13.946 3.219 5.625.594 11.631.233 16.783-2.31a1.474 1.474 0 0 1 1.974.673c.36.731.06 1.617-.671 1.978-5.849 2.887-12.486 3.222-18.395 2.598-5.925-.626-11.256-2.231-14.583-3.359a1.478 1.478 0 0 1-.924-1.873Z" fill="#000"/><path fill-rule="evenodd" clip-rule="evenodd" d="M202.631 227.753a1.181 1.181 0 0 1-1.113 1.245c-4.463.248-8.037 1.897-10.233 4.233-2.174 2.312-3.046 5.333-2.121 8.571.936 3.282 3.248 5.603 6.061 7.321 2.823 1.725 6.051 2.78 8.659 3.563a1.183 1.183 0 0 1-.678 2.264c-2.622-.787-6.106-1.913-9.21-3.809-3.114-1.903-5.946-4.642-7.101-8.689-1.168-4.091-.035-7.963 2.673-10.842 2.685-2.855 6.869-4.697 11.82-4.972a1.18 1.18 0 0 1 1.243 1.115Z" fill="#000" stroke="#000" stroke-width=".5" stroke-linecap="round" stroke-linejoin="round"/><path fill-rule="evenodd" clip-rule="evenodd" d="M310.953 234.834a1.476 1.476 0 0 1-1.398 1.55c-4.261.219-7.625 1.667-9.663 3.661-1.998 1.956-2.756 4.447-1.93 7.109.851 2.746 2.97 4.738 5.651 6.245 2.684 1.509 5.763 2.437 8.274 3.131a1.477 1.477 0 0 1-.785 2.849c-2.525-.698-5.909-1.703-8.933-3.404-3.027-1.702-5.861-4.195-7.024-7.945-1.189-3.835-.016-7.453 2.686-10.098 2.663-2.607 6.769-4.252 11.574-4.498a1.476 1.476 0 0 1 1.548 1.4Z" fill="#000"/><path fill-rule="evenodd" clip-rule="evenodd" d="M202.299 252.815a1.183 1.183 0 0 1-.694 1.52c-1.474.549-3.597 1.135-5.914 1.763l-.587.16c-2.182.591-4.539 1.23-6.803 1.937-2.474.772-4.783 1.61-6.587 2.527-1.87.951-2.932 1.859-3.282 2.641-.376.842-.31 1.599.056 2.287.387.727 1.148 1.437 2.243 1.986 2.193 1.1 5.406 1.387 8.343.125 5.123-2.202 12.123-6.574 14.995-8.496a1.179 1.179 0 0 1 1.637.326 1.183 1.183 0 0 1-.326 1.639c-2.896 1.938-10.045 6.412-15.375 8.703-3.596 1.545-7.535 1.218-10.33-.183-1.399-.702-2.591-1.713-3.269-2.988-.699-1.314-.81-2.838-.127-4.365.71-1.588 2.451-2.808 4.367-3.782 1.981-1.008 4.439-1.892 6.953-2.677 2.309-.721 4.709-1.371 6.884-1.961l.591-.16c2.352-.638 4.357-1.194 5.708-1.697a1.178 1.178 0 0 1 1.517.695Z" fill="#000" stroke="#000" stroke-width=".5" stroke-linecap="round" stroke-linejoin="round"/><path fill-rule="evenodd" clip-rule="evenodd" d="M310.174 256.296a1.477 1.477 0 0 1-.92 1.875c-1.395.476-3.396.981-5.56 1.519l-.549.136c-2.044.507-4.246 1.054-6.36 1.658-2.312.661-4.455 1.374-6.121 2.15-.832.387-1.505.772-2.007 1.148-.513.384-.764.697-.87.913-.272.557-.224 1.013.035 1.459.298.513.928 1.077 1.92 1.532 1.98.909 4.911 1.153 7.587.1 4.768-1.877 11.301-5.611 13.986-7.256a1.472 1.472 0 0 1 2.027.489 1.478 1.478 0 0 1-.488 2.031c-2.716 1.664-9.429 5.511-14.447 7.486-3.44 1.354-7.204 1.071-9.894-.164-1.343-.616-2.541-1.528-3.24-2.732-.738-1.269-.856-2.769-.135-4.243.39-.799 1.042-1.449 1.753-1.981.721-.541 1.59-1.024 2.53-1.462 1.877-.874 4.197-1.637 6.555-2.311 2.166-.62 4.418-1.178 6.453-1.683l.555-.138c2.205-.548 4.069-1.021 5.319-1.448a1.474 1.474 0 0 1 1.871.922Z" fill="#000"/><path fill-rule="evenodd" clip-rule="evenodd" d="M263.229 252.928a1.179 1.179 0 0 1 1.665.113c.641.735 1.913 1.465 3.661 2.313.44.213.906.432 1.386.658 1.322.621 2.75 1.292 4.029 2.03 1.738 1.004 3.433 2.255 4.36 3.935.987 1.788 1.004 3.87-.223 6.22-1.989 3.811-10.202 5.862-17.063-2.234a1.183 1.183 0 0 1 .136-1.665 1.178 1.178 0 0 1 1.663.136c6.196 7.312 12.238 4.46 13.173 2.668.921-1.764.793-2.996.249-3.982-.603-1.093-1.822-2.077-3.473-3.03-1.186-.684-2.474-1.29-3.766-1.897-.501-.235-1.003-.471-1.499-.712-1.68-.814-3.402-1.73-4.41-2.885a1.183 1.183 0 0 1 .112-1.668Z" fill="#000" stroke="#000" stroke-width=".5" stroke-linecap="round" stroke-linejoin="round"/><path fill-rule="evenodd" clip-rule="evenodd" d="M366.104 256.923a1.473 1.473 0 0 1 2.086-.025c.555.542 1.716 1.122 3.418 1.826.418.173.864.352 1.324.536 1.275.511 2.665 1.068 3.907 1.68 1.663.819 3.388 1.883 4.358 3.383.51.789.816 1.704.787 2.734-.029 1.013-.379 2.026-.994 3.031-.561.917-1.541 1.639-2.649 2.127-1.136.5-2.526.808-4.058.808-3.093 0-6.751-1.252-10.154-4.678a1.479 1.479 0 0 1 .005-2.089 1.471 1.471 0 0 1 2.085.005c2.884 2.902 5.801 3.807 8.064 3.807 1.145 0 2.128-.231 2.872-.558.771-.34 1.177-.732 1.32-.966.419-.684.55-1.197.561-1.571.01-.359-.088-.693-.314-1.044-.504-.778-1.585-1.55-3.185-2.338-1.132-.557-2.358-1.049-3.599-1.546-.485-.194-.971-.389-1.455-.59-1.599-.661-3.321-1.433-4.354-2.443a1.479 1.479 0 0 1-.025-2.089Z" fill="#000"/><path fill-rule="evenodd" clip-rule="evenodd" d="M206.778 146.685a1.18 1.18 0 0 1 1.664-.128c.106.091.455.3 1.157.599.661.282 1.53.601 2.572.944 2.082.684 4.795 1.442 7.795 2.156 6.014 1.433 13.076 2.668 18.414 2.813 10.818.292 21.762-1.478 28.856-5.741a1.177 1.177 0 0 1 1.618.405c.336.56.154 1.285-.404 1.621-7.654 4.6-19.125 6.375-30.134 6.077-5.574-.151-12.817-1.427-18.896-2.875-3.047-.726-5.826-1.501-7.985-2.21a35.93 35.93 0 0 1-2.759-1.015c-.704-.3-1.359-.627-1.77-.979a1.185 1.185 0 0 1-.128-1.667Z" fill="#000" stroke="#000" stroke-width=".5" stroke-linecap="round" stroke-linejoin="round"/><path fill-rule="evenodd" clip-rule="evenodd" d="M252.73 144.096a1.184 1.184 0 0 1-.706 1.515c-3.417 1.245-7.99 1.844-12.459 1.844-4.465 0-8.974-.599-12.255-1.851a1.183 1.183 0 0 1-.682-1.525c.232-.61.913-.916 1.522-.683 2.913 1.111 7.106 1.695 11.415 1.695 4.306 0 8.581-.583 11.653-1.702a1.18 1.18 0 0 1 1.512.707Z" fill="#000" stroke="#000" stroke-width=".5" stroke-linecap="round" stroke-linejoin="round"/><path d="M241.298 161.955c0 3.328-2.291 6.181-5.461 6.181-3.171 0-4.548-2.852-4.567-6.181-.02-3.329 2.291-5.707 4.567-6.182 2.275-.476 5.461 2.853 5.461 6.182Z" fill="#A2A2A2"/><path fill-rule="evenodd" clip-rule="evenodd" d="M237.606 164.591c1.951 0 3.692-1.798 3.692-4.409 0-1.128-.562-2.384-1.416-3.324-.933-1.025-1.703-1.167-1.914-1.122-1.446.302-3.174 1.944-3.159 4.435.009 1.462.32 2.63.81 3.375.434.659 1.029 1.045 1.987 1.045Zm0 1.773c3.17 0 5.461-2.854 5.461-6.182 0-3.329-3.185-6.657-5.461-6.182-2.275.476-4.586 2.853-4.567 6.182.02 3.329 1.397 6.182 4.567 6.182Z" fill="#000"/><path d="M373.173 176.409c-27.724 26-61.053 4.136-64.002 1.477-2.95-2.076-9.143 21.273-5.309 24.819 23.232 21.484 71.376-23.932 69.311-26.296Z" fill="#A2A2A2"/><path fill-rule="evenodd" clip-rule="evenodd" d="M371.146 171.093c.399.02.773.201 1.036.502.52.596.448 1.296.385 1.611a3.649 3.649 0 0 1-.378.981c-.311.582-.804 1.266-1.407 2.006-1.223 1.498-3.078 3.433-5.399 5.586-4.649 4.313-11.278 9.602-18.712 14.141-7.42 4.531-15.738 8.372-23.75 9.689-8.043 1.322-15.919.112-22.16-5.66-.823-.76-1.227-1.886-1.44-2.969-.222-1.124-.282-2.442-.236-3.831.091-2.784.619-6.073 1.352-9.146.733-3.068 1.693-6.012 2.69-8.093.488-1.018 1.043-1.956 1.666-2.582.311-.313.741-.653 1.292-.808a2.138 2.138 0 0 1 1.971.427c.601.542 3.109 2.339 7.026 4.328 3.886 1.973 9.072 4.091 15 5.333 11.823 2.476 26.556 1.473 39.983-11.118a1.47 1.47 0 0 1 1.081-.397Zm-64.458 4.545c-.245.316-.554.824-.902 1.55-.873 1.824-1.775 4.548-2.48 7.502-.704 2.948-1.19 6.031-1.274 8.557-.041 1.266.02 2.338.182 3.161.171.865.412 1.244.548 1.37 5.374 4.97 12.228 6.14 19.682 4.915 7.484-1.23 15.43-4.862 22.692-9.295 6.256-3.82 11.935-8.192 16.281-12.015-11.147 5.973-22.481 6.098-31.938 4.117-6.239-1.307-11.671-3.528-15.73-5.59-3.345-1.698-5.818-3.32-7.061-4.272Z" fill="#000"/><ellipse rx="2.763" ry="3.229" transform="rotate(-2.656 2325.135 -4824.004) skewX(-.009)" fill="#000"/><ellipse rx="3.015" ry="3.246" transform="matrix(.99909 -.04268 .05014 .99874 322.073 134.793)" fill="#000"/><ellipse rx="2.763" ry="3.229" transform="rotate(-2.656 2369.148 -5418.806) skewX(-.009)" fill="#000"/><ellipse rx="3.015" ry="3.246" transform="matrix(.99909 -.04268 .05014 .99874 361.916 135.493)" fill="#000"/></g></svg>