<svg width="32" height="32" viewBox="0 0 32 32" fill="none" xmlns="http://www.w3.org/2000/svg">
<circle cx="16" cy="16" r="16" fill="#A9E2C1"/>
<path d="M20.7369 6.26012C20.6024 6.26422 20.4777 6.33231 20.4022 6.44387C19.5089 7.75555 18.3843 8.59553 17.1472 9.48887C17.057 9.55286 16.9963 9.64965 16.9766 9.75792L16.5829 11.9957L16.0907 10.9194C16.0382 10.8029 15.9356 10.716 15.8118 10.684C15.6879 10.652 15.5567 10.6783 15.4541 10.7554C12.9982 12.6421 11.255 15.4648 11.7201 21.3734C10.9031 22.2798 10.0335 23.1551 9.12135 24.0114C9.04014 24.0877 8.99256 24.1935 8.98846 24.3051C8.98518 24.4166 9.02701 24.5257 9.1033 24.6069C9.18041 24.6873 9.28623 24.7349 9.39779 24.7374C9.51017 24.7407 9.61764 24.6988 9.69884 24.6217C10.6849 23.6956 11.6167 22.7391 12.4944 21.754C15.783 21.27 18.0035 19.7319 19.3324 17.239C20.7023 14.6698 21.1699 11.1416 21.1699 6.67994C21.1699 6.56592 21.1239 6.45764 21.0419 6.37807C20.9607 6.29932 20.8508 6.25666 20.7368 6.25994L20.7369 6.26012ZM20.2907 7.93357C20.2013 11.7102 19.7263 14.7216 18.5976 16.8388C17.5221 18.8568 15.8896 20.1291 13.3935 20.7108C14.7118 19.126 15.8921 17.4606 16.9111 15.7103C16.9931 15.5749 16.9923 15.406 16.9094 15.2714C16.8257 15.1369 16.6748 15.0606 16.5173 15.0737C16.3803 15.086 16.2573 15.164 16.1892 15.2837C15.1367 17.0925 13.9079 18.8119 12.5207 20.4485C12.309 15.6882 13.6092 13.4061 15.5592 11.7662L16.3795 13.5709C16.4558 13.7366 16.6313 13.8343 16.8126 13.8113C16.9939 13.7891 17.1399 13.6521 17.1735 13.4725L17.7773 10.06C18.6501 9.42835 19.5195 8.78012 20.2907 7.93357Z" fill="black"/>
</svg>