<svg width="32" height="32" viewBox="0 0 32 32" fill="none" xmlns="http://www.w3.org/2000/svg">
<circle cx="16" cy="16" r="16" fill="#A9E2C1"/>
<path fill-rule="evenodd" clip-rule="evenodd" d="M20.1295 17.8171C20.7338 18.3711 21.1369 19.1766 21.1369 20.0834C21.1369 22.1485 19.2736 22.954 17.5111 22.4001C16.5037 22.0976 15.4969 22.0976 14.4896 22.4001C12.7269 22.954 10.8638 22.1485 10.8638 20.0834C10.8638 19.1767 11.2668 18.3712 11.8711 17.8171C12.3245 17.414 12.6264 16.9612 12.8785 16.3563C13.3822 15.1477 14.5907 14.2913 16.0007 14.2913C17.4105 14.2913 18.6191 15.1471 19.1229 16.3563C19.3744 16.9606 19.6769 17.414 20.1302 17.8171H20.1295ZM19.5755 18.4214C19.0215 17.9177 18.6185 17.414 18.3669 16.7092C17.9638 15.7521 17.0074 15.1479 16 15.1479C14.9927 15.1479 14.0362 15.7522 13.6331 16.7092C13.3816 17.4141 12.9785 17.9178 12.4245 18.4214C11.9712 18.8748 11.7196 19.4287 11.7196 20.0834C11.7196 21.4932 13.0288 21.9466 14.2374 21.5944C15.446 21.2417 16.554 21.2417 17.7627 21.5944C19.0216 21.9471 20.2805 21.4938 20.2805 20.0834C20.2805 19.4287 20.0289 18.8747 19.5755 18.4214Z" fill="black"/>
<path fill-rule="evenodd" clip-rule="evenodd" d="M13.5826 9.45752C14.4385 9.45752 15.1439 10.3134 15.1439 11.3711C15.1439 12.3784 14.4389 13.2344 13.5826 13.2344C12.7267 13.2344 12.0715 12.3785 12.0715 11.3711C12.0715 10.3134 12.7262 9.45752 13.5826 9.45752ZM13.5826 10.3134C13.1292 10.3134 12.8776 10.968 12.8776 11.3711C12.8776 11.7238 13.1292 12.3784 13.5826 12.3784C14.0863 12.3784 14.2875 11.7238 14.2875 11.3711C14.2875 10.968 14.0863 10.3134 13.5826 10.3134Z" fill="black"/>
<path fill-rule="evenodd" clip-rule="evenodd" d="M18.4173 9.45752C19.2731 9.45752 19.9786 10.3134 19.9786 11.3711C19.9786 12.3784 19.2736 13.2344 18.4173 13.2344C17.5614 13.2344 16.856 12.3785 16.856 11.3711C16.856 10.3134 17.5609 9.45752 18.4173 9.45752ZM18.4173 10.3134C17.9639 10.3134 17.7123 10.968 17.7123 11.3711C17.7123 11.7238 17.9639 12.3784 18.4173 12.3784C18.8706 12.3784 19.1222 11.7238 19.1222 11.3711C19.1222 10.968 18.8706 10.3134 18.4173 10.3134Z" fill="black"/>
<path fill-rule="evenodd" clip-rule="evenodd" d="M22.0429 13.3859C22.7982 13.6375 23.2012 14.5442 22.8988 15.5012C22.6472 16.408 21.7908 17.0123 21.0355 16.7601C20.2803 16.5589 19.8772 15.6019 20.1796 14.6449C20.4312 13.7381 21.2876 13.1841 22.0429 13.3859ZM21.7914 14.1915C21.3883 14.0909 21.0864 14.5945 20.9858 14.8964C20.8852 15.1989 20.8852 15.8535 21.2882 15.9541C21.641 16.0547 21.9932 15.551 22.0938 15.2492C22.1944 14.9467 22.1944 14.3424 21.7914 14.1915Z" fill="black"/>
<path fill-rule="evenodd" clip-rule="evenodd" d="M9.9569 13.3859C9.20166 13.6375 8.7986 14.5442 9.10102 15.5012C9.35259 16.408 10.209 17.0123 10.9643 16.7601C11.7196 16.5589 12.1226 15.6019 11.8711 14.6449C11.5686 13.7381 10.7128 13.1841 9.9575 13.3859H9.9569ZM10.2085 14.1915C9.80542 14.3424 9.80542 14.9467 9.90604 15.2492C10.0067 15.5516 10.3594 16.0547 10.7116 15.9541C11.1146 15.8535 11.1146 15.1989 11.014 14.8964C10.9637 14.594 10.611 14.0909 10.2085 14.1915Z" fill="black"/>
</svg>