<svg width="32" height="32" viewBox="0 0 32 32" fill="none" xmlns="http://www.w3.org/2000/svg">
<circle cx="16" cy="16" r="16" fill="#A9E2C1"/>
<g clip-path="url(#clip0_1374_3215)">
<g clip-path="url(#clip1_1374_3215)">
<path d="M22.8466 10.411C22.8357 10.3855 22.8216 10.3615 22.8044 10.3394C22.7833 10.3088 22.7728 10.2781 22.7516 10.2526L21.3003 8.71922C21.25 8.66777 21.1894 8.62674 21.1223 8.59862C21.0552 8.57051 20.9828 8.55589 20.9097 8.55566C20.7776 8.55721 20.6503 8.60432 20.5508 8.68855C20.4489 8.78166 20.3885 8.90963 20.3826 9.04521C20.3767 9.18078 20.4257 9.31323 20.5191 9.41433L21.2211 10.1554C18.4661 10.4672 17.0675 11.9494 15.5 14.2597C15.2941 14.5612 15.0883 14.873 14.8772 15.2001C14.8719 15.2103 14.8614 15.2206 14.8561 15.2308L14.6661 15.5272C13.0405 18.0317 12.2278 19.289 9.37775 19.289H8.63886C8.49889 19.289 8.36464 19.3428 8.26567 19.4387C8.16669 19.5346 8.11108 19.6646 8.11108 19.8001C8.11108 19.9357 8.16669 20.0657 8.26567 20.1615C8.36464 20.2574 8.49889 20.3112 8.63886 20.3112H9.37775C12.7661 20.3112 13.8744 18.6654 15.5 16.161C15.6055 16.3246 15.7111 16.4881 15.8114 16.6414C15.9169 16.7999 16.0225 16.9583 16.128 17.1117C17.3894 18.967 18.5558 20.1732 21.1736 20.2959L20.5191 20.9859C20.4257 21.087 20.3767 21.2194 20.3826 21.355C20.3885 21.4906 20.4489 21.6186 20.5508 21.7117C20.6503 21.7959 20.7776 21.843 20.9097 21.8446C20.9828 21.8443 21.0552 21.8297 21.1223 21.8016C21.1894 21.7735 21.25 21.7325 21.3003 21.681L22.7516 20.1477C22.7728 20.1221 22.7833 20.0914 22.8044 20.0608C22.8215 20.0387 22.8357 20.0147 22.8466 19.9892C22.8732 19.9312 22.8875 19.8687 22.8889 19.8052V19.795C22.8875 19.7316 22.8732 19.669 22.8466 19.611C22.8357 19.5855 22.8216 19.5615 22.8044 19.5394C22.7833 19.5088 22.7728 19.4781 22.7516 19.4526L21.3003 17.9192C21.2049 17.8197 21.0727 17.7608 20.9326 17.7554C20.7924 17.75 20.6558 17.7986 20.5526 17.8904C20.4493 17.9823 20.3879 18.11 20.3816 18.2457C20.3753 18.3814 20.4248 18.5139 20.5191 18.6143L21.1472 19.2737C18.9094 19.151 18.0333 18.1134 16.7455 16.161C16.6453 16.0077 16.5397 15.8441 16.4341 15.6806C16.4025 15.6294 16.3655 15.5783 16.3339 15.5272L16.1439 15.2308C16.1386 15.2206 16.128 15.2103 16.1228 15.2001C17.6428 12.9052 18.7828 11.5508 21.0733 11.2032L20.5191 11.7859C20.4257 11.887 20.3767 12.0194 20.3826 12.155C20.3885 12.2906 20.4489 12.4186 20.5508 12.5117C20.6503 12.5959 20.7776 12.643 20.9097 12.6446C20.9828 12.6443 21.0552 12.6297 21.1223 12.6016C21.1894 12.5735 21.25 12.5325 21.3003 12.481L22.7516 10.9477C22.7728 10.9221 22.7833 10.8914 22.8044 10.8608C22.8215 10.8387 22.8357 10.8147 22.8466 10.7892C22.8732 10.7312 22.8875 10.6687 22.8889 10.6052V10.595C22.8875 10.5316 22.8732 10.469 22.8466 10.411Z" fill="black"/>
<path d="M8.63886 11.1111C11.4466 11.1111 12.7555 12.1895 14.2386 14.2646C14.4497 13.9478 14.6555 13.6411 14.8561 13.3498C13.3203 11.29 11.7422 10.0889 8.63886 10.0889C8.49889 10.0889 8.36464 10.1427 8.26567 10.2386C8.16669 10.3344 8.11108 10.4644 8.11108 10.6C8.11108 10.7355 8.16669 10.8655 8.26567 10.9614C8.36464 11.0572 8.49889 11.1111 8.63886 11.1111Z" fill="black"/>
</g>
</g>
<defs>
<clipPath id="clip0_1374_3215">
<rect width="20" height="20" fill="white" transform="translate(6 6)"/>
</clipPath>
<clipPath id="clip1_1374_3215">
<rect width="19" height="23" fill="white" transform="translate(6 6)"/>
</clipPath>
</defs>
</svg>