<svg width="32" height="32" viewBox="0 0 32 32" fill="none" xmlns="http://www.w3.org/2000/svg">
<circle cx="16" cy="16" r="16" fill="#A9E2C1"/>
<path d="M12.0418 8.66675C8.92015 8.66675 6.8335 11.2971 6.8335 14.2247C6.8335 16.9711 8.35367 19.345 10.2124 21.2189C12.0712 23.0928 14.2895 24.4814 15.8114 25.2871C15.9302 25.3489 16.0702 25.3489 16.189 25.2871C17.7108 24.4813 19.9292 23.0925 21.7879 21.2189C23.6466 19.3459 25.1668 16.972 25.1668 14.2247C25.1668 11.2971 23.0802 8.66675 19.9585 8.66675C18.1177 8.66675 16.8954 9.62953 16.0002 10.9314C15.105 9.62959 13.8826 8.66675 12.0418 8.66675ZM12.0418 9.52181C13.8265 9.52181 14.8047 10.4353 15.642 11.8732C15.7169 12.0027 15.8528 12.082 16.0001 12.082C16.1474 12.082 16.2833 12.0027 16.3582 11.8732C17.1955 10.4353 18.1737 9.52181 19.9583 9.52181C22.6308 9.52181 24.3333 11.7037 24.3333 14.2247C24.3333 16.6454 22.971 18.8206 21.2019 20.6043C19.497 22.3228 17.46 23.6295 16 24.4188C14.5401 23.6297 12.5032 22.3228 10.7982 20.6043C9.02898 18.8215 7.66674 16.6454 7.66674 14.2247C7.66674 11.7037 9.36929 9.52181 12.0418 9.52181Z" fill="black"/>
<path d="M8.47468 17.3192H12.2766H12.8223C12.9929 17.3192 13.1924 17.2241 13.2689 17.0629C13.4839 16.6163 13.6979 16.1687 13.9098 15.7191C14.253 15.0007 14.5972 14.2823 14.9414 13.5639C15.0189 13.3985 15.0985 13.2351 15.1771 13.0697C14.8618 13.0284 14.5465 12.9871 14.2313 12.9457C14.529 13.8471 14.8225 14.7526 15.1202 15.6539C15.5885 17.0804 16.0578 18.5089 16.5261 19.9355C16.6346 20.2642 16.7411 20.5888 16.8486 20.9175C16.9189 21.1263 17.1153 21.3083 17.3468 21.2979C17.5949 21.2876 17.7552 21.1408 17.8451 20.9175C18.3226 19.7546 18.8012 18.5917 19.2767 17.4287C19.3439 17.2633 19.4111 17.1 19.4783 16.9346C19.3129 17.0617 19.1455 17.1878 18.9801 17.315H20.5151H22.9629H23.5232C23.794 17.315 24.0524 17.0772 24.04 16.7981C24.0276 16.519 23.8126 16.2813 23.5232 16.2813H21.9881H19.5403H18.9801C18.7299 16.2813 18.5687 16.4467 18.4818 16.6617C18.0043 17.8246 17.5257 18.9875 17.0502 20.1505C16.983 20.3159 16.9158 20.4792 16.8486 20.6446H17.8461C17.5484 19.7433 17.2548 18.8377 16.9571 17.9365C16.4889 16.51 16.0196 15.0814 15.5513 13.6548C15.4428 13.3261 15.3363 13.0015 15.2288 12.6728C15.1647 12.4744 15.0096 12.3317 14.7998 12.3028C14.6117 12.2769 14.3739 12.3648 14.286 12.5488C14.071 12.9953 13.8571 13.4429 13.6451 13.8926C13.302 14.611 12.9577 15.3294 12.6135 16.0478C12.536 16.2132 12.4564 16.3765 12.3779 16.5419C12.5277 16.4572 12.6756 16.3714 12.8244 16.2856H9.02253H8.47674C8.20592 16.2856 7.94749 16.5233 7.9599 16.8024C7.96817 17.0815 8.18318 17.3192 8.47468 17.3192Z" fill="black"/>
</svg>