<svg width="32" height="32" viewBox="0 0 32 32" fill="none" xmlns="http://www.w3.org/2000/svg">
<circle cx="16" cy="16" r="16" fill="#A9E2C1"/>
<path d="M21.8478 16.0217C22.2943 15.4536 22.5418 14.754 22.5418 14.0255C22.5418 12.2255 21.0786 10.7616 19.28 10.7616C18.8328 10.7616 18.3961 10.8544 17.9883 11.0337C17.629 9.25129 16.047 7.8999 14.1682 7.8999C12.0159 7.8999 10.2651 9.64999 10.2651 11.8016C10.2651 12.4555 10.4303 13.0911 10.7411 13.6577C9.37492 13.8377 8.31738 15.0091 8.31738 16.4231C8.31738 17.6606 9.13019 18.7139 10.2495 19.0766C9.90919 19.5998 9.72286 20.2115 9.72286 20.8373C9.72356 22.6359 11.1875 24.0998 12.9875 24.0998C14.3446 24.0998 15.5743 23.2462 16.0468 21.9756C16.1333 21.7428 16.0152 21.4834 15.7817 21.3969C15.5483 21.3104 15.2895 21.4286 15.203 21.662C14.8613 22.5817 13.9705 23.1997 12.9874 23.1997C11.6838 23.1997 10.6235 22.1401 10.6235 20.8372C10.6235 20.1728 10.9012 19.5533 11.4061 19.0949C11.5432 18.9704 11.5903 18.7736 11.5235 18.6006C11.4567 18.4269 11.2901 18.313 11.1044 18.3123C10.0638 18.3095 9.21732 17.4622 9.21732 16.423C9.21732 15.3817 10.0646 14.5337 11.1066 14.5337C11.2416 14.5337 11.385 14.5527 11.5461 14.5921C11.7387 14.6392 11.9405 14.5541 12.0418 14.3826C12.1423 14.211 12.1177 13.993 11.982 13.8475C11.4553 13.2843 11.1657 12.5579 11.1657 11.8007C11.1642 10.1463 12.5114 8.79974 14.1681 8.79974C15.8042 8.79974 17.1487 10.1329 17.1642 11.7726C17.1656 11.9414 17.2619 12.0954 17.4131 12.1713C17.5642 12.2465 17.7449 12.2311 17.8813 12.1305C18.2969 11.8239 18.7806 11.6622 19.2799 11.6622C20.582 11.6622 21.6416 12.7225 21.6416 14.0262C21.6416 14.718 21.3301 15.3748 20.7873 15.829C20.6622 15.9338 20.6031 16.0983 20.6341 16.2593C20.665 16.4204 20.7803 16.5511 20.9364 16.6018C22.041 16.9632 22.7828 17.9792 22.7828 19.1309C22.7828 20.6068 21.5826 21.807 20.1068 21.807C19.3861 21.807 18.7097 21.5243 18.2027 21.0111C18.0277 20.8346 17.7429 20.8325 17.5664 21.0075C17.3899 21.1826 17.3878 21.4674 17.5629 21.6439C18.2407 22.3294 19.1442 22.707 20.1076 22.707C22.0791 22.707 23.6836 21.1032 23.6836 19.1309C23.6822 17.8217 22.9671 16.6426 21.8478 16.0217Z" fill="black"/>
<path d="M15.3869 13.9307C15.6062 13.814 15.6899 13.5419 15.5725 13.3218C15.4558 13.1024 15.1836 13.0188 14.9636 13.1362C14.1423 13.5728 13.506 14.2542 13.1227 15.105C12.7479 15.9368 12.6579 16.8488 12.8619 17.7424C12.9097 17.9505 13.0953 18.0925 13.2999 18.0925C13.3329 18.0925 13.3667 18.089 13.4004 18.0813C13.643 18.0258 13.7942 17.7846 13.7394 17.5427C13.579 16.8417 13.6501 16.1266 13.9433 15.4749C14.2449 14.8062 14.7435 14.2724 15.3869 13.9307Z" fill="black"/>
</svg>