<svg width="32" height="32" viewBox="0 0 32 32" fill="none" xmlns="http://www.w3.org/2000/svg">
<circle cx="16" cy="16" r="16" fill="#A9E2C1"/>
<g clip-path="url(#clip0_1374_2628)">
<path d="M18.5354 18.5909C18.1995 18.1322 17.7795 17.7399 17.2995 17.4354C16.5132 16.9092 15.4868 16.9092 14.7004 17.4354C14.2205 17.7399 13.8005 18.1322 13.4646 18.5909C13.459 18.6001 13.4526 18.6085 13.4461 18.6168C13.124 19.0515 13.112 19.6413 13.4147 20.0889C13.7174 20.5356 14.2703 20.7433 14.7927 20.6067C15.1859 20.4932 15.5911 20.4304 16 20.4193C16.4089 20.4304 16.814 20.4932 17.2072 20.6067C17.7296 20.7433 18.2825 20.5356 18.5852 20.0889C18.888 19.6413 18.876 19.0515 18.5539 18.6168C18.5474 18.6085 18.541 18.6001 18.5354 18.5909Z" fill="black"/>
<path d="M12.8732 16.2129C13.5405 17.6574 12.0989 18.3238 11.4315 16.8793C10.7651 15.4339 12.2068 14.7684 12.8732 16.2129Z" fill="black"/>
<path d="M20.347 15.4612C21.3078 15.9052 20.3073 18.0714 19.3465 17.6284C18.3856 17.1844 19.3861 15.0172 20.347 15.4612Z" fill="black"/>
<path d="M15.5897 14.3006C15.7198 15.2393 15.3174 16.07 14.6916 16.1567C14.0658 16.2426 13.4539 15.5522 13.3237 14.6135C13.1945 13.6749 13.596 12.8442 14.2218 12.7583C14.8476 12.6716 15.4595 13.362 15.5897 14.3006Z" fill="black"/>
<path d="M17.7778 12.7582C18.4036 12.8449 18.8051 13.6756 18.6759 14.6143C18.5457 15.553 17.9338 16.2434 17.308 16.1566C16.6822 16.0708 16.2798 15.2401 16.4099 14.3014C16.5401 13.3627 17.152 12.6723 17.7778 12.7582Z" fill="black"/>
<path d="M12.0418 8.66675C8.92015 8.66675 6.8335 11.2971 6.8335 14.2247C6.8335 16.9711 8.35367 19.345 10.2124 21.2189C12.0712 23.0928 14.2895 24.4814 15.8114 25.2871C15.9302 25.3489 16.0702 25.3489 16.189 25.2871C17.7108 24.4813 19.9292 23.0925 21.7879 21.2189C23.6466 19.3459 25.1668 16.972 25.1668 14.2247C25.1668 11.2971 23.0802 8.66675 19.9585 8.66675C18.1177 8.66675 16.8954 9.62953 16.0002 10.9314C15.105 9.62959 13.8826 8.66675 12.0418 8.66675ZM12.0418 9.52181C13.8265 9.52181 14.8047 10.4353 15.642 11.8732C15.7169 12.0027 15.8528 12.082 16.0001 12.082C16.1474 12.082 16.2833 12.0027 16.3582 11.8732C17.1955 10.4353 18.1737 9.52181 19.9583 9.52181C22.6308 9.52181 24.3333 11.7037 24.3333 14.2247C24.3333 16.6454 22.971 18.8206 21.2019 20.6043C19.497 22.3228 17.46 23.6295 16 24.4188C14.5401 23.6297 12.5032 22.3228 10.7982 20.6043C9.02898 18.8215 7.66674 16.6454 7.66674 14.2247C7.66674 11.7037 9.36929 9.52181 12.0418 9.52181Z" fill="black"/>
</g>
<defs>
<clipPath id="clip0_1374_2628">
<rect width="20" height="20" fill="white" transform="translate(6 7)"/>
</clipPath>
</defs>
</svg>