<svg width="89" height="72" fill="none" xmlns="http://www.w3.org/2000/svg"><path fill-rule="evenodd" clip-rule="evenodd" d="m6.99 24.274-.305 33.847L35.442 71.45l40.794-4.13V30.762L18.147 9.056 6.991 24.274Zm28.312 47.19.25.028-.11-.043-.14.015Z" fill="#FFE680"/><path fill-rule="evenodd" clip-rule="evenodd" d="m10.8 60.093 19.947 9.175V44.597c0-7.013-7.022-11.853-13.575-9.357a10.012 10.012 0 0 0-6.45 9.357l.078 15.497Z" fill="#000"/><path fill-rule="evenodd" clip-rule="evenodd" d="M22.616 27.065c.626-.936 1.183-2.058 1.17-3.187-.006-.605-.174-1.298-.715-1.566-.408-.2-.904-.09-1.31.113a3.177 3.177 0 0 0-1.459 1.52h-.113a3.179 3.179 0 0 0-1.459-1.52c-.406-.203-.902-.314-1.31-.113-.542.268-.71.96-.716 1.566-.011 1.13.497 2.207 1.122 3.143.49.733 2.398 2.617 2.398 2.617s1.902-1.84 2.392-2.573Z" fill="#66AF37"/><path fill-rule="evenodd" clip-rule="evenodd" d="M6.927 27.889c1.474-1.852 11.39-14.096 11.39-14.096l22.848 22.863 35.026-.813-.015-4.285s-1.132-1.377-1.9-2.359c-.964-1.234-2.444-1.935-3.887-2.545-6.599-2.786-13.595-4.561-20.149-7.454-4.997-2.207-9.699-5.048-14.714-7.213C31.51 10.252 27.21 8.94 22.808 8.86c-1.533-.027-3.703-.224-4.842.973-.848.891-1.503 2.212-2.265 3.208L6.984 24.436l-.057 3.453Z" fill="#DBA258"/><path fill-rule="evenodd" clip-rule="evenodd" d="m60.965 7.7-42.518-.005-.214.257L.1 32.71h6.919v-7.358l10.929-15.09.41-.559 22.45 23.01 44.105-.588L60.965 7.699Z" fill="#9E7343"/><path fill-rule="evenodd" clip-rule="evenodd" d="M68.748 15.576a.646.646 0 0 0-.466-.182c-.504-.006-1.707 1.18-2.332 1.374-1.301.404-2.681.566-3.93 1.112-1.25.545-2.403 1.615-2.51 2.974-.237 3.04 3.297 3.444 5.423 3.008.994-.204 1.963-.579 2.977-.607 1.015-.029 2.141.398 2.533 1.334.35.834.05 1.887.577 2.621.492.688 1.472.773 2.315.71.2-.016.41-.04.575-.153.194-.134.29-.365.407-.57.51-.89 1.325-1.705 2.27-2.118.377-.165.98-.483.98-.483s-8.048-8.226-8.819-9.02Z" fill="#623412"/><path fill-rule="evenodd" clip-rule="evenodd" d="M70.193 14.643c-.004.339.155.657.331.947.144.236.32.477.58.567.315.109.666-.037.924-.247.3-.243.532-.599.53-.985-.002-.333-.174-.64-.342-.928-.231-.397-.62-.901-1.143-.735-.473.15-.874.924-.88 1.38Z" fill="#66AF37"/><mask id="a" mask-type="alpha" maskUnits="userSpaceOnUse" x="66" y="0" width="23" height="20"><path fill-rule="evenodd" clip-rule="evenodd" d="M66.607 0H88.1v19.013H66.607V0Z" fill="#fff"/></mask><g mask="url(#a)"><path fill-rule="evenodd" clip-rule="evenodd" d="M83.75 11.184a.523.523 0 0 1-.184.25c-.329.268-.79.329-1.207.246-.417-.082-.796-.291-1.154-.518a1.946 1.946 0 0 1-.56-.421c.67-.17 1.48-.106 2.177-.142.214-.011.44-.02.637.069.196.088.352.308.292.516Zm-5.78-3.272a2.508 2.508 0 1 1 0-5.016 2.508 2.508 0 0 1 0 5.016Zm1.02 8.527c-.255.116-.544-.061-.758-.243a1.035 1.035 0 0 1-.278-.316c-.152-.31-.112-1.106-.368-1.709-.091-.213.74.334 1.023.552.338.258.603.631.657 1.053.033.254-.042.557-.276.663Zm-7.558.433a2.278 2.278 0 1 1 0-4.556 2.278 2.278 0 0 1 0 4.556Zm15.958-6.664c-.35-.176-.746-.233-1.135-.286l-2.23-.31c-.34-.046-.705-.107-.942-.354-.252-.265-.284-.67-.243-1.035.176-1.594 1.421-3.007 1.25-4.603-.101-.951-.719-1.795-1.501-2.346C81.807.722 80.87.429 79.934.23c-.933-.198-1.9-.31-2.841-.162A5.285 5.285 0 0 0 73.38 2.64c-.93 1.637-1.174 3.654-1.889 5.397-.65 1.587-2.138 2.748-3.303 3.967-.625.653-1.273 1.346-1.496 2.222-.418 1.64.774 3.676 2.252 4.36a3.85 3.85 0 0 0 2.879.13c.913-.327 1.662-.985 2.49-1.492.61-.375 1.347-.7 2.08-.66.836.046.902.682 1.302 1.313.542.859 1.657 1.31 2.644 1.073.258-.063.51-.17.703-.35.496-.467.467-1.256.338-1.925-.128-.669-.313-1.39-.019-2.004.35-.728 1.221-1.01 2-1.217l2.978-.793c.415-.11.841-.226 1.192-.475.35-.25.615-.667.56-1.094-.048-.389-.35-.71-.7-.884Z" fill="#71D0FF"/></g><path fill-rule="evenodd" clip-rule="evenodd" d="M76.664 5.965c.095.536.611.952 1.154.97.545.02 1.07-.336 1.298-.83.362-.792-.113-2.011-1.058-2.142-.882-.123-1.525 1.26-1.394 2.002Z" fill="#66AF37"/><path d="M71.042 8.948a46.693 46.693 0 0 1 11.784 5.624" stroke="#000" stroke-width="1.996"/><path d="M67.127 9.777c1.08-.534 2.812-.899 4-.7-.394-1.754-1.754-3.258-3.458-3.828" stroke="#000" stroke-width="1.996"/></svg>