<svg width="16" height="18" viewBox="0 0 16 18" fill="none" xmlns="http://www.w3.org/2000/svg">
<path d="M12.7141 12.8808L9.17825 16.4167C9.02362 16.5715 8.84 16.6942 8.63789 16.778C8.43577 16.8618 8.21913 16.9049 8.00034 16.9049C7.78155 16.9049 7.5649 16.8618 7.36279 16.778C7.16067 16.6942 6.97705 16.5715 6.82242 16.4167L3.28576 12.8808C2.35344 11.9485 1.71853 10.7606 1.46133 9.46739C1.20412 8.17419 1.33616 6.83376 1.84076 5.61561C2.34535 4.39745 3.19984 3.35628 4.29616 2.62376C5.39248 1.89123 6.68139 1.50024 7.99992 1.50024C9.31845 1.50024 10.6074 1.89123 11.7037 2.62376C12.8 3.35628 13.6545 4.39745 14.1591 5.61561C14.6637 6.83376 14.7957 8.17419 14.5385 9.46739C14.2813 10.7606 13.6464 11.9485 12.7141 12.8808V12.8808Z" stroke="black" stroke-width="1.5" stroke-linecap="round" stroke-linejoin="round"/>
<path d="M10.5 8.16675C10.5 8.82979 10.2366 9.46567 9.76777 9.93452C9.29893 10.4034 8.66304 10.6667 8 10.6667C7.33696 10.6667 6.70107 10.4034 6.23223 9.93452C5.76339 9.46567 5.5 8.82979 5.5 8.16675C5.5 7.50371 5.76339 6.86782 6.23223 6.39898C6.70107 5.93014 7.33696 5.66675 8 5.66675C8.66304 5.66675 9.29893 5.93014 9.76777 6.39898C10.2366 6.86782 10.5 7.50371 10.5 8.16675V8.16675Z" stroke="black" stroke-width="1.5" stroke-linecap="round" stroke-linejoin="round"/>
</svg>
