<svg width="17" height="17" viewBox="0 0 17 17" fill="none" xmlns="http://www.w3.org/2000/svg">
<path d="M15.5545 12.2687L13.9808 6.79563L15.6414 5.30458C16.7102 4.23579 16.6934 2.48541 15.6039 1.39592C14.5144 0.306425 12.7641 0.289632 11.6953 1.35842L10.2042 3.01904L4.73117 1.44536C3.99516 1.22457 3.20479 1.42036 2.67014 1.95611C2.18874 2.41549 1.97054 3.08732 2.0865 3.75091C2.14322 4.20728 2.35394 4.63296 2.68475 4.95727C2.83555 5.10266 3.00576 5.22643 3.19045 5.32471L6.488 7.12955L4.16764 9.70315L2.50253 9.25425C1.76006 8.98487 0.951285 9.36531 0.6961 10.1028C0.440914 10.8402 0.836951 11.6564 1.57945 11.9258L3.76638 12.9516C3.89769 12.9987 4.00119 13.1022 4.04825 13.2335L5.07405 15.4204C5.1437 15.5765 5.23939 15.7186 5.35726 15.8419C5.52464 16.0114 5.73246 16.1339 5.96097 16.1972C6.45719 16.3715 7.0046 16.2568 7.38011 15.8989C7.75507 15.5416 7.89601 15.0009 7.7456 14.4973L7.29669 12.8322L9.8703 10.5119L11.6751 13.8094C11.7734 13.9941 11.8972 14.1643 12.0426 14.3151C12.3669 14.6459 12.7926 14.8566 13.2489 14.9134C13.9125 15.0293 14.5843 14.8111 15.0437 14.3297C15.5795 13.7951 15.7753 13.0047 15.5545 12.2687ZM3.73901 4.29726C3.47915 4.14974 3.30108 3.88958 3.25791 3.59474C3.21148 3.30205 3.30789 3.00745 3.51584 2.80171C3.74854 2.5624 4.09666 2.47413 4.42039 2.57319L9.31933 3.98754L7.30333 6.22926L3.73901 4.29726ZM6.61754 14.7799C6.64529 14.8875 6.60165 14.9994 6.50843 15.0574C6.44385 15.089 6.3681 15.0932 6.29918 15.0696C6.23087 15.0542 6.17262 15.0068 6.1442 14.9427L5.11894 12.7552C4.94888 12.3637 4.63619 12.0511 4.24471 11.881L2.05723 10.8557C1.99317 10.8273 1.94572 10.7691 1.93034 10.7008C1.90678 10.6318 1.91096 10.5561 1.94251 10.4915C2.0005 10.3983 2.11241 10.3546 2.22008 10.3824L4.22162 10.9463C4.43957 10.9871 4.66249 10.9216 4.82025 10.7705L12.5686 2.17649C13.1795 1.56567 14.1795 1.57527 14.8022 2.19792C15.4248 2.82056 15.4344 3.82062 14.8236 4.43144L6.22959 12.1798C6.07844 12.3376 6.01296 12.5605 6.05377 12.7785L6.61754 14.7799ZM13.4051 13.7419C13.1102 13.6987 12.8501 13.5206 12.7026 13.2608L10.7704 9.69652L13.0121 7.68051L14.4264 12.5795C14.5255 12.9032 14.4373 13.2513 14.1979 13.484C13.9922 13.6919 13.6976 13.7884 13.4049 13.7419L13.4051 13.7419Z" fill="black" stroke="black" stroke-width="0.4"/>
</svg>
