<svg width="24" height="17" viewBox="0 0 24 17" fill="none" xmlns="http://www.w3.org/2000/svg">
<path d="M23.5 9.62508L19.6654 4.83372L15.8327 4.83732V1.95864C15.8327 1.42946 15.4042 1.0009 14.875 1.0009L1.45864 1C0.929456 1 0.5 1.42856 0.5 1.95774V13.4568C0.5 13.986 0.928559 14.4155 1.45774 14.4155H2.7407C2.95633 15.6283 4.01559 16.5501 5.29048 16.5501C6.56537 16.5501 7.62452 15.6283 7.84026 14.4155H16.5892C16.8048 15.6535 17.8848 16.5951 19.1848 16.5951C20.4848 16.5951 21.5648 15.6535 21.7803 14.4155H23.4891L23.5 9.62508ZM5.29138 15.5924C4.39114 15.5924 3.65981 14.8602 3.65981 13.9609C3.65981 13.0606 4.39203 12.3293 5.29138 12.3293C6.19162 12.3293 6.92295 13.0606 6.92295 13.9609C6.92295 14.8602 6.19072 15.5924 5.29138 15.5924ZM7.83219 13.4568C7.5977 12.2673 6.54922 11.3698 5.29138 11.3698C4.03266 11.3698 2.98425 12.2673 2.75057 13.4568H1.45772V1.95776H14.8731L14.8722 13.4568H7.83219ZM19.1857 15.6373C18.2603 15.6373 17.5092 14.8845 17.5092 13.9609C17.5092 13.0364 18.2612 12.2844 19.1857 12.2844C20.111 12.2844 20.8631 13.0372 20.8631 13.9609C20.864 14.8844 20.1111 15.6373 19.1857 15.6373ZM22.5333 13.4568H21.7732C21.5387 12.2422 20.4687 11.3248 19.1857 11.3248C17.9028 11.3248 16.8328 12.2431 16.5982 13.4568H15.8319L15.8328 5.79508L19.2064 5.79148L22.5414 9.95931L22.5333 13.4568Z" fill="black" stroke="black" stroke-width="0.7"/>
<path d="M5.47596 4.97596C5.32506 5.12685 5.20536 5.30599 5.1237 5.50315C5.04203 5.7003 5 5.91161 5 6.12501C5 6.33841 5.04203 6.54972 5.1237 6.74687C5.20536 6.94403 5.32506 7.12316 5.47596 7.27406L8.25 10.0481L11.024 7.27406C11.3288 6.96931 11.5 6.55599 11.5 6.12501C11.5 5.69403 11.3288 5.2807 11.024 4.97596C10.7193 4.67121 10.306 4.5 9.875 4.5C9.44402 4.5 9.03069 4.67121 8.72595 4.97596L8.25 5.4519L7.77406 4.97596C7.62316 4.82506 7.44403 4.70536 7.24687 4.6237C7.04972 4.54203 6.83841 4.5 6.62501 4.5C6.41161 4.5 6.2003 4.54203 6.00315 4.6237C5.80599 4.70536 5.62685 4.82506 5.47596 4.97596V4.97596Z" stroke="black" stroke-width="1.4" stroke-linecap="round" stroke-linejoin="round"/>
</svg>
