<svg width="1440" height="162" fill="none" xmlns="http://www.w3.org/2000/svg"><mask id="a" mask-type="alpha" maskUnits="userSpaceOnUse" x="0" y="0" width="1440" height="162"><path fill="#C4C4C4" d="M0 .862h1440v161H0z"/></mask><g mask="url(#a)"><path d="M1638 200.862c-3.59-16.023-43.53-80.1-73.67-85.599-68.29-12.469-144.47.2-216.49-4.614-59.15-3.954-113.85-19.622-173.4-21.515-66.56-2.12-131.24 19.773-197.931 19.271-75.544-.571-143.943-21.102-215.945-32.613-103.27-16.511-216.642-14.438-316.207 7.052-48.744 10.53-95.981 24.367-149.039 27.362C193.75 115.945 92.157 80.816-6.449 93.859c-2.1.211-3.831.957-4.567 1.969-13.444 16.197-19.035 33.769-16.314 51.267.261 1.66.718 3.452 3.008 4.656 2.382 1.257 6.102 1.532 9.534 1.729a1456.136 1456.136 0 0 0 80.915 2.333" fill="#66AF37"/><path d="M1451.41 124.921c-27.15.842-54.41 1.611-80.89.238-48.59-2.523-95.98-12.435-144.62-10.21-56.89 2.605-105.22 21.242-159.19 30.629-42.23 7.316-87.576 8.911-131.438 4.623-70.675-6.967-131.481-28.529-195.729-44.847-52.9-13.44-114.07-20.093-175.035-17.963-30.272 1.057-52.227 4.16-77.729 8.192-31.335 4.953-61.732 11.303-93.344 15.83-76.672 10.979-157.584 10.503-236.079 4.507-49.294-3.768-129.896-8.357-174.956 2.146-3.092.723 12.86 81.047 9.841 81.925L1453 204" fill="#9DD87D"/><rect opacity=".5" x="65.878" y="141.574" width="169.562" height="8.441" rx="4.22" fill="#51B02B"/><rect opacity=".5" x="239.922" y="141.574" width="58.664" height="8.441" rx="4.22" fill="#51B02B"/><path d="M-7.454 110.38c1.404 3.886 4.475 7.143 7.79 10.005 9.076 7.841 20.561 13.535 32.926 16.321l1.243-3.362s-32.979-6.55-40.914-31.533" fill="#51B02B"/><path d="M30.03 144.31c-.877-4.083-.11-8.654 3.137-11.687 2.415-2.256 5.932-3.425 9.455-3.751 3.523-.326 7.065.125 10.545.685 5.184.83 10.592 2.035 14.362 5.249a58.515 58.515 0 0 1-13.966 2.704c4.202 1.139 8.99 2.773 10.269 6.448-3.66.936-7.493.984-11.175.138a38.205 38.205 0 0 1 5.2 5.569c.326.35.533.794.593 1.268 0 .731-.745 1.337-1.559 1.508a5.693 5.693 0 0 1-2.478-.181 31.449 31.449 0 0 1-9.498-3.971c.854 2.305.182 4.831-.659 7.149-.593 1.647-1.292 3.293-2.564 4.631-1.272 1.337-3.226 2.255-5.187 2.025-.613-3.027-.87-5.928-2.468-8.668-1.76-2.997-2.834-5.938-4.008-9.116Zm320.17 48.559c1.978-6.257-1.038-13.331-6.116-17.48-5.079-4.15-11.821-5.754-18.373-5.994-1.104-.039-2.422-.174-2.92-1.156-.359-.705-.115-1.558.195-2.282 2.518-5.892 9.069-9.448 15.489-9.518 6.42-.069 12.562 2.898 17.443 7.051-1.499-4.479-2.636-9.267-1.717-13.897.781-3.913 3.134-7.555 6.562-9.6 3.427-2.045 7.909-2.345 11.452-.487 3.872 2.038 6.096 6.158 8.097 10.044l4.574 8.892c-.811-5.546 1.219-11.609 5.708-14.968 4.488-3.359 11.389-3.412 15.489.415 2.129 1.976 3.361 4.736 4.452 7.436a137.143 137.143 0 0 1 3.427 9.508 25.055 25.055 0 0 1 39.003-1.617c-5.823-2.128-12.17 2.391-15.159 7.824-2.989 5.434-3.84 11.784-6.473 17.389-4.683 9.978-15.242 16.924-26.265 17.276" fill="#71D0FF"/><path d="M28.065 103.26a298.093 298.093 0 0 1 32.32 5.391c-14.224 6.761-29.574 13.552-45.15 11.197-4.567-.695-24.825-6.188-17.466-13.535 6.305-6.274 22.496-3.909 30.296-3.053Z" fill="#51B02B"/><path d="m213.367 64.533.526-.837 71.646 45-.526.837-71.646-45Z" fill="#FF9100"/><path d="m111.581 104.248-21.557 7.607c.037.175 1.108 5.138 1.612 7.443.362 1.653.727 3.3 1.094 4.94.171.781.51 1.647.524 2.463a2.127 2.127 0 0 0 .788 1.831 23.384 23.384 0 0 0 4.594 3.435c.695.399 1.512.771 2.274.524a2.76 2.76 0 0 0 1.113-.823c.202-.186.35-.423.429-.685a1.592 1.592 0 0 0-.369-1.146c-.112-.175-.231-.33-.346-.517-.841-1.235-2.284-2.796-2.577-4.282-.149-.774.214-1.857.33-2.634.131-.906.263-1.808.398-2.714.303-2.057.614-4.115.933-6.175l14.747-3.514" fill="#DBA258"/><path d="m81.206 114.944 8.143 7.246a.407.407 0 0 0 .563 0l10.546-5.803c.195-.194.099-.119.224.125l-1.229 8.075a.405.405 0 0 1-.053.451l-2.966 3.432a.411.411 0 0 0 .037.573l4.63 4.159a.408.408 0 0 1 .043.563l-3.217 3.87a.413.413 0 0 1-.586.046L77 119.805a.407.407 0 0 1-.037-.569l3.648-4.259a.41.41 0 0 1 .594-.033Z" fill="#FFFEFD"/><path d="m98.227 138.498-1.568-.359a1.458 1.458 0 0 1-.574-.234 1.425 1.425 0 0 1-.468-.843c0-.053-.03-.105-.043-.155a1.225 1.225 0 0 0-.893-.81 2.382 2.382 0 0 0-.303-.043 2.052 2.052 0 0 1-.886-.24 2.09 2.09 0 0 1-.814-1.219 4.117 4.117 0 0 0-.172-.438 1.4 1.4 0 0 0-1.048-.741 1.9 1.9 0 0 0-.184-.016 2.038 2.038 0 0 1-.66-.135c-.586-.257-.777-.833-.932-1.294a1.942 1.942 0 0 0-.33-.685 1.694 1.694 0 0 0-.807-.359 2.94 2.94 0 0 1-1.117-.488 2.87 2.87 0 0 1-.808-1.278 1.46 1.46 0 0 0-1.41-1.208 2.35 2.35 0 0 1-2.09-1.815 2.011 2.011 0 0 0-.484-.859 2.107 2.107 0 0 0-.853-.33 2.414 2.414 0 0 1-1.444-.718 2.585 2.585 0 0 1-.432-.918c-.102-.33-.174-.537-.33-.616a1.158 1.158 0 0 0-.48-.063 1.934 1.934 0 0 1-.913-.161 1.763 1.763 0 0 1-.847-1.219l-.05-.204a1.838 1.838 0 0 0-.243-.659.332.332 0 0 0-.26-.138l-.63-.761a1.03 1.03 0 0 1 .778-.22c.358.048.683.236.903.523.206.307.347.654.412 1.018l.046.191c.03.231.148.441.33.586.152.052.313.071.474.056.332-.02.663.046.962.191.404.277.681.702.771 1.183.049.208.134.406.25.586.254.215.569.348.9.378.454.071.886.247 1.26.514.37.346.639.785.78 1.271.09.316.25.607.468.853.276.188.592.309.923.353a3 3 0 0 1 1.335.56c.356.345.62.774.767 1.248.097.327.271.626.508.872.232.15.49.253.761.307.481.089.925.318 1.276.658.248.305.427.658.527 1.038.129.385.218.625.392.701.106.036.218.053.33.053l.237.023a2.38 2.38 0 0 1 1.806 1.281c.086.179.16.364.22.553.113.33.208.59.39.695.152.068.317.105.484.109.135 0 .27.029.402.056.769.169 1.39.733 1.631 1.482.02.066.037.131.056.201.02.107.058.211.112.306a.879.879 0 0 0 .195.059l1.565.359-.178.962Z" fill="#000"/><path d="m185.796 119.848 7.814 21.472s22.788-5.075 23.441-5.598c.653-.524 1.43-2.602-1.302-2.602s-20.577-2.605-20.577-2.605l-3.645-14.704" fill="#BF8B4C"/><path d="m191.728 141.936 11.465-2.865a.408.408 0 0 0 .303-.478l-1.407-7.031a.404.404 0 0 1 .445-.484l4.024.435 4.192.454a.409.409 0 0 1 .349.297l1.226 4.366a.404.404 0 0 0 .494.284l6.035-1.574a.41.41 0 0 1 .494.276l1.457 4.818a.408.408 0 0 1-.287.511l-27.06 7.169a.408.408 0 0 1-.497-.28l-1.539-5.384a.407.407 0 0 1 .039-.325.408.408 0 0 1 .267-.189Z" fill="#FFFEFD"/><path d="M195.884 148.526a2.476 2.476 0 0 1-.781-.145l-.205-.069a1.847 1.847 0 0 0-.682-.162.332.332 0 0 0-.257.142l-.988.105a1.015 1.015 0 0 1 .243-.77c.237-.274.575-.442.936-.465.371-.003.738.071 1.078.218l.185.065a.91.91 0 0 0 .659.047c.127-.1.232-.224.309-.366.165-.289.403-.53.689-.698a1.852 1.852 0 0 1 1.414 0c.2.074.412.113.626.115.32-.094.604-.284.814-.543a2.97 2.97 0 0 1 1.124-.768 2.855 2.855 0 0 1 1.493.053c.312.097.642.123.965.076.311-.125.588-.321.808-.573a2.37 2.37 0 0 1 2.666-.754c.326.1.673.119 1.008.056.253-.111.482-.269.676-.465a2.504 2.504 0 0 1 1.239-.708c.392-.039.788.007 1.16.135.392.106.643.162.801.06.089-.073.167-.158.231-.254l.148-.181a2.388 2.388 0 0 1 2.066-.804c.197.029.392.07.583.122a.796.796 0 0 0 1.154-.283c.085-.107.175-.209.27-.306a2.211 2.211 0 0 1 2.132-.54l.201.062a.82.82 0 0 0 .33.076.716.716 0 0 0 .158-.132l1.163-1.106.683.714-1.164 1.11c-.143.152-.319.27-.514.346a1.43 1.43 0 0 1-.962-.073l-.155-.049a1.23 1.23 0 0 0-1.167.296c-.072.073-.135.152-.201.231a1.711 1.711 0 0 1-2.155.612 4.295 4.295 0 0 0-.461-.098 1.413 1.413 0 0 0-1.2.464c-.039.046-.076.096-.112.142-.129.187-.291.35-.478.48-.54.35-1.127.191-1.595.063a2.05 2.05 0 0 0-.745-.112 1.708 1.708 0 0 0-.748.478 2.948 2.948 0 0 1-1.021.658 2.888 2.888 0 0 1-1.513-.033 2.22 2.22 0 0 0-.989-.062 2.182 2.182 0 0 0-.794.569 2.35 2.35 0 0 1-2.666.745 2.048 2.048 0 0 0-.989-.073c-.28.131-.528.321-.728.557a2.417 2.417 0 0 1-1.397.807 2.601 2.601 0 0 1-.989-.149c-.329-.095-.547-.148-.689-.079a1.198 1.198 0 0 0-.329.369 1.977 1.977 0 0 1-.64.659 1.369 1.369 0 0 1-.698.188Z" fill="#000"/><path d="M144.49 47.956s-11.709 45.306-12.467 45.678l-27.752 11.032 4.686 12.943 34.735-12.66 13.278-40.016 28.078 60.596 13.989-6.211-33.884-73.736-20.663 2.374Z" fill="#ACE5FC"/><path d="m167.035 26.952 8.785 7.831 17.19 15.32c3.955 3.511 13.027 11.55 13.027 11.55s1.599-3.972 11.762 2.322c-.448 1.317-3.203.33-2.788 1.179.504 1.034-1.447 3.988-3.039 6.138-1.044 1.41-5.503-1.89-5.826-2.413-1.499-2.43-5.398-5.089-7.537-6.847a525.319 525.319 0 0 0-6.505-5.253 791.829 791.829 0 0 0-6.232-4.907 690.94 690.94 0 0 0-3.131-2.434c-.395-.303-.85-.816-1.295-1.03-.445-.214-.817-.023-1.285.121a2.971 2.971 0 0 1-1.289.175 1.198 1.198 0 0 1-.989-.74 1.792 1.792 0 0 1-.059-.56c0-.989.112-1.414-.636-2.03-.296-.246-.59-.5-.886-.75l-2.666-2.256-8.602-7.278" fill="#DBA258"/><path d="m136.383 22.934 34.062.985-6.231 12.808 3.44 9.254-25.847 3 3.246-16.523-5.111 1.851-3.559-11.375Z" fill="#FFFEFD"/><path d="M308.822 102.394a121.91 121.91 0 0 0-5.649-14.161l.893-.422a122.472 122.472 0 0 1 5.695 14.29l-.939.293Z" fill="#51B02B"/><path d="m299.647 124.827 1.823 3.715-4.73-.487s9.294 7.169 9.132 11.408c-.161 4.238-4.402-.965-5.549-1.624-1.147-.659-7.501-5.704-7.501-5.704l-.491 3.096s-4.241-2.608-3.915-4.726c.326-2.118 0 .659 0 .659s-6.72 3.8-24.964 2.272l-1.338-.573-1.624 2.197-1.104-2.918s-.165 5.052-2.611 5.704l-1.792-3.261s-6.361 8.803-10.767 9.291c0 0-1.14-1.466.818-4.565 1.957-3.099 6.034-10.756 6.034-10.756s-8.971 5.052-15.489 2.447c0 0 .161-2.934 5.869-3.26l6.855-5.908-5.059-4.36 4.403-.988s-4.729-4.239-5.547-7.008l6.526 2.117s-5.382-4.561-4.894-10.265c0 0 11.58 9.616 12.068 9.616.488 0 28.576-1.669 28.576-1.669l6.976-4.37-2.28-10.265 4.89 2.77 2.284-5.217 4.284 7.903 11.205 2.032 4.406-.658s-.988 11.082-1.796 12.55c-.807 1.469-3.912.814-3.912.814l-2.61.817-3.588-1.143.161 2.447-3.259-.33 1.423 4.841-2.323-1.455s-1.872 2.127-1.892 2.144c-.227.22 1.338 2.453 1.553 2.68 1.061 1.137 2.797 2.049 4.165 2.77 1.292.682 2.762 1.357 3.332 2.7.329.811.29 1.729.208 2.605-3.731.244-7.221-1.666-10.856-2.542-2.175-.524-4.419-.678-6.654-.83" fill="#FFFEFD"/><path d="m284.237 109.329 14.596 13.117.896-1.383.93-.504.537-.474-11.36-11.562-3.071-1.15-2.528 1.956Z" fill="#FF9100"/><path d="M124.456 37.6c-.313 0-20.636 5.417-20.949 5.417-.313 0-11.36.833-11.36.833l26.994 14.892 12.872 1.143-1.72-21.347-6.262-1.146" fill="#51B02B"/><path d="M128.055 49.65c-.867-.225-26.549-4.11-40.008-6.133l.149-.988c39.948 6.007 40.166 6.152 40.281 6.228l-.547.823.273-.411-.148.48Zm-26.042-7.188 27.53-1.379.049.987-27.529 1.379-.05-.987Zm14.196 8.643 12.065-.566.046.987-12.065.566-.046-.987Z" fill="#9DD87D"/><path d="m95.856 41.837.557-.815 14.817 10.115-.558.816-14.816-10.116Z" fill="#9DD87D"/><path d="M124.331 38.874c.623 1.136 2.007 1.623 2.834 2.634a.45.45 0 0 1 .132.277.448.448 0 0 1-.181.303c-.537.49-1.272.76-1.707 1.344-.518.688-.481 1.666-.175 2.473.307.807.844 1.502 1.292 2.24a.464.464 0 0 1 .092.263c0 .207-.257.303-.451.375-1.226.441-1.958 1.782-2.02 3.083-.063 1.3.428 2.565 1.025 3.728.398.777.926 1.593 1.766 1.837.728.211 1.77.09 1.994.81.165.517-.297 1.104-.073 1.598.112.204.286.367.498.464a3.75 3.75 0 0 0 1.727.448c.659 0 1.14-.369 1.76-.6-.036.444-.048.89-.037 1.334a.808.808 0 0 0 .109.448.776.776 0 0 0 .399.234 5.68 5.68 0 0 0 2.069.385 2.371 2.371 0 0 0 1.839-.892c.089-.122.198-.274.346-.254a.406.406 0 0 1 .238.171c.426.508.987.886 1.618 1.09.619.198 1.423.159 1.766-.395.448-.72-.214-1.403-.132-2.124.027-.25.185-.47.231-.721.032-.416.043-.834.033-1.252.046-.605.063-.961.659-1.05.597-.089 1.45.155 2.063.132.926-.033 1.378-1.318 2.307-1.446.363-.004.722.073 1.051.224.834.28 1.978.227 2.343-.57.304-.659-.075-1.41-.58-1.913-.148-.148-.329-.33-.329-.527a.8.8 0 0 1 .296-.481c.554-.566.933-1.416.623-2.144-.25-.59-.866-.919-1.381-1.317-.514-.399-.988-.988-.797-1.61.093-.231.233-.44.412-.613l1.298-1.452c.376-.419.096-.85.297-1.37.201-.52-.142-1.166-.508-1.588-.685-.784-1.186-.454-1.766-1.317-.438-.659-.287-1.008.28-1.558s1.252-1.182 1.618-1.884c.366-.701-.062-1.597-.441-2.265-.379-.669-.452-.63-1.177-.88-.128-.046.293-1.172.201-1.27-.329-.38-.198-.607-.135-1.114.063-.507-.389-.02-.919-.089-.531-.069-1.118.076-1.589-.174-.366-.195-.639-1.74-1.051-1.775-3.843-.33-2.034 4.077-3.266 4.91-.603.408-.732-.744-1.18-1.587-.448-.844-1.272-1.433-3.381-.52-1.256.543-2.706.23-4.07.302-2.221.115-9.992 1.769-7.87 5.645Z" fill="#71D0FF"/><path d="M137.483 26.593c-6.762 1.94-13.557 4.35-20.455 5.691-.682.135-1.417.3-1.862.833a1.574 1.574 0 0 0 .175 2.121c.155.111.301.233.438.366.659.773-.306 2.16-.494 3.01-.208.922-.383 1.854-.567 2.78a255.043 255.043 0 0 0-1.338 7.175c-.396 2.305-.768 4.61-.989 6.955-.092 1.015-.501 2.941.132 3.87 1.081 1.59 8.239 3.497 12.286-.207l-8.424-2.44 5.478-17.979 17.828-5.298" fill="#DBA258"/><path d="M137.144 52.663s4.393-7.848 14.83-9.166c0 0-2.307 8.616-14.83 9.166Zm-6.426-4.996s-.936 8.674 4.943 12.679c0 0 3.843-6.422-4.943-12.68Zm-11.02-1.709c3.074.406 6.2.067 9.115-.988 0 0-3.954-2.691-7.853-3.35m-2.334 9.771s2.581 8.507 11.535 9.768c0 0-1.977-8.342-11.535-9.768Zm-17.838-6.784s-.989 8.836 6.739 13.529c0 .006 1.483-8.444-6.739-13.529Zm13.97-3.342c-.165-.056-5.382 1.81-5.382 1.81l4.722 1.318" fill="#9DD87D"/><path d="M124.058 38.347a2.69 2.69 0 0 1 .119-2.497 2.696 2.696 0 0 1 2.122-1.323c1.456-.112 3.015.938 4.284.23a5.2 5.2 0 0 0 1.061-.955c.933-.938 2.373-1.544 3.592-1.027 1.154.487 1.816 1.844 3.025 2.167.369.08.748.107 1.124.082l2.772-.056" fill="#71D0FF"/><path d="M132.649 43.721s1.977-8.588 9.461-10.703c0 0-1.278 8.454-9.461 10.703Z" fill="#9DD87D"/><path d="M140.189 63.385a3.634 3.634 0 0 1-1.223-.247 3.08 3.08 0 0 1-1.568-1.083c-.201.25-.441.466-.712.639a3.543 3.543 0 0 1-2.874.33 1.979 1.979 0 0 1-1.282-.962 2.1 2.1 0 0 1-.089-1.338 5.46 5.46 0 0 1 1.417-2.674l.709.689a4.471 4.471 0 0 0-1.17 2.203.809.809 0 0 0 .685 1.15 2.546 2.546 0 0 0 2.06-.231c.455-.29.765-.76.854-1.291v-.471l.988-.046a2.33 2.33 0 0 1 0 .566c-.009.297.059.59.198.853.274.365.665.625 1.107.738.597.217 1.029.247 1.319.089.477-.25.56-1.025.313-1.548-.307-.659-.989-1.143-1.569-1.571l.58-.8c.659.474 1.47 1.063 1.885 1.953.442.945.28 2.305-.748 2.842-.272.14-.574.212-.88.21Zm3.266-5.295h-.076a2.472 2.472 0 0 1-1.736-.784 3.014 3.014 0 0 1-.366-3.273l.89.431a2.009 2.009 0 0 0 .211 2.18c.269.284.64.448 1.031.458.315.017.623-.092.857-.303.324-.355.608-.743.847-1.16.217-.352.329-.513.56-.56l.211-.042.181.129a3.956 3.956 0 0 0 1.668.58c.747.124 1.21-.02 1.391-.432a.924.924 0 0 0 0-.64 2.533 2.533 0 0 0-1.022-1.201.66.66 0 0 1-.244-.682.636.636 0 0 1 .537-.48 1.39 1.39 0 0 0 .834-.412c.274-.296.371-.715.254-1.1a1.59 1.59 0 0 0-.458-.626 3.049 3.049 0 0 0-2.02-.777v-.988a4.042 4.042 0 0 1 2.679 1.03c.328.276.579.631.731 1.031.244.733.066 1.54-.464 2.101-.21.224-.462.403-.742.527.395.343.69.784.857 1.278.143.43.128.897-.043 1.317-.369.86-1.245 1.222-2.461 1.018a5.683 5.683 0 0 1-1.648-.494c-.268.462-.589.89-.956 1.278-.402.39-.943.604-1.503.596Zm6.258-13.5-.797-.585a1.133 1.133 0 0 0-1.318-1.732.525.525 0 0 1-.488-.06c-.26-.178-.26-.458-.257-.81a2.32 2.32 0 0 0-.102-.856c-.221-.445-.903-.557-1.437-.409a2.46 2.46 0 0 0-1.707 2.635l-.989.148a3.441 3.441 0 0 1 2.422-3.738c.93-.26 2.116-.023 2.587.922.147.353.216.732.201 1.114a2.117 2.117 0 0 1 1.876 3.369l.009.003Zm-.962-6.26-.603-.783a1.298 1.298 0 0 0-1.163-2.273l-.287-.945a1.124 1.124 0 0 0 .521-1.62 1.03 1.03 0 0 0-.867-.36 1.015 1.015 0 0 0-.837.426l-.847-.508c.125-.245.145-.53.056-.79a1.186 1.186 0 0 0-.57-.721 1.507 1.507 0 0 0-1.74.372 1.993 1.993 0 0 0-.356 1.926l-.943.303a3.006 3.006 0 0 1 .561-2.89 2.508 2.508 0 0 1 2.936-.587 2.19 2.19 0 0 1 1.061 1.317c.026.089.046.18.063.27.188-.058.383-.091.58-.099a1.914 1.914 0 0 1 1.957 2.579c-.047.15-.111.293-.191.428a2.306 2.306 0 0 1 1.318 1.11 2.34 2.34 0 0 1-.649 2.845Zm-13.64 13.262c-.63 0-1.23-.27-1.648-.74l.748-.66a1.168 1.168 0 0 0 1.977-.329 3.05 3.05 0 0 0 .142-.701 5.06 5.06 0 0 1 .109-.659c.042-.208.15-.397.306-.54.21-.151.467-.223.725-.204.346 0 .943-.046 1.167-.399a.81.81 0 0 0-.138-.908 1.859 1.859 0 0 0-1.118-.534l-.741-.115.395-.636c.241-.322.408-.693.488-1.087a1.116 1.116 0 0 0-.33-.85 1.587 1.587 0 0 0-1.189-.503 3.4 3.4 0 0 0-2.455 1.459l-.847-.507a4.386 4.386 0 0 1 3.266-1.94 2.637 2.637 0 0 1 1.944.81c.428.427.648 1.02.6 1.624-.036.33-.135.65-.294.941.401.139.758.378 1.038.695.515.576.604 1.415.221 2.085-.362.563-1.044.856-2.003.853h-.07a3.85 3.85 0 0 0-.085.523 3.75 3.75 0 0 1-.208.946 2.194 2.194 0 0 1-1.648 1.317c-.115.03-.233.05-.352.06Zm-5.969 5.154a1.828 1.828 0 0 1-.764-.161 1.613 1.613 0 0 1-.913-1.805l.956.25a.629.629 0 0 0 .369.659c.328.127.697.085.988-.112.342-.231.61-.556.772-.935l.29-.61.494.465c.48.438 1.153.598 1.78.421.275-.073.519-.234.695-.457a.754.754 0 0 0 .125-.659l.933-.33c.17.532.076 1.112-.254 1.562-.303.4-.729.69-1.213.826a2.885 2.885 0 0 1-2.254-.28c-.219.336-.508.62-.847.834a2.166 2.166 0 0 1-1.157.332Zm.903-14.968-.659-.747a1.58 1.58 0 0 0 .419-1.406.743.743 0 0 0-.145-.392c-.142-.145-.478-.145-.821-.125l-.797.049.313-.734c.168-.392.329-.794.201-1.07-.148-.33-.709-.449-1.144-.432a1.882 1.882 0 0 0-1.193.369.708.708 0 0 0-.214.82l-.84.52c-.439-.698-.139-1.607.402-2.081a2.819 2.819 0 0 1 1.812-.616c1.006-.036 1.79.349 2.083 1.027.149.376.166.79.05 1.176.325.036.628.181.86.412.232.26.376.585.412.932a2.549 2.549 0 0 1-.739 2.298Zm9.742 1.216-.814-.557c.284-.415.517-.863.692-1.334.097-.205.134-.433.106-.658-.089-.356-.636-.567-1.101-.708l-.547-.168.247-.52c.216-.456.328-.953.33-1.456a.696.696 0 0 0-.089-.428.77.77 0 0 0-.359-.158 4.482 4.482 0 0 0-3.141.391.681.681 0 0 0-.303.27.073.073 0 0 0 0-.046l-.913.386c-.221-.524.079-1.12.755-1.482a5.475 5.475 0 0 1 3.845-.448c.332.063.635.226.871.467.236.31.353.695.329 1.084-.003.465-.08.926-.227 1.367.494.204 1.09.563 1.262 1.235.08.416.032.846-.139 1.235a6.916 6.916 0 0 1-.804 1.528Z" fill="#ACE5FC"/><path d="M106.822 42.473c0-.247 2.59-3.514 6.921-5.98l-2.426 6.043" fill="#9DD87D"/><path d="m77.564 34.507-.58-.8c3.83-2.773 8.714-3.083 13.799-3.169 4.458-.075 9.507-.164 13.356-2.677l.544.827c-4.09 2.67-9.293 2.76-13.884 2.838-4.92.083-9.636.376-13.235 2.98Zm-15.232 23.57a13.334 13.334 0 0 0-3.174-1.17 30.288 30.288 0 0 1-15.252-9.587l.755-.641a29.263 29.263 0 0 0 13.98 9.056l.781.22c1.185.277 2.33.702 3.408 1.265l-.498.857Z" fill="#51B02B"/><path d="M84.05 69.507s6.848-2.104 15.41 1.845c-.007 0-7.257 3.816-15.41-1.845Zm-46.8-42.081s-15.137 1.407-24.746-10.834c0 0 13.996-2.71 24.746 10.834Z" fill="#9DD87D"/><path d="M48.26 50.743s4.344 5.697 3.592 15.09c0 0-6.086-5.477-3.592-15.09Z" fill="#51B02B"/><path d="M58.73 43.438s8.22-4.94 20.62-2.928c0 0-8.182 7.18-20.62 2.928Z" fill="#9DD87D"/><path d="M102.05 21.219s-3.348 6.33-12.194 9.59c0 0 2.416-7.819 12.194-9.59ZM-11.227 61.64l-.08-.988a44.838 44.838 0 0 0 24.743-9.992c1.404-1.123 2.854-2.285 4.545-3.04l.402.903c-1.572.701-2.966 1.824-4.327 2.908-.33.263-.66.524-.989.777a45.807 45.807 0 0 1-24.294 9.432Z" fill="#51B02B"/><path d="M-.125 59.081s10.305-3.563 23.533 1.976c0 .013-10.816 6.201-23.533-1.976Z" fill="#51B02B"/><path d="M103.493 28.675a1.86 1.86 0 0 0 .142 1.159c.165.252.392.457.659.596 1.624.9 3.597.9 5.22 0a2.33 2.33 0 0 0 1.062-1.06 1.116 1.116 0 0 0-.36-1.357 3.982 3.982 0 0 0-.797-.247c-.264-.086-.534-.3-.518-.58.017-.28.294-.451.528-.596.46-.286.876-.639 1.232-1.047a.936.936 0 0 0 .27-.514c.033-.405-.408-.692-.81-.748-.402-.055-.831 0-1.21-.135.9-.596 1.75-1.804.478-2.249-.932-.33-2.01.586-2.679 1.11a8.54 8.54 0 0 0-3.217 5.668Z" fill="#71D0FF"/><path d="M301.763 104.297a.992.992 0 0 0-.472.715 1.643 1.643 0 0 0 0 1.218.96.96 0 0 0 1.272.33 1.11 1.11 0 0 0 .472-1.268 1.338 1.338 0 0 0-1.075-.876m13.021-2.938c-.342.099-.61.365-.712.705a1.53 1.53 0 0 0 .142.85c.329.938.715 1.91 1.43 2.611.24-1.133.4-2.282.481-3.438.056-.896-.616-.971-1.341-.728Zm-24.079 3.297 2.787-7.895.932.329-2.787 7.895-.932-.329Zm-39.96 23.095-.428-.889c.397-.199.738-.496.989-.863a9.482 9.482 0 0 1-3.803-1.949l-.604-.511.722-.329a16.42 16.42 0 0 1 1.216-.471c-1.246-.573-2.34-1.591-3.371-2.634l-1.879-1.881.702-.698 1.876 1.88c1.42 1.423 2.966 2.809 4.742 2.813l.085.988c-.743.131-1.473.327-2.181.586a8.574 8.574 0 0 0 3.318 1.36l.594.105-.218.56a3.62 3.62 0 0 1-1.76 1.933Zm49.667 3.577-.837-.366a5.303 5.303 0 0 1-1.565-.988 4.716 4.716 0 0 1-2.521-2.769l.936-.33a3.713 3.713 0 0 0 2.076 2.22l.128.053.08.108c.118.13.256.241.408.33-.181-1.08-.382-2.223-.58-3.363-.263-1.515-.527-3.029-.758-4.403l.989-.164c.231 1.373.494 2.885.758 4.396.263 1.512.521 2.997.748 4.357l.138.919Zm-12.444.418a8.048 8.048 0 0 1-.659-4.347l.989.125a7.187 7.187 0 0 0 .57 3.817l-.9.405Zm-25.649 1.515c-.375-.234-.217-.583-.049-.948.227-.501.923-2.022.89-2.635l.988-.049c.04.741-.448 1.92-.988 3.085-.06.129-.103.224-.119.267l-.455-.171.382.329-.649.122Zm-23.359-3.408c.204-.063.387-.176.534-.33.254-.283.228-.714.188-1.093-.155-1.466-2.788-.293-3.22.477-.968 1.746 1.586 1.268 2.498.946Zm6.684 10.545c.549-.615.89-1.387.972-2.207a.581.581 0 0 0-.096-.454.59.59 0 0 0-.329-.142c-.353-.076-.768-.132-1.028.119a1.062 1.062 0 0 0-.195.303c-.24.494-.873 1.646-.801 2.239.093.876.973.698 1.477.142Zm54.969-2.085c-.362-.059-.438-.616-.174-.873a1.106 1.106 0 0 1 1.041-.164 2.561 2.561 0 0 1 1.454 1.017c.243.352.382.866.098 1.189a.827.827 0 0 1-.771.214 2.417 2.417 0 0 1-.754-.329l-1.164-.702" fill="#000"/><path d="M290.439 108.727a13.08 13.08 0 0 0-1.38 2.009c-.07.128-.129.306-.017.398.06.037.131.053.201.046h2.251a.318.318 0 0 1 .191.043c.089.066.086.194.073.303l-.155 1.396a.858.858 0 0 0 .049.534c.17.213.429.335.702.329 1.184.148 2.382.148 3.566 0" fill="#FFFEFD"/><path d="M293.231 114.559c-.415 0-.829-.039-1.236-.118a1.36 1.36 0 0 1-.659-.284c-.468-.408-.409-1.086-.145-1.58.053-.099.111-.195.174-.287.099-.142.173-.3.218-.468h-.066l-3.49-.141.356-.688c.201-.396.356-.758.504-1.107.197-.505.437-.992.719-1.456a17.736 17.736 0 0 1-2.38-.382 27.004 27.004 0 0 0-1.506-.28l.139-.987c.514.072 1.048.184 1.568.289 1.068.224 2.172.451 3.154.359l1.318-.128-.913.958a5.972 5.972 0 0 0-1.199 2.009c-.066.158-.135.32-.208.484l1.978.079a1.12 1.12 0 0 1 .718.231.95.95 0 0 1 .293.859 2.18 2.18 0 0 1-.372.883 3.18 3.18 0 0 0-.138.23.546.546 0 0 0-.08.369c.063.03.13.049.198.056a5.42 5.42 0 0 0 1.477.086l.079.988c-.172.02-.336.026-.501.026Z" fill="#000"/><path d="M322.192 121.784c-2.515-1.37-5.362-2.921-7.251-5.407l-.494-.659a19.999 19.999 0 0 0-2.567-3.006l.659-.738a20.824 20.824 0 0 1 2.702 3.152l.491.658c1.77 2.305 4.519 3.817 6.944 5.141l-.484.859Z" fill="#51B02B"/><path d="M321.757 123.194c-.215-1.083-.139-2.351.675-3.099a3.95 3.95 0 0 1 1.569-.761c.896-.28 1.878-.533 2.748-.187.87.345 1.417 1.577.768 2.256-.26.273-.705.589-.497.905a.755.755 0 0 0 .451.231 1.59 1.59 0 0 1 1.051 1.739l-1.143.052c-.356.988.511 2.187.033 3.135a1.696 1.696 0 0 1-.86.748c-3.042 1.337-4.377-2.888-4.795-5.019Z" fill="#71D0FF"/><path d="M306.083 93.268s10.74 9.353 19.651 5.319c.013 0-4.294-8.003-19.651-5.319Z" fill="#51B02B"/><path d="M214.925 66.847c-1.532-.988-3.516-2.118-5.582-3.182l.455-.879c2.092 1.08 4.102 2.226 5.661 3.23l-.534.83Zm-.757 1.833c-.775-.4-2.017-1.093-3.22-1.761a163.218 163.218 0 0 0-2.785-1.531l.465-.873c.728.385 1.783.988 2.801 1.541 1.196.659 2.432 1.354 3.193 1.746l-.454.879Zm-.788 2.046c-.277-.142-1.743-.863-3.21-1.587l-3.216-1.588.445-.882 3.209 1.584c1.47.724 2.94 1.449 3.217 1.59l-.445.883Zm-5.904-.316.395-.906 4.74 2.064-.395.906-4.74-2.065Z" fill="#FFBE71"/><path d="M17.928 44.406a19.04 19.04 0 0 0-1.872 2.365 4.088 4.088 0 0 0-.728 1.58 1.646 1.646 0 0 0 .54 1.575c.538.395 1.276.293 1.928.174l4.37-.79a2.23 2.23 0 0 1 .989-.033c.636.171 1.008.873 1.015 1.528a4.572 4.572 0 0 1-.514 1.88 8.277 8.277 0 0 0 2.755-1.017 2.02 2.02 0 0 0 .715-.616c.38-.593.132-1.42-.372-1.913a4.675 4.675 0 0 0-1.862-.949 5.77 5.77 0 0 0 2.188-.527c.659-.362 1.196-1.07 1.114-1.82-.096-.877-.97-1.476-1.83-1.647-.86-.172-1.756-.083-2.636-.201a4.14 4.14 0 0 0 2.825-3.784.721.721 0 0 0-.192-.593.795.795 0 0 0-.487-.119c-1.25-.023-2.66 0-3.507.932 1.226-3.293-3.424-4.149-3.882-1.794-.204 1.034 1.16 1.587 1.246 2.634.105 1.268-1.018 2.282-1.803 3.135ZM63.377 56.74a1.685 1.685 0 0 0-.725.082c-.337.173-.59.473-.705.833-.989 2.457 1.229 5.22.586 7.785a1.941 1.941 0 0 0 1.849-.988c.356-.65.546-1.379.554-2.12a4.277 4.277 0 0 0 .082 1.995c.2.66.782 1.131 1.47 1.189a.76.76 0 0 0 .695-.359c.058-.15.082-.31.07-.47v-2.86c.138.692.863 1.084 1.532 1.318.669.234 1.414.421 1.819.988a7.29 7.29 0 0 0-.88-3.293c.277.51 2.182 1.169 2.742 1.376 1.476-4.637-6.16-5.39-9.09-5.477Z" fill="#71D0FF"/><path d="M187.52 109.767a14.374 14.374 0 0 0-3.437-1.264l-.857-.241a33.683 33.683 0 0 1-2.782-.951 32.619 32.619 0 0 1-12.799-9.146l.754-.638a31.643 31.643 0 0 0 9.488 7.528c.953.489 1.931.929 2.93 1.317.886.353 1.793.659 2.696.922l.843.241c1.276.295 2.509.752 3.668 1.36l-.504.872Z" fill="#51B02B"/><path d="M172.314 101.887s4.686 6.145 3.876 16.282c0 0-6.568-5.909-3.876-16.282Z" fill="#51B02B"/><path d="m191.069 89.34-3.793 1.076s-1.76-.658-2.159 1.647c-.105.61-.952 1.261-1.351 1.673a22.351 22.351 0 0 0-3.44 4.347c-1.029 1.742-2.291 3.237-3.543 4.815-.468.586-.465 1.09-.57 1.811a14.4 14.4 0 0 0-.251 2.46c0 .761.03 1.594.541 2.16.511.567 1.394.702 2.178.695 1.72-.016 3.76-.375 4.963-1.603-.441-.185-1.071-.297-1.529-.478-.329-.138-.366-.234-.376-.688 0-.158-.072-.307.07-.376.24-.122.659.046 1.048.175.389.128.988.303.988.303a2.713 2.713 0 0 0-.135-1.199 8.946 8.946 0 0 0-.988-1.729 3.917 3.917 0 0 1-.551-.902 1.342 1.342 0 0 1-.02-1.028c.153-.279.37-.519.633-.698a24.49 24.49 0 0 0 2.989-2.964l2.772-3.096 4.241-.714m16.965-18.409c-.056-.218-.115-.435-.171-.659-.214-.817-.204-1.531-.659-2.305a4.249 4.249 0 0 0-3.675-2.147c-2.435 0-4.409 1.975-4.409 5.114v.046l-2.735-.484 2.264 5.674-1.253 7.871 8.183.119-1.031-2.931c-.356-1.011-1.912-3.695-.257-4.193.5-.154 1.041-.052 1.568-.032.528.02 1.114-.076 1.434-.491a1.86 1.86 0 0 0 .28-1.117c0-.401-.168-1.254.115-1.594a.88.88 0 0 1 .396-.217l.461-.158a.255.255 0 0 0 .145-.092.262.262 0 0 0 0-.175c-.184-.75-.451-1.478-.656-2.23Z" fill="#DBA258"/><path d="M200.794 82.157a5.51 5.51 0 0 1-.626.846c.194-.224-1.888-2.582-2.083-2.997a7.872 7.872 0 0 1-.794-3.952c.273-3.75 3.038-3.421 3.038-3.421s.218-1.604 2.254-2.164c2.037-.56 6.351.04 7.389 2.915.251.688-1.143 1.063-1.526 1.159-1.044.257-2.165.033-3.157.46a3.443 3.443 0 0 0-2.004 2.365c-.042.394-.135.78-.276 1.15a.831.831 0 0 1-.966.484 3.628 3.628 0 0 0-.428-1.43 1.32 1.32 0 0 0-1.266-.658c-.575.153-.962.69-.923 1.284.057.579.328 1.115.758 1.505.342.271.627.607.837.988a1.647 1.647 0 0 1-.227 1.466Z" fill="#000"/><path d="M213.706 97.398a2.456 2.456 0 0 1 1.885 2.891l-.989 5.859a2.443 2.443 0 0 0 .215 1.601l2.867 4.195c.317.62.354 1.347.102 1.996-.659 1.676-1.977 4.884-2.791 5.599-1.134.987-2.713-2.843-2.238-5.471.151-.829-2.403-6.204-2.403-6.204a2.457 2.457 0 0 1-1.011-2.605l1.443-6.027a2.459 2.459 0 0 1 2.92-1.834Zm-15.084 29.794c-.095.385-2.59 3.313-2.59 3.313l-19.358.988.386-3.293 14.21-5.069 7.352 4.061Zm12.622-1.087 6.894 15.218 2.673-.237-2.996-17.003-6.185-1.363-.386 3.385Z" fill="#DBA258"/><path d="m193.959 109.807-5.002 13.7 10.443 4.739 4.1-8.642 5.124 7.937 9.547-3.458-6.597-14.53-18.261.191" fill="#FFFEFD"/><path d="m187.773 89.577 12.069-2.76.099.247a3.437 3.437 0 0 0 6.409-.056l2.795.527a8.39 8.39 0 0 1 6.772 7.202l.89 7.104-4.976.168-.125 7.95-18.396-.056.395-12.604-3.579.794-2.353-8.516Z" fill="#E6FFFD"/><path d="M188.627 108.358a1.846 1.846 0 0 0-.784.089c-1.648.688-.857 4.792-.112 5.895.659.988 1.812 1.561 2.659 2.417a20.073 20.073 0 0 1 1.546 2.009c.072.095.164.201.286.194a.366.366 0 0 0 .251-.188 3.673 3.673 0 0 0-.208-4.393l3.296.698c.441.096 1.081.053 1.12-.395a.796.796 0 0 0-.224-.523 30.518 30.518 0 0 0-1.845-2.19 5.426 5.426 0 0 0 3.684-.442.515.515 0 0 0 .293-.266c.089-.251-.178-.468-.412-.593-2.952-1.571-6.231-2.2-9.55-2.312Z" fill="#71D0FF"/><path d="m210.815 94.115.987-.063.51 7.927-.986.063-.511-7.927Z" fill="#7FCFF7"/><path d="M158.265 16.14c.262.001.521-.052.761-.154.386-.214.66-.584.752-1.015a2.72 2.72 0 0 0 .049-1.017.884.884 0 0 1 .458-.735c.295-.149.577-.322.844-.517a2.695 2.695 0 0 1-.623-1.126c-.059-.214-.089-.431-.128-.659a2.665 2.665 0 0 0-.221-.74c-.112-.218-.05-.182-.069-.182h-7.247a.962.962 0 0 0-.963.962v.876a2.755 2.755 0 0 0 2.749 2.575c.162 0 .325-.016.484-.046a4.53 4.53 0 0 1-2.896 2.124l-1.889 6.854a4.491 4.491 0 0 0 6.496.45l.164-.154c-.069-1.225-1.156-6.873.435-7.407.277-.065.56-.095.844-.088Z" fill="#DBA258"/><path d="M164.622 14.431a2.754 2.754 0 0 1-2.745-2.575h-.016v-1.604a7.393 7.393 0 0 0-8.177-7.347c-5.839.375-7.062 6.62-7.062 9.073 0 2.53 2.052 4.58 4.584 4.58h2.192a4.38 4.38 0 0 0 3.668-2.143l.016-.027c-.16.03-.322.046-.484.047a2.754 2.754 0 0 1-2.749-2.576v-.876c0-.53.431-.961.962-.961h5.283a.94.94 0 0 0 .073.168c.109.234.184.484.221.74.039.218.069.435.128.66.114.42.327.806.623 1.126a6.093 6.093 0 0 1-.844.517.884.884 0 0 0-.458.734c.048.34.031.684-.049 1.018-.092.43-.366.8-.752 1.014l.066.04a4.583 4.583 0 0 0 6.031-1.647 2.65 2.65 0 0 1-.511.04Z" fill="#000"/><path d="M159.817 14.036h-1.318c.227.51.768.801 1.318.712v-.712Z" fill="#FFFEFD"/><ellipse cx="158.008" cy="11.395" rx=".231" ry=".385" fill="#000"/><path d="M209.313 80.365h-1.674s.359 1.015 1.694.91l-.02-.91Z" fill="#FFFEFD"/><ellipse cx="207.286" cy="77.909" rx=".339" ry=".57" fill="#000"/><path d="m177.775 127.959-5.323-.793-.698 14.418a.21.21 0 0 0 .093.189.213.213 0 0 0 .21.018l3.358-1.176 3.236-9.319-.636-3.178m39.613 12.422.3 5.628 14.5-3.748a.214.214 0 0 0 .109-.349l-1.668-2.984-10.279-.329-2.867 1.515" fill="#000"/></g></svg>