<svg width="30" height="22" fill="none" xmlns="http://www.w3.org/2000/svg"><path d="M17.889 5.677h-6.02v10.647h6.02V5.677Z" fill="#FF5F00"/><path d="M12.25 11a6.67 6.67 0 0 1 .69-2.96 6.782 6.782 0 0 1 1.937-2.364 6.978 6.978 0 0 0-7.26-.767 6.844 6.844 0 0 0-2.824 2.499A6.692 6.692 0 0 0 3.745 11c0 1.27.363 2.515 1.048 3.592a6.844 6.844 0 0 0 2.825 2.498 6.978 6.978 0 0 0 7.26-.766 6.782 6.782 0 0 1-1.938-2.364 6.67 6.67 0 0 1-.69-2.96Z" fill="#EB001B"/><path d="M26.01 11c0 1.27-.363 2.515-1.048 3.592a6.844 6.844 0 0 1-2.825 2.498 6.977 6.977 0 0 1-7.259-.766 6.794 6.794 0 0 0 1.936-2.365 6.684 6.684 0 0 0 0-5.918 6.794 6.794 0 0 0-1.936-2.365 6.978 6.978 0 0 1 7.259-.767 6.844 6.844 0 0 1 2.825 2.499A6.692 6.692 0 0 1 26.011 11Zm-.659 4.196v-.218h.09v-.044h-.228v.044h.09v.218h.048Zm.442 0v-.263h-.07l-.08.181-.08-.18h-.07v.262h.049v-.198l.075.17h.051l.075-.17v.198h.05Z" fill="#F79E1B"/></svg>