<svg width="61" height="16" fill="none" xmlns="http://www.w3.org/2000/svg"><path fill-rule="evenodd" clip-rule="evenodd" d="M5.683 4.22h4.1c2.201 0 3.03 1.095 2.902 2.704-.212 2.656-1.846 4.126-4.014 4.126H7.577c-.297 0-.497.194-.578.718l-.464 3.047c-.031.198-.137.312-.296.328H3.663c-.242 0-.328-.182-.264-.576l1.57-9.77c.062-.391.28-.577.714-.577Z" fill="#009EE3"/><path fill-rule="evenodd" clip-rule="evenodd" d="M23.483 4.039c1.384 0 2.66.737 2.485 2.575-.211 2.184-1.402 3.393-3.28 3.398h-1.642c-.236 0-.35.19-.412.577l-.317 1.984c-.048.3-.205.447-.435.447h-1.528c-.243 0-.328-.153-.274-.495l1.26-7.95c.063-.39.212-.536.485-.536h3.658Zm-2.487 4.256h1.244c.778-.03 1.294-.559 1.346-1.513.032-.59-.374-1.012-1.018-1.01l-1.17.006-.402 2.517Zm9.124 4.117c.14-.125.282-.19.262-.036l-.05.368c-.025.193.052.295.234.295h1.357c.228 0 .34-.09.396-.438l.836-5.157c.042-.259-.023-.386-.223-.386H31.44c-.134 0-.2.074-.235.276l-.055.317c-.028.165-.106.195-.178.028-.253-.589-.898-.853-1.799-.832-2.092.043-3.503 1.604-3.654 3.605-.117 1.548 1.011 2.764 2.5 2.764 1.079 0 1.562-.312 2.106-.801l-.005-.003Zm-1.136-.794c-.901 0-1.529-.706-1.398-1.572.13-.865.972-1.571 1.873-1.571.9 0 1.528.706 1.398 1.571-.13.866-.972 1.572-1.873 1.572Zm6.826-4.576h-1.376c-.283 0-.399.208-.309.463l1.709 4.916-1.676 2.34c-.14.195-.032.373.166.373h1.547a.48.48 0 0 0 .459-.222l5.254-7.406c.162-.227.085-.466-.18-.466H39.94c-.25 0-.351.097-.495.302l-2.191 3.12-.98-3.127c-.056-.19-.2-.293-.463-.293Z" fill="#113984"/><path fill-rule="evenodd" clip-rule="evenodd" d="M47.05 4.039c1.382 0 2.659.737 2.484 2.575-.212 2.184-1.402 3.393-3.28 3.398h-1.641c-.236 0-.35.19-.412.577l-.317 1.984c-.048.3-.205.447-.435.447H41.92c-.243 0-.328-.153-.274-.495l1.263-7.952c.062-.39.212-.536.484-.536h3.655v.002Zm-2.488 4.256h1.244c.778-.03 1.294-.559 1.346-1.513.032-.59-.374-1.012-1.018-1.01l-1.17.006-.402 2.517Zm9.124 4.117c.14-.125.282-.19.262-.036l-.05.368c-.026.193.052.295.234.295h1.357c.228 0 .34-.09.396-.438l.836-5.157c.042-.259-.023-.386-.223-.386h-1.49c-.134 0-.2.074-.235.276l-.055.317c-.028.165-.106.195-.178.028-.253-.589-.898-.853-1.799-.832-2.092.043-3.503 1.604-3.654 3.605-.117 1.548 1.011 2.764 2.5 2.764 1.079 0 1.562-.312 2.106-.801l-.007-.003Zm-1.135-.794c-.901 0-1.529-.706-1.398-1.572.13-.865.972-1.571 1.873-1.571.9 0 1.528.706 1.398 1.571-.13.866-.973 1.572-1.873 1.572Zm6.258 1.43h-1.567a.187.187 0 0 1-.185-.13.18.18 0 0 1-.006-.079l1.376-8.566a.264.264 0 0 1 .093-.149.272.272 0 0 1 .167-.06h1.566a.188.188 0 0 1 .146.06.18.18 0 0 1 .046.149l-1.376 8.566a.265.265 0 0 1-.093.15.273.273 0 0 1-.167.06v-.002Z" fill="#009EE3"/><path fill-rule="evenodd" clip-rule="evenodd" d="M3.118.857h4.105c1.155 0 2.527.037 3.443.832.613.532.935 1.377.861 2.288-.252 3.08-2.126 4.806-4.641 4.806H4.862c-.345 0-.572.224-.67.832l-.565 3.536c-.037.229-.137.364-.317.38H.777c-.28 0-.38-.207-.307-.667L2.29 1.529c.074-.455.329-.672.828-.672Z" fill="#113984"/><path fill-rule="evenodd" clip-rule="evenodd" d="m4.252 9.256.716-4.459c.063-.391.28-.578.715-.578h4.1c.678 0 1.228.104 1.657.296-.412 2.742-2.216 4.265-4.578 4.265h-2.02c-.272 0-.47.134-.59.476Z" fill="#172C70"/></svg>