<svg width="52" height="18" fill="none" xmlns="http://www.w3.org/2000/svg"><path d="M13.524 4.819c.209-1.323-.002-2.222-.722-3.037C12.01.884 10.576.5 8.742.5h-5.32a.76.76 0 0 0-.752.638L.453 15.089a.455.455 0 0 0 .45.525H4.19l-.227 1.427a.397.397 0 0 0 .394.459h2.77a.665.665 0 0 0 .658-.558l.026-.14.522-3.284.034-.182a.664.664 0 0 1 .658-.558h.414c2.683 0 4.784-1.082 5.397-4.212.257-1.308.124-2.399-.554-3.167a2.634 2.634 0 0 0-.758-.58Z" fill="#159BD7"/><path d="M13.524 4.819c.209-1.323-.002-2.222-.722-3.037C12.01.884 10.576.5 8.742.5h-5.32a.76.76 0 0 0-.752.638L.453 15.089a.455.455 0 0 0 .45.525H4.19l.825-5.196-.026.163a.757.757 0 0 1 .75-.638h1.56c3.068 0 5.469-1.237 6.17-4.815a8.25 8.25 0 0 0 .055-.31Z" fill="#222C65"/><path d="M5.901 4.836a.661.661 0 0 1 .658-.558h4.172c.494 0 .955.032 1.376.1a5.891 5.891 0 0 1 .84.2c.207.067.4.148.577.24.209-1.322-.002-2.221-.722-3.036C12.01.884 10.576.5 8.742.5h-5.32a.76.76 0 0 0-.752.638L.453 15.089a.455.455 0 0 0 .45.525H4.19l.825-5.196.886-5.582ZM37.45 14.893h.443c1.18 0 2.29-.64 2.532-2.113.212-1.352-.565-2.113-1.836-2.113h-.325a.161.161 0 0 0-.16.135l-.654 4.091Zm-1.077-5.656a.277.277 0 0 1 .275-.233h2.567c2.118 0 3.6 1.653 3.268 3.776-.343 2.123-2.36 3.776-4.469 3.776H35.4a.16.16 0 0 1-.16-.186l1.133-7.133ZM33.05 10.9l-.165 1.029h2.04c.1 0 .175.088.16.185l-.197 1.244a.277.277 0 0 1-.274.233H32.86a.277.277 0 0 0-.274.232l-.174 1.07h2.16c.1 0 .176.088.16.186l-.196 1.244a.277.277 0 0 1-.274.233h-3.9a.161.161 0 0 1-.16-.186l1.134-7.133a.277.277 0 0 1 .274-.233h3.9c.1 0 .176.088.16.186l-.196 1.244a.276.276 0 0 1-.274.233h-1.876a.277.277 0 0 0-.274.232Zm11.16 5.656h-1.552a.161.161 0 0 1-.16-.186l1.135-7.133a.277.277 0 0 1 .274-.233h1.55c.1 0 .176.088.16.186l-1.134 7.133a.277.277 0 0 1-.274.233ZM26.267 12.39h.191c.646 0 1.388-.121 1.524-.942.134-.82-.296-.939-.986-.941h-.28a.171.171 0 0 0-.17.143l-.28 1.74Zm3.393 4.166h-2.032a.225.225 0 0 1-.202-.127l-1.341-2.778h-.02l-.434 2.717a.224.224 0 0 1-.222.188h-1.596a.161.161 0 0 1-.16-.186l1.141-7.177a.224.224 0 0 1 .222-.189h2.763c1.503 0 2.532.711 2.28 2.324-.171 1.041-.898 1.943-2.007 2.133l1.747 2.85a.161.161 0 0 1-.139.245Zm18.743 0h-1.55a.161.161 0 0 1-.16-.186l.908-5.703h-1.445a.161.161 0 0 1-.16-.185l.197-1.245a.277.277 0 0 1 .274-.233h4.818c.1 0 .176.088.16.186l-.196 1.244a.277.277 0 0 1-.274.233h-1.397l-.901 5.656a.277.277 0 0 1-.274.233ZM23.754 11.15c-.023.14-.195.19-.295.089-.339-.344-.836-.527-1.371-.527-1.21 0-2.167.92-2.358 2.091-.182 1.191.503 2.052 1.733 2.052.507 0 1.045-.192 1.492-.512a.171.171 0 0 1 .268.167l-.282 1.728a.27.27 0 0 1-.192.216c-.602.176-1.064.302-1.628.302-3.279 0-3.803-2.78-3.635-3.963.474-3.314 3.183-4.073 4.843-3.982.536.03 1.015.1 1.485.275a.338.338 0 0 1 .216.371l-.276 1.693Z" fill="#253B80"/><path d="M33.8 3.037c-.093.61-.563.61-1.017.61h-.258l.18-1.14a.146.146 0 0 1 .142-.12h.119c.309 0 .6 0 .751.176.09.104.118.26.083.474Zm-.197-1.593H31.89a.238.238 0 0 0-.235.2l-.693 4.36a.142.142 0 0 0 .141.163h.88a.166.166 0 0 0 .164-.139l.196-1.236a.237.237 0 0 1 .235-.2h.542c1.128 0 1.78-.541 1.95-1.616.076-.47.003-.839-.219-1.097-.244-.284-.675-.435-1.248-.435Z" fill="#159BD7"/><path d="M21.585 3.037c-.094.61-.564.61-1.017.61h-.259l.181-1.14a.144.144 0 0 1 .142-.12h.118c.309 0 .6 0 .751.176.09.104.118.26.084.474Zm-.198-1.593h-1.713a.238.238 0 0 0-.235.2l-.692 4.36a.142.142 0 0 0 .14.163h.819a.237.237 0 0 0 .235-.199l.186-1.176a.237.237 0 0 1 .236-.2h.541c1.128 0 1.78-.541 1.95-1.616.076-.47.003-.839-.218-1.097-.244-.284-.676-.435-1.25-.435Zm3.976 3.158a.912.912 0 0 1-.926.777c-.237 0-.428-.075-.55-.22-.121-.142-.167-.345-.128-.571a.915.915 0 0 1 .918-.784c.233 0 .423.077.547.222.126.146.175.35.14.576Zm1.143-1.585h-.82a.14.14 0 0 0-.14.12l-.037.227-.057-.082c-.178-.256-.574-.342-.97-.342-.905 0-1.68.682-1.83 1.638-.078.477.033.933.306 1.251.25.293.607.414 1.033.414.73 0 1.135-.466 1.135-.466l-.037.226a.142.142 0 0 0 .141.164h.739a.237.237 0 0 0 .235-.199l.443-2.787a.142.142 0 0 0-.14-.164Z" fill="#253B80"/><path d="M37.579 4.602a.912.912 0 0 1-.926.777c-.238 0-.428-.075-.55-.22-.122-.142-.168-.345-.129-.571a.915.915 0 0 1 .92-.784c.232 0 .421.077.546.222.125.146.175.35.139.576Zm1.143-1.585h-.82c-.07 0-.13.05-.141.12l-.036.227-.058-.082c-.177-.256-.573-.342-.968-.342-.907 0-1.68.682-1.831 1.638-.078.477.033.933.305 1.251.25.293.608.414 1.033.414.73 0 1.136-.466 1.136-.466l-.037.226a.142.142 0 0 0 .141.164h.738a.237.237 0 0 0 .235-.199l.444-2.787a.142.142 0 0 0-.141-.164Z" fill="#159BD7"/><path d="M30.874 3.017h-.824a.239.239 0 0 0-.197.104l-1.137 1.663-.482-1.599a.238.238 0 0 0-.228-.168h-.81a.142.142 0 0 0-.136.188l.908 2.645-.853 1.196a.142.142 0 0 0 .116.223h.824a.238.238 0 0 0 .195-.102l2.741-3.927a.142.142 0 0 0-.117-.223Z" fill="#253B80"/><path d="m39.689 1.564-.703 4.44a.142.142 0 0 0 .14.163h.708a.237.237 0 0 0 .234-.199l.694-4.36a.142.142 0 0 0-.141-.164h-.791c-.07 0-.13.05-.141.12Z" fill="#159BD7"/></svg>