<svg width="14" height="14" viewBox="0 0 14 14" fill="none" xmlns="http://www.w3.org/2000/svg">
<path d="M4.37275 1.36071C4.83151 0.916759 5.55339 0.882609 6.05263 1.25826L6.17253 1.36071L12 7L6.17253 12.6393C5.67553 13.1202 4.86974 13.1202 4.37275 12.6393C3.91398 12.1953 3.87869 11.4968 4.26688 11.0136L4.37275 10.8976L8.3995 7.00006L4.37275 3.10237C3.91398 2.65842 3.87869 1.95985 4.26688 1.47673L4.37275 1.36071Z" fill="#66AF37"/>
<mask id="mask0" mask-type="alpha" maskUnits="userSpaceOnUse" x="4" y="1" width="8" height="12">
<path d="M4.37275 1.36071C4.83151 0.916759 5.55339 0.882609 6.05263 1.25826L6.17253 1.36071L12 7L6.17253 12.6393C5.67553 13.1202 4.86974 13.1202 4.37275 12.6393C3.91398 12.1953 3.87869 11.4968 4.26688 11.0136L4.37275 10.8976L8.3995 7.00006L4.37275 3.10237C3.91398 2.65842 3.87869 1.95985 4.26688 1.47673L4.37275 1.36071Z" fill="white"/>
</mask>
<g mask="url(#mask0)">
<rect width="14" height="14" fill="#000"/>
</g>
</svg>
