
<svg width="119px" height="71px" viewBox="0 0 119 71" version="1.1" xmlns="http://www.w3.org/2000/svg" xmlns:xlink="http://www.w3.org/1999/xlink">
    <g id="Symbols" stroke="none" stroke-width="1" fill="none" fill-rule="evenodd">
        <g id="Footer/Mobile" transform="translate(-132.000000, -108.000000)" fill="#000000">
            <g id="Footer">
                <g id="Logo" transform="translate(132.000000, 108.000000)">
                    <g id="Group" transform="translate(0.000000, 48.000000)">
                        <path d="M85.7655578,6.6542 C87.545449,4.85728 89.487517,4.56811 91.5329728,5.4149 C93.6808027,6.3031 94.6214286,8.1413 94.8059048,10.372 C94.8869932,11.3427 94.846449,12.3755 94.6619728,13.3462 C93.9058231,17.3532 89.3243265,19.2534 86.0726803,16.6509 C86.0726803,18.0967 86.0726803,19.398 86.0726803,20.7198 C86.0524082,22.083 85.7858299,22.3515 84.4569932,22.3722 C84.1093265,22.3722 83.781932,22.3928 83.4342653,22.3722 C82.3709932,22.3309 82.0233265,22.0004 82.0020408,20.9264 C81.9817687,16.1759 81.9817687,11.4254 82.0020408,6.6749 C82.0020408,5.6215 82.3912653,5.2497 83.4342653,5.2497 C84.4154354,5.2704 85.5608095,4.9812 85.7655578,6.6542 Z M85.9084762,11.4047 C86.0108503,13.4082 87.2180544,14.7301 88.7719116,14.4202 C89.9375578,14.1931 90.6947211,13.2429 90.7768231,11.9004 C90.8791973,10.2481 90.2446803,8.9675 89.1195782,8.5751 C88.0765782,8.2239 86.9312041,8.637 86.440619,9.6491 C86.1750544,10.2068 86.0726803,10.8264 85.9084762,11.4047 Z" id="Shape" fill-rule="nonzero"></path>
                        <path d="M31.8335381,6.5922 C33.5310231,4.87792 35.4740034,4.5681 37.5396299,5.4149 C39.6871558,6.3031 40.627883,8.1413 40.8119537,10.372 C40.8937517,11.3427 40.8529034,12.3755 40.6688327,13.3462 C39.9325497,17.3325 35.3717306,19.2534 32.078932,16.6716 C32.078932,18.0761 32.078932,19.3566 32.078932,20.6372 C32.078932,22.1243 31.8335381,22.3722 30.3609721,22.3928 C30.1155782,22.3928 29.8905578,22.3928 29.6451639,22.3928 C28.3361939,22.3722 28.0293755,22.0624 28.0293755,20.7405 C28.0293755,16.5476 28.0293755,12.3548 28.0293755,8.162 C28.0293755,7.6043 28.009002,7.0673 28.0293755,6.5096 C28.0703252,5.7247 28.479315,5.353 29.2565476,5.291 C30.9949823,5.1464 31.3835986,5.3117 31.8335381,6.5922 Z M36.9056197,11.5699 C36.7828721,9.711 35.8626197,8.5131 34.4513769,8.4924 C33.0197605,8.4718 32.0584571,9.5871 32.0176088,11.3221 C31.9766592,13.181 32.9379626,14.5855 34.3286293,14.4409 C35.0035891,14.3789 35.7603469,13.8832 36.2511347,13.3669 C36.6602259,12.9125 36.721549,12.1689 36.9056197,11.5699 Z" id="Shape" fill-rule="nonzero"></path>
                        <path d="M46.5793687,16.7129 C46.5793687,18.1174 46.5793687,19.4393 46.5793687,20.7611 C46.5793687,22.0624 46.2930252,22.3515 45.0454796,22.3722 C44.9022571,22.3722 44.7796109,22.3722 44.6363884,22.3722 C42.6934082,22.3722 42.5298122,22.2069 42.5298122,20.2861 C42.5298122,15.8454 42.5298122,11.4254 42.5298122,6.9847 C42.5298122,6.1791 42.5707619,5.4356 43.5729136,5.2704 C45.2295503,5.0018 45.9248837,5.3117 46.231702,6.3444 C47.1929041,5.9106 48.1132578,5.2497 49.1154095,5.0845 C51.8969456,4.58876 54.2282381,6.0552 54.9854014,8.8229 C55.333068,10.0828 55.4354422,11.4873 55.2915102,12.7885 C54.7806531,16.9814 50.2607837,19.4186 46.5793687,16.7129 Z M46.4157728,11.3221 C46.4770959,13.3875 47.704268,14.7301 49.2790054,14.3996 C50.4448544,14.1517 51.2015109,13.1603 51.2833088,11.7558 C51.3651068,10.2068 50.6902483,8.9262 49.5858238,8.5544 C48.522349,8.2239 47.4179245,8.637 46.9065605,9.6697 C46.6611667,10.1861 46.5588939,10.7851 46.4157728,11.3221 Z" id="Shape" fill-rule="nonzero"></path>
                        <path d="M4.28455306,12.2515 C4.28455306,13.6147 4.30492653,14.8127 4.28455306,15.9899922 C4.26407823,17.2499 3.95725986,17.5597 2.68923946,17.5803 C2.48469388,17.5803 2.28024966,17.5803 2.07570408,17.5803 C0.439542177,17.601 0.173673469,17.3531 0.173673469,15.7214 C0.173673469,11.1981 0.173673469,6.6955 0.173673469,2.19283 C0.173673469,0.78833 0.460017007,0.49917 1.8303102,0.49917 C3.63006803,0.49917 5.45030068,0.47852 7.2500585,0.49917 C10.563332,0.54048 12.6699082,2.85377 12.6699082,6.4063 C12.6699082,9.9589 10.5223823,12.2515 7.2092102,12.2722 C6.30922993,12.2722 5.38897755,12.2515 4.28455306,12.2515 Z M4.30492653,8.7196 C5.14348231,8.7196 5.83891701,8.7816 6.55472517,8.699 C7.69999796,8.5957 8.33400816,7.9347 8.49760408,6.7781 C8.6203517,5.8487 8.51807891,4.79528 7.6182,4.44416 C6.67737143,4.09303 5.5730483,4.17565 4.55042177,4.11369 C4.48899728,4.11369 4.32540136,4.38219 4.32540136,4.52677 C4.28455306,5.9106 4.30492653,7.2738 4.30492653,8.7196 Z" id="Shape" fill-rule="nonzero"></path>
                        <path d="M79.2004354,1.3047 C80.1613333,1.71779 80.3052653,2.37873 79.8552245,3.34949 C79.7123061,3.6593 79.5278299,3.94846 79.3849116,4.25828 C78.9956871,5.1051 78.4027279,5.1877 77.6252925,4.85726 C76.9299592,4.5681 76.2346259,4.25828 75.5190204,4.1137 C75.0487075,4.01043 74.4760204,4.03108 74.0259796,4.19632 C73.6580408,4.32024 73.1674558,4.69202 73.125898,5.0018 C73.0650816,5.3736 73.3103741,5.9519 73.6174966,6.2204 C74.0675374,6.6129 74.6604966,6.8607 75.1916259,7.1292 C76.1332653,7.5836 77.1347075,7.9554 78.0550612,8.4718 C79.7528503,9.4219 80.6326599,10.8677 80.4887279,12.8712 C80.3458095,14.854 79.4457279,16.4031 77.6465782,17.1879 C74.6807687,18.4891 71.8578776,17.9315 69.2204762,16.1965 C68.5656871,15.7628 68.5038571,15.1638 68.8930816,14.4822 C69.0157279,14.2757 69.1586463,14.0691 69.2812925,13.8832 C70.2421905,12.4787 70.4063946,12.4994 71.9399796,13.181 C72.8806054,13.5941 73.9236054,13.8626 74.9260612,13.9452 C75.376102,13.9865 76.0917075,13.4495 76.2559116,13.0157 C76.3785578,12.6853 75.8869592,12.0037 75.4987483,11.6525 C75.0892517,11.2808 74.4962925,11.0949 73.9854354,10.8264 C73.2485442,10.4752 72.4721224,10.1861 71.7767891,9.7937 C69.4860408,8.5337 68.545415,6.7162 68.9741701,4.48548 C69.4039388,2.27546 71.204102,0.64376 73.5972245,0.31329 C74.0675374,0.25133 74.5378503,0.25133 75.0284354,0.21002 C76.0511633,0.25133 77.8918707,0.74704 79.2004354,1.3047 Z" id="Path"></path>
                        <path d="M103.089088,4.9812 C106.913422,5.0225 109.592381,7.2532 110.001878,10.6198 C110.451918,14.3376 107.956422,17.4564 104.192905,17.8076 C101.738966,18.0348 99.4684898,17.5597 97.7707007,15.6182 C96.0526395,13.656 95.7870748,11.3428 96.7277007,8.9675 C97.6693401,6.5716 99.6114082,5.4149 102.066361,5.0432 C102.434299,5.0019 102.82251,5.0019 103.089088,4.9812 Z M105.910966,11.5286 C105.931238,9.7524 104.806136,8.4511 103.211735,8.4098 C101.677136,8.3685 100.388844,9.7317 100.348299,11.4047 C100.328027,13.119 101.534218,14.4409 103.129633,14.4409 C104.74532,14.4203 105.890694,13.2223 105.910966,11.5286 Z" id="Shape" fill-rule="nonzero"></path>
                        <path d="M62.0208367,12.6027 C62.5732517,10.5579 63.104381,8.6783 63.5544218,6.7781 C63.821,5.7041 64.3724014,5.2497 65.4975034,5.2497 C68.3406667,5.2703 68.4227687,5.3736 67.440585,8.0793 C66.1117483,11.6526 64.8021701,15.2258 63.4936054,18.799 C62.3685034,21.8145 59.7300884,23.219 56.9487551,22.4135 C56.1915918,22.1863 55.7425646,21.7939 55.9057551,20.947 C56.1510476,19.6458 56.8058367,18.9435 57.7261905,19.1707 C58.6262721,19.3979 59.2395034,19.0881 59.7716463,18.4272 C60.3230476,17.7456 60.2004014,17.1053 59.8730068,16.3411 C58.523898,13.3049 57.2356054,10.2481 55.9260272,7.1912 C55.3127959,5.7661 55.6189048,5.291 57.1332313,5.291 C59.7300884,5.2703 59.7300884,5.2703 60.5277959,7.7489 C60.9981088,9.298 61.4684218,10.8677 62.0208367,12.6027 Z" id="Path"></path>
                        <path d="M22.2824354,15.99 C21.1166878,17.4358 19.7259197,17.9315 18.0488082,17.8489 C15.8809088,17.7249 14.387868,16.465 14.2856966,14.2963 C14.162949,11.6939 14.2242721,9.0708 14.2242721,6.4683 C14.2242721,6.2411 14.2652218,5.9519 14.4083429,5.7867 C15.2673735,4.85726 16.3922728,5.291 17.3944245,5.353 C18.1920306,5.3943 18.2738286,6.1791 18.2738286,6.8607 C18.2738286,8.6783 18.2738286,10.4959 18.2738286,12.3341 C18.2738286,13.0364 18.2738286,13.9039 19.0919095,14.0072 C19.7463946,14.0898 20.5849503,13.8626 21.1371626,13.4908 C22.0370415,12.8712 22.1596878,11.7558 22.1801626,10.7025 C22.2006374,9.4012 22.1596878,8.1 22.2006374,6.7781 C22.2211122,5.6215 22.5483041,5.3117 23.6732034,5.2703 C26.1887694,5.2084 26.2705673,5.2703 26.2705673,7.7902 C26.2705673,10.4753 26.2500925,13.1603 26.2705673,15.8247 C26.2705673,16.7335 26.1682946,17.4771 25.0638701,17.601 C23.1005163,17.8076 22.630102,17.5597 22.2824354,15.99 Z" id="Path"></path>
                        <path d="M112.026048,8.8023 C110.47219,8.3892 110.328259,8.162 110.390088,6.7162 C110.430633,5.6215 111.125966,5.4562 112.10815,5.4356 C112.10815,4.69203 112.087878,3.98978 112.10815,3.26688 C112.128422,2.3994 112.537918,1.92435 113.436986,1.92435 C113.683293,1.92435 113.908313,1.92435 114.153605,1.92435 C115.809837,1.92435 116.055129,2.1722 116.055129,3.8039 C116.055129,4.32025 116.055129,4.81596 116.055129,5.229 C116.893381,5.4562 117.691088,5.5389 118.305333,5.9106 C118.59117,6.0759 118.570898,6.8401 118.570898,7.3358 C118.570898,8.4305 118.407707,8.5131 116.137231,8.7196 C116.137231,10.0622 116.014585,11.4254 116.198048,12.7679 C116.259878,13.2016 117.037313,13.6973 117.568442,13.8626 C118.713816,14.2344 118.918565,14.5235 118.775646,16.3618 C118.693544,17.3119 118.060041,17.5184 117.302878,17.5597 C114.051231,17.7456 112.067605,15.8454 112.04632,12.6027 C112.04632,11.6732 112.04632,10.7438 112.04632,9.8143 C112.026048,9.5252 112.026048,9.174 112.026048,8.8023 Z" id="Path"></path>
                    </g>
                    <path d="M59.9968932,2.18681591 C62.9632595,-0.47040567 67.1323369,-0.496456872 69.9383618,1.01451675 C73.0384631,2.65573754 74.3211943,5.96424506 72.7177802,9.09039908 C71.4616554,11.5391825 69.7246067,13.6232787 67.5599475,15.3166805 C65.8762121,16.6452377 64.0589425,17.8435635 62.2149661,19.0159413 C61.6270141,19.3805893 61.4399659,19.7192893 61.3865522,20.3965911 C61.1726967,23.2362261 63.4977978,27.0917646 67.640068,28.0035813 C71.7289245,28.9153979 75.8177811,26.6228332 77.1540265,22.6631095 C77.3410747,22.0899929 77.6083438,21.5950152 78.2497095,21.4386392 C79.3721998,21.15213 80.2541277,22.1160392 79.9333445,23.2362261 C79.5058343,24.7211594 78.7842478,26.0497166 77.7419784,27.2220944 C72.9048285,32.6667513 64.4331394,32.1457272 60.317576,26.1800463 C60.2373551,26.0497166 60.1304274,25.9194851 59.9968932,25.7371611 C59.8632586,25.9455314 59.729624,26.1018092 59.6226963,26.2581852 C57.110547,29.6968848 53.6898633,31.3902866 49.3604645,30.8953089 C44.7638368,30.3742848 41.7439564,27.795211 40.167208,23.5749261 C40.1137582,23.4185501 40.0603093,23.2883187 40.0335848,23.132041 C39.873237,22.3504558 40.3008305,21.6471077 41.0223899,21.4646854 C41.7706833,21.2823614 42.4922498,21.6210614 42.7594888,22.4025484 C43.1870893,23.653065 43.7750313,24.8253445 44.7371098,25.7632074 C47.0621506,28.0296276 49.8147819,28.837259 52.9682768,27.8733498 C56.068378,26.9094406 57.9390613,24.7472056 58.5537201,21.6210614 C58.6606478,21.0218986 58.633941,20.3965911 58.5804269,19.7713819 C58.5537201,19.5890579 58.3131578,19.3805893 58.1261095,19.2503579 C55.5071329,17.7654246 53.1019114,16.0721211 50.963959,13.988025 C49.520816,12.5551843 48.3182052,10.9660659 47.3561166,9.16854777 C45.6724715,6.09450598 46.9285261,2.89020327 49.6811574,1.22292637 C52.8346422,-0.678816266 57.0304265,-0.340149662 59.8365518,2.0826111 C59.8632586,2.10866722 59.9166723,2.13471351 59.9968932,2.18681591 Z M49.1733962,6.4592228 C49.22684,6.79788351 49.2535669,7.13655404 49.3337376,7.47522458 C49.4940891,8.1264997 50.0018503,8.46517024 50.5630552,8.38701172 C51.2044209,8.28280691 51.5252041,7.86598769 51.5252041,7.16261016 C51.47169,5.65163064 52.2733971,4.89615071 53.8502047,5.00035551 C54.4915704,5.0264018 54.9458878,4.66168498 55.0261087,4.06251225 C55.1062292,3.48938582 54.7054259,2.94230567 54.0906666,2.86414715 C53.6096424,2.81204475 53.1019114,2.83810086 52.6208871,2.89020327 C50.4561275,3.09861288 49.1733962,4.45327536 49.1733962,6.4592228 Z" id="Shape" fill-rule="nonzero"></path>
                </g>
            </g>
        </g>
    </g>
</svg>