<svg width="72" height="65" xmlns="http://www.w3.org/2000/svg"><g fill="none"><path d="M26.567 13.718a3.936 3.936 0 0 0-2.872-2.914l.429-1.667c2.087.52 3.695 2.154 4.15 4.22l-1.707.36Zm4.678-1.528c-.684-2.956-3.007-5.297-6.024-6.069l.399-1.564c3.634.913 6.432 3.733 7.235 7.295l-1.61.339Zm4.574-.763c-1.026-4.45-4.525-7.974-9.07-9.135L27.151.74c5.171 1.285 9.151 5.291 10.283 10.352l-1.616.335Zm11.663 52.672a9.894 9.894 0 0 1-4.115-1.011c-2.8-1.307-5.478-4.11-5.14-7.399l1.614.173c-.282 2.482 1.913 4.67 4.18 5.77 1.202.56 3.526 1.365 5.519.428.176-.088.346-.19.508-.304a4.516 4.516 0 0 1-2.122-2.935 3.038 3.038 0 0 1 .759-2.466 2.286 2.286 0 0 1 1.888-.773 2.769 2.769 0 0 1 2.009 1.398c.576.993.705 2.19.355 3.288-.09.316-.212.622-.363.913a7.933 7.933 0 0 0 6.387-.389 8.185 8.185 0 0 0 4.102-5.004 11.63 11.63 0 0 1-1.3-.09c-1.887-.272-3.92-1.48-3.953-3.519.01-.78.33-1.52.888-2.055.624-.63 1.47-.98 2.348-.97a4.09 4.09 0 0 1 3.477 2.565c.289.7.437 1.452.436 2.211a7.139 7.139 0 0 0 4.14-2.738 6.098 6.098 0 0 0-.275-7.398l1.17-1.069a7.817 7.817 0 0 1 .403 9.43 8.851 8.851 0 0 1-5.648 3.501 1.106 1.106 0 0 1-.048.214c-.694 2.782-2.543 5.118-5.065 6.398a9.52 9.52 0 0 1-8.063.269c-.394.4-.853.727-1.355.97a6.36 6.36 0 0 1-2.736.592Zm2.88-6.922a.73.73 0 0 0-.5.255 1.34 1.34 0 0 0-.338 1.085 3.2 3.2 0 0 0 1.613 1.957 4.37 4.37 0 0 0 .275-.674 2.508 2.508 0 0 0-.186-1.998 1.238 1.238 0 0 0-.807-.625h-.056Zm10.595-6.412c-.424.014-.827.19-1.13.493a1.268 1.268 0 0 0-.403.888c0 1.011 1.331 1.743 2.558 1.916.45.058.902.08 1.355.065a4.18 4.18 0 0 0-.298-1.784 2.492 2.492 0 0 0-2.042-1.578h-.04Z" fill="#333"/><path d="M47.888 46.501a7.087 7.087 0 0 0-8.96-2.872 1.813 1.813 0 0 1-.455.13h-.114a30.716 30.716 0 0 1-15.32-20.107l.049-.114a2.22 2.22 0 0 1 .293-.498 7.11 7.11 0 0 0 .583-8.204 7.08 7.08 0 0 0-7.542-3.25 7.094 7.094 0 0 0-5.543 6.069 1.633 1.633 0 0 1-1.897 1.444 6.995 6.995 0 0 0-5.897 1.811 7.118 7.118 0 0 0-1.11 9.157 7.086 7.086 0 0 0 8.847 2.545c.587-.253 1.63 5.46 6.247 11.025 4.227 5.116 9.773 9.041 9.317 9.564a7.118 7.118 0 0 0 .083 9.205 7.084 7.084 0 0 0 9.08 1.403 7.035 7.035 0 0 0 3.33-5.198 1.682 1.682 0 0 1 1.907-1.444 7.003 7.003 0 0 0 5.872-1.836 7.15 7.15 0 0 0 1.23-8.83ZM17.493 20.592a.989.989 0 0 1 .719 1.68.984.984 0 0 1-1.689-.692c0-.54.432-.979.97-.988Zm-3.73 0a.986.986 0 1 1-.002 1.973.986.986 0 0 1 .001-1.973Zm-1.898 5.402a.986.986 0 1 1 .002-1.973.986.986 0 0 1-.002 1.973Zm1.897 3.428a.997.997 0 0 1-.71-1.7.992.992 0 0 1 1.696.712.988.988 0 0 1-.986.988Zm1.817-3.428a.986.986 0 1 1 .002-1.973.986.986 0 0 1-.002 1.973Zm1.914 3.428a.997.997 0 0 1-.71-1.7.992.992 0 0 1 1.695.712.988.988 0 0 1-.985.988Zm1.897-3.428a.986.986 0 1 1 .002-1.973.986.986 0 0 1-.002 1.973Zm16.061 20.042a.987.987 0 1 1-.05 1.972.987.987 0 0 1 .05-1.972Zm-3.73 0a.986.986 0 1 1-.002 1.973.986.986 0 0 1 .002-1.973Zm-1.898 5.402a.986.986 0 1 1 .986-.987.995.995 0 0 1-.986.987Zm1.898 3.427a.997.997 0 0 1-.714-1.697.992.992 0 0 1 1.7.702c0 .546-.44.99-.986.995Zm1.816-3.427a.986.986 0 1 1 .002-1.973.986.986 0 0 1-.002 1.973Zm1.914 3.427a.997.997 0 0 1-.714-1.697.992.992 0 0 1 1.7.702c0 .546-.44.99-.986.995Zm1.898-3.427a.989.989 0 0 1-.697-1.686.984.984 0 0 1 1.682.699.986.986 0 0 1-.985.987Z" fill="#66AF37"/></g></svg>