<svg width="1440" height="1024" fill="none" xmlns="http://www.w3.org/2000/svg"><mask id="a" mask-type="alpha" maskUnits="userSpaceOnUse" x="0" y="0" width="1440" height="1024"><path fill="#C4C4C4" d="M0 0h1440v1024H0z"/></mask><g mask="url(#a)"><path fill="url(#b)" d="M0 0h1440v1024H0z"/><mask id="c" mask-type="alpha" maskUnits="userSpaceOnUse" x="0" y="522" width="1440" height="502"><path fill="#C4C4C4" d="M0 522h1440v502H0z"/></mask><g mask="url(#c)"><path d="M1623.67 1086.02-895 1078c11.971-6.98 25.426-15.55 40.258-17.57 45.657-6.23 92.949-.42 137.379-12.67 49.092-13.54 89.686-47.73 136.358-68.103 80.048-34.962 183.391-109.646 268.924-91.835C-226.549 905.633-211.5 728.239-128.5 776.23-98 793.865-75.646 816.272-6 859.001c58.5 35.89 139.65-21.129 194.681-34.586 49.394-12.079 111.819-9.415 148.319 0 74.938 19.329 152.762 98.557 229.284 76.623 31.549-9.044 61.886-21.729 93.159-31.624 25.452-8.054 47.364-14.255 77.576-16.366 60.825-4.255 121.875 9.038 174.69 35.886 64.122 32.6 144.231 93.147 214.791 107.066 34.39 6.78 62 12 153.5 0s207.5 55.77 271.8 55.77c48.55-4.45 53.21 18.69 101.7 23.73 26.43 2.75-17.66-126.057 9.44-127.739 71.01-4.407 101.73-64.137 172.79-60.542 92.69 4.697 178.5 53.333 271 60.906 86.02 7.045 173.93-21.769 257.99-2.197 71.58 16.683 132.15 66.882 204.09 81.902 43.98 9.19 89.49 4.62 134.3 1.38 5.82-.42 12.07-.72 17.08 2.27 5.48 3.3 8.14 9.67 10.32 15.67 7.04 19.39 12.8 39.23 17.24 59.37 1.32 5.94 2.47 12.35.05 17.92-4.26 9.84-16.93 12.17-27.62 12.85-72.41 4.68-144.93-3.53-217.33-8.36-263.6-17.59-529.85 9.48-791.6-26.3-50.24-6.86-101.15-16.05-151.29-8.52" fill="#9DD87D"/><mask id="d" mask-type="alpha" maskUnits="userSpaceOnUse" x="554" y="544" width="48" height="48"><path fill="#C4C4C4" d="M554 544h48v48h-48z"/></mask><g mask="url(#d)"><path fill-rule="evenodd" clip-rule="evenodd" d="M559.473 572.933c-1.273 1.329-2.595 2.742-3.05 4.524-.854 3.338 1.578 7.483 4.591 8.876a7.857 7.857 0 0 0 5.873.265c1.863-.665 3.391-2.005 5.077-3.038 1.246-.763 2.749-1.426 4.244-1.344 1.705.094 1.84 1.389 2.655 2.675 1.107 1.746 3.38 2.666 5.394 2.182.524-.126 1.039-.345 1.432-.713 1.012-.948.953-2.556.691-3.917-.262-1.361-.638-2.83-.039-4.08.711-1.481 2.491-2.053 4.081-2.477l6.071-1.613c.849-.225 1.717-.46 2.432-.969.715-.508 1.255-1.357 1.145-2.226-.1-.792-.717-1.442-1.432-1.8-.715-.357-1.523-.472-2.315-.581l-4.549-.63c-.691-.095-1.438-.218-1.92-.722-.516-.539-.579-1.365-.497-2.106.36-3.245 2.9-6.122 2.551-9.369-.208-1.938-1.467-3.654-3.063-4.778-1.596-1.123-3.505-1.719-5.415-2.124-1.903-.403-3.873-.632-5.794-.328-3.137.495-6.006 2.477-7.574 5.234-1.895 3.331-2.395 7.438-3.85 10.986-1.327 3.231-4.363 5.594-6.739 8.073Z" fill="#71D0FF"/><path d="M565.157 567.186a95.935 95.935 0 0 1 24 11.25m-31.5-11.25c2.302-1.014 4.967-1.365 7.5-.987-.841-3.327-3.738-6.182-7.373-7.263" stroke="#000" stroke-width="2.25"/><path fill-rule="evenodd" clip-rule="evenodd" d="M584.657 559.685c0 2.9-2.183 5.251-4.875 5.251s-4.875-2.351-4.875-5.251c0-2.899 2.183-5.249 4.875-5.249s4.875 2.35 4.875 5.249Zm-14.25 18.751a4.5 4.5 0 1 1-8.999.001 4.5 4.5 0 0 1 8.999-.001Z" fill="#fff"/><path fill-rule="evenodd" clip-rule="evenodd" d="M563.657 578.294c-.008.687.295 1.332.63 1.918.274.477.607.967 1.104 1.149.6.22 1.266-.076 1.758-.502.569-.492 1.012-1.212 1.008-1.992-.003-.676-.332-1.295-.651-1.879-.44-.805-1.179-1.823-2.175-1.486-.899.304-1.663 1.868-1.674 2.792Z" fill="#66AF37"/><path fill-rule="evenodd" clip-rule="evenodd" d="M580.482 578.832c.596.494 1.066 1.208 1.162 2.014.058.487-.074 1.067-.489 1.269-.453.221-.964-.117-1.343-.465-.19-.174-.38-.361-.49-.604-.27-.594-.201-2.116-.653-3.268-.16-.408 1.309.638 1.813 1.054Zm5.384-7.505c.777.455 1.599.875 2.5 1.04.901.165 1.902.043 2.613-.496.176-.132.337-.297.4-.499.13-.416-.207-.857-.633-1.036-.426-.178-.913-.159-1.38-.137-1.506.073-3.258-.057-4.709.285.306.321.77.64 1.209.843Z" fill="#fff"/><path fill-rule="evenodd" clip-rule="evenodd" d="M576.442 560.73c.191 1.078 1.238 1.917 2.34 1.954 1.102.038 2.169-.675 2.628-1.671.736-1.595-.228-4.049-2.143-4.312-1.788-.247-3.091 2.535-2.825 4.029Z" fill="#66AF37"/></g><rect opacity=".5" x="62" y="938.001" width="339.177" height="16.907" rx="8.454" fill="#51B02B"/><rect opacity=".5" x="423" y="967.001" width="194" height="17" rx="8.5" fill="#51B02B"/><rect opacity=".5" x="344" y="903.001" width="132" height="17" rx="8.5" fill="#51B02B"/><path fill-rule="evenodd" clip-rule="evenodd" d="M371.337 845.366c-.527.381-.998.905-1.482 1.444a22.325 22.325 0 0 0-3.428 5.07l1.49-.164c.138-.016.293-.025.399.064.123.104.12.292.106.453-.151 1.852-.448 3.764-.438 5.619 1.741-.242 1.018 1.069 1.239 2.251 1-.147 2.019-.528 3-.8.898-.248-.303 7.098-.518 7.893-.922 3.399-1.715 6.652-1.761 10.204l1.607-.163a14.975 14.975 0 0 0-.954 8.337c-1.373.301-2.118 1.757-2.633 3.063-1.045 2.646-2.056 5.413-2.646 8.199.482-.433 1.372-.086 1.52.532.13.54-.44 1.165-.636 1.628-.228.541-1.095 5.557-1.202 5.582a6.114 6.114 0 0 1 1.458-.148c.16.003.335.018.453.127.131.121.15.318.147.497-.023 1.391-.889 2.666-.912 4.058-.002.134.006.276.08.387.283.422.916-.066 1.424-.06.664.007.927.834 1.336 1.356.77.982 2.539.732 3.634.649 1.504-.114 3.047-.209 4.565-.368-.284-1.29-1.642-2.074-2.128-3.301 1.174.078 2.342.246 3.491.501-.915-1.947-3.038-2.996-4.455-4.616-.411-.47-.772-1.011-.886-1.625-.072-.38-.06-1.108.273-1.388.532-.449.593.023 1.002.435.2.202 2.334 1.422 2.327 1.349-.155-1.644-.286-3.407.53-4.842.284-.498.774-.976 1.344-.908.56.068 1.195.621 1.584.213.172-.18.166-.46.162-.71a7.158 7.158 0 0 1 1.057-3.854c-.001.001 2.093 3.349 2.351 3.806.892 1.584 1.54 2.883 1.786 4.725.252 1.881.317 3.841 1.151 5.545.547.154 1.215-.478 1.634-.095.121.111.171.278.209.437.345 1.434.215 3.01.935 4.298.099.179.234.363.435.405.201.042.397-.072.58-.166a3.411 3.411 0 0 1 2.414-.255c.694.186 1.306.587 1.958.888a7.288 7.288 0 0 0 2.826.667c.111.002.232 0 .319-.068.093-.073.121-.198.149-.311a3.59 3.59 0 0 1 1.823-2.295c.101-.052.214-.109.252-.216.059-.162-.088-.32-.22-.429-1.789-1.473-3.872-2.787-4.84-4.89-.084-.186-.158-.413-.047-.583.113-.175.354-.199.562-.205l2.813-.081c.54-.016 1.237-.166 1.3-.701.051-.433-.372-.75-.72-1.013a5.95 5.95 0 0 1-1.803-2.229 9.726 9.726 0 0 1 2.577-.166c.073-1.031-1.742-1.359-1.758-2.393 1.748.11 3.503.386 5.244.277-.246-1.437-.363-3.21.833-4.047 2.416-1.692 5.098 2.981 8.004 2.465 1.621-.287 2.591-2.119 4.192-2.499 2.354-.559 4.185 2.202 6.556 2.682 2.693.545 4.964-1.913 6.607-4.111-.364.364.457 3.838.529 4.446.194 1.629.415 3.258.582 4.89.299 2.926-.375 5.853-1.005 8.702-.05.226-.076.513.117.64a.438.438 0 0 0 .3.05c.484-.064.818-.501 1.233-.757a.765.765 0 0 1 .341-.129c.398-.028.664.421.701.818.025.273-.122.976.096 1.186.383.366.246-.106.542 0 .745.268 1.708.383 2.505.641a8.723 8.723 0 0 0 3.794.347c-.22.028.478-1.273.639-1.386.512-.36 1.024-.268 1.61-.228-.126-.3.005-.658.234-.89.229-.232.537-.364.837-.491a20.497 20.497 0 0 1-3.046-2.842c.509-.346 1.466.163 1.699-.406.063-.152.03-.323-.003-.483-.239-1.132-1.88-3.562-.923-4.474 1.675 1.675 2.155 4.973 2.066 7.241.34-.402.864-.643 1.391-.64-.061.826.296 1.598.52 2.377.257.894.075.974 1.267 1.071 1.543.126 3.265-.576 4.687.302.536.33 1.089.891 1.68.674.644-.236.722-1.231 1.359-1.485.169-.067.356-.07.539-.073l2.118-.029c-.932-1.066-1.754-1.931-2.421-3.176.372.098.649-.43.493-.781-.157-.351-.537-.534-.881-.707-2.098-1.055-2.946-2.377-4.214-4.222-.414-.602-.848-1.294-.704-2.01.438.02.877.038 1.316.057-.11-2.163-1.751-3.804-2.495-5.747-.417-1.088-.19-1.588.027-2.642.251-1.222.126-2.612-.165-3.814a11.995 11.995 0 0 1 4.903 4.879c1.93-3.493 2.28-7.819.934-11.576l3.7.335c-.551-.05-1.806-3.657-2.021-4.203-.539-1.372-.869-2.89-.774-4.379 1.336.648 2.814.885 4.01-.22.805-.743.915-1.963 1.466-2.909.551-.946 2.18-1.447 2.611-.441l-.695-4.835 4.627.812c-.678-2.221 1.594-4.753 3.878-4.324a13.48 13.48 0 0 0-1.853-4.145l3.055-1.86c-2.398-.709-3.119-4.428-1.158-5.979-.952-.612-.886-2.124-.163-2.995.722-.869 1.859-1.259 2.935-1.609l-3.74-1.748 2.799-4.452c-1.402.614-3.278.322-4.106-.963-.828-1.285.041-3.406 1.571-3.418l-4.893.065a37.735 37.735 0 0 0-5.144-13.968c-.258-.419-.613-.883-1.105-.868-.36.011-.652.282-.898.543-3.339 3.565-4.761 8.824-3.67 13.582a3.46 3.46 0 0 0-2.363 1.54 9.298 9.298 0 0 0-6.6-1.954 34.372 34.372 0 0 0-8.176-7.946c-3.868 4.202-3.581 11.529.603 15.418a9.714 9.714 0 0 0-5.114 4.249c.726.418 1.492.561 2.318.601.449.022 1.181-.171.515.622a22.75 22.75 0 0 1-4.328 3.975 8.994 8.994 0 0 0 4.275 1.4c-.405 1.563-2.373 2.105-3.346 3.396a3.126 3.126 0 0 0-.563 2.445l-4.869-1.449c-.47-.14-.963-.281-1.447-.192-.825.152-1.424 1.063-1.237 1.88l-5.495-1.326c-.399-.096-.911-.152-1.135.192-.119.182-.108.418-.184.622-.242.651-1.157.662-1.834.501-4.02-.956-7.36-3.67-11.105-5.414-.648-.303-1.578-.5-1.947.113l1.999 1.781c.111.099.233.226.206.372-.046.244-.401.228-.636.147-4.861-1.673-9.78-3.954-14.894-3.425l1.666 1.965c.174.205.345.531.144.711-.108.097-.271.088-.414.074-3.447-.333-7.061-.554-9.765-2.987-1.883-1.693-3.054-4.863-5.708-5.554-1.016-.264-1.79-.01-2.471.483Z" fill="#9E7343"/><path d="m430.413 856.835 23.712 19.4v-2.18l.818-2.18-13.709-10.69-8.64-8.117c-2.453 1.363-2.144 3.186-2.181 3.767Z" fill="#000"/><path fill-rule="evenodd" clip-rule="evenodd" d="M449.762 863.942c.123-1.109 1.343-1.907 2.32-1.517 1.163.466 1.506 2.054 1.48 3.385-.036 1.843-.441 3.658-.501 5.5-.061 1.842.286 3.821 1.498 5.128 1.213 1.307 3.468 1.576 4.588.178.63-.787.78-1.88.884-2.911.177-1.754.293-3.56-.171-5.252-.373-1.364-1.116-2.622-1.238-4.037-.122-1.414.764-3.104 2.086-3-1.481-1.84-3.79-2.877-6.053-2.717-2.263.16-4.425 1.514-5.667 3.547" fill="#FFC6C0"/><path fill-rule="evenodd" clip-rule="evenodd" d="M435.011 864.216a16.312 16.312 0 0 1 4.347-2.009c-.409 1.956-.811 4.037-.116 5.911.106.286.294.605.6.62.268.014.477-.216.651-.421a12.264 12.264 0 0 1 1.833-1.754c.217-.168.503-.336.748-.214.156.079.238.252.297.415.447 1.255.311 2.888 1.418 3.629a24.742 24.742 0 0 0 5.061-6.547c.44-.824.841-1.686 1.468-2.378 1.896-2.092 5.342-1.996 7.834-.665 2.491 1.329 4.316 3.596 6.284 5.621-.115-.819-.228-1.656-.076-2.469.153-.813.623-1.613 1.381-1.945 1.57-.686 3.348.876 5.021.504l-.834-3.245c-.057-.223-.113-.469-.014-.678.098-.206.324-.319.541-.39.982-.321 2.057-.083 3.082-.219.162-.022.34-.063.434-.197.17-.242-.05-.562-.266-.764-1.135-1.061-2.558-1.912-3.22-3.316-.285-.604-.426-1.304-.905-1.769-.345-.334-.818-.497-1.28-.629a16.435 16.435 0 0 0-10.6.566c-.456-1.507 1.715-2.643 1.776-4.216.039-.989-.759-1.779-1.414-2.521a12.487 12.487 0 0 1-2.912-5.969 17.06 17.06 0 0 0-3.684 3.844l-1.615-1.089c-.198-.134-.433-.274-.663-.205-.179.052-.298.219-.388.382-.67 1.222-.43 2.725-.11 4.081a6.52 6.52 0 0 0-2.065-1.113c-.432-.14-1.045-.148-1.188.282-.126.38.247.724.564.968a11.154 11.154 0 0 1 2.829 3.22c.937 1.61.678 3.416-1.465 3.422-1.56.005-3.079-.616-4.655-.369-3.167.495-6.763 3.16-8.195 5.977-.442.872-.749 1.824-.848 2.799-.027.261.235 2.921.344 2.85Z" fill="#F7F7F7"/><path fill-rule="evenodd" clip-rule="evenodd" d="M449.64 852.145c.02 1.078-.692 1.966-1.591 1.985-.899.018-1.644-.841-1.664-1.919-.02-1.078.692-1.966 1.591-1.984.899-.018 1.644.84 1.664 1.918Zm13.021-.651c.02 1.078-.692 1.966-1.591 1.984-.898.018-1.643-.84-1.663-1.918-.02-1.078.692-1.966 1.59-1.985.899-.018 1.644.841 1.664 1.919Zm-9.549 4.339c-.109.19-.192.405-.211.631-.058.653.389 1.206.803 1.659.179.196.366.399.602.488.165.062.343.064.518.065l1.028.006c.297.002.601.002.882-.112.491-.199.827-.71 1.131-1.195.078-.124.157-.249.2-.393.043-.145.047-.303.029-.455-.151-1.28-1.392-1.456-2.279-1.659-.97-.222-2.104-.07-2.703.965Z" fill="#333"/><path d="M381.082 892.638v-10.58m59.248 18.621-.847-11.003m-34.702 2.538c1.975-1.41 5.671-5.67 4.655-11.426" stroke="#000" stroke-width="2" stroke-linecap="round"/><path d="m398.578 748.326 2.533-2.584L554.165 903.32l-2.533 2.584-153.054-157.578Z" fill="#71D0FF"/><path d="m393.52 746.222 3.372-1.314 36.976 109.705-3.372 1.314-36.976-109.705Z" fill="#FFC6C0"/><path d="m196.657 820.709-79.272 63.774c.181.387 5.428 11.368 7.88 16.465 1.756 3.656 3.519 7.294 5.288 10.914.832 1.726 2.102 3.558 2.586 5.455a5.095 5.095 0 0 0 2.842 3.836 56.33 56.33 0 0 0 12.611 5.465c1.841.544 3.943.961 5.586-.038a6.608 6.608 0 0 0 2.138-2.537c.363-.547.576-1.18.618-1.835a3.815 3.815 0 0 0-1.495-2.468c-.358-.345-.72-.641-1.054-1.024-2.642-2.414-6.877-5.254-8.376-8.557-.783-1.721-.531-4.45-.694-6.327-.195-2.185-.388-4.362-.576-6.549-.435-4.966-.312-3.915-.712-8.894l77.952-53.598" fill="#DBA258"/><path d="m127.031 876.118-19.613 14.037 41.915 47.911a.937.937 0 0 0 .879.314.977.977 0 0 0 .734-.598l7.246-14.18-18.062-39.66-11.776-8.112" fill="#000"/><path d="m267.444 826.354 11.065 100.872 16.939 1.26V825.314l-22.911-11.899-5.093 12.939Z" fill="#DBA258"/><path d="m277.326 923.597-4.764 22.503 61.041.521a.873.873 0 0 0 .797-1.261l-3.413-13.521-40.116-12.141-12.887 2.948" fill="#000"/><path d="M228.481 704.945s-1.867 7.233-4.668 17.982c-8.053 30.9-26.586 88.083-27.932 88.745l-20.467 15.009 31.383 27.29 21.684-18.193 26.936-87.534 8.234 108.001 40.479-2.274-26.185-154.718-49.464 5.692Z" fill="#fff"/><path d="m286.075 656.725 21.032 18.773 41.149 36.724c9.466 8.416 31.185 27.686 31.185 27.686s3.826-9.521 28.156 5.566c-1.073 3.157-7.669.789-6.674 2.826 1.207 2.479-3.464 9.56-7.282 14.715-2.493 3.379-13.167-4.531-13.94-5.787-3.589-5.826-12.922-12.197-18.042-16.412a1243.32 1243.32 0 0 0-15.573-12.592 1864.274 1864.274 0 0 0-14.918-11.762 1537.294 1537.294 0 0 0-7.494-5.834c-.947-.727-2.036-1.958-3.101-2.471-1.065-.513-1.956-.056-3.076.292a7.094 7.094 0 0 1-3.085.418 2.864 2.864 0 0 1-2.367-1.776 4.278 4.278 0 0 1-.142-1.342c0-2.368.269-3.387-1.522-4.863-.718-.592-1.412-1.2-2.122-1.8l-6.39-5.408-20.591-17.446" fill="#DBA258"/><path d="M399.75 752.842c-2.575-2.094-5.939-4.534-9.465-6.87l.998-1.503c3.57 2.372 6.978 4.847 9.598 6.976l-1.131 1.397Zm-1.766 3.169c-1.321-.881-3.43-2.381-5.473-3.83a296.52 296.52 0 0 0-4.732-3.327l1.014-1.488c1.24.842 3.028 2.143 4.76 3.348 2.033 1.43 4.13 2.934 5.429 3.795l-.998 1.502Zm-1.83 3.547c-.473-.311-2.982-1.909-5.491-3.512l-5.502-3.514.981-1.51 5.49 3.506c2.515 1.605 5.029 3.209 5.502 3.52l-.98 1.51Zm-10.552-1.71.895-1.562 8.163 4.68-.895 1.562-8.163-4.68Z" fill="#FFBE71"/><path d="M265.016 614.701c.21-.744 1.869-1.742 3.264-.903" stroke="#000" stroke-width="1.2" stroke-linecap="round"/><path d="M270.572 621.569c-.134-.514.553-2.891.419-3.42-.513-1.931-4.964-.56-6.052-2.39-1.798-3.125-1.504-9.942-5.143-9.957-5.826 0-10.548 4.672-10.548 12.094v.109l-9.727-.109 8.6 16.063-6.621 18.466c8.372 4.969 14.852 5.158 24.5 0l-3.007-6.554c-.859-2.391-5.31-8.618-1.352-9.794 1.198-.366 2.491-.124 3.752-.078 1.262.047 2.665-.179 3.429-1.16.5-.788.735-1.712.67-2.64 0-.95-.409-2.967.276-3.769.264-.251.591-.429.946-.514l1.104-.374a.613.613 0 0 0 .347-.218.622.622 0 0 0 0-.413c-.465-1.845-1.104-3.566-1.593-5.342Z" fill="#DBA258"/><path d="M268.159 631.199h-3.771s.809 2.289 3.816 2.051l-.045-2.051Z" fill="#FFFEFD"/><path d="M248.15 634.448c-.492.819-.012 2.183-.65 2.893.527-.608-6.787-7.202-7.305-8.329a21.291 21.291 0 0 1-2.154-10.733c.742-10.223 5.783-10.198 5.783-10.198s3.047-3.487 8.571-5.007c5.524-1.521 17.224.107 20.039 7.915.679 1.87-5.492-.259-6.529 0-2.833.698-3.481 3.238-6.181 4.401a9.354 9.354 0 0 0-5.425 6.422 12.518 12.518 0 0 1-.751 3.121c-.491.957-1.627 1.718-2.619 1.315a9.84 9.84 0 0 0-1.171-3.9 3.571 3.571 0 0 0-3.432-1.788 3.379 3.379 0 0 0-2.502 3.488 6.358 6.358 0 0 0 2.055 4.087 8.96 8.96 0 0 1 2.271 2.683c.457 1.365.839 2.462 0 3.63Z" fill="#000"/><path d="M259.429 627.2c-.358-1.772-2.982-4.136-4.025-4.431-3.131-.591-17.978-4.695-16.547-9.302 1.431-4.607 5.366-9.731 13.416-11.063 18.615-3.082 24.149 12.392 23.702 16.821-.358 3.544-3.154 2.946-7.179 1.174 2.229 2.576 1.693 4.416-2.6 4.416s-5.277-1.602-5.873-2.488c.894 3.101-.447 7.087-.894 4.873Z" fill="#000"/><path d="M211 654.503c-10.755 9.565-21.143 18.878-31.755 28.107-1.047.917-2.162 1.941-2.392 3.309-.223 1.621.231 4.003 1.826 4.365-.367-.096.378.037 0 0 1.918.684 1.64 4.053 2.166 5.716.564 1.808 1.195 3.6 1.802 5.391 1.565 4.622 3.829 8.157 6.403 12.612 1.865 4.349 9.662 17.919 12.471 21.853L213 729.502l-18-39.218 30.442-22.39" fill="#DBA258"/><path d="M233.229 745.477c-17.133-21.471-20.936-17.642-20.936-17.642l-15.875-.598c3.27 5.46 8.226 14.342 11.022 20.646.295 1.383 7.395 11.97 10.737 9.719 5.111-3.43 9.256-6.353 9.68-10.631-.242-2.161 3.385 1.014 5.372-1.494ZM211 654.502l-2.384 2.074 13.645 13.19 7.731-.986-6.367-17.284L211 654.502Z" fill="#DBA258"/><path d="M581.589 953.309c5.015 5.091 10.385 11.697 10.11 16.427-.51 8.783-9.077-2.232-11.419-3.611-2.342-1.379-15.298-12.141-15.298-12.141l-4.033-2.66s-1.036-.021-4.997.464c0 0-14.075 7.603-51.797 3.678l-2.747-1.244-3.67-1.57-1.952-.039s.765.296-4.293 1.561l-4.92 3.325s-13.538 17.993-22.684 18.821c0 0-2.301-3.086 1.882-9.432s12.944-22.057 12.944-22.057-18.789 10.105-32.181 4.432c0 0 .456-6.078 12.291-6.518l11.952-14.46 1.354-8.628 1.486-6.334.744-3.768s-10.963-9.683-9.709-21.492c0 0 23.585 20.423 24.595 20.444 1.01.02 59.252-2.279 59.252-2.279l14.589-8.761 17.016 28.345s-1.139 5.157-1.17 6.71c-.014.656-.552 5.732-.125 6.212.237.263.504.526.796.788 2.376 2.132 6.404 4.203 8.893 5.586 2.654 1.467 5.67 2.928 6.795 5.739.649 1.694.529 3.597.322 5.411-4.829.219-9.429-1.299-14.026-2.949Z" fill="#F7F7F7"/><path d="m581.194 952.893-1.719-.793a11.008 11.008 0 0 1-3.201-2.114 9.785 9.785 0 0 1-5.106-5.848l1.952-.645a7.692 7.692 0 0 0 4.208 4.69l.264.115.159.228c.241.274.521.51.833.7-.338-2.248-.7-4.626-1.062-7.004-.483-3.153-.508-5.337-.929-8.195l2.055-.3c.421 2.857.445 5.035.922 8.181.476 3.145.954 6.243 1.375 9.074l.249 1.911Zm-26.538-.444a16.691 16.691 0 0 1-1.185-9.043l2.042.301a14.933 14.933 0 0 0 1.023 7.939l-1.88.803Zm-52.478 2.872c-.762-.5-.42-1.217-.057-1.969.492-1.028 1.995-4.155 1.953-5.427l2.049-.061c.045 1.538-1.008 3.963-2.175 6.358-.129.264-.221.461-.257.549l-.935-.374.778.699-1.356.225Zm-48.23-8.037a2.592 2.592 0 0 0 1.12-.661c.537-.577.5-1.473.434-2.26-.26-3.046-5.762-.724-6.688.857-2.052 3.58 3.23 2.695 5.134 2.064Zm13.404 22.149a8.073 8.073 0 0 0 2.105-4.536 1.21 1.21 0 0 0-.179-.947 1.257 1.257 0 0 0-.677-.307c-.727-.172-1.585-.305-2.134.203a2.243 2.243 0 0 0-.415.621c-.519 1.014-1.884 3.378-1.759 4.611.189 1.821 1.992 1.488 3.059.355Zm113.913-2.046c-.748-.138-.882-1.296-.326-1.817a2.294 2.294 0 0 1 2.164-.299 5.33 5.33 0 0 1 2.968 2.171c.49.741.756 1.812.155 2.47a1.712 1.712 0 0 1-1.606.405 5.09 5.09 0 0 1-1.556-.714l-2.373-1.503" fill="#000"/><path d="M560.34 894.208c1.73-9.288 9.214-15.291 18.486-16.4a10.184 10.184 0 0 1 5.664.631c1.785.865 3.057 2.485 4.575 3.748 2.67 2.219 5.842 2.065 9.043 1.559l11.826-1.928a4.355 4.355 0 0 1 2.927.193c1.434.837 1.465 2.878 1.308 4.532-.46 4.838-1.014 9.778-3.081 14.181-2.477 5.264-8.505 10.954-14.236 12.144-6.677 1.348-7.621.871-13.167 5.763-.804.903-3.389 5.985-3.581 7.179 0 0-8.274-4.327-9.309-4.348-4.431-.089-4.485-.504-7.094-.567a7.028 7.028 0 0 1-3.549-.692c-3.357-2.056-2.697-8.092-1.991-11.279.489-2.196 1.359-4.281 1.653-6.533.345-2.749.027-5.49.526-8.183Z" fill="#F7F7F7"/><path d="m549.313 905.656 30.056 23.884.427-2.282.824-3.037-16.375-13.104-9.522-8.787c-3.007 1.511-5.352 2.657-5.41 3.326Z" fill="#71D0FF"/><path d="M583.965 888.53c-.26 1.2.026 2.454.781 3.423.202.263.549.508.832.338a.721.721 0 0 0 .257-.399 8.173 8.173 0 0 0 .434-2.063 2.608 2.608 0 0 0-.507-2.081c-.507-.518-1.554-.487-1.805.181" fill="#000"/><path d="M576.761 909.464a6.532 6.532 0 0 1 .057 3.399 6.729 6.729 0 0 1-1.715 2.369 119.384 119.384 0 0 1-5.416 5.07c-2.582 2.238-5.735 4.495-9.099 3.879a7.831 7.831 0 0 1-5.408-4.614 17.139 17.139 0 0 1-1.211-7.275 43.285 43.285 0 0 1 8.64-25.443c1.553-2.04 3.479-4.073 6.007-4.603 6.531-1.329 4.99 5.279 4.949 8.893-.063 6.245 1.95 12.283 3.196 18.325Zm29.543-25.366a.71.71 0 0 0 .053.467c.137.177.341.29.563.312a4.745 4.745 0 0 1 2.317.689c.753.678.667 1.867.979 2.837a7.14 7.14 0 0 0 1.903 2.71c.285.285.703.594 1.029.383a.72.72 0 0 0 .254-.274c1.207-1.82 1.397-4.116 1.545-6.288a4.284 4.284 0 0 0-.333-2.513 3.51 3.51 0 0 0-3.081-1.356c-1.968-.009-4.923.657-5.229 3.033Z" fill="#9E7343"/><path d="m568.608 923.552-1.367-1.55c2.847-2.512 5.52-6.705 5.097-10.401a47.435 47.435 0 0 0-1.422-6.585c-.452-1.739-.965-3.541-1.239-5.36-.846-4.854-.539-9.799-.247-14.578l2.069.134c-.29 4.656-.583 9.466.215 14.092.297 1.735.759 3.485 1.211 5.203a49.651 49.651 0 0 1 1.468 6.886c.548 4.703-2.769 9.495-5.785 12.159Z" fill="#000"/><path d="M502.493 915.621c-3.032-1.621-4.323-5.771-3.863-7.496l19.99-.636c1.198 3.926-3.361 8.388-7.829 8.298-4.468-.089-4.507 1.861-8.298-.166Zm25.749 13.813c-2.038-1.698 1.646-4.628 5.788-4.545 2.07.041 3.046 3.064 3.012 4.721-.041 2.071-3.189 4.079-5.259 4.038-2.071-.041-.994-2.091-3.541-4.214Z" fill="#9E7343"/><path d="M210.754 654.435c11.322-6.464 18.414-7.788 32.478-7.037l.269.67c1.43 3.574 6.838 4.169 10.706 4.136 3.868-.034 7.318-2.428 8.684-6.026l7.617 1.429c9.768 1.833 12.699 5.051 18.612 11.696l-6.367 19.102L277.75 675l4.093 46.159-55.943-2.274h-4.4l.499-46.384-5 3.999-6.245-22.065Z" fill="#FFE680"/><path d="M-11.921 1030.37c3.231-10.35-1.696-22.06-9.995-28.93-8.298-6.869-19.316-9.524-30.026-9.922-1.799-.065-3.953-.288-4.766-1.913-.587-1.166-.189-2.578.317-3.778 4.11-9.752 14.82-15.639 25.31-15.753 10.49-.115 20.528 4.797 28.503 11.67-2.45-7.413-4.308-15.339-2.806-23.004 1.277-6.476 5.116-12.505 10.722-15.89s12.924-3.881 18.713-.806c6.322 3.374 9.962 10.193 13.23 16.626l7.475 14.718c-1.324-9.18 1.993-19.216 9.327-24.776 7.335-5.56 18.61-5.647 25.31.687 3.478 3.271 5.492 7.839 7.275 12.309a229.242 229.242 0 0 1 5.6 15.737c7.362-10.096 18.847-16.271 31.233-16.791 12.386-.521 24.337 4.67 32.499 14.115-9.515-3.522-19.887 3.957-24.744 12.952-4.857 8.994-6.274 19.509-10.576 28.779-7.652 16.52-24.906 28.02-42.919 28.6" fill="#ACE5FC"/></g><mask id="e" mask-type="alpha" maskUnits="userSpaceOnUse" x="1056" y="449" width="384" height="264"><path fill="#C4C4C4" d="M1056 449h384v264h-384z"/></mask><g mask="url(#e)"><path d="M1380.44 465.274c39.32-33.359 106.35-7.939 132.24 9.885 84.14-36.892 157.27 15.372 183.31 46.116 38.83 3.924 199.05 44.643 190.69 50.53-6.68 4.709-70.28 12.755-101.24 16.189-14.25 21.586-52.09 72.509-89.45 103.513-37.35 31.005-140.06 6.051-186.75-10.302 1.14 6.051-12.68 20.605-77.16 30.417-64.48 9.811-104.2-35.159-115.99-58.871-3.44 6.868-19.66 20.212-57.01 18.643-37.35-1.57-76.21-32.312-98.32-41.774-48.17-20.604-102.3-21.512-100.73-31.324 1.58-9.811 100.26-33.196 149.41-43.662.33-7.849 6.19-28.65 27.03-49.058s90.84-35.493 110.53-5.076c0 0 1.93-8.489 33.44-35.226Z" fill="#fff"/></g><mask id="f" mask-type="alpha" maskUnits="userSpaceOnUse" x="0" y="131" width="400" height="264"><path fill="#C4C4C4" d="M0 131h400v264H0z"/></mask><g mask="url(#f)"><path d="M74.217 154.851c-42.202-44.138-106.103-17.998-132.175 0-84.75-37.251-158.412 15.521-184.65 46.563-39.108 3.963-200.49 45.077-192.075 51.021 6.733 4.755 70.791 12.879 101.978 16.346 14.356 21.796 52.474 73.213 90.097 104.519 37.623 31.306 141.086 6.109 188.115-10.402-1.155 6.109 12.772 20.804 77.72 30.711 64.95 9.907 104.949-35.5 116.83-59.442 3.465 6.935 19.801 20.409 57.424 18.824 37.623-1.586 63.875-18.824 87.148-28.804 48.514-20.805 114.927-35.096 113.343-45.003-1.584-9.907-100.988-33.519-150.491-44.086-.331-7.926-6.238-28.929-27.228-49.535-20.989-20.607-84.321-8.586-113.363 0 0 0-2.89.437-32.673-30.712Z" fill="#fff"/></g></g><defs><linearGradient id="b" x1="720" y1="0" x2="720" y2="1024" gradientUnits="userSpaceOnUse"><stop stop-color="#E6FFFD"/><stop offset=".604" stop-color="#F2FFFE"/><stop offset="1" stop-color="#fff"/></linearGradient></defs></svg>