<svg width="768" height="1024" fill="none" xmlns="http://www.w3.org/2000/svg"><mask id="a" mask-type="alpha" maskUnits="userSpaceOnUse" x="0" y="0" width="768" height="1024"><path fill="#C4C4C4" d="M0 0h768v1024H0z"/></mask><g mask="url(#a)"><path fill="url(#b)" d="M0 0h768v1024H0z"/><mask id="c" mask-type="alpha" maskUnits="userSpaceOnUse" x="0" y="480" width="768" height="544"><path fill="#C4C4C4" d="M0 480h768v544H0z"/></mask><g mask="url(#c)"><mask id="d" mask-type="alpha" maskUnits="userSpaceOnUse" x="-490" y="522" width="1440" height="502"><path fill="#C4C4C4" d="M-490 522H950v502H-490z"/></mask><g mask="url(#d)"><path d="M24 835h122.933v-27.607c2.041-4.395 3.566-8.925 2.915-8.476-7.061 5.238-15.682 8.389-24.486 8.949a56.8 56.8 0 0 0 2.69-12.166c-3.841 2.149-6.592 5.779-10.107 8.422-4.059 3.053-10.087 4.316-14.968 5.337l-.086.018c-2.456.515-5.766 1.668-8.26 1.512-2.858-.18-6.16-2.887-8.058-4.815-3.323-3.376-7.431-10.066-11.614-12.551-.424-.253.508 2.85.663 3.508.433 1.825.88 7.15-1.051 8.222-2.403 1.335-5.088-2.06-6.307-3.602l-.002-.003c-4.494-5.68-5.893-13.594-11.392-18.325-.096 5.172.492 17.151-4.504 20.437-3.87-8.53-7.802-18.953-17.172-23.86-.252.406 3.445 9.735 4.198 19.442C40.147 809.15 24 835 24 835Z" fill="#66AF37"/><path d="M32.413 831.447c1.809-3.86 1.946-8.477 1.617-12.983-.895-12.341-5.108-24.873-12.08-35.923l-3.354 1.548s19.237 28.83 6.814 52.849" fill="#51B02B"/><path d="M29.843 779.352c-2.337 3.62-6.226 6.396-10.798 6.242-3.402-.116-6.814-1.827-9.616-4.158-2.802-2.331-5.053-5.244-7.178-8.191-3.17-4.386-6.228-9.209-6.631-14.305a60.236 60.236 0 0 1 12.137 8.213c-2.229-3.896-4.525-8.58-2.778-12.195a24.407 24.407 0 0 1 8.236 8.049 39.462 39.462 0 0 1 .27-7.857c.019-.493.19-.968.493-1.357.532-.534 1.516-.433 2.233.036a5.871 5.871 0 0 1 1.673 1.939 32.433 32.433 0 0 1 4.02 9.825c1.058-2.305 3.388-3.658 5.689-4.737 1.631-.769 3.34-1.461 5.24-1.509 1.9-.048 3.992.706 5.251 2.304-1.759 2.656-3.685 4.961-4.518 8.126-.902 3.471-2.262 6.4-3.723 9.575Z" fill="#71D0FF"/><path d="M1.368 810.74a307.208 307.208 0 0 1-19.6-27.504c15.28 5.439 31.402 11.678 41.025 24.754 2.818 3.838 13.564 22.621 2.854 22.616-9.16-.019-19.224-13.553-24.279-19.866Z" fill="#51B02B"/><path d="M377.5 814C472 838.5 544 891.491 608 930.276c32.5 19.695 73.5 49.845 140 42.224 116.201-13.317 219.583 57.1 305.16 119.51L1367 1148c-14.33-1-84.79-.35-127.5 25-44.67 26.52-108.06-23.89-186.34-80.99l-57.649-10.28H-673.576V910.963a611.618 611.618 0 0 1-67.416-3.872c-2.86-.327-5.959-.784-7.943-2.87-1.909-1.999-2.289-4.973-2.507-7.729a184.04 184.04 0 0 1 13.592-85.094 5.126 5.126 0 0 1 3.806-3.268c82.155-21.649 166.8 36.66 251.424 27.134 44.206-4.973 83.563-27.94 124.176-45.418 82.954-35.668 177.413-39.11 263.455-11.704 59.99 19.106 116.978 53.184 179.92 54.132C140.5 833.107 190.41 808.883 249 803c52.656-5.287 128.5 11 128.5 11Z" fill="#66AF37"/><path d="M1133.67 1086.02-1385 1078c11.97-6.98 25.43-15.55 40.26-17.57 45.65-6.23 92.95-.42 137.38-12.67 49.09-13.54 89.68-47.73 136.35-68.103 80.053-34.962 183.396-109.646 268.929-91.835C-716.549 905.633-701.5 728.239-618.5 776.23c30.5 17.635 52.854 40.042 122.5 82.771 58.5 35.89 139.65-21.129 194.681-34.586 49.394-12.079 111.819-9.415 148.319 0 74.938 19.329 152.762 98.557 229.284 76.623 31.549-9.044 61.886-21.729 93.159-31.624 25.452-8.054 47.364-14.255 77.576-16.366 60.825-4.255 121.875 9.038 174.69 35.886C485.831 921.534 565.938 982.081 636.5 996c34.39 6.78 62 12 153.5 0s207.5 55.77 271.8 55.77c48.55-4.45 53.21 18.69 101.7 23.73 26.43 2.75-17.66-126.057 9.44-127.739 71.01-4.407 101.73-64.137 172.79-60.542 92.69 4.697 178.5 53.333 271 60.906 86.02 7.045 173.93-21.769 257.99-2.197 71.58 16.683 132.15 66.882 204.09 81.902 43.98 9.19 89.49 4.62 134.3 1.38 5.82-.42 12.07-.72 17.08 2.27 5.48 3.3 8.14 9.67 10.32 15.67 7.04 19.39 12.8 39.23 17.24 59.37 1.32 5.94 2.47 12.35.05 17.92-4.26 9.84-16.93 12.17-27.62 12.85-72.41 4.68-144.93-3.53-217.33-8.36-263.6-17.59-529.85 9.48-791.6-26.3-50.24-6.86-101.15-16.05-151.29-8.52" fill="#9DD87D"/><mask id="e" mask-type="alpha" maskUnits="userSpaceOnUse" x="64" y="544" width="48" height="48"><path fill="#C4C4C4" d="M64 544h48v48H64z"/></mask><g mask="url(#e)"><path fill-rule="evenodd" clip-rule="evenodd" d="M69.473 572.933c-1.273 1.329-2.595 2.742-3.05 4.524-.854 3.338 1.578 7.483 4.59 8.876a7.857 7.857 0 0 0 5.874.265c1.863-.665 3.39-2.005 5.077-3.038 1.246-.763 2.75-1.426 4.244-1.344 1.705.094 1.84 1.389 2.655 2.675 1.107 1.746 3.38 2.666 5.394 2.182.524-.126 1.038-.345 1.432-.713 1.012-.948.953-2.556.691-3.917-.261-1.361-.638-2.83-.038-4.08.71-1.481 2.49-2.053 4.08-2.477l6.071-1.613c.849-.225 1.717-.46 2.432-.969.715-.508 1.255-1.357 1.145-2.226-.1-.792-.717-1.442-1.432-1.8-.715-.357-1.523-.472-2.315-.581l-4.549-.63c-.691-.095-1.438-.218-1.92-.722-.516-.539-.58-1.365-.497-2.106.36-3.245 2.9-6.122 2.551-9.369-.208-1.938-1.467-3.654-3.063-4.778-1.596-1.123-3.505-1.719-5.415-2.124-1.903-.403-3.873-.632-5.794-.328-3.137.495-6.006 2.477-7.574 5.234-1.895 3.331-2.395 7.438-3.85 10.986-1.327 3.231-4.363 5.594-6.739 8.073Z" fill="#71D0FF"/><path d="M75.157 567.186a95.952 95.952 0 0 1 24 11.25m-31.5-11.25c2.302-1.014 4.967-1.365 7.5-.987-.84-3.327-3.738-6.182-7.373-7.263" stroke="#000" stroke-width="2.25"/><path fill-rule="evenodd" clip-rule="evenodd" d="M94.657 559.685c0 2.9-2.182 5.251-4.875 5.251-2.692 0-4.875-2.351-4.875-5.251 0-2.899 2.183-5.249 4.875-5.249 2.693 0 4.875 2.35 4.875 5.249Zm-14.25 18.751a4.5 4.5 0 1 1-9 0 4.5 4.5 0 0 1 9 0Z" fill="#fff"/><path fill-rule="evenodd" clip-rule="evenodd" d="M73.657 578.294c-.008.687.295 1.332.63 1.918.274.477.607.967 1.104 1.149.6.22 1.266-.076 1.758-.502.57-.492 1.012-1.212 1.008-1.992-.003-.676-.332-1.295-.65-1.879-.441-.805-1.18-1.823-2.176-1.486-.9.304-1.663 1.868-1.674 2.792Z" fill="#66AF37"/><path fill-rule="evenodd" clip-rule="evenodd" d="M90.482 578.832c.596.494 1.066 1.208 1.162 2.014.058.487-.074 1.067-.489 1.269-.453.221-.964-.117-1.343-.465-.19-.174-.38-.361-.49-.604-.27-.594-.2-2.116-.653-3.268-.16-.408 1.31.638 1.813 1.054Zm5.384-7.505c.777.455 1.599.875 2.5 1.04.901.165 1.902.043 2.613-.496.176-.132.337-.297.4-.499.13-.416-.207-.857-.633-1.036-.426-.178-.913-.159-1.38-.137-1.506.073-3.258-.057-4.709.285.306.321.77.64 1.21.843Z" fill="#fff"/><path fill-rule="evenodd" clip-rule="evenodd" d="M86.442 560.73c.19 1.078 1.238 1.917 2.34 1.954 1.102.038 2.17-.675 2.629-1.671.735-1.595-.229-4.049-2.144-4.312-1.788-.247-3.09 2.535-2.825 4.029Z" fill="#66AF37"/></g><rect opacity=".5" x="-67.001" y="967.001" width="194" height="17" rx="8.5" fill="#51B02B"/><path d="m-91.423 748.326 2.533-2.584L64.164 903.32l-2.533 2.584-153.054-157.578Z" fill="#71D0FF"/><path d="M91.589 953.309c5.015 5.091 10.385 11.697 10.11 16.427-.51 8.783-9.077-2.232-11.42-3.611-2.34-1.379-15.297-12.141-15.297-12.141l-4.033-2.66s-1.036-.021-4.998.464c0 0-14.074 7.603-51.796 3.678l-2.747-1.244-3.67-1.57-1.952-.039s.765.296-4.293 1.561l-4.92 3.325s-13.538 17.993-22.684 18.821c0 0-2.3-3.086 1.882-9.432 4.183-6.346 12.944-22.057 12.944-22.057s-18.788 10.105-32.181 4.432c0 0 .456-6.078 12.291-6.518l11.952-14.46 1.354-8.628 1.486-6.334.744-3.768s-10.963-9.683-9.71-21.492c0 0 23.586 20.423 24.596 20.444 1.01.02 59.252-2.279 59.252-2.279l14.59-8.761 17.015 28.345s-1.14 5.157-1.17 6.71c-.014.656-.552 5.732-.125 6.212.237.263.504.526.796.788 2.376 2.132 6.404 4.203 8.893 5.586 2.654 1.467 5.67 2.928 6.795 5.739.649 1.694.529 3.597.322 5.411-4.829.219-9.429-1.299-14.026-2.949Z" fill="#F7F7F7"/><path d="m91.194 952.893-1.719-.793a11.004 11.004 0 0 1-3.2-2.114 9.787 9.787 0 0 1-5.107-5.848l1.952-.645a7.697 7.697 0 0 0 4.208 4.69l.264.115.159.228c.24.274.521.51.832.7-.337-2.248-.699-4.626-1.061-7.004-.483-3.153-.508-5.337-.928-8.195l2.054-.3c.42 2.857.445 5.035.922 8.181.476 3.145.954 6.243 1.375 9.074l.249 1.911Zm-26.538-.444a16.7 16.7 0 0 1-1.185-9.043l2.043.301a14.934 14.934 0 0 0 1.022 7.939l-1.88.803Zm-52.478 2.872c-.762-.5-.42-1.217-.057-1.969.492-1.028 1.995-4.155 1.953-5.427l2.05-.061c.044 1.538-1.009 3.963-2.176 6.358-.129.264-.221.461-.257.549l-.935-.374.778.699-1.356.225Zm79.087 12.066c-.749-.138-.882-1.296-.326-1.817a2.294 2.294 0 0 1 2.164-.299 5.325 5.325 0 0 1 2.968 2.171c.49.741.755 1.812.155 2.47a1.713 1.713 0 0 1-1.606.405 5.083 5.083 0 0 1-1.556-.714l-2.373-1.503" fill="#000"/><path d="M70.34 894.208c1.728-9.288 9.213-15.291 18.485-16.4a10.183 10.183 0 0 1 5.664.631c1.785.865 3.057 2.485 4.575 3.748 2.67 2.219 5.842 2.065 9.043 1.559l11.826-1.928a4.355 4.355 0 0 1 2.927.193c1.434.837 1.465 2.878 1.308 4.532-.459 4.838-1.014 9.778-3.081 14.181-2.477 5.264-8.505 10.954-14.236 12.144-6.677 1.348-7.62.871-13.167 5.763-.804.903-3.39 5.985-3.58 7.179 0 0-8.275-4.327-9.31-4.348-4.431-.089-4.485-.504-7.094-.567a7.03 7.03 0 0 1-3.55-.692c-3.356-2.056-2.696-8.092-1.99-11.279.489-2.196 1.36-4.281 1.653-6.533.345-2.749.027-5.49.526-8.183Z" fill="#F7F7F7"/><path d="m59.313 905.656 30.055 23.884.428-2.282.824-3.037-16.375-13.104-9.522-8.787c-3.008 1.511-5.353 2.657-5.41 3.326Z" fill="#71D0FF"/><path d="M93.965 888.53c-.26 1.2.026 2.454.78 3.423.202.263.55.508.833.338a.716.716 0 0 0 .256-.399c.234-.666.38-1.359.435-2.063a2.609 2.609 0 0 0-.507-2.081c-.508-.518-1.554-.487-1.806.181" fill="#000"/><path d="M86.761 909.464a6.537 6.537 0 0 1 .057 3.399 6.713 6.713 0 0 1-1.715 2.369 119.258 119.258 0 0 1-5.415 5.07c-2.583 2.238-5.736 4.495-9.1 3.879a7.83 7.83 0 0 1-5.408-4.614 17.131 17.131 0 0 1-1.211-7.275 43.28 43.28 0 0 1 8.64-25.443c1.553-2.04 3.48-4.073 6.007-4.603 6.531-1.329 4.99 5.279 4.949 8.893-.063 6.245 1.95 12.283 3.196 18.325Zm29.542-25.366a.71.71 0 0 0 .053.467c.137.177.341.29.563.312a4.745 4.745 0 0 1 2.317.689c.753.678.667 1.867.979 2.837a7.14 7.14 0 0 0 1.903 2.71c.285.285.703.594 1.029.383a.72.72 0 0 0 .254-.274c1.207-1.82 1.398-4.116 1.545-6.288a4.284 4.284 0 0 0-.333-2.513 3.51 3.51 0 0 0-3.081-1.356c-1.967-.009-4.922.657-5.229 3.033Z" fill="#9E7343"/><path d="m78.608 923.552-1.367-1.55c2.847-2.512 5.52-6.705 5.097-10.401a47.464 47.464 0 0 0-1.422-6.585c-.452-1.739-.965-3.541-1.24-5.36-.845-4.854-.538-9.799-.246-14.578l2.069.134c-.29 4.656-.583 9.466.215 14.092.297 1.735.759 3.485 1.211 5.203a49.708 49.708 0 0 1 1.468 6.886c.548 4.703-2.77 9.495-5.785 12.159Z" fill="#000"/><path d="M12.492 915.621C9.46 914 8.17 909.85 8.63 908.125l19.99-.636c1.198 3.926-3.361 8.388-7.83 8.298-4.467-.089-4.506 1.861-8.297-.166Zm25.748 13.813c-2.037-1.698 1.647-4.628 5.788-4.545 2.071.041 3.047 3.064 3.013 4.721-.041 2.071-3.189 4.079-5.26 4.038-2.07-.041-.993-2.091-3.54-4.214Z" fill="#9E7343"/></g></g><mask id="f" mask-type="alpha" maskUnits="userSpaceOnUse" x="264" y="613" width="504" height="264"><path fill="#C4C4C4" d="M264 613h504v264H264z"/></mask><g mask="url(#f)"><path d="M588.444 629.274c39.317-33.359 106.349-7.939 132.233 9.885 84.139-36.892 157.27 15.372 183.318 46.116 38.826 3.924 199.045 44.643 190.685 50.53-6.68 4.709-70.28 12.755-101.238 16.189-14.252 21.586-52.096 72.509-89.447 103.513-37.352 31.005-140.069 6.051-186.758-10.302 1.146 6.051-12.681 20.605-77.161 30.417-64.481 9.811-104.191-35.159-115.987-58.871-3.44 6.868-19.659 20.212-57.01 18.643-37.352-1.57-76.206-32.312-98.322-41.774-48.164-20.604-102.296-21.512-100.724-31.324 1.573-9.811 100.26-33.196 149.407-43.662.328-7.849 6.193-28.65 27.031-49.058S535.314 634.083 555 664.5c0 0 1.932-8.489 33.444-35.226Z" fill="#fff"/></g><mask id="g" mask-type="alpha" maskUnits="userSpaceOnUse" x="0" y="137" width="262" height="174"><path fill="#C4C4C4" d="M0 137h261.777v173H0z"/></mask><g mask="url(#g)"><path d="M48.57 152.629c-27.618-28.924-69.438-11.794-86.5 0-55.464-24.411-103.672 10.171-120.843 30.513-25.594 2.597-131.209 29.539-125.702 33.434 4.406 3.116 46.329 8.44 66.739 10.712 9.395 14.283 34.341 47.976 58.963 68.491s92.333 4.004 123.11-6.816c-.756 4.003 8.359 13.633 50.864 20.125 42.505 6.492 68.683-23.263 76.458-38.952 2.268 4.544 12.959 13.373 37.581 12.335 24.622-1.039 41.802-12.335 57.033-18.876 31.75-13.633 75.213-22.998 74.177-29.49-1.037-6.492-66.091-21.965-98.488-28.89-.216-5.194-4.083-18.957-17.819-32.46-13.737-13.504-55.183-5.627-74.19 0 0 0-1.891.286-21.382-20.126Z" fill="#fff"/></g></g><defs><linearGradient id="b" x1="384" y1="0" x2="384" y2="1024" gradientUnits="userSpaceOnUse"><stop stop-color="#E6FFFD"/><stop offset="1" stop-color="#fff"/></linearGradient></defs></svg>