<svg width="24" height="24" fill="none" xmlns="http://www.w3.org/2000/svg"><path fill-rule="evenodd" clip-rule="evenodd" d="M2.293 22.293a1 1 0 0 1 0-1.414L19.879 3.293a1 1 0 1 1 1.414 1.414L3.707 22.293a1 1 0 0 1-1.414 0Z" fill="#595959"/><path d="M5.05 18.95A12.738 12.738 0 0 0 12 21c5.426 0 10.055-3.376 11.93-8.133a1 1 0 0 0 0-.734 12.893 12.893 0 0 0-5.602-6.461l-1.477 1.477a10.883 10.883 0 0 1 5.066 5.351C20.244 16.327 16.434 19 12 19a10.75 10.75 0 0 1-5.498-1.502L5.05 18.95Z" fill="#595959"/><path d="M8.931 15.069A3.99 3.99 0 0 0 12 16.5c2.212 0 4-1.788 4-4a3.99 3.99 0 0 0-1.431-3.069l-1.426 1.426c.519.36.857.96.857 1.643 0 1.108-.892 2-2 2a1.995 1.995 0 0 1-1.643-.857L8.93 15.07Zm3.692-6.521-4.575 4.575a3.996 3.996 0 0 1 4.575-4.575Z" fill="#595959"/><path d="M14.804 6.368A10.812 10.812 0 0 0 12 6c-4.434 0-8.244 2.673-9.917 6.5a10.882 10.882 0 0 0 2.781 3.807l-1.416 1.417A12.882 12.882 0 0 1 .07 12.867a1 1 0 0 1 0-.734C1.945 7.376 6.574 4 12 4c1.545 0 3.026.274 4.396.775l-1.592 1.593Z" fill="#595959"/><path d="M5.05 18.95A12.738 12.738 0 0 0 12 21c5.426 0 10.055-3.376 11.93-8.133a1 1 0 0 0 0-.734 12.893 12.893 0 0 0-5.602-6.461l-1.477 1.477a10.883 10.883 0 0 1 5.066 5.351C20.244 16.327 16.434 19 12 19a10.75 10.75 0 0 1-5.498-1.502L5.05 18.95Z" stroke="#808B99"/><path d="M8.931 15.069A3.99 3.99 0 0 0 12 16.5c2.212 0 4-1.788 4-4a3.99 3.99 0 0 0-1.431-3.069l-1.426 1.426c.519.36.857.96.857 1.643 0 1.108-.892 2-2 2a1.995 1.995 0 0 1-1.643-.857L8.93 15.07Zm3.692-6.521-4.575 4.575a3.996 3.996 0 0 1 4.575-4.575Z" stroke="#808B99"/><path d="M14.804 6.368A10.812 10.812 0 0 0 12 6c-4.434 0-8.244 2.673-9.917 6.5a10.882 10.882 0 0 0 2.781 3.807l-1.416 1.417A12.882 12.882 0 0 1 .07 12.867a1 1 0 0 1 0-.734C1.945 7.376 6.574 4 12 4c1.545 0 3.026.274 4.396.775l-1.592 1.593Z" stroke="#808B99"/></svg>
