<svg width="352" height="185" xmlns="http://www.w3.org/2000/svg"><g fill="none" fill-rule="evenodd"><g transform="translate(174)"><path d="M71.042 158.598c4.032.058 7.879-2.3 11.132-4.82a78.897 78.897 0 0 0 22.252-27.135c2.581-5.193 4.734-10.874 9.16-14.634 1.16 8.316-.13 16.958-3.67 24.579-3.177 6.836-8.056 12.748-13.276 18.199-7.659 7.997-17.428 15.63-28.468 15.058-.95 2.505-1.993 4.325-3.074 5.155h-52.45s.33-1.228 1.304-2.837l-13.867.81c-.64-3.048 2.233-12.276 11.983-13.967 6.001-1.04 18.791 0 18.791 0s-12.158-5.639-7.452-16.795c3.43-8.129 9.897-8.718 13.152-8.44-3.262-7.36-7.678-16.904-12.815-27.39a46.228 46.228 0 0 1-3.42-9.526c-1.107.53-2.475.48-4.077-.886-4.708-4.013-2.353-17.055 3.026-20.734a3.51 3.51 0 0 1 .336-.201c1.692-11.195 5.974-20.167 8.505-23.075 4.708-5.409 13.113-8.45 13.113-8.45 3.698-6.424 1.345-13.184-.336-13.184s-19.344-1.574-23.2-7.775c-3.362-5.408-.671-13.833-.335-16.9C17.692 2.581 39.054 7.34 44 2.581 48.946-2.175 67.452.579 71.487 7.339c3.998 6.698-8.177 37.617-10.037 49.694 7.295 1.612 7.539 13.07 6.915 20.209-.553 6.324-3.379 15.813-4.366 18.988l.09 1.362s1.346 11.832 6.389 26.367c2.964 8.54 2.56 23.15.564 34.64ZM21.786 57.217l-3.655 9.781-4.318-3.372c.332 3.372-5.316 18.213-5.316 18.213s-5.315 1.012-7.309-3.71C-.805 73.407 5.507 58.566 8.83 54.18c3.323-4.384 12.957 3.036 12.957 3.036Z" fill="#9E7343"/><path fill="#FF9100" d="m41.89 36 17.654 3.493 5.296 5.785v2.592L40.025 43z"/><path d="M57.233 36.106c1.11 3.452 3.767 6.747 7.869 8.728 1.576.76 7.37 2.814 8.898 2.164 2.664-1.132 0-6.897 2.808-14.998 3.013-8.695.97-21.105 0-22.924C73.5 2.877 65.073.644 59.714 4.214c-3.022 2.012-2.849 4.63-2.481 7.907.567 5.053 1.02 9.908.45 14.998-.427 3.806-1.623 5.34-.45 8.987Z" fill="#9E7343"/><path d="M9 173s2.361-8.935 13.156-10.31c10.796-1.374 28.338 0 28.338 0s-20.241-10.652-8.096-24.398C54.542 124.547 65 137.605 65 137.605M52.263 78.364s-27.3-7.455-32.694-3.728c-5.392 3.728-7.752 16.943-3.033 21.009 4.719 4.067 7.415-3.388 7.415-3.388l1.685-8.133S55.97 87.174 64.06 97c0 0 4.044-12.537 4.719-20.33.673-7.794.336-20.67-8.764-20.67" stroke="#000" stroke-width="2"/><path d="M61 56.051c-4.27-.488-8.667 2.567-10 6.949m10-52c-5.02 15.815-3.551 7.503-4 25" stroke="#000" stroke-width="2"/><ellipse fill="#000" cx="49" cy="11.5" rx="2" ry="2.5"/></g><path d="M0 185h349.173s-2.23-10.282-1.461-20.18c.767-9.895 4.532-19.406 4.276-19.82-9.543 5.002-13.547 15.63-17.488 24.325-5.089-3.35-4.49-15.562-4.587-20.836-5.6 4.824-7.025 12.893-11.602 18.683-1.24 1.57-3.977 5.038-6.425 3.676-1.967-1.094-1.511-6.522-1.07-8.383.158-.67 1.106-3.834.675-3.577-4.26 2.534-8.444 9.355-11.828 12.797-1.932 1.965-5.295 4.725-8.206 4.908-2.54.159-5.91-1.017-8.412-1.541-4.986-1.045-11.173-2.328-15.331-5.46-3.58-2.694-6.381-6.395-10.293-8.586a58.02 58.02 0 0 0 2.74 12.403c-8.966-.57-17.746-3.783-24.937-9.123-.663-.458.89 4.16 2.969 8.64-26.588-1.469-63.293-1.873-86.377-1.014-31.802 1.182-68.47 3.14-97.902 5.762L0 185Z" fill="#66AF37"/></g></svg>