<svg width="190" height="138" fill="none" xmlns="http://www.w3.org/2000/svg"><path d="M160.955 13.147c-6.57-.438-97.632 16.972-142.341 25.731 7.117 13.687 75.55 32.848 86.499 33.396 5.475-4.928 64.054-58.58 55.842-59.127Z" stroke="#000" stroke-width="3.285" stroke-linecap="round" stroke-linejoin="round"/><path d="M18.614 39.973c3.285 15.33 14.781 61.316 16.424 67.886 1.642 6.569 4.38 6.569 10.95 6.569 6.569 0 114.967-19.708 120.442-20.256 5.474-.547 6.022-8.212 5.474-15.329-.438-5.694-7.664-41.607-9.307-57.484" stroke="#000" stroke-width="3.285" stroke-linecap="round" stroke-linejoin="round"/><path d="M13.14 49.828c3.284 15.328 14.78 61.316 16.423 67.885 1.643 6.57 4.38 6.57 10.95 6.57 6.569 0 114.967-19.709 120.442-20.256" stroke="#66AF37" stroke-width="6.57" stroke-linecap="round" stroke-linejoin="round"/></svg>