<svg width="32" height="29" fill="none" xmlns="http://www.w3.org/2000/svg"><path d="m17.489 26.737-.004.003a2.185 2.185 0 0 1-2.95-.011l-.005-.004-.176-.16-.002-.002c-4.219-3.83-7.621-6.923-9.956-9.826-2.32-2.885-3.483-5.457-3.39-8.232.085-2.42 1.323-4.736 3.306-6.09C8.05-.141 12.704 1.026 15.239 4.002l.762.894.76-.894c2.538-2.978 7.19-4.157 10.924-1.589l.003.002c1.983 1.354 3.222 3.67 3.307 6.091.1 2.774-1.061 5.345-3.385 8.235-2.33 2.898-5.722 5.99-9.923 9.818l-.037.034-.004.003-.156.141Z" fill="#FF9100" stroke="#FF9100" stroke-width="2"/></svg>