<svg width="234" height="213" viewBox="0 0 234 213" fill="none" xmlns="http://www.w3.org/2000/svg">
<path d="M0 3C0 1.34315 1.34315 0 3 0H231C232.657 0 234 1.34315 234 3V213H0V3Z" fill="#ACE5FC"/>
<rect y="144" width="234" height="69" fill="#51B02B"/>
<g clip-path="url(#clip0_11899_263840)">
<mask id="mask0_11899_263840" style="mask-type:alpha" maskUnits="userSpaceOnUse" x="28" y="11" width="178" height="178">
<path d="M117 189C166.153 189 206 149.153 206 100C206 50.8467 166.153 11 117 11C67.8467 11 28 50.8467 28 100C28 149.153 67.8467 189 117 189Z" fill="#ACE5FC"/>
</mask>
<g mask="url(#mask0_11899_263840)">
<path d="M117 189C166.153 189 206 149.153 206 100C206 50.8467 166.153 11 117 11C67.8467 11 28 50.8467 28 100C28 149.153 67.8467 189 117 189Z" fill="#ACE5FC"/>
<path d="M44.1089 198.932L200.073 195.016C200.073 195.016 196.726 144.438 197.233 137.825C197.741 131.212 200.233 124.858 200.064 124.582C193.745 127.919 191.092 135.021 188.494 140.833C185.129 138.59 185.521 130.438 185.459 126.914C181.747 130.135 180.804 135.529 177.769 139.374C176.95 140.424 175.099 142.747 173.515 141.83C172.216 141.1 172.518 137.478 172.803 136.232C172.91 135.787 173.542 133.669 173.257 133.838C170.373 135.677 167.725 137.862 165.371 140.344C164.09 141.661 161.909 145.55 159.978 145.684C158.296 145.79 156.062 144.998 154.407 144.651C151.105 143.957 147.002 143.094 144.252 141.002C141.875 139.222 140.024 136.73 137.434 135.262C137.723 138.083 138.32 140.865 139.214 143.557C133.235 143.16 127.499 141.043 122.696 137.46C122.26 137.149 123.283 140.237 124.663 143.227C107.05 142.248 82.726 141.981 67.4358 142.551C46.3695 143.343 37.5585 143.913 31.1416 146.324L44.1089 198.932Z" fill="#51B02B"/>
<path d="M155.528 113.964L165.318 140.361L160.628 156.515H147.812L147.616 154.931C147.437 153.495 147.678 152.038 148.31 150.737C148.942 149.435 149.937 148.345 151.176 147.597L154.843 145.399C154.843 145.399 158.892 137.229 145.498 129.067C132.103 120.906 127.938 114.89 128.401 102.109C128.864 89.3289 149.672 96.44 149.672 96.44L155.528 113.964Z" fill="#9E7343"/>
<path d="M146.842 119.954C152.778 125.24 155.67 122.775 163.663 127.715C171.655 132.654 174.628 147.98 174.628 147.98L170.275 150.944C168.929 151.861 167.982 153.256 167.627 154.846C167.272 156.436 167.534 158.102 168.362 159.505H179.3L183.519 149.52L169.19 91.892C169.19 91.892 171.512 88.4299 182.095 88.4299C188.458 88.4299 189.704 81.9062 189.704 81.9062L110.77 79.6812C110.77 79.6812 97.8027 73.024 89.9707 66.7673C85.6364 63.3052 83.0109 53.7199 77.4484 53.2304C65.4423 52.198 61.4284 57.6804 59.9599 59.5583C59.339 60.2593 58.5859 60.8309 57.7438 61.2404C54.0681 63.323 44.2959 67.6484 44.2959 67.6484C44.2959 67.6484 47.8559 75.5605 49.7605 77.207C53.2493 80.3042 59.6217 77.207 65.3889 76.9489C81.756 76.317 74.4936 87.2462 77.573 94.829C78.463 97.054 83.0198 105.278 86.2416 105.171H85.5563H62.71L58.5715 113.884L63.9827 124.715C66.9116 121.49 68.5744 117.314 68.6641 112.958C68.6641 112.789 68.6641 112.611 68.6641 112.433C68.3971 107.601 87.2918 112.825 99.9654 116.883L100.126 116.216L101.274 147.25C101.274 147.25 94.9547 149.172 93.5129 150.739C92.0711 152.305 91.4481 156.72 92.8721 159.505H102.84L109.07 149.52L112.63 118.067L112.274 117.8C112.274 117.8 141.511 99.7507 141.377 106.301C141.326 108.827 141.783 111.337 142.722 113.683C143.661 116.028 145.062 118.161 146.842 119.954Z" fill="#9E7343"/>
<path d="M62.087 65.0585C62.087 65.7794 61.7933 66.3668 61.0724 66.3668C60.3515 66.3668 60.0845 65.8417 60.0845 65.1297C60.0845 64.4177 60.3515 63.7502 61.0724 63.7502C61.7933 63.7502 62.087 64.3376 62.087 65.0585Z" fill="#333333"/>
<path d="M80.3586 73.4335C79.4938 73.4321 78.6378 73.2597 77.8399 72.9262C77.2156 72.6841 76.664 72.2857 76.2379 71.7692C75.765 71.064 75.4829 70.2484 75.4191 69.4018C75.4191 69.2505 75.3657 69.1081 75.3479 68.9657C75.1373 68.0422 74.7668 67.1627 74.2532 66.3669C74.0841 66.0643 73.9061 65.7528 73.737 65.4235C73.0595 63.9344 72.6325 62.3436 72.4732 60.7154C72.278 59.3659 72.287 57.9948 72.4999 56.6481L74.2799 56.9151C74.0915 58.0932 74.0765 59.2926 74.2354 60.4751C74.3817 61.9033 74.7511 63.2998 75.3301 64.6136C75.4814 64.9251 75.6505 65.2188 75.8107 65.5036C76.4244 66.4689 76.8614 67.5357 77.1012 68.6542C77.1012 68.8144 77.1546 68.9746 77.1813 69.1348C77.2181 69.683 77.3794 70.2157 77.653 70.6923C77.8962 70.9632 78.2016 71.171 78.543 71.2975C79.433 71.6613 80.4085 71.7633 81.3545 71.5914C82.3006 71.4196 83.1778 70.981 83.883 70.3274L85.1112 71.6179C83.8201 72.8129 82.1176 73.4633 80.3586 73.4335Z" fill="#333333"/>
<path d="M112.595 118.957L99.5649 118.69V116.91L111.891 117.186L115.549 105.109L117.249 105.625L113.44 118.325C113.385 118.507 113.273 118.666 113.121 118.78C112.969 118.894 112.784 118.956 112.595 118.957Z" fill="#333333"/>
<path d="M100.695 103.249H84.8086V105.029H100.695V103.249Z" fill="#333333"/>
<path d="M160.236 127.27C149.609 122.294 146.779 117.195 146.272 113.795C146.13 112.807 146.049 111.819 145.978 110.867C145.8 108.535 145.649 106.515 144.536 105.607C143.851 105.055 142.756 104.886 141.19 105.091C136.442 105.772 132.057 108.017 128.73 111.472L127.448 110.235C131.046 106.503 135.784 104.073 140.914 103.329C142.997 103.053 144.528 103.329 145.613 104.219C147.322 105.607 147.509 108.09 147.714 110.724C147.776 111.614 147.847 112.602 147.99 113.528C148.355 115.958 150.517 120.764 160.948 125.65L160.236 127.27Z" fill="#333333"/>
</g>
</g>
<defs>
<clipPath id="clip0_11899_263840">
<rect width="178" height="178" fill="white" transform="translate(28 11)"/>
</clipPath>
</defs>
</svg>
