<svg width="25" height="25" viewBox="0 0 25 25" fill="none" xmlns="http://www.w3.org/2000/svg">
<path d="M20.5 12.8523H4.68652V16.8523L6.5 15.8523H8H9.5L12 16.8523L13.5 16.3523H14.5L16 15.8523H17.5L20.5 17.3523V14.8523V12.8523Z" fill="#71D0FF"/>
<path d="M13.5681 6.47674C12.7898 6.47674 12.1568 5.84373 12.1568 5.06554C12.1568 4.45017 12.963 3.03321 13.2101 2.61382C13.3594 2.36027 13.7768 2.36027 13.9261 2.61382C14.1731 3.03322 14.9794 4.45013 14.9794 5.06554C14.9794 5.84373 14.3463 6.47674 13.5681 6.47674Z" fill="#FF9100"/>
<path d="M4.35699 21.0543H20.642C20.9521 21.0543 21.2035 20.8028 21.2034 20.4927C21.2034 20.4927 21.2034 20.4927 21.2034 20.4927V13.4157C21.2034 12.597 20.5376 11.9311 19.7188 11.9311H5.28003C4.4613 11.9311 3.79543 12.597 3.79543 13.4157V20.4927C3.79543 20.8029 4.04684 21.0543 4.35699 21.0543ZM20.0805 13.4159L20.0806 19.9313H4.91859L4.91859 13.4159C4.91859 13.2166 5.08092 13.0543 5.28015 13.0543H19.719C19.9182 13.0543 20.0805 13.2166 20.0805 13.4159Z" fill="black" stroke="black" stroke-width="0.2"/>
<path d="M20.956 23.5203H4.045C3.84192 23.5203 3.65456 23.4106 3.55528 23.2335L20.956 23.5203ZM20.956 23.5203H20.956C21.1591 23.5203 21.3464 23.4107 21.4457 23.2335L22.8292 20.7672C22.9268 20.5934 22.9249 20.3806 22.824 20.2086C22.7233 20.0366 22.5388 19.9309 22.3395 19.9309H2.66147C2.46215 19.9309 2.27765 20.0366 2.17697 20.2086L2.26327 20.2591M20.956 23.5203L3.55526 23.2335L2.17178 20.7672C2.17178 20.7671 2.17177 20.7671 2.17176 20.7671C2.07417 20.5933 2.07604 20.3805 2.17704 20.2085L2.26327 20.2591M2.26327 20.2591C2.18031 20.4005 2.17874 20.5753 2.25898 20.7182L2.26327 20.2591ZM20.6272 22.3973H4.37377L3.62036 21.054H21.3807L20.6272 22.3973Z" fill="black" stroke="black" stroke-width="0.2"/>
<path d="M11.2945 12.9561H13.6648L13.6648 12.9562H13.7055C13.841 12.9562 13.9657 12.9156 14.0577 12.8477C14.1496 12.7797 14.2115 12.6818 14.2115 12.5692V8.00945C14.2115 7.71107 14.0472 7.44468 13.7901 7.25469C13.533 7.06466 13.1803 6.94846 12.7935 6.94846H12.2066C11.8197 6.94846 11.4671 7.06466 11.2099 7.25468C10.9528 7.44468 10.7885 7.71107 10.7885 8.00945L10.7885 12.569C10.7885 12.6817 10.8503 12.7796 10.9423 12.8476C11.0343 12.9155 11.159 12.9561 11.2945 12.9561ZM13.1994 12.1821H11.8005L11.8005 8.00939C11.8005 7.93613 11.8407 7.86552 11.9139 7.81142C11.9871 7.75735 12.0905 7.72237 12.2065 7.72237H12.7935C12.9095 7.72237 13.0129 7.75735 13.086 7.81142C13.1593 7.86552 13.1995 7.93613 13.1995 8.00939L13.1994 12.1821Z" fill="black" stroke="black" stroke-width="0.1"/>
<path d="M12.4065 6.70199C11.5418 6.70199 10.8385 5.99863 10.8385 5.13395C10.8385 4.45019 11.7342 2.87575 12.0088 2.40975C12.1746 2.12803 12.6385 2.12803 12.8043 2.40975C13.0788 2.87577 13.9746 4.45015 13.9746 5.13395C13.9746 5.99863 13.2712 6.70199 12.4065 6.70199ZM12.4065 3.59299C12.0524 4.26525 11.7615 4.92103 11.7615 5.13401C11.7615 5.48963 12.0509 5.77901 12.4065 5.77901C12.7621 5.77901 13.0515 5.48963 13.0515 5.13401C13.0515 4.92105 12.7606 4.26525 12.4065 3.59299Z" fill="black"/>
<path d="M18.586 15.9175C18.9938 16.1249 19.3594 16.3064 19.9688 16.3686L19.9735 17.4056C19.1766 17.3382 18.6469 17.0893 18.2016 16.8612L18.1888 16.8547C17.6928 16.6034 17.2703 16.3893 16.3501 16.3893C15.4219 16.3893 14.9907 16.6071 14.4891 16.8612L14.4867 16.8624C13.9623 17.1265 13.3671 17.4263 12.2391 17.4263C11.1112 17.4263 10.516 17.1265 9.99155 16.8624L9.98913 16.8612C9.48755 16.6071 9.05632 16.3893 8.13287 16.3893C7.20942 16.3893 6.77817 16.6071 6.27662 16.8612C5.8313 17.0841 5.30162 17.3382 4.50474 17.4056L4.50002 16.3686C5.10938 16.3064 5.47502 16.1249 5.88282 15.9175C6.40782 15.653 6.99376 15.3523 8.12344 15.3523C9.25139 15.3523 9.84661 15.6521 10.371 15.9163L10.3734 15.9175C10.875 16.1715 11.3062 16.3893 12.2344 16.3893C13.1625 16.3893 13.5938 16.1715 14.0953 15.9175L14.1041 15.913C14.6269 15.6497 15.2173 15.3523 16.3406 15.3523C17.464 15.3523 18.0543 15.6497 18.5771 15.913L18.586 15.9175Z" fill="black"/>
</svg>