<svg width="34" height="34" viewBox="0 0 34 34" fill="none" xmlns="http://www.w3.org/2000/svg">
<g clip-path="url(#clip0_438_1995)">
<path d="M25.1706 16.1711C24.7468 15.7333 23.9624 15.4801 23.0975 15.4801C21.7527 15.4093 20.3432 15.4283 18.9513 15.4801L14.5287 8.84618L13.2849 9.26079L15.358 15.4801L10.2443 15.8947C9.88263 15.1788 9.24127 14.1336 8.58587 14.789C8.4563 14.9186 8.35535 15.0843 8.30946 15.3419L8.30946 18.6588C8.35535 18.9163 8.4563 19.0821 8.58587 19.2116C9.24127 19.867 9.88263 18.8218 10.2443 18.106L15.358 18.5206L13.2849 24.7399L14.5287 25.1545L18.9513 18.5206C20.3431 18.5724 21.7527 18.5914 23.0975 18.5206C23.9624 18.5206 24.7468 18.2674 25.1706 17.8296C25.399 17.5936 25.5474 17.2994 25.5485 17.0003C25.5469 16.7018 25.399 16.407 25.1706 16.1711Z" fill="black" fill-opacity="0.85"/>
</g>
<circle cx="17" cy="17" r="16.25" stroke="black" stroke-opacity="0.25" stroke-width="1.5"/>
<defs>
<clipPath id="clip0_438_1995">
<rect width="18" height="18" fill="white" transform="translate(8 8)"/>
</clipPath>
</defs>
</svg>