<svg width="234" height="213" viewBox="0 0 234 213" fill="none" xmlns="http://www.w3.org/2000/svg">
<g clip-path="url(#clip0_11899_263850)">
<path d="M0 3C0 1.34315 1.34315 0 3 0H231C232.657 0 234 1.34315 234 3V213H0V3Z" fill="#B7E4FA"/>
<path d="M117 212.11C166.153 212.11 206 172.263 206 123.11C206 73.9566 166.153 34.11 117 34.11C67.8467 34.11 28 73.9566 28 123.11C28 172.263 67.8467 212.11 117 212.11Z" fill="#B7E4FA"/>
<path d="M0 162.484H8.08479V147.318H23.2633V103.794H78.3756L78.5112 47.2096L144.128 47L143.878 65.69H175.873V126.561L208.076 126.399V149.243H234V213H0" fill="#71D0FF"/>
<path d="M182.344 75.228H51.665V303.059H182.344V75.228Z" fill="#FFC6C0"/>
<path d="M111.349 95.4666H70.364V136.451H111.349V95.4666Z" fill="black"/>
<path d="M163.645 95.4666H122.66V136.451H163.645V95.4666Z" fill="black"/>
<path d="M111.349 148.048H70.364V189.032H111.349V148.048Z" fill="black"/>
<path d="M163.645 148.048H122.66V189.032H163.645V148.048Z" fill="black"/>
<path d="M78.4274 105.497C78.3309 103.496 78.7411 101.503 79.62 99.7029C79.7165 99.46 79.888 99.2543 80.1095 99.1155C80.3142 99.0521 80.5313 99.0391 80.7421 99.0779C80.9529 99.1166 81.1511 99.2059 81.3199 99.338C82.6816 100.112 84.7464 101.029 85.7699 102.231C86.7934 103.432 87.1939 105.977 87.3096 107.571C90.2377 107.241 93.0323 107.731 95.907 107.677C96.1829 104.892 98.4079 102.702 100.74 101.154C101.426 100.631 102.23 100.283 103.08 100.139C103.384 100.092 103.694 100.138 103.97 100.273C104.185 100.421 104.367 100.611 104.504 100.833C105.33 102.083 105.885 103.493 106.134 104.97C106.382 106.448 106.318 107.961 105.946 109.413C105.762 110.727 105.464 112.022 105.056 113.284C104.166 115.278 102.573 115.705 103.668 118.028C104.776 120.301 106.569 122.169 108.794 123.368C109.8 123.918 110.673 124.68 111.352 125.603C112.032 126.525 112.501 127.585 112.728 128.708C112.93 130.329 112.852 131.973 112.497 133.567C111.802 137.581 110.717 141.844 107.593 144.514C106.302 145.627 103.908 144.692 102.644 143.874C102.046 143.463 101.488 142.995 100.98 142.476C99.5374 141.078 97.987 139.795 96.3431 138.64C96.1503 138.484 95.9255 138.371 95.6845 138.311C95.4439 138.286 95.2008 138.326 94.9814 138.428C94.7619 138.53 94.5743 138.689 94.4385 138.89C94.1741 139.295 93.942 139.721 93.7443 140.162C92.4805 142.476 88.9027 142.957 86.7578 141.506C86.5479 141.384 86.3802 141.201 86.2772 140.981C86.2014 140.732 86.2014 140.465 86.2772 140.216C86.8913 137.546 88.2352 135.258 87.3096 132.446C87.1495 131.853 86.8183 131.321 86.3573 130.915C84.5773 129.58 82.4057 130.337 81.845 127.551C81.5157 125.896 82.1476 124.107 81.5157 122.523C81.0529 121.374 80.065 120.422 79.9226 119.194C79.926 118.298 80.095 117.411 80.421 116.577C81.044 114.219 80.2341 113.364 79.531 111.309C78.858 109.442 78.4855 107.48 78.4274 105.497Z" fill="white"/>
<path d="M90.4423 124.489C90.5936 125.673 90.0596 126.269 89.2942 126.928C88.867 127.311 88.9382 127.978 89.0361 128.548C89.0793 128.977 89.2259 129.389 89.4633 129.749C89.6324 129.972 89.9083 130.194 89.8727 130.479C89.7251 130.537 89.5648 130.554 89.4083 130.529C89.2518 130.504 89.1049 130.438 88.9827 130.337C88.5644 130.007 88.4309 128.886 88.0927 128.717C87.5587 128.468 87.2027 129.527 86.9357 129.829C86.7683 130.086 86.5308 130.288 86.2514 130.413C85.9721 130.537 85.6627 130.579 85.3604 130.533C85.9211 129.643 86.9713 128.165 87.0781 127.079C87.1582 126.189 86.3127 125.486 86.0813 124.543C85.9611 124.234 85.9611 123.891 86.0813 123.582C86.2185 123.367 86.4126 123.194 86.642 123.083C87.0068 122.85 87.4197 122.702 87.8498 122.651C88.2799 122.6 88.7159 122.648 89.1251 122.79C89.4728 122.935 89.7769 123.168 90.0078 123.466C90.2386 123.764 90.3883 124.116 90.4423 124.489Z" fill="black"/>
<path d="M95.0171 118.66C96.8683 120.155 92.525 121.597 92.347 119.63C92.2313 118.66 93.2993 118.482 94.0113 118.429C94.3634 118.384 94.7199 118.466 95.0171 118.66Z" fill="black"/>
<path d="M84.8887 118.66C86.7399 120.155 82.3967 121.597 82.1742 119.63C82.0585 118.66 83.1265 118.482 83.8385 118.429C84.2052 118.371 84.5801 118.454 84.8887 118.66Z" fill="black"/>
<path d="M99.5917 110.169C99.306 109.576 99.1667 108.923 99.1852 108.265C99.2038 107.607 99.3798 106.963 99.6985 106.387C100.134 105.382 100.735 104.459 101.478 103.655C101.577 103.512 101.711 103.398 101.867 103.323C102.023 103.248 102.196 103.215 102.368 103.227C102.724 103.316 102.885 103.726 102.983 104.117C103.194 104.685 103.261 105.297 103.178 105.897C102.929 107.09 101.336 107.98 101.541 109.297C101.682 109.258 101.832 109.269 101.966 109.329C102.099 109.389 102.207 109.495 102.271 109.626C102.387 109.89 102.442 110.176 102.431 110.463C102.431 111.068 102.431 113.089 101.416 112.937C101.292 112.919 99.7074 110.356 99.5917 110.169Z" fill="#A6A6A6"/>
<path d="M93.2994 132.9C94.5037 132.557 95.7797 132.557 96.984 132.9C97.963 133.211 101.345 135.855 101.808 134.68C102.386 133.247 100.313 130.808 99.2357 130.168C96.7615 128.699 94.8569 130.577 92.6675 131.592C91.5451 132.194 90.2419 132.368 89.0007 132.081C88.3688 131.885 87.7191 131.512 87.0961 131.716C87.5945 133.096 86.7045 134.778 87.2385 136.068C87.2385 136.006 92.0534 133.256 92.5785 133.078C92.8157 133.007 93.0563 132.947 93.2994 132.9Z" fill="#A6A6A6"/>
<path d="M140.407 113.899C141.733 105.889 148.061 100.602 156.009 99.4894C157.644 99.1699 159.336 99.3243 160.886 99.9344C162.435 100.646 163.556 102.017 164.882 103.076C167.214 104.936 169.937 104.749 172.678 104.26L182.807 102.4C183.634 102.146 184.524 102.187 185.325 102.515C186.571 103.21 186.634 104.963 186.527 106.387C186.215 110.552 185.824 114.806 184.124 118.624C182.086 123.19 177.004 128.183 172.1 129.304C166.386 130.577 163.805 129.687 159.124 133.986C158.448 134.776 158.013 135.742 157.869 136.772C157.869 136.772 150.749 137.136 149.859 137.136C146.05 137.136 145.996 136.78 143.753 136.772C142.704 136.863 141.648 136.679 140.692 136.238C137.773 134.529 138.235 129.331 138.787 126.581C139.17 124.685 139.882 122.879 140.096 120.938C140.345 118.571 140.024 116.221 140.407 113.899Z" fill="#A6A6A6"/>
<path d="M160.61 108.612C160.51 109.124 160.523 109.651 160.649 110.157C160.775 110.663 161.011 111.135 161.34 111.54C161.518 111.763 161.82 111.967 162.061 111.816C162.169 111.728 162.245 111.605 162.274 111.469C162.464 110.893 162.577 110.294 162.613 109.689C162.664 109.376 162.649 109.055 162.568 108.748C162.487 108.441 162.341 108.155 162.141 107.909C161.696 107.473 160.797 107.517 160.592 108.096" fill="black"/>
<path d="M154.78 126.723C155.073 127.67 155.11 128.677 154.887 129.643C154.567 130.428 154.078 131.133 153.454 131.707C151.977 133.238 150.455 134.725 148.889 136.157C146.708 138.124 144.038 140.118 141.137 139.646C140.099 139.42 139.13 138.951 138.309 138.278C137.488 137.605 136.837 136.747 136.411 135.775C135.574 133.807 135.176 131.681 135.245 129.545C135.179 121.653 137.626 113.945 142.231 107.535C143.531 105.755 145.151 103.975 147.313 103.477C152.902 102.222 151.692 107.927 151.719 111.033C151.772 116.399 153.606 121.553 154.78 126.723Z" fill="#A6A6A6"/>
<path d="M179.727 104.42C179.699 104.556 179.718 104.697 179.781 104.821C179.84 104.894 179.915 104.955 179.999 105C180.083 105.044 180.175 105.071 180.27 105.079C180.974 105.087 181.664 105.277 182.273 105.63C182.931 106.2 182.878 107.224 183.163 108.051C183.536 108.938 184.112 109.724 184.845 110.347C185.094 110.588 185.459 110.846 185.735 110.659C185.826 110.599 185.9 110.516 185.948 110.419C186.954 108.834 187.079 106.859 187.168 104.99C187.278 104.255 187.163 103.504 186.838 102.836C186.522 102.442 186.112 102.133 185.645 101.939C185.179 101.744 184.671 101.67 184.168 101.723C182.477 101.75 179.95 102.373 179.727 104.42Z" fill="#9E7343"/>
<path d="M68.05 162.172C65.38 161.772 62.9859 160.392 60.3248 160.081C59.848 159.998 59.3579 160.037 58.9008 160.196C57.4323 160.81 57.5391 162.929 58.0998 164.415C58.9685 166.651 60.2849 168.687 61.9684 170.396C63.6519 172.106 65.6669 173.453 67.8898 174.356C73.2298 176.501 78.5698 178.059 81.4623 183.639C82.3855 185.691 82.9859 187.874 83.2423 190.109C83.6072 192.138 83.4559 195.93 85.2715 197.122C87.0871 198.315 92.0711 197.176 94.2605 197.176C103.16 196.651 112.141 196.081 121.041 195.538C130.154 194.986 139.312 195.173 148.408 194.185C153.89 193.589 156.925 191.515 162.541 191.569C163.013 191.626 163.49 191.512 163.885 191.248C164.171 190.928 164.34 190.52 164.366 190.091C164.829 187.421 164.926 184.271 165.825 181.734C166.644 179.438 170.747 177.382 172.509 175.78C174.992 173.528 177.787 171.624 180.154 169.239C180.6 168.867 180.912 168.361 181.044 167.797C181.047 167.29 180.855 166.802 180.506 166.434C180.158 166.066 179.681 165.846 179.175 165.821C178.153 165.816 177.147 166.087 176.265 166.604C173.921 167.72 171.59 168.856 169.27 170.013C167.232 171.028 165.122 172.514 162.879 172.914C157.762 173.804 152.458 173.742 147.287 174.125C134.471 175.074 121.628 175.534 108.759 175.504C105.199 175.504 101.496 175.344 98.221 173.893C94.4385 172.229 93.0768 170.031 93.682 165.946C94.2941 161.776 94.5916 157.566 94.572 153.352C94.6178 152.766 94.5137 152.178 94.2694 151.643C94.1341 151.385 93.9107 151.184 93.6396 151.076C93.3685 150.968 93.0678 150.961 92.792 151.056C92.4746 151.255 92.2308 151.552 92.0978 151.901C91.222 153.696 90.1696 155.398 88.9561 156.983C87.7783 158.282 86.5018 159.487 85.138 160.588C83.1711 159.164 82.8863 154.945 82.1387 152.738C81.9734 152.117 81.6691 151.542 81.2487 151.056C81.0279 150.816 80.7421 150.645 80.4261 150.565C80.1101 150.484 79.7774 150.497 79.4687 150.602C79.2317 150.735 79.0282 150.92 78.874 151.144C78.7197 151.368 78.6187 151.624 78.5787 151.893C78.4954 152.437 78.4745 152.99 78.5164 153.539C78.5164 155.924 77.7154 159.333 75.8464 160.988C74.0486 162.501 70.2483 162.51 68.05 162.172Z" fill="#9E7343"/>
<path d="M81.2042 165.981C81.6047 165.581 82.0052 165.207 82.379 164.789C82.4439 164.698 82.5262 164.622 82.6209 164.564C82.7156 164.506 82.821 164.467 82.9308 164.45C83.0117 164.453 83.0909 164.474 83.1622 164.513C83.7407 164.78 83.7051 165.403 83.5894 165.972C83.5118 166.391 83.2924 166.77 82.9682 167.045C82.644 167.321 82.2348 167.476 81.8094 167.485C81.6244 167.491 81.4416 167.443 81.2835 167.346C81.1255 167.25 80.9989 167.11 80.9194 166.942C80.8787 166.771 80.8836 166.592 80.9335 166.424C80.9835 166.255 81.0768 166.103 81.2042 165.981Z" fill="black"/>
<path d="M59.0877 162.822L60.8677 163.142C61.2383 163.226 61.6182 163.262 61.998 163.249C62.2614 163.249 62.5188 163.17 62.7365 163.022C62.9543 162.874 63.1222 162.664 63.2184 162.418C63.3146 162.173 63.3345 161.905 63.2755 161.648C63.2166 161.391 63.0815 161.158 62.888 160.979C62.4379 160.504 61.8697 160.157 61.2415 159.974C60.7865 159.788 60.3067 159.671 59.8175 159.627C59.3269 159.579 58.8346 159.698 58.4202 159.965C57.9924 160.299 57.6987 160.776 57.5925 161.309C57.5213 161.611 57.2632 162.857 57.5925 163.026C57.7527 163.098 58.0553 162.822 58.2333 162.777C58.5182 162.736 58.8084 162.752 59.0877 162.822Z" fill="#DBA258"/>
<path d="M127.084 133.345C128.053 133.364 129.006 133.098 129.825 132.58C133.661 130.613 137.497 128.254 140.291 124.472C140.151 128.283 139.211 132.021 137.532 135.445C137.369 135.844 137.112 136.198 136.785 136.478C136.48 136.671 136.131 136.782 135.77 136.798C131.172 137.392 126.559 137.884 121.931 138.276C121.705 138.316 121.472 138.269 121.281 138.142C121.104 137.928 121.001 137.663 120.987 137.386L119.839 130.559C119.314 127.453 126.79 133.3 127.084 133.345Z" fill="white"/>
<path d="M122.393 164.37H111.34V227.801H122.393V164.37Z" fill="#FFC6C0"/>
<path d="M172.376 189.104H67.1064V252.534H172.376V189.104Z" fill="#FFC6C0"/>
<path d="M111.349 200.424H70.364V241.409H111.349V200.424Z" fill="black"/>
<path d="M163.645 200.424H122.66V241.409H163.645V200.424Z" fill="black"/>
<path d="M148.016 138.97L146.815 137.661C149.218 135.454 151.443 131.805 151.016 128.637C150.705 126.73 150.259 124.847 149.681 123.003C149.262 121.517 148.791 119.977 148.524 118.42C147.714 114.263 147.892 110.009 148.061 105.897L149.841 105.977C149.672 109.982 149.503 114.121 150.268 118.081C150.553 119.568 150.98 121.063 151.398 122.531C151.997 124.46 152.458 126.429 152.778 128.423C153.33 132.455 150.562 136.629 148.016 138.97Z" fill="black"/>
</g>
<defs>
<clipPath id="clip0_11899_263850">
<path d="M0 3C0 1.34315 1.34315 0 3 0H231C232.657 0 234 1.34315 234 3V213H0V3Z" fill="white"/>
</clipPath>
</defs>
</svg>
