<svg width="24" height="25" viewBox="0 0 24 25" fill="none" xmlns="http://www.w3.org/2000/svg">
<path d="M3.60003 12.5001C3.60853 12.7341 3.7009 13.0051 3.85281 13.1751L9.45288 19.3934C9.77981 19.8013 10.4093 19.7923 10.7763 19.4254C11.1434 19.0585 11.1737 18.4078 10.8043 18.0434L6.7013 13.4818L19.4667 13.4818C19.9819 13.4818 20.4 13.042 20.4 12.5C20.4 11.9579 19.9819 11.5181 19.4667 11.5181L6.7013 11.5181L10.8043 6.95651C11.1737 6.59216 11.1446 5.93888 10.7763 5.57196C10.4093 5.20505 9.77128 5.2025 9.45288 5.60648L3.85281 11.8248C3.68266 12.0153 3.60246 12.2377 3.60003 12.4998V12.5001Z" fill="black"/>
</svg>
