<svg width="34" height="34" viewBox="0 0 34 34" fill="none" xmlns="http://www.w3.org/2000/svg">
<circle cx="17" cy="17" r="16.25" stroke="black" stroke-opacity="0.25" stroke-width="1.5"/>
<path d="M24.56 16.0091L21.0317 15.3608C20.9958 15.3608 20.96 15.325 20.9417 15.3067C20.6 14.8925 18.4217 12.6067 17 12.6067L12.0142 12.6074C10.8442 12.6074 9.78257 13.7057 9.11585 14.6232C8.68414 15.1991 8.45 15.8832 8.45 16.6032V18.6916C8.45 19.3574 8.99 19.8974 9.65585 19.8974H9.92585C10.1417 20.7616 10.9159 21.4091 11.8517 21.4091C12.7875 21.4091 13.5617 20.7609 13.7775 19.8974H20.2759C20.4917 20.7616 21.2659 21.4091 22.2017 21.4091C23.1375 21.4091 23.9117 20.7609 24.1275 19.8974H24.1634C24.7575 19.8974 25.2792 19.4474 25.3516 18.8533L25.5499 17.3416C25.6216 16.7109 25.19 16.1174 24.56 16.0091ZM11.8342 20.4733C11.2584 20.4733 10.7901 20.005 10.7901 19.4292C10.7901 18.8533 11.2584 18.385 11.8342 18.385C12.4101 18.385 12.8784 18.8533 12.8784 19.4292C12.8959 20.005 12.4284 20.4733 11.8342 20.4733ZM14.1919 15.6491H11.0602C10.8985 15.6491 10.7902 15.4874 10.8802 15.3433C11.3485 14.515 12.5185 13.705 13.0944 13.705H13.8861C13.9944 13.705 14.0844 13.7767 14.102 13.885L14.4078 15.3967C14.4261 15.5232 14.3184 15.6491 14.1919 15.6491ZM19.2319 15.6491H15.776C15.6678 15.6491 15.5777 15.5774 15.5602 15.4691L15.2543 13.9574C15.236 13.8315 15.326 13.7057 15.4702 13.7057L17.0002 13.705C17.5219 13.705 18.6019 14.5333 19.376 15.2708C19.5201 15.415 19.4301 15.6491 19.2319 15.6491ZM22.1842 20.4733C21.6084 20.4733 21.1401 20.005 21.1401 19.4292C21.1401 18.8533 21.6084 18.385 22.1842 18.385C22.7601 18.385 23.2284 18.8533 23.2284 19.4292C23.2284 20.005 22.7601 20.4733 22.1842 20.4733Z" fill="black" fill-opacity="0.85"/>
</svg>