<svg width="101" height="100" viewBox="0 0 101 100" fill="none" xmlns="http://www.w3.org/2000/svg">
<g clip-path="url(#clip0_449_634)">
<path d="M7.13236 42.325C-3.03469 56.0975 21.4087 72.4875 42.5675 77.3047C63.7263 82.1219 69.36 83.9831 77.9854 71.3727C86.6108 58.7624 108.302 44.2427 81.8038 25.1264C55.3052 6.01012 55.2501 11.5491 33.6507 12.5613C12.0512 13.5735 17.2994 28.5526 7.13236 42.325Z" fill="#EAB0D3"/>
<path d="M88.0646 37.5204C87.3108 36.6375 86.262 36.103 85.109 36.013C82.7971 35.8319 80.755 37.5485 80.4653 39.9197L78.8191 53.422C77.2623 53.2828 75.612 53.9387 74.5342 55.7351L70.8527 61.8728C70.5921 62.2423 69.3589 63.18 68.8698 63.3902C68.6162 63.3972 68.3716 63.401 68.1349 63.4051C64.5849 63.468 62.4104 63.7714 59.0125 69.2695L50.6007 82.8871L42.1865 69.2704C38.789 63.7721 36.6142 63.4679 33.0641 63.406C32.8274 63.4018 32.5828 63.398 32.3292 63.3909C31.8398 63.1809 30.6069 62.244 30.3571 61.8906L26.6648 55.7358C25.587 53.9392 23.9367 53.2836 22.3797 53.4229L20.7337 39.9206C20.4438 37.5484 18.3987 35.8277 16.0898 36.0138C14.9378 36.1038 13.8882 36.6383 13.1343 37.5213C12.3834 38.4009 12.0213 39.515 12.1138 40.6599L14.4907 69.9836C14.672 72.2257 16.9699 74.4559 17.7401 74.9712L30.2522 83.3531C30.9439 84.1878 33.9346 89.0154 35.3923 91.3674C36.084 92.4825 36.6293 93.3644 36.8872 93.7578C37.4785 94.6675 38.1795 94.9999 38.9184 94.9999C39.7625 94.9999 40.6557 94.5666 41.491 94.063L50.6012 88.5776L59.7104 94.0627C60.5394 94.5621 61.4256 94.9935 62.2691 94.9935C63.0168 94.9935 63.7307 94.6531 64.3382 93.7195C64.5707 93.3641 65.1173 92.4825 65.8078 91.3662C67.2646 89.0138 70.2553 84.1865 70.9479 83.3519L83.4583 74.97C84.2295 74.4546 86.526 72.2245 86.7086 69.9824L89.0855 40.6587C89.1776 39.5137 88.8156 38.3987 88.0646 37.52V37.5204ZM39.993 91.5835C39.6341 91.7996 39.3795 91.9277 39.2069 92.0027C38.9471 91.5952 38.46 90.8086 37.8613 89.8426C33.1363 82.2156 32.4976 81.3666 31.9875 81.0242L19.3592 72.5629C18.8388 72.2146 17.4563 70.6261 17.3853 69.7473L15.0085 40.4238C14.9784 40.0514 15.0976 39.6871 15.3452 39.3977C15.595 39.1056 15.9407 38.9284 16.3187 38.8983C16.354 38.8955 16.3879 38.8942 16.422 38.8942C17.1397 38.8942 17.7605 39.4789 17.8567 40.2676L19.6081 54.642C18.1495 55.9474 17.4035 58.1363 18.6736 60.2673L24.8593 70.6486C25.2172 71.2483 25.906 71.6707 27.6414 72.6376C28.2209 72.9611 28.9436 73.3624 29.1992 73.5622C29.8308 74.0547 30.7421 73.9436 31.2355 73.3129C31.7286 72.6822 31.6164 71.7726 30.9857 71.2799C30.5527 70.9427 29.859 70.5564 29.0549 70.1077C28.4946 69.7954 27.5812 69.2871 27.2815 69.0486L21.166 58.7865C20.5374 57.7315 21.3486 56.8698 21.8657 56.5615C22.2898 56.3093 23.3634 55.869 24.1764 57.2232L27.8688 63.3778C28.3981 64.2597 30.7901 66.2385 32.1007 66.2807C32.4177 66.2906 32.7202 66.2958 33.0119 66.3018C35.8222 66.3519 36.9851 66.373 39.716 70.7919L48.9465 85.7288C48.9878 85.801 49.0488 85.959 49.093 86.102L39.993 91.5835ZM83.8169 69.7483C83.7456 70.6281 82.3633 72.2166 81.842 72.5649L69.2138 81.0245C68.7033 81.3659 68.065 82.2155 63.34 89.843C62.7543 90.7878 62.2752 91.5606 61.9945 92.0031C61.8221 91.927 61.5675 91.799 61.2084 91.5838L52.1063 86.1025C52.1505 85.9605 52.2106 85.8043 52.2487 85.7372L61.4832 70.7923C64.2142 66.373 65.3771 66.3519 68.1874 66.3021C68.479 66.297 68.7819 66.2912 69.0985 66.281C70.4099 66.2389 72.8008 64.2601 73.3304 63.3782L77.0228 57.2235C77.8358 55.8684 78.9094 56.3087 79.3336 56.5619C79.851 56.87 80.663 57.7318 80.0343 58.7869L73.9187 69.0497C73.6181 69.2879 72.7047 69.7962 72.1453 70.1088C71.3413 70.5561 70.6476 70.9435 70.2146 71.281C69.5829 71.7733 69.4716 72.6833 69.9648 73.3139C70.4579 73.9447 71.3694 74.0558 72.001 73.5634C72.2566 73.3632 72.9793 72.9608 73.5589 72.6387C75.2942 71.6719 75.983 71.2504 76.3409 70.6498L82.5267 60.2693C83.7961 58.1382 83.0499 55.9493 81.5921 54.644L83.3435 40.2695C83.4449 39.4429 84.1194 38.8441 84.8815 38.9003C85.2595 38.9294 85.6053 39.1075 85.8551 39.3997C86.1026 39.6891 86.2219 40.0534 86.1918 40.4257L83.8169 69.7483Z" fill="black"/>
<path d="M67.0923 26.9173C66.1395 25.9924 65.008 25.2587 63.7626 24.7581C62.5173 24.2575 61.1826 23.9999 59.8347 23.9999C58.4866 23.9999 57.1519 24.2575 55.9066 24.7581C54.6612 25.2587 53.5298 25.9924 52.5769 26.9173L50.5991 28.8359L48.6214 26.9173C46.6965 25.0499 44.0858 24.0008 41.3637 24.0008C38.6415 24.0008 36.0307 25.0499 34.1059 26.9173C32.1809 28.7847 31.0996 31.3174 31.0996 33.9583C31.0996 36.5992 32.1809 39.1319 34.1059 40.9993L36.0835 42.9179L50.5991 56.9999L65.1147 42.9179L67.0923 40.9993C68.0458 40.0748 68.802 38.9772 69.3181 37.7691C69.8341 36.561 70.0996 35.266 70.0996 33.9583C70.0996 32.6506 69.8341 31.3557 69.3181 30.1475C68.802 28.9394 68.0458 27.8418 67.0923 26.9173Z" stroke="black" stroke-width="3" stroke-linecap="round" stroke-linejoin="round"/>
</g>
<defs>
<clipPath id="clip0_449_634">
<rect width="100" height="100" fill="white" transform="translate(0.699707)"/>
</clipPath>
</defs>
</svg>
