<svg xmlns="http://www.w3.org/2000/svg" width="11" height="16" viewBox="0 0 11 16" fill="none">
<path fill-rule="evenodd" clip-rule="evenodd" d="M1.31559 15.5313C0.999012 15.2313 0.821167 14.8244 0.821167 14.4001C0.821167 13.9759 0.999012 13.569 1.31559 13.2689L6.87643 8.00011L1.31559 2.73131C1.00798 2.42955 0.837773 2.02539 0.841621 1.60587C0.845468 1.18636 1.02307 0.785058 1.33616 0.488405C1.64926 0.191752 2.0728 0.0234813 2.51557 0.0198359C2.95834 0.0161904 3.3849 0.177462 3.70339 0.468915L10.4581 6.86892C10.7747 7.16896 10.9525 7.57585 10.9525 8.00011C10.9525 8.42438 10.7747 8.83127 10.4581 9.13131L3.70339 15.5313C3.38671 15.8313 2.95727 15.9998 2.50949 15.9998C2.06171 15.9998 1.63227 15.8313 1.31559 15.5313Z" fill="black" fill-opacity="0.75"/>
</svg>