<svg width="101" height="100" viewBox="0 0 101 100" fill="none" xmlns="http://www.w3.org/2000/svg">
<g clip-path="url(#clip0_430_1538)">
<path d="M11.3666 49.4568C3.66383 63.6755 28.682 75.7986 49.108 77.527C69.534 79.2554 75.0487 80.2568 81.4618 67.3276C87.875 54.3984 106.261 37.9676 78.9619 23.5639C51.6632 9.16019 52.3389 14.349 32.266 18.1318C12.1931 21.9146 19.0694 35.2382 11.3666 49.4568Z" fill="#FBE186"/>
<path d="M49.1979 55.3666C49.7254 53.6733 52.0164 53.6733 52.5421 55.3666L55.2129 63.9598C55.3278 64.3284 55.5513 64.6496 55.8512 64.8774C56.1512 65.1053 56.5124 65.2281 56.8832 65.2284H65.5251C67.2288 65.2284 67.9356 67.5082 66.5589 68.5561L59.5681 73.8658C59.2678 74.094 59.0443 74.4158 58.9296 74.7851C58.815 75.1543 58.8151 75.552 58.9298 75.9212L61.5989 84.5144C62.1263 86.2096 60.2714 87.6179 58.8947 86.5699L51.9038 81.2603C51.6034 81.0319 51.2414 80.9089 50.87 80.9089C50.4985 80.9089 50.1366 81.0319 49.8361 81.2603L42.8453 86.5699C41.4686 87.6179 39.6136 86.2077 40.1411 84.5144L42.8101 75.9212C42.9249 75.552 42.925 75.1543 42.8103 74.7851C42.6957 74.4158 42.4722 74.094 42.1719 73.8658L35.1811 68.5561C33.8026 67.5082 34.5129 65.2284 36.2149 65.2284H44.855C45.2261 65.2285 45.5877 65.1058 45.888 64.878C46.1884 64.6501 46.4121 64.3287 46.5271 63.9598L49.1979 55.3666Z" stroke="black" stroke-width="3" stroke-linecap="round" stroke-linejoin="round"/>
<path d="M19.9858 14.0375C19.9858 13.4852 20.4336 13.0375 20.9858 13.0375H80.8537C81.406 13.0375 81.8537 13.4852 81.8537 14.0375V40.7421C81.8537 41.1688 81.5829 41.5485 81.1794 41.6875L51.2455 51.9997C51.0344 52.0724 50.8051 52.0724 50.5941 51.9997L20.6601 41.6875C20.2566 41.5485 19.9858 41.1688 19.9858 40.7421V14.0375Z" stroke="black" stroke-width="3"/>
</g>
<defs>
<clipPath id="clip0_430_1538">
<rect width="100" height="100" fill="white" transform="translate(0.900146)"/>
</clipPath>
</defs>
</svg>
