<svg width="17" height="15" viewBox="0 0 17 15" fill="none" xmlns="http://www.w3.org/2000/svg">
<path d="M13.8954 1.26332L8.70246 5.6839L3.50952 1.26332C2.85226 0.703824 1.78997 0.717831 1.14917 1.26332L1.09846 1.30649C0.457655 1.85198 0.4412 2.75628 1.09846 3.31578L6.2914 7.73635L1.0821 12.1708C0.441301 12.7163 0.441301 13.6346 1.0821 14.1801L1.13281 14.2233C1.79007 14.7828 2.85236 14.7688 3.49317 14.2233L8.68611 9.80273L13.8954 14.2372C14.5362 14.7827 15.615 14.7827 16.2558 14.2372L16.3065 14.1941C16.9473 13.6486 16.9473 12.7303 16.3065 12.1848L11.1135 7.7642L16.3228 3.3297C16.9636 2.78421 16.9801 1.87991 16.3228 1.32041L16.2721 1.27725C15.6149 0.717745 14.5362 0.717832 13.8954 1.26332Z" fill="black"/>
</svg>