<svg width="24" height="25" viewBox="0 0 24 25" fill="none" xmlns="http://www.w3.org/2000/svg">
<path d="M10.8154 5.05756C9.00285 7.14692 8.82518 9.55149 10.1295 10.8719C8.37188 11.5802 6.64998 12.8227 5.49063 14.6887C5.42616 14.1957 5.39812 13.6588 5.39812 13.1045C5.39812 11.5312 5.62304 9.93974 5.77522 9.06341C5.84916 8.6376 5.64119 8.21247 5.25965 8.00948C4.8781 7.80649 4.40933 7.87158 4.09752 8.17085C3.45672 8.78587 2.92021 9.79223 2.5424 11.0009C2.15694 12.2341 1.90909 13.7646 1.90909 15.5114C1.90909 17.3812 2.52618 19.0716 3.3233 20.3042C3.722 20.9207 4.18274 21.4492 4.66497 21.8349C5.12168 22.2002 5.71332 22.5288 6.35736 22.5288L14.1818 22.5288C14.4684 22.5288 14.7268 22.4082 14.9091 22.2151C15.0914 22.4082 15.3498 22.5288 15.6364 22.5288H19.21C19.7623 22.5288 20.21 22.0811 20.21 21.5288C20.21 20.5999 19.7419 19.7737 19.2598 19.2184C19.0691 18.9987 18.8571 18.7987 18.6355 18.6318C18.763 18.3104 18.8974 17.9462 19.0223 17.5716C19.2977 16.7457 19.5831 15.7071 19.5831 14.9097C19.5831 14.292 19.4228 13.7276 19.2653 13.2646C19.1943 13.0558 19.1303 12.8822 19.0719 12.7241C18.983 12.4832 18.9074 12.2783 18.8409 12.0401C18.7438 11.6926 18.727 11.454 18.768 11.2597C18.7975 11.12 18.8704 10.9391 19.0731 10.7153C20.163 10.4477 20.9205 9.77531 21.3949 9.00118C21.8994 8.17803 22.0909 7.23772 22.0909 6.48537C22.0909 5.9529 21.7321 5.65675 21.5769 5.55336C21.4091 5.4415 21.233 5.38174 21.1235 5.34889C20.8925 5.27961 20.611 5.23292 20.3868 5.19706C20.3341 5.18864 20.2827 5.18054 20.2324 5.17262C20.0413 5.14252 19.8663 5.11495 19.7 5.08169C19.6967 5.08103 19.6934 5.08038 19.6902 5.07972C19.3599 4.27807 18.7489 3.62341 18.1168 3.15943C17.3369 2.58705 16.3501 2.17583 15.4483 2.17583C14.0377 2.17583 11.7065 2.82891 10.8154 5.05756Z" stroke="black" stroke-width="2" stroke-linejoin="round"/>
<ellipse cx="17.0909" cy="6.35229" rx="0.727273" ry="0.705883" fill="black"/>
</svg>