<svg width="24" height="24" viewBox="0 0 24 24" fill="none" xmlns="http://www.w3.org/2000/svg">
<path d="M18.5539 7.03965L18.6246 6.96894L18.5539 7.03965C18.6698 7.15555 18.7348 7.31335 18.7348 7.47744V18.9775C18.7348 19.1416 18.6698 19.2994 18.5539 19.4153L18.6246 19.486L18.5539 19.4153C18.438 19.5312 18.2802 19.5962 18.1161 19.5962H9.4911C9.14921 19.5962 8.87235 19.3193 8.87235 18.9775V7.47745C8.87235 7.13556 9.14921 6.8587 9.4911 6.8587H18.1161C18.2802 6.8587 18.438 6.92374 18.5539 7.03965ZM18.1161 5.22121H9.49109C8.24543 5.22121 7.23484 6.2318 7.23484 7.47746V18.9775C7.23484 20.2231 8.24543 21.2337 9.49109 21.2337H18.1161C19.3618 21.2337 20.3723 20.2231 20.3723 18.9775V7.47746C20.3723 6.2318 19.3618 5.22121 18.1161 5.22121Z" fill="black" stroke="black" stroke-width="0.2"/>
<path d="M5.99734 4.60246C5.99734 4.26057 6.2742 3.98371 6.61609 3.98371H13.8036C14.2559 3.98371 14.6223 3.61731 14.6223 3.16496C14.6223 2.71262 14.2559 2.34621 13.8036 2.34621H6.61609C5.37043 2.34621 4.35984 3.3568 4.35984 4.60246V13.2275C4.35984 13.6798 4.72624 14.0462 5.17859 14.0462C5.63094 14.0462 5.99734 13.6798 5.99734 13.2275V4.60246Z" fill="black" stroke="black" stroke-width="0.2"/>
</svg>