<svg width="234" height="213" viewBox="0 0 234 213" fill="none" xmlns="http://www.w3.org/2000/svg">
<path d="M0 3C0 1.34315 1.34315 0 3 0H231C232.657 0 234 1.34315 234 3V213H0V3Z" fill="#E6FFFD"/>
<path d="M78.3021 57.396C72.6932 58.7196 67.4532 61.0629 61.5948 61.92C61.2802 64.285 64.0467 66.1944 63.8948 68.5812C63.7863 70.4146 62.0396 71.6622 60.5751 72.8122C55.845 76.5117 52.6662 81.6974 49.4767 86.7638C45.6904 92.9043 41.8825 99.099 39.4523 105.858C36.6157 113.812 35.8357 122.354 37.1849 130.691C37.4236 132.123 37.9769 133.804 39.4198 134.13C40.1013 134.196 40.7888 134.16 41.4594 134.021C45.6904 133.718 47.9687 138.773 48.5003 142.885C49.0319 146.997 49.7913 152.052 53.7837 153.441C55.0313 153.875 56.3982 153.842 57.6676 154.2C61.4647 155.285 63.3849 159.278 64.8278 162.879C73.6659 152.693 79.171 140.043 80.602 126.633C80.9817 122.988 80.9383 119.039 78.6601 116.077C84.9307 108.95 86.4712 98.7193 92.8504 91.635C98.0578 85.8851 105.826 83.0644 113.42 81.079C116.93 79.9967 120.598 79.5126 124.269 79.647C127.925 79.9508 131.635 81.4913 133.75 84.4313C136.452 88.1959 136.159 93.5878 139.294 97.016C141.768 99.7065 145.695 100.466 149.058 102.006C152.471 103.614 155.371 106.136 157.437 109.292C159.503 112.448 160.655 116.115 160.764 119.885C160.58 121.39 160.713 122.916 161.155 124.366C161.725 125.392 162.457 126.319 163.324 127.111C165.341 129.246 166.892 131.777 167.881 134.542C168.695 136.831 169.139 139.294 170.539 141.29C171.938 143.286 174.748 144.653 176.918 143.46C177.905 142.814 178.718 141.935 179.283 140.9L186.682 129.617C187.314 130.169 188.105 130.507 188.94 130.583C189.776 130.659 190.615 130.469 191.336 130.04C192.781 129.204 193.973 127.993 194.786 126.536C202.793 113.452 201.643 96.4735 195.35 82.5328C194.748 81.028 193.893 79.6374 192.822 78.4211C191.886 77.5436 190.873 76.7521 189.796 76.056C189.47 75.8282 178.708 65.5326 182.809 65.0336C179.847 65.3916 177.819 62.3648 176.072 59.9997C172.817 55.5951 168.217 52.4055 163.693 49.2268C163.071 48.7356 162.36 48.3674 161.599 48.1419C159.126 47.5453 156.989 49.8886 154.537 50.5938C152.725 51.1145 150.783 50.7131 148.895 50.5938C144.576 50.3716 140.327 51.7506 136.962 54.4668C135.855 55.5422 134.624 56.4818 133.295 57.2658C128.955 59.4356 123.932 56.0507 119.072 55.5626C115.644 55.2154 112.27 56.3111 108.863 56.8319C100.52 58.1229 92.1452 55.9423 83.7699 56.5606C81.9276 56.6901 80.0989 56.9695 78.3021 57.396Z" fill="#DBA258"/>
<path d="M171.591 114.678C169.866 109.894 171.494 108.711 172.405 104.274C172.769 102.588 172.645 100.833 172.048 99.2153C171.45 97.5974 170.404 96.1834 169.031 95.1392C168.48 94.8201 167.995 94.4006 167.599 93.9024C167.013 92.9586 167.371 91.7327 167.599 90.6478C168.063 88.2293 167.708 85.7251 166.59 83.5309C166.256 83.0016 166.007 82.4232 165.852 81.8168C165.814 80.5907 166.172 79.385 166.872 78.3777C168.526 75.167 169.276 71.567 169.042 67.9628C169.064 67.5588 168.996 67.155 168.844 66.78C168.692 66.405 168.46 66.068 168.163 65.7931C167.631 65.4978 167.021 65.3729 166.416 65.4351C163.053 65.4351 160.601 66.5199 160.395 63.3629C160.254 61.3125 162.565 59.2078 160.33 57.3418C159.039 56.2569 157.075 56.6583 155.372 56.9838C153.669 57.3093 151.499 57.2116 150.772 55.6819C149.687 53.4362 153.072 50.9301 152.128 48.6193L132.503 52.1452C131.729 52.3407 130.921 52.3629 130.138 52.2103C127.762 51.5377 127.632 48.3264 127.968 45.9288C125.614 47.2849 123.195 48.5543 120.754 49.7476C114.092 53.0023 106.01 55.8881 98.6544 53.2952C95.3347 52.1344 92.8828 51.1254 89.0857 51.3207C88.0768 51.3207 79.3218 52.6443 79.5171 53.9461C79.8208 56.5932 82.2293 58.4375 84.3014 60.1625C86.3735 61.8875 88.4674 64.2959 87.8598 66.8888C84.6875 68.5851 81.7361 70.6657 79.0723 73.0835C81.7845 73.2028 82.6524 76.8914 81.7302 79.3867C79.0072 86.7096 74.3422 94.2062 73.8648 102.169C73.6891 103.412 73.9498 104.677 74.6025 105.749C75.3463 106.482 76.1323 107.17 76.9567 107.811C78.6926 109.622 78.3562 112.454 77.9223 114.895L75.5572 127.914L80.8406 127.979C81.7979 133.046 81.809 138.247 80.8732 143.319C80.6181 144.321 80.5555 145.363 80.6887 146.389C80.8993 147.086 81.248 147.733 81.714 148.292C82.1799 148.851 82.7536 149.311 83.401 149.644C88.8254 152.898 97.0597 150.87 100.835 155.817C102.679 158.236 102.734 161.61 104.545 164.062C107.507 168.076 113.615 167.902 118.649 166.969C123.683 166.036 129.335 164.93 133.316 168L136.289 161.165C136.544 160.39 136.996 159.695 137.602 159.147C138.446 158.613 139.436 158.355 140.433 158.41C145.087 158.247 150.783 158.312 153.04 154.341C154.906 151.087 153.159 146.845 154.407 143.308C155.98 138.86 161.372 137.233 165.256 134.466C168.27 132.263 170.507 129.16 171.646 125.604C172.784 122.048 172.765 118.222 171.591 114.678Z" fill="#9E7343"/>
<path d="M106.88 102.314C106.969 98.468 104.274 95.2863 100.859 95.207C97.4451 95.1277 94.6048 98.1809 94.5155 102.027C94.4263 105.872 97.1217 109.054 100.536 109.133C103.95 109.212 106.791 106.159 106.88 102.314Z" fill="black"/>
<path d="M150.252 102.314C150.341 98.4689 147.646 95.2871 144.231 95.2079C140.817 95.1286 137.977 98.1818 137.887 102.027C137.798 105.873 140.494 109.055 143.908 109.134C147.322 109.213 150.163 106.16 150.252 102.314Z" fill="black"/>
<path d="M109.59 99.6524C108.204 95.1962 106.33 90.9067 104.003 86.8616C105.761 86.4053 107.602 86.3638 109.379 86.7403C111.156 87.1169 112.822 87.9011 114.244 89.0313L112.91 79.8858C112.709 79.1213 112.77 78.3115 113.084 77.5858C113.35 77.2142 113.702 76.9125 114.11 76.7066C114.518 76.5007 114.97 76.3966 115.427 76.4033C118.248 76.208 120.851 78.1174 122.327 80.4933C123.614 82.96 124.428 85.6463 124.724 88.413L133.968 79.7339C134.494 79.105 135.223 78.6792 136.029 78.5297C136.615 78.5698 137.177 78.7829 137.642 79.1421C138.108 79.5012 138.456 79.9904 138.643 80.5475C138.981 81.6664 139.493 82.7246 140.162 83.6829L143.905 82.1206C144.448 87.545 139.804 91.9605 137.255 96.8208C136.358 98.2366 135.986 99.9217 136.202 101.583C136.468 102.561 136.95 103.465 137.613 104.231C139.783 106.856 142.733 108.635 144.968 111.109C147.55 113.962 150.208 116.794 152.942 119.571C150.774 119.534 148.676 120.334 147.084 121.806C147.735 121.187 151.651 124.149 152.183 124.605C153.761 125.981 155.118 127.59 156.208 129.378C158.887 133.588 158.312 138.057 159.061 142.95C159.092 143.06 159.102 143.175 159.089 143.289C159.076 143.402 159.041 143.512 158.985 143.612C158.878 143.713 158.748 143.785 158.605 143.821C158.463 143.857 158.313 143.856 158.171 143.818L156.002 143.623C155.885 143.585 155.76 143.585 155.644 143.623C155.55 143.696 155.485 143.8 155.459 143.916C154.819 145.825 156.316 147.583 156.132 149.47C155.752 151.324 155.204 153.14 154.494 154.895L147.648 153.463C146.563 155.133 147.854 158.214 145.923 158.735C145.012 158.974 144.144 158.29 143.46 157.65L131.863 146.758C130.409 145.391 128.717 143.926 126.699 144.002C125.259 144.196 123.902 144.79 122.782 145.717C115.655 150.599 108.527 155.253 101.182 159.744C100.932 159.927 100.642 160.049 100.336 160.102C99.9718 160.103 99.6188 159.976 99.338 159.744C97.9927 158.768 97.5371 156.999 96.8428 155.48C95.6603 152.953 94.673 153.452 92.7636 154.276C92.2429 154.504 87.4043 156.272 87.0463 155.502C84.9524 150.978 88.8038 146.075 89.6608 141.182C89.773 140.783 89.7462 140.359 89.5849 139.978C89.1292 139.088 87.8274 139.272 86.8076 139.207C83.9977 139.044 82.1317 135.866 82.6199 133.164C83.1081 130.463 85.2996 128.315 87.708 126.883C90.1165 125.451 92.7962 124.507 95.1937 123.086L89.3896 116.153L100.488 116.088C101.062 116.145 101.639 116.02 102.137 115.73C102.53 115.341 102.804 114.848 102.929 114.309C104.014 111.25 106.064 108.614 107.42 105.63C108.777 102.647 109.297 98.9797 107.323 96.376" fill="#DBA258"/>
<path d="M118.757 141.008C117.362 140.208 116.254 138.99 115.589 137.526C114.646 135.139 115.589 132.405 117.054 130.289C118.945 127.529 121.788 125.563 125.039 124.767C126.664 124.377 128.356 124.362 129.987 124.723C131.619 125.084 133.147 125.811 134.456 126.85C135.5 127.73 136.342 128.823 136.926 130.057C137.51 131.29 137.822 132.635 137.84 134C137.84 136.593 136.539 140.053 134.043 141.334C132.958 141.876 131.874 141.865 130.789 142.56C129.704 143.254 129.009 144.729 127.784 144.957C127.435 145.003 127.081 144.979 126.741 144.885C126.402 144.792 126.085 144.632 125.809 144.415C125.257 143.989 124.681 143.594 124.084 143.232C123.589 143.03 123.082 142.86 122.565 142.722C121.224 142.327 119.942 141.751 118.757 141.008Z" fill="black"/>
</svg>
