<svg width="24" height="24" viewBox="0 0 24 24" fill="none" xmlns="http://www.w3.org/2000/svg">
<path d="M3.35742 7.95663L10.9187 12.9975C11.2336 13.2076 11.6038 13.3198 11.9824 13.3198C12.3611 13.3198 12.7312 13.2076 13.0462 12.9975L20.6074 7.95663M5.27409 18.4983H18.6908C19.1991 18.4983 19.6866 18.2964 20.046 17.9369C20.4055 17.5775 20.6074 17.09 20.6074 16.5816V6.9983C20.6074 6.48997 20.4055 6.00246 20.046 5.64301C19.6866 5.28357 19.1991 5.08163 18.6908 5.08163H5.27409C4.76576 5.08163 4.27825 5.28357 3.9188 5.64301C3.55936 6.00246 3.35742 6.48997 3.35742 6.9983V16.5816C3.35742 17.09 3.55936 17.5775 3.9188 17.9369C4.27825 18.2964 4.76576 18.4983 5.27409 18.4983Z" stroke="black" stroke-width="2" stroke-linecap="round" stroke-linejoin="round"/>
</svg>