<svg width="20" height="18" viewBox="0 0 20 18" fill="none" xmlns="http://www.w3.org/2000/svg">
<path d="M19.055 9.05503C19.055 4.0541 15.001 5.53131e-05 10 5.53131e-05C4.99911 5.53131e-05 0.945068 4.0541 0.945068 9.05503C0.945068 13.5746 4.25634 17.3207 8.5852 18V11.6725H6.28609V9.05503H8.5852V7.0601C8.5852 4.7907 9.93705 3.53715 12.0054 3.53715C12.9961 3.53715 14.0323 3.71401 14.0323 3.71401V5.94238H12.8905C11.7657 5.94238 11.4149 6.64037 11.4149 7.35646V9.05503H13.9262L13.5248 11.6725H11.4149V18C15.7437 17.3207 19.055 13.5746 19.055 9.05503Z" fill="white"/>
</svg>
