<svg width="234" height="213" viewBox="0 0 234 213" fill="none" xmlns="http://www.w3.org/2000/svg">
<path d="M0 3C0 1.34315 1.34315 0 3 0H231C232.657 0 234 1.34315 234 3V213H0V3Z" fill="#9DD87D"/>
<g clip-path="url(#clip0_11899_263885)">
<path d="M117 208C172.781 208 218 162.781 218 107C218 51.2192 172.781 6 117 6C61.2192 6 16 51.2192 16 107C16 162.781 61.2192 208 117 208Z" fill="#9DD87D"/>
<path d="M181.529 136.29C180.266 139.926 177.489 142.815 174.318 145.138C168.833 149.127 164.611 148.279 160.117 147.834C157.966 147.622 156.683 145.865 154.653 145.158C158.723 140.606 163.289 136.523 168.268 132.987" fill="#DBA258"/>
<path d="M162.006 89.0926C161.925 87.2342 161.915 85.3758 162.006 83.5174C161.913 82.3691 162.227 81.2247 162.894 80.2855C163.904 79.1745 165.632 79.1947 167.136 79.2755C183.488 80.6895 195.588 93.0114 197.952 109.212C199.719 121.332 196.184 133.735 190.447 144.562C189.619 146.127 188.649 147.753 187.054 148.531C185.865 149.019 184.571 149.189 183.296 149.026C176.893 148.561 170.934 145.34 166.126 141.087C165.64 140.721 165.286 140.207 165.116 139.623C165.065 139.15 165.13 138.671 165.308 138.229C166.318 134.856 167.641 132.078 166.753 128.664C165.743 124.624 164.5 120.736 163.298 116.797C160.925 109 158.562 100.809 160.066 92.5569" fill="#66AF37"/>
<path d="M139.634 176.215C144.906 175.599 149.562 172.832 153.562 169.347C160.44 163.368 160.42 157.662 161.026 151.703C161.319 148.854 159.279 146.653 158.864 143.865C151.645 147.848 144.89 152.621 138.725 158.096" fill="#DBA258"/>
<path d="M142.705 158.258C136.049 162.065 128.191 163.398 120.485 163.095C112.778 162.792 105.335 160.924 97.9918 158.682C94.78 157.672 91.4268 156.53 89.1947 154.005C89.0021 153.85 88.8731 153.63 88.8322 153.386C88.7912 153.142 88.8412 152.892 88.9725 152.682C91.2955 154.288 96.6889 152.389 99.527 152.177C104.365 151.814 109.223 151.814 114.071 151.541C123.429 151.024 132.711 149.563 141.775 147.178C149.613 145.107 157.521 142.209 163.379 136.603C165.783 134.31 167.864 131.392 168.035 128.079C168.258 123.847 165.298 120.069 161.884 117.565C158.471 115.06 154.481 113.403 151.138 110.818C147.795 108.232 145.007 104.253 145.553 100.051C145.957 96.8798 148.189 93.7286 147.037 90.739C146.613 89.812 146.029 88.9674 145.31 88.2443C142.553 85.1234 139.574 82.0833 135.877 80.1643C132.18 78.2453 127.625 77.5787 123.848 79.326C120.07 81.0733 117.788 84.6689 114.182 86.5879C112.45 87.5033 110.521 87.9818 108.561 87.9818C106.602 87.9818 104.673 87.5033 102.941 86.5879C99.83 84.78 97.2949 81.5783 93.7094 81.0127C90.1239 80.4471 86.6394 82.8711 84.3366 85.7395C82.0338 88.6079 80.4784 92.0318 77.9736 94.7083C70.5299 102.657 62.3994 90.7592 58.7836 101.132C56.7636 106.98 53.2892 115.575 52.4408 121.069C51.552 126.907 50.8248 141.189 52.8044 147.945C58.8644 168.751 66.7828 176.862 84.1144 183.699C118.889 197.405 148.754 183.699 148.754 183.699C148.754 183.699 145.846 169.842 145.603 168.065C145.533 167.287 143.472 157.823 142.705 158.258Z" fill="#66AF37"/>
<path d="M113.738 91.3248C126.606 91.3248 137.038 77.4153 137.038 60.2572C137.038 43.099 126.606 29.1896 113.738 29.1896C100.869 29.1896 90.437 43.099 90.437 60.2572C90.437 77.4153 100.869 91.3248 113.738 91.3248Z" fill="#9E7343"/>
<path d="M83.8619 100.051C85.1285 100.043 86.3811 99.7855 87.5484 99.2937C88.4714 98.7796 89.2736 98.0737 89.9008 97.2235C90.528 96.3733 90.9657 95.3985 91.1844 94.3648C91.5759 92.752 91.6582 91.0795 91.4268 89.4361C91.2652 87.9817 92.5277 86.6283 93.6488 85.8909C94.982 85.0021 96.8606 84.275 98.0423 83.1841C96.8373 81.4636 95.7894 79.6383 94.9113 77.7301C93.9518 75.5788 93.6387 72.0843 93.6387 67.5393C93.3775 63.3287 92.8954 59.1348 92.1944 54.9749C90.3663 54.9749 87.3666 56.2273 85.488 56.2374C82.9024 56.2374 76.2061 65.7213 73.6306 65.7415C73.6306 65.7415 64.1871 70.3774 57.4706 70.3774C56.2357 70.3774 55.0514 70.8679 54.1782 71.7411C53.305 72.6143 52.8145 73.7986 52.8145 75.0334V79.2755H52.8852C53.3397 86.2445 69.6916 90.6784 61.7631 92.9105C55.4506 108.202 53.4912 116.504 53.4912 116.504C56.6419 118.817 60.2291 120.466 64.0356 121.352C69.6916 122.483 75.7617 121.15 75.7617 120.857C75.7617 120.857 75.7617 118.837 75.6708 117.544C75.4991 114.925 75.4991 112.296 75.6708 109.676C75.9031 106.758 76.3475 101.708 79.7108 100.586C81.063 100.217 82.4601 100.037 83.8619 100.051Z" fill="#DBA258"/>
<path d="M92.8105 62.7014C93.2465 64.8595 94.0203 66.9353 95.1032 68.8523C97.4565 65.1961 97.7494 60.6006 97.5878 56.2576C97.4969 53.7932 97.2646 51.3187 97.2747 48.8442C97.2747 46.905 97.103 44.2992 98.2847 42.6327C98.798 41.9723 99.4619 41.4443 100.221 41.0929C100.98 40.7415 101.812 40.5768 102.648 40.6127C104.326 40.6868 105.977 41.0703 107.516 41.7439C109.799 42.6024 112.041 43.572 114.283 44.5618C116.242 45.4203 127.413 50.9955 131.453 51.7025C134.554 52.2479 137.786 52.7125 140.836 51.8843C142.068 51.5409 143.401 50.7935 143.613 49.531C143.755 48.6624 143.351 47.5918 143.785 46.7838C144.219 45.9758 145.29 45.6627 145.896 45.087C146.244 44.8073 146.51 44.4398 146.668 44.0225C146.826 43.6052 146.87 43.1533 146.795 42.7135C146.532 41.754 145.522 41.2389 144.623 40.8248C141.088 39.1987 137.665 37.3706 134.281 35.4617C130.898 33.5528 127.857 31.4217 124.373 30.0582C118.524 27.6676 111.971 27.6676 106.122 30.0582C101.406 31.9469 97.911 35.1082 94.7093 38.9159C93.1396 40.7922 91.8906 42.9148 91.0127 45.1981C90.5756 46.335 90.2377 47.5076 90.0027 48.7028C89.8916 49.228 89.2149 51.7328 89.5785 52.1166C87.2588 49.5411 84.4278 47.4772 81.2662 46.0566C78.3545 45.0523 75.3273 44.4211 72.257 44.178C71.174 44.1787 70.0918 44.236 69.0149 44.3497C44.7749 45.9051 39.7249 71.852 39.7249 82.0429C39.7249 88.1029 39.7249 93.5064 39.7249 96.9909C39.7434 98.0688 40.1847 99.0963 40.9536 99.852C41.7225 100.608 42.7575 101.031 43.8356 101.031H55.592C57.4417 101.032 59.2737 100.669 60.983 99.9621C62.6924 99.2551 64.2457 98.2182 65.5541 96.9107C66.8626 95.6032 67.9006 94.0506 68.6088 92.3418C69.3169 90.6329 69.6815 88.8013 69.6815 86.9515V81.4874H69.6209C69.6209 80.4851 69.8184 79.4927 70.2023 78.5669C70.5861 77.6411 71.1487 76.8 71.8579 76.0918C72.567 75.3835 73.4089 74.8221 74.3352 74.4394C75.2615 74.0568 76.2542 73.8606 77.2565 73.8619H77.5494C82.7509 73.8619 88.3261 71.9429 91.5076 67.7413C92.3399 66.684 92.9544 65.4722 93.3155 64.176C93.669 63.3276 93.972 62.4691 94.2447 61.6106C95.8987 56.8879 96.9638 51.9793 97.4161 46.9959C97.4162 45.7491 97.5722 44.5073 97.8807 43.2993" fill="black"/>
<path d="M91.4976 89.83H85.0437C85.0437 89.83 86.5284 93.6781 91.5784 93.2741L91.4976 89.83Z" fill="#FFFEFD"/>
<path d="M113.859 82.4368C115.182 82.4665 116.494 82.1977 117.699 81.6504C118.904 81.1031 119.97 80.2914 120.818 79.2755C119.646 79.1038 118.454 79.1341 117.252 79.0533C116.051 78.9725 114.697 78.8412 113.435 78.6796C112.172 78.518 110.94 78.3362 109.627 78.114C108.386 77.9537 107.156 77.7244 105.94 77.4272C105.94 77.9423 108.344 82.4368 113.859 82.4368Z" fill="#FFFEFD"/>
<path d="M82.6298 78.9119C83.2434 78.9119 83.7408 78.0754 83.7408 77.0434C83.7408 76.0115 83.2434 75.1749 82.6298 75.1749C82.0162 75.1749 81.5188 76.0115 81.5188 77.0434C81.5188 78.0754 82.0162 78.9119 82.6298 78.9119Z" fill="black"/>
<path d="M106.526 62.4286C107.14 62.4286 107.637 61.5921 107.637 60.5602C107.637 59.5282 107.14 58.6917 106.526 58.6917C105.913 58.6917 105.415 59.5282 105.415 60.5602C105.415 61.5921 105.913 62.4286 106.526 62.4286Z" fill="black"/>
<path d="M125.262 62.4286C125.875 62.4286 126.373 61.5921 126.373 60.5602C126.373 59.5282 125.875 58.6917 125.262 58.6917C124.648 58.6917 124.151 59.5282 124.151 60.5602C124.151 61.5921 124.648 62.4286 125.262 62.4286Z" fill="black"/>
<path d="M116.374 73.0539L114.354 72.8014C114.586 70.7814 117.283 70.5188 119.464 70.2966C119.96 70.2611 120.452 70.1936 120.939 70.0946C121.164 70.0447 121.37 69.9328 121.535 69.7714C121.535 69.7714 121.464 69.6603 121.424 69.5795L120.646 67.7918C119.262 64.6608 116.96 59.4088 116.333 57.6918L118.232 57.0151C118.838 58.7119 121.262 64.0851 122.494 67.0343L123.282 68.8321C123.436 69.148 123.525 69.4914 123.545 69.8421C123.499 70.3809 123.276 70.8892 122.91 71.2877C122.545 71.6861 122.058 71.952 121.525 72.0439C120.914 72.1893 120.293 72.2839 119.666 72.3267C118.858 72.3873 116.657 72.66 116.374 73.0539Z" fill="black"/>
<path d="M138.008 97.3343C134.773 96.3723 131.298 96.6171 128.229 98.0232C125.161 99.4293 122.707 101.901 121.323 104.98C120.728 106.129 120.512 107.438 120.707 108.717C120.823 109.351 121.144 109.929 121.62 110.363C122.096 110.797 122.701 111.063 123.343 111.121C124.888 111.121 125.949 109.636 127.06 108.555C128.213 107.471 129.63 106.707 131.169 106.339C132.708 105.97 134.317 106.01 135.837 106.455" fill="#FFC6C0"/>
<path d="M182.307 90.6279C182.266 90.4827 182.185 90.3515 182.075 90.2485C181.965 90.1455 181.829 90.0746 181.681 90.0434C181.533 90.0122 181.38 90.0219 181.238 90.0716C181.095 90.1212 180.969 90.2088 180.872 90.3249C178.388 93.3549 171.661 101.152 168.914 101.879C166.429 102.536 168.773 87.608 166.076 86.3152C164.611 85.6183 159.359 98.9099 149.522 98.2332C145.242 97.897 141.259 95.9127 138.412 92.6984C138.33 92.6045 138.215 92.5459 138.091 92.5346C137.967 92.5233 137.843 92.5603 137.745 92.6378C136.089 93.8599 129.665 99.0917 131.625 105.323C132.635 108.475 134.816 111.202 137.028 113.585C138.149 114.787 139.341 115.938 140.563 117.039C141.19 117.595 143.674 118.867 142.311 119.787C141.826 120.039 141.269 120.114 140.735 119.999C138.275 119.717 135.883 119.01 133.665 117.908C133.443 117.753 133.19 117.646 132.924 117.596C132.657 117.545 132.383 117.552 132.12 117.615C131.859 117.741 131.639 117.937 131.483 118.181C130.887 119.052 130.546 120.073 130.5 121.128C130.453 122.183 130.703 123.23 131.221 124.15C131.257 124.22 131.276 124.298 131.277 124.377C131.278 124.456 131.26 124.534 131.226 124.606C131.192 124.677 131.142 124.739 131.08 124.788C131.017 124.837 130.945 124.871 130.867 124.887C127.595 125.513 124.222 125.665 120.899 126.271C120.111 124.541 118.986 122.986 117.588 121.698C116.19 120.409 114.549 119.414 112.76 118.77C110.972 118.126 109.073 117.847 107.175 117.949C105.277 118.05 103.418 118.531 101.709 119.362C96.3254 121.978 93.2449 127.614 89.1645 131.735C88.4373 132.472 87.4374 133.24 86.4779 132.866C86.1492 132.684 85.8652 132.431 85.6468 132.125C85.4284 131.819 85.281 131.469 85.2154 131.099C84.6518 128.654 84.3605 126.154 84.3468 123.645C84.3333 121.127 83.6836 118.653 82.4581 116.454C81.7474 115.351 80.7489 114.463 79.5706 113.886C78.3922 113.31 77.0787 113.066 75.7719 113.181C75.6406 114.908 75.8628 122.423 75.8729 124.544C75.8729 128.725 76.0547 132.906 76.4486 137.078C76.8627 141.592 79.6402 146.047 82.6601 149.359C88.9221 156.237 98.0929 160.914 107.142 162.792C119.818 165.428 130.372 164.61 141.038 160.086C148.239 157.056 155.582 152.006 163.915 144.057C183.801 125.18 186.124 103.142 182.307 90.6279Z" fill="white"/>
<path d="M107.91 157.944L107.819 155.924C110.315 155.663 112.707 154.788 114.783 153.378C116.858 151.969 118.553 150.068 119.717 147.844C123.949 140.078 120.111 131.452 120.07 131.361L121.909 130.523C122.09 130.917 126.201 140.168 121.494 148.814C120.169 151.346 118.232 153.508 115.86 155.102C113.488 156.697 110.755 157.673 107.91 157.944Z" fill="black"/>
<path d="M146.038 151.44C143.313 151.165 140.684 150.29 138.338 148.877C135.993 147.464 133.99 145.549 132.473 143.269C132.104 142.763 131.855 142.179 131.746 141.562C131.703 140.829 131.864 140.099 132.211 139.451C133.289 137.01 134.538 134.647 135.948 132.381C136.412 131.604 136.907 130.785 137.442 129.856C134.554 129.188 131.967 127.587 130.08 125.301L131.595 123.958C133.473 126.275 136.186 127.762 139.149 128.099L140.654 128.271L139.917 129.594C139.089 131.068 138.351 132.29 137.685 133.422C136.33 135.571 135.131 137.816 134.099 140.138C133.899 140.487 133.781 140.878 133.756 141.279C133.831 141.59 133.968 141.882 134.16 142.138C135.517 144.17 137.308 145.876 139.404 147.131C141.5 148.387 143.848 149.162 146.28 149.4L146.038 151.44Z" fill="black"/>
<path d="M148.593 132.432L146.785 131.543C148.104 128.861 148.912 125.956 149.169 122.978C146.843 121.568 144.172 120.831 141.452 120.847V118.827C144.78 118.787 148.042 119.759 150.805 121.615L151.279 121.938V122.514C151.051 125.965 150.138 129.337 148.593 132.432Z" fill="black"/>
<path d="M161.645 110.238C162.587 109.433 162.962 108.327 162.483 107.767C162.005 107.207 160.854 107.406 159.913 108.211C158.972 109.016 158.596 110.122 159.075 110.681C159.553 111.241 160.704 111.042 161.645 110.238Z" fill="black"/>
<path d="M137.261 95.5365C137.049 95.4308 136.825 95.3528 136.594 95.3042C136.278 95.2914 135.963 95.3451 135.669 95.4616C135.375 95.5782 135.109 95.7551 134.887 95.9809C134.44 96.4351 133.853 96.7267 133.221 96.8091C133.253 96.3204 133.47 95.8621 133.827 95.5264C134.627 94.4911 135.526 93.5371 136.513 92.6782C136.857 92.4055 137.22 91.951 137.715 92.0318C137.967 92.1071 138.185 92.2678 138.331 92.4863L139.17 93.4963C139.513 93.9397 139.899 94.349 140.321 94.7184C140.321 94.7184 140.412 94.8194 140.392 94.8699C140.381 94.9001 140.359 94.9252 140.331 94.9406C140.103 95.1545 139.849 95.3378 139.574 95.486C139.316 95.5916 139.043 95.653 138.766 95.6678C138.26 95.7356 137.747 95.6908 137.261 95.5365Z" fill="#9E7343"/>
<path d="M167.571 80.4471C165.945 90.2441 159.491 98.6271 149.966 98.6271C140.442 98.6271 132.554 90.0724 132.554 80.1441C132.499 77.165 132.712 74.187 133.19 71.246C134.483 65.186 143.29 62.156 149.744 62.156C157.521 62.156 165.561 66.4283 167.682 73.8316C168.055 76.0246 168.017 78.2679 167.571 80.4471Z" fill="#DBA258"/>
<path d="M167.793 79.7805C167.793 79.7805 164.632 76.9929 164.45 76.8717C158.279 73.1044 150.754 72.5388 143.674 72.7509C139.816 72.862 135.836 73.3367 132.17 72.1045C131.766 71.9631 131.302 71.751 131.16 71.3268C131.2 70.4232 131.468 69.5442 131.938 68.7715C132.386 67.9012 132.895 67.0641 133.463 66.2667C134.606 64.675 135.966 63.2507 137.503 62.0348C140.565 59.5698 144.292 58.0751 148.209 57.7423H148.32C148.926 57.7423 149.532 57.6817 150.138 57.6817C153.326 57.5786 156.487 58.306 159.309 59.7926C160.218 60.3279 161.046 61.6409 162.066 61.8126C163.622 62.156 165.48 60.439 166.52 59.53C169.379 57.0555 172.58 54.7931 176.327 54.1063C180.074 53.4195 184.327 54.6517 186.316 57.8736C187.498 59.7926 187.791 62.2469 189.346 63.9336C191.296 66.0445 194.517 66.1758 197.426 66.1657C194.396 69.3775 190.356 71.9732 186.003 71.8419C179.984 71.65 175.085 66.6 169.126 65.893C167.884 65.7516 166.833 65.9839 166.965 67.3979C167.136 69.1755 167.742 70.7006 167.904 72.761C168.025 74.2659 168.369 78.3867 167.793 79.7805Z" fill="black"/>
<path d="M138.079 82.6287C138.692 82.6287 139.19 81.7922 139.19 80.7602C139.19 79.7283 138.692 78.8917 138.079 78.8917C137.465 78.8917 136.968 79.7283 136.968 80.7602C136.968 81.7922 137.465 82.6287 138.079 82.6287Z" fill="black"/>
<path d="M153.35 82.6287C153.964 82.6287 154.461 81.7922 154.461 80.7602C154.461 79.7283 153.964 78.8917 153.35 78.8917C152.736 78.8917 152.239 79.7283 152.239 80.7602C152.239 81.7922 152.736 82.6287 153.35 82.6287Z" fill="black"/>
<path d="M144.815 87.4262C144.001 87.2115 143.238 86.8335 142.573 86.3152C142.233 86.0732 141.995 85.7131 141.907 85.3052C141.85 84.9955 141.885 84.6761 142.008 84.3861C142.966 81.823 143.722 79.189 144.27 76.5081L146.29 76.8717C145.768 79.5854 145.032 82.2534 144.088 84.8507C144.496 85.1361 144.951 85.348 145.432 85.4769L144.815 87.4262Z" fill="black"/>
<path d="M150.259 91.9813C151.421 91.4157 152.522 90.7188 153.703 90.2037C153.854 90.1141 154.024 90.0603 154.199 90.0463C154.374 90.0323 154.55 90.0585 154.713 90.1229C154.887 90.2493 155.011 90.431 155.067 90.638C155.213 91.2686 155.143 91.93 154.868 92.516C154.594 93.1021 154.13 93.5789 153.552 93.87C152.376 94.4261 151.056 94.6026 149.775 94.375C149.209 94.3043 147.108 94.0417 147.29 93.2236C147.411 92.6984 149.764 92.2136 150.259 91.9813Z" fill="#FFFEFD"/>
</g>
<defs>
<clipPath id="clip0_11899_263885">
<rect width="202" height="202" fill="white" transform="translate(16 6)"/>
</clipPath>
</defs>
</svg>
