<svg width="11" height="15" viewBox="0 0 11 15" fill="none" xmlns="http://www.w3.org/2000/svg">
<path d="M5.49999 0.750122C2.77134 0.750122 0.549988 2.97147 0.549988 5.70012C0.549988 8.27712 2.53104 10.4034 5.04999 10.6314V11.7001H3.84999C3.60156 11.7001 3.39999 11.9017 3.39999 12.1501C3.39999 12.3986 3.60156 12.6001 3.84999 12.6001H5.04999V13.8001C5.04999 14.0486 5.25156 14.2501 5.49999 14.2501C5.74842 14.2501 5.94999 14.0486 5.94999 13.8001V12.6001H7.14999C7.39842 12.6001 7.59999 12.3986 7.59999 12.1501C7.59999 11.9017 7.39842 11.7001 7.14999 11.7001H5.94999V10.6314C8.46894 10.4034 10.45 8.27712 10.45 5.70012C10.45 2.97147 8.22864 0.750122 5.49999 0.750122ZM5.49999 1.65012C7.74174 1.65012 9.54999 3.45837 9.54999 5.70012C9.54999 7.94187 7.74174 9.75012 5.49999 9.75012C3.25824 9.75012 1.44999 7.94187 1.44999 5.70012C1.44999 3.45837 3.25824 1.65012 5.49999 1.65012Z" fill="black"/>
</svg>