<svg width="25" height="25" viewBox="0 0 25 25" fill="none" xmlns="http://www.w3.org/2000/svg">
<g clip-path="url(#clip0_946_79)">
<path d="M20.5 7.79113C20.5 3.68936 16.9112 0.352295 12.5 0.352295C8.08884 0.352295 4.5 3.68939 4.5 7.79113C4.5 11.5126 7.45543 14.5947 11.2955 15.1373C11.2955 15.1439 11.2941 15.1492 11.2941 15.1571V18.073H8.15828C7.49222 18.073 6.95253 18.5748 6.95253 19.1941C6.95253 19.8135 7.49222 20.3153 8.15828 20.3153H11.2941V23.2311C11.2941 23.8505 11.8338 24.3523 12.4998 24.3523C13.1659 24.3523 13.7056 23.8505 13.7056 23.2311V20.3153H16.8414C17.5074 20.3153 18.0471 19.8135 18.0471 19.1941C18.0471 18.5748 17.5074 18.073 16.8414 18.073L13.7056 18.0716V15.1558C13.7056 15.1492 13.7041 15.1426 13.7041 15.136C17.5442 14.5946 20.5 11.5126 20.5 7.79113ZM12.4996 12.9886C9.41779 12.9886 6.90974 10.6565 6.90974 7.79082C6.90974 4.92516 9.41779 2.59439 12.4996 2.59439C15.5815 2.59439 18.0895 4.92519 18.0895 7.79082C18.0895 10.6565 15.5815 12.9886 12.4996 12.9886Z" fill="#333333"/>
</g>
<defs>
<clipPath id="clip0_946_79">
<rect width="24" height="24" fill="white" transform="translate(0.5 0.352295)"/>
</clipPath>
</defs>
</svg>