<svg width="101" height="100" viewBox="0 0 101 100" fill="none" xmlns="http://www.w3.org/2000/svg">
<g clip-path="url(#clip0_449_592)">
<path d="M91.5139 36.0498C95.3318 19.6432 64.0434 11.1799 41.1446 12.9226C18.2458 14.6653 11.8903 14.5694 9.06508 29.3847C6.23984 44.2 -8.54468 64.8184 25.9767 75.2981C60.498 85.7777 58.078 80.4004 78.8053 72.8825C99.5325 65.3647 87.696 52.4564 91.5139 36.0498Z" fill="#B8EAF8"/>
<path d="M45.3759 52.7015L45.3771 52.7005L45.3782 52.6994C47.7911 50.5544 51.4383 50.5524 53.8588 52.6931C54.1157 52.9233 54.3683 53.1597 54.6081 53.3995C56.2065 54.998 57.4116 56.8301 58.1152 58.6789L58.1161 58.6809L58.1169 58.683C59.3693 61.9393 58.8998 64.6439 57.3892 66.1552C56.8369 66.7065 56.137 66.9332 55.2733 66.9374C54.379 66.9416 53.3962 66.7039 52.4235 66.3944L52.4223 66.394L52.4213 66.3938C50.5876 65.8139 48.6498 65.8139 46.8152 66.3934C45.844 66.6994 44.871 66.9378 43.9831 66.9378C43.1173 66.9378 42.411 66.7116 41.8553 66.1559L41.8541 66.1548C40.3401 64.6448 39.8735 61.9455 41.127 58.6826L41.1277 58.6806L41.1286 58.6785C41.832 56.8288 43.0366 55.0002 44.6356 53.4013C44.8785 53.1583 45.1249 52.9234 45.3759 52.7015Z" stroke="black" stroke-width="3"/>
<path d="M40.9545 44.0756L40.9543 44.0746C40.6201 42.6908 40.7432 41.3839 41.1517 40.4055C41.5605 39.4264 42.2053 38.8639 42.9003 38.6948C43.5979 38.5278 44.4292 38.7344 45.24 39.4186C46.05 40.1022 46.7558 41.2082 47.09 42.5919C47.424 43.9757 47.3009 45.2824 46.8925 46.2608C46.4835 47.2405 45.8383 47.803 45.1429 47.9719C44.9744 48.0126 44.8189 48.0309 44.6655 48.0309C43.3433 48.0309 41.5731 46.6471 40.9545 44.0756Z" stroke="black" stroke-width="3"/>
<path d="M52.1397 42.6173L52.14 42.6164C52.4635 41.23 53.1609 40.118 53.9656 39.4278C54.771 38.7368 55.5999 38.5243 56.2968 38.6856C56.9949 38.85 57.6446 39.4082 58.0612 40.3838C58.4775 41.3587 58.6108 42.6639 58.2872 44.05C57.9636 45.4364 57.2663 46.5483 56.4616 47.2386C55.6558 47.9299 54.8265 48.1424 54.1295 47.9807C53.9607 47.9412 53.8136 47.8877 53.6766 47.8188C52.4956 47.2244 51.5363 45.1925 52.1397 42.6173Z" stroke="black" stroke-width="3"/>
<path d="M38.5169 50.3235L38.5173 50.3244C39.0187 51.5075 39.0982 52.6867 38.8783 53.6101C38.658 54.5351 38.1725 55.1091 37.6024 55.349L37.6001 55.35L37.5979 55.3509C37.3774 55.4447 37.1412 55.4914 36.8881 55.4914C35.7547 55.4914 34.1901 54.4897 33.3541 52.5093L33.3538 52.5086C32.8528 51.3241 32.7738 50.1455 32.9938 49.2227C33.214 48.2986 33.6995 47.7236 34.2706 47.4822L34.2707 47.4821C34.8422 47.2404 35.5933 47.2924 36.41 47.7778C37.2255 48.2623 38.0162 49.1395 38.5169 50.3235Z" stroke="black" stroke-width="3"/>
<path d="M64.976 47.4822L64.9764 47.4823C65.5475 47.7237 66.033 48.2986 66.2537 49.2236C66.474 50.1469 66.3958 51.3265 65.8964 52.5128C65.4166 53.6455 64.6686 54.5271 63.8402 55.0387L63.8388 55.0395L63.8375 55.0404C63.3045 55.3713 62.8056 55.5054 62.3801 55.5054C62.1186 55.5054 61.8774 55.4566 61.6512 55.3604C61.0731 55.1124 60.568 54.5421 60.3505 53.5605L60.3501 53.5589L60.3497 53.5574C60.1371 52.609 60.2495 51.464 60.7299 50.3293C61.2096 49.196 61.9578 48.314 62.7866 47.8022L62.7875 47.8017C63.6439 47.272 64.4034 47.2398 64.976 47.4822Z" stroke="black" stroke-width="3"/>
<path d="M91.2765 26.3549H7.92375C5.25972 26.3549 3.1001 28.5145 3.1001 31.1785V72.8549C3.1001 75.5189 5.25972 77.6785 7.92375 77.6785H91.2765C93.9405 77.6785 96.1001 75.5189 96.1001 72.8549V31.1785C96.1001 28.5145 93.9405 26.3549 91.2765 26.3549Z" stroke="black" stroke-width="3"/>
<path d="M68.3804 26.4191V22.4315C68.3804 18.8795 65.5009 16 61.9489 16H37.1232C33.5712 16 30.6917 18.8795 30.6917 22.4315V26.4191" stroke="black" stroke-width="3"/>
<path d="M14.0334 27.5768V77.8714" stroke="black" stroke-width="3"/>
<path d="M85.1665 27.5768V77.8714" stroke="black" stroke-width="3"/>
</g>
<defs>
<clipPath id="clip0_449_592">
<rect width="100" height="100" fill="white" transform="translate(0.100098)"/>
</clipPath>
</defs>
</svg>
