<svg width="24" height="24" viewBox="0 0 24 24" fill="none" xmlns="http://www.w3.org/2000/svg">
<circle cx="15" cy="12" r="9" fill="#FFC700"/>
<path d="M14.3919 14.828C13.6638 15.5779 12.6765 15.9991 11.647 15.9991C10.6176 15.9991 9.63026 15.5779 8.90221 14.828M8.73527 10H8.74498M14.5588 10H14.5685M20.3823 12C20.3823 13.1819 20.1564 14.3522 19.7174 15.4442C19.2784 16.5361 18.635 17.5282 17.8238 18.364C17.0127 19.1997 16.0497 19.8626 14.9899 20.3149C13.9301 20.7672 12.7942 21 11.647 21C10.4999 21 9.364 20.7672 8.30419 20.3149C7.24437 19.8626 6.2814 19.1997 5.47025 18.364C4.6591 17.5282 4.01567 16.5361 3.57668 15.4442C3.13769 14.3522 2.91174 13.1819 2.91174 12C2.91174 9.61305 3.83207 7.32387 5.47025 5.63604C7.10844 3.94821 9.33029 3 11.647 3C13.9638 3 16.1856 3.94821 17.8238 5.63604C19.462 7.32387 20.3823 9.61305 20.3823 12Z" stroke="black" stroke-width="2" stroke-linecap="round" stroke-linejoin="round"/>
</svg>