<svg width="101" height="100" viewBox="0 0 101 100" fill="none" xmlns="http://www.w3.org/2000/svg">
<g clip-path="url(#clip0_430_1548)">
<path d="M90.653 27.146C90.7176 8.56746 57.3913 8.94206 34.8224 17.6505C12.2535 26.3589 5.85662 28.16 6.42261 44.7502C6.9886 61.3404 -3.10955 87.6784 33.9223 88.4786C70.954 89.2788 67.2927 84.2889 86.3581 70.0934C105.423 55.898 90.5885 45.7245 90.653 27.146Z" fill="#F39774"/>
<path d="M67.1668 16.6667H75.5001C77.7102 16.6667 79.8298 17.5447 81.3926 19.1075C82.9554 20.6703 83.8334 22.7899 83.8334 25V83.3334C83.8334 85.5435 82.9554 87.6631 81.3926 89.2259C79.8298 90.7887 77.7102 91.6667 75.5001 91.6667H25.5001C23.2899 91.6667 21.1703 90.7887 19.6075 89.2259C18.0447 87.6631 17.1667 85.5435 17.1667 83.3334V25C17.1667 22.7899 18.0447 20.6703 19.6075 19.1075C21.1703 17.5447 23.2899 16.6667 25.5001 16.6667H33.8334" stroke="black" stroke-width="3" stroke-linecap="round" stroke-linejoin="round"/>
<path d="M62.9999 8.33331H37.9999C35.6987 8.33331 33.8333 10.1988 33.8333 12.5V20.8333C33.8333 23.1345 35.6987 25 37.9999 25H62.9999C65.3011 25 67.1666 23.1345 67.1666 20.8333V12.5C67.1666 10.1988 65.3011 8.33331 62.9999 8.33331Z" stroke="black" stroke-width="3" stroke-linecap="round" stroke-linejoin="round"/>
<path d="M56.0051 43.5488C56.0051 42.4551 56.0051 41.9083 55.7869 41.4905C55.595 41.1231 55.2888 40.8243 54.9121 40.6371C54.4839 40.4243 53.9234 40.4243 52.8024 40.4243H47.1977C46.0766 40.4243 45.5161 40.4243 45.0879 40.6371C44.7113 40.8243 44.405 41.1231 44.2131 41.4905C43.995 41.9083 43.995 42.4551 43.995 43.5488V49.0168C43.995 50.1106 43.995 50.6574 43.7768 51.0751C43.5849 51.4426 43.2787 51.7413 42.902 51.9286C42.4738 52.1414 41.9133 52.1414 40.7923 52.1414H35.1876C34.0665 52.1414 33.506 52.1414 33.0778 52.3543C32.7012 52.5415 32.3949 52.8403 32.203 53.2077C31.9849 53.6254 31.9849 54.1723 31.9849 55.266V60.734C31.9849 61.8277 31.9849 62.3746 32.203 62.7923C32.3949 63.1598 32.7012 63.4585 33.0778 63.6458C33.506 63.8586 34.0665 63.8586 35.1876 63.8586H40.7923C41.9133 63.8586 42.4738 63.8586 42.902 64.0714C43.2787 64.2587 43.5849 64.5574 43.7768 64.9249C43.995 65.3426 43.995 65.8895 43.995 66.9832V72.4512C43.995 73.5449 43.995 74.0918 44.2131 74.5095C44.405 74.8769 44.7113 75.1757 45.0879 75.3629C45.5161 75.5758 46.0766 75.5758 47.1977 75.5758H52.8024C53.9234 75.5758 54.4839 75.5758 54.9121 75.3629C55.2888 75.1757 55.595 74.8769 55.7869 74.5095C56.0051 74.0918 56.0051 73.5449 56.0051 72.4512V66.9832C56.0051 65.8895 56.0051 65.3426 56.2232 64.9249C56.4151 64.5574 56.7214 64.2587 57.098 64.0714C57.5262 63.8586 58.0867 63.8586 59.2078 63.8586H64.8125C65.9335 63.8586 66.494 63.8586 66.9222 63.6458C67.2989 63.4585 67.6051 63.1598 67.797 62.7923C68.0152 62.3746 68.0152 61.8277 68.0152 60.734V55.266C68.0152 54.1723 68.0152 53.6254 67.797 53.2077C67.6051 52.8403 67.2989 52.5415 66.9222 52.3543C66.494 52.1414 65.9335 52.1414 64.8125 52.1414L59.2078 52.1414C58.0867 52.1414 57.5262 52.1414 57.098 51.9286C56.7214 51.7413 56.4151 51.4426 56.2232 51.0751C56.0051 50.6574 56.0051 50.1106 56.0051 49.0168V43.5488Z" stroke="black" stroke-width="3" stroke-linecap="round" stroke-linejoin="round"/>
</g>
<defs>
<clipPath id="clip0_430_1548">
<rect width="100" height="100" fill="white" transform="translate(0.5)"/>
</clipPath>
</defs>
</svg>
