<svg xmlns="http://www.w3.org/2000/svg" width="26" height="26" viewBox="0 0 26 26" fill="none">
  <path d="M4.67788 6.8445C4.22518 7.29719 3.86609 7.83461 3.62109 8.42607C3.3761 9.01754 3.25 9.65147 3.25 10.2917C3.25 10.9319 3.3761 11.5658 3.62109 12.1573C3.86609 12.7487 4.22518 13.2861 4.67788 13.7388L13 22.061L21.3222 13.7388C22.2365 12.8246 22.7501 11.5846 22.7501 10.2917C22.7501 8.99873 22.2365 7.75875 21.3222 6.8445C20.408 5.93026 19.168 5.41664 17.875 5.41664C16.5821 5.41664 15.3421 5.93026 14.4279 6.8445L13 8.27234L11.5722 6.8445C11.1195 6.39181 10.5821 6.03271 9.99064 5.78772C9.39917 5.54272 8.76524 5.41663 8.12504 5.41663C7.48484 5.41663 6.85091 5.54272 6.25945 5.78772C5.66798 6.03271 5.13056 6.39181 4.67788 6.8445V6.8445Z" stroke="black" stroke-width="2" stroke-linecap="round" stroke-linejoin="round"/>
  <path d="M16.8235 13V9.94116" stroke="black" stroke-width="2" stroke-linecap="round" stroke-linejoin="round"/>
  <path d="M15.2941 11.4706H18.3529" stroke="black" stroke-width="2" stroke-linecap="round" stroke-linejoin="round"/>
</svg>