<svg xmlns="http://www.w3.org/2000/svg" xmlns:xlink="http://www.w3.org/1999/xlink" width="26" height="21"><defs><path id="a" d="M14 2.073C16.339-.153 20.004-.672 22.742.935l-9.24 9.294-4.38-4.404a.996.996 0 0 0-1.414 0L6.293 7.247a1.01 1.01 0 0 0 0 1.422l6.5 6.538a.996.996 0 0 0 1.414 0l11.23-11.292c1.087 2.404.6 5.3-1.463 7.266l-9.826 9.365a1.685 1.685 0 0 1-2.3 0l-9.826-9.365c-2.854-2.723-2.687-7.233.502-9.745C5.307-.754 9.451-.36 12 2.073l1 .952z"/></defs><g fill="none" fill-rule="evenodd" transform="translate(-141 -541)"><path fill="#FFF" d="M0 0h320v1533H0z"/><path fill="#219653" d="M0 93h320v1430H0z"/><rect width="296" height="1007" x="12" y="113" fill="#FFF" rx="12"/><g transform="translate(141 541)"><mask id="b" fill="#fff"><use xlink:href="#a"/></mask><use fill="#219653" fill-rule="nonzero" xlink:href="#a"/><g fill="#219653" mask="url(#b)"><path d="M0 0h26v21H0z"/></g></g></g></svg>