<svg width="34" height="34" viewBox="0 0 34 34" fill="none" xmlns="http://www.w3.org/2000/svg">
<circle cx="17" cy="17" r="16.25" stroke="black" stroke-opacity="0.25" stroke-width="1.5"/>
<path d="M16.8308 11L9 16.2365L9.67482 17.2308L11.2295 16.1771V23.375H22.5514L22.5503 16.2367L24.0752 17.231L24.75 16.2367L16.8308 11ZM18.9125 19.104C18.6192 19.6595 17.0359 21.1223 16.9178 21.2686C16.7414 21.0926 15.2165 19.6595 14.9232 19.1326C14.9232 19.1326 14.1315 18.1669 14.9232 17.4354C14.9232 17.4354 16.0666 16.4697 16.9178 17.7863C17.7679 16.4697 18.9125 17.4354 18.9125 17.4354C19.7053 18.1383 18.9125 19.104 18.9125 19.104Z" fill="black" fill-opacity="0.85"/>
</svg>