<svg width="234" height="213" viewBox="0 0 234 213" fill="none" xmlns="http://www.w3.org/2000/svg">
<path d="M0 3C0 1.34315 1.34315 0 3 0H231C232.657 0 234 1.34315 234 3V213H0V3Z" fill="#FF9100"/>
<path d="M117 202C172.781 202 218 156.781 218 101C218 45.2192 172.781 0 117 0C61.2192 0 16 45.2192 16 101C16 156.781 61.2192 202 117 202Z" fill="#FF9100"/>
<path d="M115.445 51.914C115.548 52.0254 115.673 52.1143 115.812 52.175C115.951 52.2358 116.101 52.2672 116.253 52.2672C116.405 52.2672 116.555 52.2358 116.694 52.175C116.833 52.1143 116.958 52.0254 117.061 51.914C120.131 49.3083 123.419 46.97 126.888 44.9248C142.583 34.8248 176.964 35.6429 190.639 61.5999C199.517 79.6486 197.709 100.051 185.216 116.039C184.468 116.988 169.167 136.239 160.319 144.319C148.199 157.722 116.081 186.517 116.081 186.517C116.081 186.517 69.1363 143.521 51.7037 124.452C44.5165 116.505 39.7813 106.649 38.0687 96.0712C35.5134 81.1131 38.3212 66.2055 48.0071 54.3784C58.299 41.8443 80.1352 29.7243 105.658 44.44C109.196 46.5473 112.48 49.0552 115.445 51.914Z" fill="#FFC6C0"/>
<path d="M150.411 124.472C152.532 124.947 154.097 125.695 156.289 125.482C158.421 125.234 160.506 124.679 162.48 123.836C166.395 122.108 169.938 119.639 172.914 116.564C173.488 115.876 174.214 115.33 175.035 114.968C175.69 114.78 176.376 114.718 177.055 114.787C180.24 114.931 183.414 115.268 186.559 115.797C185.66 120.614 182.832 124.887 179.681 128.593C176.285 132.464 172.677 136.142 168.874 139.612C163.561 144.662 158.319 149.712 152.976 154.762C145.31 161.954 137.22 168.67 129.07 175.316L124.424 179.093C124.015 179.517 123.465 179.775 122.878 179.82C122.414 179.75 121.987 179.526 121.666 179.184C119.141 176.881 118.424 173.255 117.838 169.892L116.121 159.984C115.69 158.202 115.615 156.352 115.899 154.54C116.536 152.467 117.67 150.581 119.202 149.046C127.021 139.856 135.759 131.49 145.28 124.079" fill="#A6A6A6"/>
<path d="M139.038 174.942C138.362 175.629 137.635 176.265 136.928 176.912C135.816 177.96 134.613 178.907 133.332 179.74C132.17 180.437 130.878 180.568 129.777 181.285C126.838 183.174 124.616 186.042 121.535 187.85C121.062 188.177 120.504 188.363 119.929 188.385C119.511 188.331 119.108 188.19 118.748 187.971C104.88 180.79 93.9217 169.549 83.246 158.57C74.5196 149.48 65.7831 140.491 57.9253 130.795C60.9553 130.644 63.7934 131.755 66.5911 132.765C74.5515 135.62 82.7567 137.739 91.1038 139.097C95.1097 139.809 99.2066 139.843 103.224 139.198C107.731 138.497 112.195 137.546 116.596 136.35C117.051 136.143 117.558 136.079 118.05 136.165C118.542 136.252 118.997 136.485 119.354 136.835L123.141 139.723C128.635 143.915 134.433 147.975 138.533 153.682C140.505 156.27 141.922 159.237 142.695 162.398C143.46 165.581 143.028 168.935 141.483 171.821C140.806 172.963 139.985 174.012 139.038 174.942Z" fill="#FFC6C0"/>
<path d="M165.793 128.512C167.245 128.237 168.622 127.656 169.832 126.808C171.042 125.96 172.058 124.864 172.813 123.594C173.792 122.012 174.431 120.244 174.691 118.402C175.62 113.736 179.842 115.675 183.448 116.221C184.236 116.342 185.226 116.372 185.65 115.685C185.827 115.315 185.891 114.9 185.832 114.494C185.337 104.515 185.438 94.2936 184.125 84.3956C183.529 79.9314 181.418 75.8813 179.448 71.811C178.529 69.9122 177.024 65.9631 174.752 65.2157C174.752 65.2157 147.664 79.7597 138.816 76.7903C137.179 76.2426 135.392 76.3669 133.847 77.1357C132.302 77.9045 131.125 79.2551 130.574 80.8909L128.686 86.5267C128.686 86.5267 129.272 100.798 120.909 117.18C119.545 119.847 116.03 122.463 113.99 124.674C110.748 128.169 106.587 130.997 108.243 136.219C109.516 140.259 111.829 144.056 115.394 146.268C118.959 148.48 123.929 148.702 127.211 146.086C129.247 144.353 131.102 142.417 132.746 140.309C137.574 134.623 144.28 127.452 152.209 126.694C153.098 126.593 153.996 126.593 154.885 126.694C158.996 127.341 164.036 128.735 165.793 128.512Z" fill="#9E7343"/>
<path d="M183.125 77.0731C183.173 77.2068 183.192 77.3491 183.181 77.4907C183.17 77.6323 183.13 77.7701 183.062 77.8949C182.994 78.0198 182.901 78.129 182.788 78.2154C182.676 78.3017 182.546 78.3634 182.408 78.3962C167.371 82.9657 154.42 92.6801 145.826 105.838C129.272 131.048 99.8302 171.619 54.2792 129.28C57.5011 128.927 58.6121 129.28 61.7835 128.634C73.4793 126.2 84.0035 119.614 92.538 111.221C101.072 102.828 107.617 92.6675 113.293 82.1635C114.677 79.5981 113.92 75.9621 115.657 73.6189C125.757 60.0041 137.877 54.1764 150.754 54.1764C155.805 54.1556 160.801 55.228 165.398 57.3201C169.996 59.4122 174.086 62.4744 177.388 66.2964C180.015 69.4602 181.967 73.1275 183.125 77.0731Z" fill="black"/>
<path d="M91.629 71.6292C92.6193 72.4123 93.3627 73.4644 93.7702 74.6592C94.1383 75.8261 94.3621 77.0336 94.4368 78.2548C95.0731 82.1029 95.1741 86.1227 95.8104 89.9708C96.0303 91.6668 96.4368 93.3333 97.0224 94.94C99.0424 99.7981 102.072 104.606 106.678 107.403C111.425 110.292 122.212 114.1 126.878 109.696C131.544 105.293 131.766 97.2125 131.261 91.3545C130.837 86.4762 129.858 81.5373 127.373 77.3256C123.979 71.5686 118.283 67.8417 113.011 63.9734C107.955 60.0406 102.25 57.0224 96.1538 55.0551C89.2959 52.9139 80.216 54.8531 74.055 58.3477C68.3384 61.5696 64.3792 67.1246 62.0663 73.1644C59.6726 79.4062 60.9048 85.6985 58.6828 91.8595C55.1175 101.697 48.502 104.232 44.9468 108.444C42.7955 110.999 42.5632 110.676 42.5632 110.676C44.1498 114.342 45.9472 117.913 47.9465 121.372C49.9794 124.125 52.1609 126.765 54.4812 129.28C57.5112 131.108 73.348 126.311 77.7819 123.372C87.8819 116.706 96.5275 109.232 103.254 99.1315" fill="#A6A6A6"/>
<path d="M73.8326 90.1627C73.8022 89.088 74.0504 88.0238 74.553 87.0734C75.0557 86.123 75.7956 85.3188 76.701 84.739C79.6502 83.0523 82.8721 84.9309 83.0034 85.0117L81.9934 86.7489C81.9934 86.7489 79.6401 85.4056 77.711 86.4964C77.1294 86.8928 76.6564 87.4287 76.3353 88.0551C76.0142 88.6814 75.8552 89.3783 75.8728 90.0819L73.8326 90.1627Z" fill="black"/>
<path d="M48.1687 121.695C52.0572 118.109 48.9666 114.625 50.0776 112.797C50.724 111.784 51.1888 110.666 51.4512 109.494C51.4512 107.474 49.5928 106.393 47.9566 105.252L42.5935 110.625C43.3687 112.659 44.2693 114.642 45.2902 116.564C46.381 118.624 48.1687 121.695 48.1687 121.695Z" fill="#9E7343"/>
<path d="M174.833 118.069L166.288 115.241C166.288 115.241 166.389 121.048 173.257 122.755L173.802 121.574C174.141 120.805 174.398 120.002 174.57 119.18L174.833 118.069Z" fill="#FFFEFD"/>
<path d="M172.257 97.7377C172.247 98.0406 172.207 98.3418 172.136 98.6366C171.33 97.9778 170.395 97.4947 169.392 97.2182C168.388 96.9416 167.338 96.8778 166.308 97.0307C166.218 96.859 166.308 96.6873 166.47 96.556C167.307 95.6271 168.389 94.9518 169.591 94.6067C169.896 94.5025 170.225 94.488 170.538 94.565C170.852 94.6419 171.136 94.8071 171.358 95.041C171.779 95.6511 172.078 96.3371 172.237 97.061C172.261 97.2857 172.267 97.5119 172.257 97.7377Z" fill="black"/>
<path d="M101.598 106.303C98.3051 103.475 97.3153 98.071 96.5477 93.728C96.3861 92.8796 96.2346 92.0615 96.0831 91.3141C95.7397 89.6981 95.4468 88.0114 95.1639 86.3853C94.6357 82.3597 93.6461 78.4082 92.2148 74.6087C91.8309 73.6828 91.2401 72.8571 90.4877 72.1948C89.9272 71.7066 89.2109 71.4344 88.4677 71.4272V69.4072C89.6707 69.4204 90.8315 69.8525 91.7502 70.6293C92.7526 71.496 93.5379 72.5856 94.0428 73.8108C95.5469 77.7533 96.5842 81.8582 97.1335 86.0419C97.4163 87.6579 97.6991 89.3143 98.0324 90.9C98.194 91.6575 98.3455 92.4958 98.5071 93.3644C99.2545 97.4044 100.174 102.454 102.921 104.777L101.598 106.303Z" fill="black"/>
</svg>
