<svg width="15" height="15" viewBox="0 0 15 15" fill="none" xmlns="http://www.w3.org/2000/svg">
<mask id="mask0_1_315" style="mask-type:luminance" maskUnits="userSpaceOnUse" x="0" y="0" width="15" height="15">
<path d="M0 0H15V15H0V0Z" fill="white"/>
</mask>
<g mask="url(#mask0_1_315)">
<path d="M0 7.5001C0 3.35803 3.35684 0 7.5001 0C11.6424 0 15.0002 3.35684 15.0002 7.5001C15.0002 11.6424 11.6432 15.0002 7.5001 15.0002C3.35803 15.0002 0 11.6432 0 7.5001ZM0.833335 7.5001C0.833335 11.1827 3.81781 14.1669 7.49998 14.1669C11.1825 14.1669 14.1668 11.1825 14.1668 7.5001C14.1668 3.81754 11.1823 0.833455 7.49998 0.833455C3.81742 0.833455 0.833335 3.81793 0.833335 7.5001ZM7.08335 5.41716C7.08335 5.18687 7.27665 5.00017 7.50002 5.00017C7.73015 5.00017 7.91669 5.19246 7.91669 5.41716V11.2498C7.91669 11.4801 7.72347 11.6668 7.50002 11.6668C7.26989 11.6668 7.08335 11.4745 7.08335 11.2498V5.41716ZM7.08335 3.75017C7.08335 3.52004 7.27665 3.3335 7.50002 3.3335C7.73015 3.3335 7.91669 3.5268 7.91669 3.75017C7.91669 3.9803 7.72347 4.16684 7.50002 4.16684C7.26989 4.16684 7.08335 3.97354 7.08335 3.75017Z" fill="#595959"/>
</g>
</svg>
