<?xml version="1.0" encoding="UTF-8"?>
<svg viewBox="0 0 36 36" version="1.1" xmlns="http://www.w3.org/2000/svg" xmlns:xlink="http://www.w3.org/1999/xlink">
    <style type="text/css" >
        <![CDATA[
        @keyframes fades {0% {opacity: 1} 100% {opacity: 0}}
        .paw {fill:#66af37;opacity: 0;}
        #paw-1 {opacity: 1; animation: fades 2s infinite;}
        #paw-2 {animation: fades 2s infinite;animation-delay: .5s;}
        #paw-3 {animation: fades 2s infinite;animation-delay: 1s;}
        #paw-4 {animation: fades 2s infinite;animation-delay: 1.5s;}
    ]]>
    </style>
    <g id="Artboard-Copy" stroke="none" stroke-width="1" fill="none" fill-rule="evenodd">
        <path d="M11.5520077,6.21469958 C11.857278,7.24604152 13.424755,7.76207057 15.0529858,7.36736629 C16.6812165,6.97269457 17.7533249,5.81667491 17.4480911,4.78530042 C17.1428574,3.75395848 15.5753438,3.23792943 13.9471131,3.63263371 C12.3188823,4.02730543 11.2464077,5.18365062 11.5520077,6.21469958 Z M13.9470142,13.3673663 C15.575245,13.7620706 17.1423558,13.2460415 17.4479923,12.2146996 C17.7535923,11.1833251 16.6811177,10.0273054 15.0528869,9.63263371 C13.4246562,9.23792943 11.8571792,9.75395848 11.5519089,10.7853004 C11.2466751,11.8166749 12.3187835,12.9726946 13.9470142,13.3673663 Z M8.04944532,1.67265287 C8.32135194,2.71260638 9.63888603,3.25436291 10.992392,2.88293848 C12.3458599,2.51154894 13.2224231,1.36731759 12.9505546,0.327364077 C12.6786861,-0.712589431 11.3611139,-1.25434596 10.007646,-0.882956408 C8.65414002,-0.511531985 7.77757684,0.632699366 8.04944532,1.67265287 Z M10.007608,16.8829385 C11.361114,17.2543629 12.6786481,16.7126064 12.9505547,15.6726529 C13.2224232,14.6326994 12.34586,13.4888168 10.992354,13.1170436 C9.6388861,12.745654 8.32131387,13.2874106 8.04944539,14.3273641 C7.77757691,15.3673176 8.65414009,16.5111653 10.007608,16.8829385 Z M2,12.3844706 C2,14.0225677 2.73299408,15 3.95996094,15 C6.68422699,15 11,10.8951619 11,8 C11,5.10483805 6.68422699,1 3.95996094,1 C2.73299408,1 2,1.97743225 2,3.61552938 C2,5.39614868 2.8817215,6.57192993 2.8817215,8 C2.8817215,9.44046021 2,10.619517 2,12.3844706 Z" id="paw-1" class="paw" fill-rule="nonzero" transform="translate(9.750000, 8.000000) rotate(-45.000000) translate(-9.750000, -8.000000) "></path>
        <path d="M26.0494454,16.3273641 C26.3213139,15.2874106 27.6388861,14.745654 28.992354,15.1170436 C30.34586,15.4888168 31.2224232,16.6326994 30.9505547,17.6726529 C30.6786481,18.7126064 29.361114,19.2543629 28.007608,18.8829385 C26.6541401,18.5111653 25.7775769,17.3673176 26.0494454,16.3273641 Z M21.9599609,3 C24.684227,3 29,7.10483805 29,10 C29,12.8951619 24.684227,17 21.9599609,17 C20.7329941,17 20,16.0225677 20,14.3844706 C20,12.619517 20.8817215,11.4404602 20.8817215,10 C20.8817215,8.57192993 20,7.39614868 20,5.61552938 C20,3.97743225 20.7329941,3 21.9599609,3 Z M29.5519089,12.7853004 C29.8571792,11.7539585 31.4246562,11.2379294 33.0528869,11.6326337 C34.6811177,12.0273054 35.7535923,13.1833251 35.4479923,14.2146996 C35.1423558,15.2460415 33.575245,15.7620706 31.9470142,15.3673663 C30.3187835,14.9726946 29.2466751,13.8166749 29.5519089,12.7853004 Z M31.9471131,5.63263371 C33.5753438,5.23792943 35.1428574,5.75395848 35.4480911,6.78530042 C35.7533249,7.81667491 34.6812165,8.97269457 33.0529858,9.36736629 C31.424755,9.76207057 29.857278,9.24604152 29.5520077,8.21469958 C29.2464077,7.18365062 30.3188823,6.02730543 31.9471131,5.63263371 Z M28.007646,1.11704359 C29.3611139,0.745654045 30.6786861,1.28741057 30.9505546,2.32736408 C31.2224231,3.36731759 30.3458599,4.51154894 28.992392,4.88293848 C27.638886,5.25436291 26.3213519,4.71260638 26.0494453,3.67265287 C25.7775768,2.63269937 26.65414,1.48846801 28.007646,1.11704359 Z" id="paw-2" class="paw" fill-rule="nonzero" transform="translate(27.750000, 10.000000) rotate(45.000000) translate(-27.750000, -10.000000) "></path>
        <path d="M24.0494454,34.3273641 C24.3213139,33.2874106 25.6388861,32.745654 26.992354,33.1170436 C28.34586,33.4888168 29.2224232,34.6326994 28.9505547,35.6726529 C28.6786481,36.7126064 27.361114,37.2543629 26.007608,36.8829385 C24.6541401,36.5111653 23.7775769,35.3673176 24.0494454,34.3273641 Z M19.9599609,21 C22.684227,21 27,25.1048381 27,28 C27,30.8951619 22.684227,35 19.9599609,35 C18.7329941,35 18,34.0225677 18,32.3844706 C18,30.619517 18.8817215,29.4404602 18.8817215,28 C18.8817215,26.5719299 18,25.3961487 18,23.6155294 C18,21.9774323 18.7329941,21 19.9599609,21 Z M27.5519089,30.7853004 C27.8571792,29.7539585 29.4246562,29.2379294 31.0528869,29.6326337 C32.6811177,30.0273054 33.7535923,31.1833251 33.4479923,32.2146996 C33.1423558,33.2460415 31.575245,33.7620706 29.9470142,33.3673663 C28.3187835,32.9726946 27.2466751,31.8166749 27.5519089,30.7853004 Z M29.9471131,23.6326337 C31.5753438,23.2379294 33.1428574,23.7539585 33.4480911,24.7853004 C33.7533249,25.8166749 32.6812165,26.9726946 31.0529858,27.3673663 C29.424755,27.7620706 27.857278,27.2460415 27.5520077,26.2146996 C27.2464077,25.1836506 28.3188823,24.0273054 29.9471131,23.6326337 Z M26.007646,19.1170436 C27.3611139,18.745654 28.6786861,19.2874106 28.9505546,20.3273641 C29.2224231,21.3673176 28.3458599,22.5115489 26.992392,22.8829385 C25.638886,23.2543629 24.3213519,22.7126064 24.0494453,21.6726529 C23.7775768,20.6326994 24.65414,19.488468 26.007646,19.1170436 Z" id="paw-3" class="paw" fill-rule="nonzero" transform="translate(25.750000, 28.000000) rotate(135.000000) translate(-25.750000, -28.000000) "></path>
        <path d="M7.04944539,32.3273641 C7.32131387,31.2874106 8.6388861,30.745654 9.99235397,31.1170436 C11.34586,31.4888168 12.2224232,32.6326994 11.9505547,33.6726529 C11.6786481,34.7126064 10.361114,35.2543629 9.00760796,34.8829385 C7.65414009,34.5111653 6.77757691,33.3673176 7.04944539,32.3273641 Z M2.95996094,19 C5.68422699,19 10,23.1048381 10,26 C10,28.8951619 5.68422699,33 2.95996094,33 C1.73299408,33 1,32.0225677 1,30.3844706 C1,28.619517 1.8817215,27.4404602 1.8817215,26 C1.8817215,24.5719299 1,23.3961487 1,21.6155294 C1,19.9774323 1.73299408,19 2.95996094,19 Z M10.5519089,28.7853004 C10.8571792,27.7539585 12.4246562,27.2379294 14.0528869,27.6326337 C15.6811177,28.0273054 16.7535923,29.1833251 16.4479923,30.2146996 C16.1423558,31.2460415 14.575245,31.7620706 12.9470142,31.3673663 C11.3187835,30.9726946 10.2466751,29.8166749 10.5519089,28.7853004 Z M12.9471131,21.6326337 C14.5753438,21.2379294 16.1428574,21.7539585 16.4480911,22.7853004 C16.7533249,23.8166749 15.6812165,24.9726946 14.0529858,25.3673663 C12.424755,25.7620706 10.857278,25.2460415 10.5520077,24.2146996 C10.2464077,23.1836506 11.3188823,22.0273054 12.9471131,21.6326337 Z M9.00764603,17.1170436 C10.3611139,16.745654 11.6786861,17.2874106 11.9505546,18.3273641 C12.2224231,19.3673176 11.3458599,20.5115489 9.99239204,20.8829385 C8.63888603,21.2543629 7.32135194,20.7126064 7.04944532,19.6726529 C6.77757684,18.6326994 7.65414002,17.488468 9.00764603,17.1170436 Z" id="paw-4" class="paw" fill-rule="nonzero" transform="translate(8.750000, 26.000000) rotate(-135.000000) translate(-8.750000, -26.000000) "></path>
    </g>
</svg>
