<svg width="13" height="12" viewBox="0 0 13 12" fill="none" xmlns="http://www.w3.org/2000/svg">
<path d="M8.88001 0.557302C8.59846 0.557302 8.37001 0.785748 8.37001 1.0673C8.37001 1.34886 8.59846 1.5773 8.88001 1.5773H10.3675L8.33805 3.60676C7.55247 2.9779 6.56104 2.59739 5.48001 2.59739C2.95126 2.59739 0.890015 4.65864 0.890015 7.18739C0.890015 9.71614 2.95126 11.7774 5.48001 11.7774C8.00876 11.7774 10.07 9.71614 10.07 7.18739C10.07 6.10496 9.69083 5.11016 9.06064 4.32391L11.0901 2.29445V3.78725C11.0901 4.0688 11.3185 4.29725 11.6001 4.29725C11.8817 4.29725 12.1101 4.0688 12.1101 3.78725V1.06725C12.1101 0.785697 11.8817 0.557251 11.6001 0.557251L8.88001 0.557302ZM5.48001 3.6173C7.45762 3.6173 9.05001 5.20973 9.05001 7.1873C9.05001 9.16488 7.45759 10.7573 5.48001 10.7573C3.50244 10.7573 1.91001 9.16488 1.91001 7.1873C1.91001 5.20973 3.50244 3.6173 5.48001 3.6173Z" fill="black"/>
</svg>