<svg width="184" height="185" viewBox="0 0 184 185" fill="none" xmlns="http://www.w3.org/2000/svg">
    <circle cx="92" cy="92.2964" r="92" fill="#71D0FF"/>
    <g filter="url(#filter0_d_6100_131019)">
        <path d="M34.5412 59.5028C35.559 58.2352 34.6001 55.1266 34.2898 53.7183C35.3336 53.7183 35.5641 53.8493 36.3012 54.5837C36.9557 55.2357 37.7021 54.037 37.8898 53.5133C38.244 52.5252 39.028 52.6016 39.8441 52.944C40.6737 53.292 41.909 53.6902 42.6212 54.2421C43.5401 54.9541 45.0318 55.0162 46.1297 55.1986C48.519 55.5953 50.9274 55.8392 53.3183 56.2803C54.327 56.4664 55.3808 56.3828 56.404 56.3828C57.0196 56.3828 58.0359 56.8514 58.6782 56.9977C59.5994 57.2075 60.7065 57.0468 61.4897 57.567C61.8253 57.79 62.604 57.5901 62.9982 57.6581C63.3812 57.7241 63.6561 57.9797 64.0496 58.0111C66.5182 58.2079 69.1075 58.0062 71.5239 58.5918C73.6502 59.1071 75.931 58.4575 78.0153 59.1498C79.341 59.59 81.0252 59.3532 82.4153 59.4686C83.1869 59.5327 83.9099 59.6622 84.6895 59.6622C86.6049 59.6622 88.4367 60.2771 90.3352 60.2771C95.1568 60.2771 100.07 61.866 104.827 62.543C105.584 62.6508 106.181 63.5547 105.352 64.0802C104.266 64.7692 103.409 65.1222 103.409 66.517C103.409 68.1711 104.905 67.5876 106.095 67.4393C107.318 67.287 108.674 66.6027 109.832 66.1754C111.044 65.7283 112.173 65.811 113.489 65.811C114.483 65.811 116.172 65.5082 117.032 66.016L117.04 66.0206C117.81 66.4754 118.514 66.8906 118.209 67.9517C118.026 68.5919 116.676 68.7895 116.164 69.0449C114.479 69.8841 112.39 72.1234 111.889 74.0095C111.571 75.2096 111.868 77.2382 112.152 78.4276C112.567 80.1614 112.69 81.1832 114.678 81.1832C116.838 81.1832 117.741 77.6482 117.032 76.0591C116.665 75.2366 116.987 73.5897 116.987 72.6773C116.987 71.953 117.533 70.8912 118.061 70.3657C119.226 69.2045 122.129 70.0697 122.129 71.7549C122.129 72.4611 122.949 73.1124 123.569 73.1897C124.352 73.2872 124.746 74.5462 125.009 75.1368C125.223 75.6148 125.421 75.5487 125.421 76.1616C125.421 76.6365 125.239 77.038 125.215 77.4939C125.153 78.6704 124.387 79.5473 123.981 80.6594C123.603 81.6935 125.645 81.0772 126.198 80.7732C127.002 80.3314 128.56 79.8581 129.021 79.0311C129.623 77.9518 130.99 77.3798 131.638 76.2641C131.956 75.7164 132.142 75.1643 132.461 74.6244C132.71 74.2014 133.731 74.1422 134.164 74.0095C135.982 73.452 138.175 72.6629 138.175 70.4227C138.175 68.5004 142.033 67.6603 143.215 66.7447C143.932 66.189 144.845 65.9287 145.535 65.3556C146.229 64.7794 147.383 64.4501 147.843 63.6475C148.455 62.5818 149.073 61.7116 149.592 60.5731C150.014 59.6474 149.428 58.5426 149.946 57.6125C151.245 55.2826 153.085 57.2839 154.175 58.4779C155.792 60.2504 156.82 61.6988 156.689 64.1713C156.644 65.0192 156.001 66.0369 155.352 66.5398C154.593 67.1276 154.09 68.1958 153.398 68.8855C152.721 69.5593 152.781 71.5645 152.781 72.4837C152.781 73.4726 153.03 74.8521 152.415 75.6947C151.398 77.0882 149.19 77.5884 148.415 79.1336C147.256 81.443 147.257 84.4366 144.506 85.5329C143.67 85.8662 143.166 87.3461 142.598 88.038C142.089 88.6575 142.193 89.7143 142.541 90.4065C143.535 92.3875 144.141 93.7464 144.141 96.0429C144.141 96.7339 143.826 97.9335 143.364 98.4455C143.054 98.7878 143.164 99.2493 142.952 99.6297C142.7 100.082 142.146 100.278 141.878 100.746C140.638 102.907 137.431 104.111 136.735 106.712C136.411 107.923 135.902 109.045 135.546 110.242C135.234 111.293 135.501 112.781 135.501 113.875C135.501 115.817 136.372 117.696 137.146 119.431C138.141 121.661 139.145 123.92 139.821 126.275C140.104 127.264 140.438 128.153 140.438 129.19C140.438 129.877 139.957 131.399 139.101 131.399C138.038 131.399 137.992 130.308 137.352 129.919C136.586 129.452 136.301 128.47 135.604 127.914C135.089 127.505 133.594 126.386 133.455 125.762C133.193 124.586 132.052 123.581 131.638 122.426C131.197 121.196 129.883 120.673 129.524 119.42C129.342 118.786 128.046 118.622 127.638 118.327C127.134 117.961 125.319 118.076 124.689 118.076C123.871 118.076 123.119 117.945 122.312 117.883C120.572 117.749 118.778 117.871 117.032 117.871C116.627 117.871 115.933 117.746 115.547 117.917C114.854 118.224 113.933 118.287 113.192 118.498C112.912 118.577 113.078 120.435 113.078 120.741C113.078 121.523 113.189 122.429 112.118 122.073C109.702 121.271 106.943 121.771 104.438 121.401C101.971 121.037 98.5466 121.085 96.6209 122.79C95.9074 123.422 94.361 124.014 93.9466 124.943C93.4892 125.968 92.1478 126.58 91.7295 127.664C91.3616 128.617 90.7954 129.541 90.6667 130.568C90.5389 131.585 90.3396 132.49 89.2152 132.424C88.5852 132.387 88.1022 131.447 87.7295 131.034C87.5 130.78 87.4521 130.302 87.2724 129.964C86.8874 129.24 86.3245 128.633 85.9238 127.914C85.2574 126.719 84.3749 125.629 83.7067 124.43C83.1428 123.419 82.1179 122.828 81.5124 121.88C80.7055 120.616 78.9318 120.251 77.4896 120.331C76.6514 120.377 76.0599 121.205 75.3296 121.367C74.6575 121.516 73.8988 122.196 73.2153 121.515C72.5013 120.804 71.9074 119.815 71.1125 119.192C70.4638 118.684 70.1997 117.868 69.6725 117.268C69.1606 116.685 68.5611 116.179 68.0268 115.617C67.0547 114.594 65.8796 113.419 64.6096 112.759C63.6366 112.253 62.2101 112.052 61.1354 111.723C60.3937 111.495 59.6598 111.379 58.9297 111.153C57.3212 110.656 55.4018 110.956 53.8326 110.174C52.95 109.734 51.9263 109.644 50.9526 109.468C49.7133 109.243 48.7559 108.683 47.6154 108.238C46.3994 107.764 45.0228 107.759 43.7983 107.259C42.8687 106.879 41.8448 106.394 40.9869 105.881C40.2559 105.444 39.1022 104.417 38.6555 103.729C38.3974 103.332 37.8131 102.78 37.4212 102.499C37.1053 102.273 36.349 101.87 36.1527 101.577C35.828 101.092 35.3487 100.796 34.9984 100.347C34.5567 99.7813 34.0797 99.2155 33.5698 98.7074C32.6803 97.8212 31.9226 96.4384 31.3641 95.3255C30.9504 94.5012 30.502 93.6695 30.1755 92.7749C29.745 91.5953 29.5873 90.1219 29.1013 88.9717C28.2114 86.8659 28.5878 84.3573 27.9584 82.1624C27.632 81.0242 28.1184 79.8359 28.1184 78.735C28.1184 77.9768 27.9016 76.2779 28.3698 75.6947C28.8218 75.1318 28.8482 73.5086 28.9527 72.7797C29.0719 71.9482 29.5722 69.9716 30.1755 69.2954C31.2684 68.0704 31.6789 66.0253 32.4841 64.5813C32.9145 63.8093 33.3296 63.024 33.7755 62.2242C34.1798 61.4992 34.0418 60.1248 34.5412 59.5028Z" fill="#F8FDFF"/>
        <path d="M34.2898 53.7183V52.2183C33.8353 52.2183 33.4053 52.4243 33.1206 52.7786C32.8359 53.1329 32.7271 53.5972 32.8249 54.041L34.2898 53.7183ZM34.5412 59.5028L35.7109 60.4419H35.7109L34.5412 59.5028ZM33.7755 62.2242L35.0856 62.9547H35.0856L33.7755 62.2242ZM32.4841 64.5813L31.174 63.8508L32.4841 64.5813ZM30.1755 69.2954L31.2948 70.294H31.2948L30.1755 69.2954ZM28.9527 72.7797L27.4679 72.5668H27.4679L28.9527 72.7797ZM28.3698 75.6947L29.5395 76.6339L29.5395 76.6339L28.3698 75.6947ZM27.9584 82.1624L29.4003 81.749L27.9584 82.1624ZM29.1013 88.9717L30.4829 88.3878H30.4829L29.1013 88.9717ZM30.1755 92.7749L28.7665 93.2892H28.7665L30.1755 92.7749ZM31.3641 95.3255L32.7048 94.6528V94.6528L31.3641 95.3255ZM33.5698 98.7074L32.5111 99.77H32.5111L33.5698 98.7074ZM34.9984 100.347L36.1808 99.4241L36.1808 99.4241L34.9984 100.347ZM36.1527 101.577L34.906 102.411L34.906 102.411L36.1527 101.577ZM37.4212 102.499L36.5469 103.718L36.5469 103.718L37.4212 102.499ZM38.6555 103.729L39.9135 102.912L39.9135 102.912L38.6555 103.729ZM40.9869 105.881L41.7566 104.594H41.7566L40.9869 105.881ZM43.7983 107.259L43.2313 108.648H43.2313L43.7983 107.259ZM47.6154 108.238L47.0706 109.636L47.6154 108.238ZM50.9526 109.468L51.22 107.992L51.22 107.992L50.9526 109.468ZM53.8326 110.174L54.5014 108.831H54.5014L53.8326 110.174ZM58.9297 111.153L58.4866 112.586H58.4866L58.9297 111.153ZM61.1354 111.723L60.6957 113.157H60.6957L61.1354 111.723ZM64.6096 112.759L65.3015 111.428L64.6096 112.759ZM68.0268 115.617L66.9397 116.65H66.9397L68.0268 115.617ZM69.6725 117.268L68.5454 118.258V118.258L69.6725 117.268ZM71.1125 119.192L70.1878 120.373H70.1878L71.1125 119.192ZM73.2153 121.515L74.274 120.453H74.274L73.2153 121.515ZM75.3296 121.367L75.6538 122.832H75.6538L75.3296 121.367ZM77.4896 120.331L77.5725 121.829L77.5725 121.829L77.4896 120.331ZM81.5124 121.88L80.2483 122.687L80.2483 122.687L81.5124 121.88ZM83.7067 124.43L82.3966 125.161L82.3966 125.161L83.7067 124.43ZM85.9238 127.914L84.6137 128.645L84.6137 128.645L85.9238 127.914ZM87.2724 129.964L85.9478 130.668L85.9478 130.668L87.2724 129.964ZM87.7295 131.034L88.8426 130.029L88.8426 130.029L87.7295 131.034ZM89.2152 132.424L89.303 130.926H89.303L89.2152 132.424ZM90.6667 130.568L92.155 130.754V130.754L90.6667 130.568ZM91.7295 127.664L90.3301 127.124V127.124L91.7295 127.664ZM93.9466 124.943L95.3165 125.554L93.9466 124.943ZM96.6209 122.79L95.6264 121.668L95.6264 121.668L96.6209 122.79ZM104.438 121.401L104.219 122.885H104.219L104.438 121.401ZM112.118 122.073L111.645 123.497H111.645L112.118 122.073ZM113.192 118.498L113.603 119.94L113.603 119.94L113.192 118.498ZM115.547 117.917L116.154 119.288L116.154 119.288L115.547 117.917ZM122.312 117.883L122.427 116.387H122.427L122.312 117.883ZM127.638 118.327L128.518 117.112L128.518 117.112L127.638 118.327ZM129.524 119.42L130.965 119.006L129.524 119.42ZM131.638 122.426L130.226 122.932L131.638 122.426ZM133.455 125.762L134.919 125.436V125.436L133.455 125.762ZM135.604 127.914L134.669 129.087L134.669 129.087L135.604 127.914ZM137.352 129.919L136.572 131.2H136.572L137.352 129.919ZM139.821 126.275L138.379 126.688L139.821 126.275ZM137.146 119.431L138.516 118.82V118.82L137.146 119.431ZM135.546 110.242L134.109 109.815L135.546 110.242ZM136.735 106.712L135.286 106.325V106.325L136.735 106.712ZM141.878 100.746L143.179 101.492L143.179 101.492L141.878 100.746ZM142.952 99.6297L144.262 100.36L144.262 100.36L142.952 99.6297ZM143.364 98.4455L144.477 99.451L144.477 99.451L143.364 98.4455ZM142.541 90.4065L143.881 89.7337L143.881 89.7337L142.541 90.4065ZM142.598 88.038L141.439 87.0861H141.439L142.598 88.038ZM144.506 85.5329L145.062 86.9263L144.506 85.5329ZM148.415 79.1336L149.756 79.8063H149.756L148.415 79.1336ZM152.415 75.6947L151.203 74.8104V74.8104L152.415 75.6947ZM153.398 68.8855L152.339 67.8229V67.8229L153.398 68.8855ZM155.352 66.5398L156.271 67.7254L155.352 66.5398ZM156.689 64.1713L158.187 64.2505V64.2504L156.689 64.1713ZM154.175 58.4779L155.283 57.4669V57.4669L154.175 58.4779ZM149.946 57.6125L151.256 58.3431L151.256 58.3431L149.946 57.6125ZM149.592 60.5731L150.957 61.1957V61.1957L149.592 60.5731ZM147.843 63.6475L146.542 62.9013L146.542 62.9013L147.843 63.6475ZM145.535 65.3556L144.577 64.2015V64.2015L145.535 65.3556ZM143.215 66.7447L144.134 67.9304L144.134 67.9304L143.215 66.7447ZM134.164 74.0095L134.603 75.4436L134.603 75.4436L134.164 74.0095ZM132.461 74.6244L133.752 75.387V75.387L132.461 74.6244ZM131.638 76.2641L132.935 77.0177V77.0177L131.638 76.2641ZM129.021 79.0311L127.711 78.3006V78.3006L129.021 79.0311ZM126.198 80.7732L125.475 79.4588L125.475 79.4588L126.198 80.7732ZM123.981 80.6594L122.572 80.1451V80.1451L123.981 80.6594ZM125.215 77.4939L126.713 77.573V77.573L125.215 77.4939ZM125.009 75.1368L126.379 74.5257V74.5257L125.009 75.1368ZM123.569 73.1897L123.755 71.7012L123.569 73.1897ZM118.061 70.3657L119.119 71.4283L118.061 70.3657ZM117.032 76.0591L118.402 75.4481V75.4481L117.032 76.0591ZM112.152 78.4276L110.693 78.7762V78.7762L112.152 78.4276ZM111.889 74.0095L113.339 74.3947V74.3947L111.889 74.0095ZM116.164 69.0449L116.833 70.3875L116.833 70.3875L116.164 69.0449ZM118.209 67.9517L119.651 68.3652V68.3652L118.209 67.9517ZM117.04 66.0206L116.277 67.3122L116.277 67.3123L117.04 66.0206ZM117.032 66.016L117.795 64.7244L117.795 64.7243L117.032 66.016ZM109.832 66.1754L109.313 64.7682V64.7682L109.832 66.1754ZM106.095 67.4393L106.281 68.9278L106.095 67.4393ZM105.352 64.0802L106.156 65.3471L106.156 65.3471L105.352 64.0802ZM104.827 62.543L104.615 64.0281V64.0281L104.827 62.543ZM82.4153 59.4686L82.5394 57.9737L82.4153 59.4686ZM78.0153 59.1498L78.4881 57.7262L78.0153 59.1498ZM71.5239 58.5918L71.1706 60.0496L71.5239 58.5918ZM64.0496 58.0111L63.9305 59.5063L64.0496 58.0111ZM62.9982 57.6581L63.2531 56.1799V56.1799L62.9982 57.6581ZM61.4897 57.567L62.3196 56.3175L62.3196 56.3175L61.4897 57.567ZM58.6782 56.9977L58.3452 58.4602L58.6782 56.9977ZM53.3183 56.2803L53.5904 54.8052L53.3183 56.2803ZM46.1297 55.1986L46.3755 53.7188L46.1297 55.1986ZM42.6212 54.2421L43.54 53.0564L42.6212 54.2421ZM39.8441 52.944L39.2638 54.3272V54.3272L39.8441 52.944ZM37.8898 53.5133L39.3018 54.0195L39.3018 54.0195L37.8898 53.5133ZM36.3012 54.5837L37.3599 53.5211L37.3599 53.5211L36.3012 54.5837ZM32.8249 54.041C33.0069 54.8669 33.2866 55.8323 33.4272 56.8656C33.4949 57.3628 33.5146 57.7859 33.4822 58.1153C33.4484 58.4585 33.3715 58.5638 33.3716 58.5636L35.7109 60.4419C36.2199 59.8079 36.4048 59.0493 36.4677 58.4091C36.5321 57.7551 36.4835 57.0754 36.3998 56.461C36.2379 55.271 35.883 53.9779 35.7547 53.3955L32.8249 54.041ZM33.3716 58.5636C33.066 58.9442 32.912 59.3664 32.8231 59.6848C32.7325 60.0089 32.6791 60.3424 32.64 60.5976C32.596 60.8845 32.5686 61.0812 32.529 61.2653C32.4893 61.4497 32.46 61.5033 32.4654 61.4937L35.0856 62.9547C35.2931 62.5825 35.3982 62.1925 35.462 61.8959C35.5258 61.5989 35.5709 61.2772 35.6054 61.0521C35.6447 60.7953 35.6757 60.6233 35.7124 60.4921C35.7506 60.3552 35.7667 60.3724 35.7109 60.4419L33.3716 58.5636ZM32.4654 61.4937C32.2377 61.902 32.0186 62.3055 31.8058 62.6973C31.5918 63.0915 31.3844 63.4734 31.174 63.8508L33.7942 65.3118C34.0142 64.9172 34.2296 64.5204 34.4422 64.129C34.656 63.7352 34.8674 63.3461 35.0856 62.9547L32.4654 61.4937ZM31.174 63.8508C30.7101 64.6828 30.3457 65.7158 30.0461 66.4606C29.709 67.2985 29.413 67.8969 29.0562 68.2968L31.2948 70.294C32.031 69.4688 32.4866 68.4322 32.8293 67.5803C33.2095 66.6353 33.453 65.9237 33.7942 65.3118L31.174 63.8508ZM29.0562 68.2968C28.7572 68.632 28.5387 69.0416 28.3816 69.3865C28.2151 69.752 28.0716 70.1493 27.9521 70.5279C27.7156 71.2775 27.5406 72.0596 27.4679 72.5668L30.4375 72.9926C30.484 72.6683 30.6188 72.0464 30.8131 71.4307C30.909 71.1267 31.0111 70.8511 31.1118 70.6298C31.1618 70.5201 31.2064 70.4348 31.2436 70.3723C31.2826 70.3068 31.3015 70.2865 31.2948 70.294L29.0562 68.2968ZM27.4679 72.5668C27.435 72.7963 27.4099 73.0816 27.3874 73.3262C27.363 73.5911 27.3383 73.8511 27.3049 74.0999C27.271 74.3525 27.2331 74.5541 27.192 74.7015C27.1433 74.8762 27.1234 74.8513 27.2002 74.7556L29.5395 76.6339C29.8423 76.2568 29.9952 75.8178 30.0818 75.5071C30.176 75.169 30.236 74.8137 30.2782 74.499C30.321 74.1805 30.3507 73.8629 30.3748 73.6009C30.4008 73.3185 30.4182 73.1276 30.4375 72.9926L27.4679 72.5668ZM27.2002 74.7556C26.8496 75.1923 26.7181 75.702 26.6567 76.0437C26.5896 76.417 26.571 76.8037 26.5686 77.1383C26.5661 77.4787 26.5804 77.8157 26.5935 78.093C26.6078 78.3943 26.6184 78.5914 26.6184 78.735H29.6184C29.6184 78.4995 29.6019 78.2 29.5902 77.9512C29.5773 77.6786 29.5667 77.4122 29.5685 77.1602C29.5704 76.9024 29.5854 76.7076 29.6093 76.5747C29.6389 76.4101 29.656 76.4888 29.5395 76.6339L27.2002 74.7556ZM26.6184 78.735C26.6184 79.1462 26.532 79.5017 26.4305 80.2267C26.3433 80.8492 26.2629 81.6914 26.5165 82.5759L29.4003 81.749C29.3275 81.4952 29.3271 81.1741 29.4015 80.6428C29.4616 80.2139 29.6184 79.4247 29.6184 78.735H26.6184ZM26.5165 82.5759C26.7799 83.4944 26.8353 84.4848 26.9372 85.7234C27.0327 86.8849 27.1711 88.2578 27.7196 89.5556L30.4829 88.3878C30.1415 87.5798 30.0232 86.6456 29.9271 85.4775C29.8374 84.3867 29.7663 83.0254 29.4003 81.749L26.5165 82.5759ZM27.7196 89.5556C27.9057 89.9961 28.0417 90.5319 28.1985 91.2033C28.3438 91.8254 28.5127 92.594 28.7665 93.2892L31.5846 92.2606C31.4078 91.7762 31.2827 91.2183 31.1199 90.5212C30.9687 89.8735 30.7829 89.0975 30.4829 88.3878L27.7196 89.5556ZM28.7665 93.2892C29.1312 94.2887 29.6373 95.2288 30.0234 95.9983L32.7048 94.6528C32.2635 93.7735 31.8728 93.0503 31.5846 92.2606L28.7665 93.2892ZM30.0234 95.9983C30.5774 97.1022 31.4287 98.6916 32.5111 99.77L34.6285 97.6448C33.932 96.9508 33.2678 95.7747 32.7048 94.6528L30.0234 95.9983ZM32.5111 99.77C32.961 100.218 33.3957 100.732 33.816 101.27L36.1808 99.4241C35.7177 98.8309 35.1985 98.2127 34.6285 97.6448L32.5111 99.77ZM33.816 101.27C34.0808 101.609 34.3929 101.887 34.5614 102.045C34.7627 102.233 34.8489 102.326 34.906 102.411L37.3993 100.743C37.1318 100.343 36.816 100.045 36.609 99.8521C36.3691 99.628 36.2663 99.5337 36.1808 99.4241L33.816 101.27ZM34.906 102.411C35.0872 102.682 35.3194 102.878 35.4539 102.986C35.6112 103.111 35.779 103.225 35.9209 103.318C36.0634 103.412 36.2117 103.503 36.321 103.572C36.4461 103.65 36.5125 103.693 36.5469 103.718L38.2956 101.28C38.172 101.192 38.0253 101.1 37.9136 101.03C37.7861 100.95 37.6738 100.88 37.5632 100.808C37.4521 100.735 37.3742 100.68 37.3246 100.64C37.3009 100.621 37.2961 100.616 37.3037 100.623C37.3079 100.627 37.3491 100.668 37.3993 100.743L34.906 102.411ZM36.5469 103.718C36.8475 103.934 37.275 104.357 37.3975 104.546L39.9135 102.912C39.5197 102.306 38.7788 101.627 38.2956 101.28L36.5469 103.718ZM37.3975 104.546C37.7246 105.05 38.235 105.58 38.7036 106.007C39.1826 106.444 39.7358 106.881 40.2172 107.169L41.7566 104.594C41.507 104.444 41.1178 104.149 40.7255 103.791C40.3229 103.424 40.0331 103.096 39.9135 102.912L37.3975 104.546ZM40.2172 107.169C41.1577 107.731 42.2537 108.248 43.2313 108.648L44.3654 105.87C43.4838 105.51 42.532 105.057 41.7566 104.594L40.2172 107.169ZM43.2313 108.648C44.0043 108.963 44.8003 109.113 45.4307 109.232C46.1111 109.361 46.6158 109.458 47.0706 109.636L48.1603 106.841C47.3991 106.544 46.6075 106.402 45.9894 106.284C45.3213 106.158 44.8168 106.055 44.3654 105.87L43.2313 108.648ZM47.0706 109.636C47.6498 109.862 48.0089 110.045 48.6698 110.32C49.2534 110.563 49.9148 110.804 50.6852 110.944L51.22 107.992C50.751 107.907 50.3141 107.755 49.8242 107.551C49.4114 107.379 48.7215 107.059 48.1603 106.841L47.0706 109.636ZM50.6852 110.944C51.8563 111.156 52.533 111.202 53.1637 111.517L54.5014 108.831C53.3669 108.266 51.9964 108.133 51.22 107.992L50.6852 110.944ZM53.1637 111.517C54.2178 112.042 55.3361 112.177 56.2219 112.263C57.1971 112.358 57.8697 112.395 58.4866 112.586L59.3728 109.72C58.3812 109.413 57.2899 109.353 56.511 109.277C55.6426 109.193 55.0166 109.088 54.5014 108.831L53.1637 111.517ZM58.4866 112.586C58.9104 112.717 59.3276 112.814 59.6875 112.898C60.0629 112.986 60.3819 113.06 60.6957 113.157L61.575 110.288C61.1471 110.157 60.7284 110.06 60.3689 109.976C59.9938 109.889 59.679 109.815 59.3728 109.72L58.4866 112.586ZM60.6957 113.157C61.2784 113.335 62.0149 113.495 62.5435 113.629C63.1447 113.781 63.5977 113.923 63.9178 114.09L65.3015 111.428C64.6485 111.088 63.9018 110.878 63.2778 110.72C62.5812 110.544 62.0671 110.439 61.575 110.288L60.6957 113.157ZM63.9178 114.09C64.9352 114.618 65.9524 115.612 66.9397 116.65L69.1138 114.583C68.1571 113.577 66.824 112.219 65.3015 111.428L63.9178 114.09ZM66.9397 116.65C67.2368 116.963 67.5537 117.261 67.8188 117.516C68.097 117.783 68.3348 118.018 68.5454 118.258L70.7995 116.278C70.4983 115.935 70.1805 115.625 69.8974 115.353C69.6011 115.068 69.3511 114.833 69.1138 114.583L66.9397 116.65ZM68.5454 118.258C68.7027 118.437 68.8072 118.629 69.0731 119.057C69.2992 119.42 69.6424 119.946 70.1878 120.373L72.0371 118.011C71.9339 117.93 71.8207 117.794 71.6208 117.473C71.4606 117.215 71.1695 116.699 70.7995 116.278L68.5454 118.258ZM70.1878 120.373C70.4413 120.572 70.6976 120.858 71.031 121.267C71.3281 121.632 71.7275 122.15 72.1566 122.578L74.274 120.453C73.9891 120.169 73.7346 119.836 73.3574 119.373C73.0167 118.955 72.5786 118.435 72.0371 118.011L70.1878 120.373ZM72.1566 122.578C72.5297 122.949 72.9827 123.195 73.4925 123.28C73.9729 123.36 74.3945 123.279 74.6922 123.194C74.9759 123.112 75.249 122.992 75.3926 122.932C75.4792 122.895 75.5379 122.871 75.5877 122.853C75.6366 122.836 75.6554 122.831 75.6538 122.832L75.0053 119.903C74.6864 119.973 74.3945 120.097 74.231 120.166C74.022 120.254 73.9367 120.289 73.8612 120.311C73.7998 120.329 73.8616 120.3 73.9864 120.321C74.1408 120.346 74.2426 120.421 74.274 120.453L72.1566 122.578ZM75.6538 122.832C76.0527 122.743 76.3809 122.576 76.6199 122.435C76.8444 122.303 77.0798 122.136 77.2105 122.048C77.5636 121.808 77.6111 121.826 77.5725 121.829L77.4067 118.833C76.5299 118.882 75.8625 119.337 75.5277 119.564C75.3145 119.708 75.2127 119.782 75.0947 119.852C74.9912 119.913 74.9716 119.91 75.0053 119.903L75.6538 122.832ZM77.5725 121.829C78.1497 121.797 78.7597 121.858 79.269 122.026C79.7784 122.194 80.0857 122.432 80.2483 122.687L82.7766 121.072C82.1322 120.063 81.1492 119.487 80.2095 119.177C79.2696 118.867 78.2717 118.785 77.4067 118.833L77.5725 121.829ZM80.2483 122.687C80.6636 123.337 81.2145 123.85 81.5775 124.205C81.9869 124.604 82.2336 124.868 82.3966 125.161L85.0168 123.7C84.6159 122.981 84.0682 122.444 83.6729 122.058C83.231 121.626 82.9668 121.37 82.7766 121.072L80.2483 122.687ZM82.3966 125.161C82.7677 125.826 83.1929 126.452 83.5741 127.015C83.9679 127.596 84.3176 128.114 84.6137 128.645L87.2339 127.184C86.8636 126.52 86.4388 125.895 86.0577 125.332C85.664 124.751 85.3138 124.232 85.0168 123.7L82.3966 125.161ZM84.6137 128.645C84.8643 129.094 85.1602 129.499 85.3865 129.813C85.6309 130.153 85.8097 130.408 85.9478 130.668L88.597 129.26C88.3501 128.796 88.0548 128.385 87.8215 128.061C87.5698 127.711 87.384 127.453 87.2339 127.184L84.6137 128.645ZM85.9478 130.668C85.9403 130.654 85.9476 130.665 85.9699 130.729C85.999 130.813 86.0092 130.852 86.0562 130.996C86.0922 131.106 86.1471 131.268 86.2244 131.436C86.3019 131.604 86.4233 131.826 86.6164 132.04L88.8426 130.029C88.8834 130.074 88.9101 130.113 88.9257 130.138C88.9411 130.163 88.9483 130.179 88.9487 130.18C88.9492 130.181 88.9456 130.173 88.938 130.152C88.9304 130.132 88.921 130.104 88.9083 130.066C88.8922 130.016 88.8424 129.856 88.8048 129.748C88.7604 129.619 88.6943 129.443 88.597 129.26L85.9478 130.668ZM86.6164 132.04C86.6476 132.075 86.6995 132.142 86.8205 132.307C86.9218 132.445 87.0678 132.646 87.2303 132.838C87.4832 133.137 88.1259 133.862 89.1275 133.921L89.303 130.926C89.5141 130.939 89.6335 131.023 89.6412 131.028C89.6455 131.031 89.6066 131.002 89.5214 130.902C89.4379 130.803 89.3539 130.689 89.2401 130.534C89.146 130.405 88.9978 130.201 88.8426 130.029L86.6164 132.04ZM89.1275 133.921C89.6124 133.95 90.1141 133.879 90.5811 133.64C91.0542 133.398 91.3818 133.04 91.602 132.672C91.9934 132.018 92.0957 131.227 92.155 130.754L89.1783 130.381C89.1479 130.623 89.1196 130.804 89.0852 130.948C89.0502 131.094 89.023 131.139 89.0274 131.132C89.0413 131.109 89.1003 131.028 89.2157 130.969C89.3251 130.913 89.3803 130.931 89.303 130.926L89.1275 133.921ZM92.155 130.754C92.1935 130.447 92.3036 130.11 92.4886 129.676C92.6344 129.333 92.9426 128.687 93.1289 128.204L90.3301 127.124C90.1485 127.594 89.9897 127.886 89.7282 128.501C89.506 129.023 89.2686 129.662 89.1783 130.381L92.155 130.754ZM93.1289 128.204C93.1949 128.033 93.3633 127.831 93.8489 127.376C94.2227 127.026 94.9386 126.401 95.3165 125.554L92.5767 124.331C92.4972 124.51 92.3137 124.704 91.7979 125.187C91.3939 125.565 90.6825 126.211 90.3301 127.124L93.1289 128.204ZM95.3165 125.554C95.3061 125.577 95.3227 125.528 95.4509 125.411C95.5761 125.296 95.7514 125.167 95.9891 125.013C96.2543 124.84 96.4495 124.728 96.7605 124.531C97.0204 124.367 97.3395 124.158 97.6154 123.913L95.6264 121.668C95.5455 121.739 95.4038 121.84 95.1601 121.994C94.9675 122.115 94.6165 122.327 94.3541 122.497C93.844 122.829 92.9845 123.417 92.5767 124.331L95.3165 125.554ZM97.6154 123.913C98.263 123.34 99.2633 122.968 100.517 122.808C101.75 122.65 103.08 122.717 104.219 122.885L104.657 119.917C103.328 119.721 101.713 119.63 100.136 119.832C98.5791 120.031 96.9045 120.536 95.6264 121.668L97.6154 123.913ZM104.219 122.885C105.599 123.089 107.071 123.055 108.287 123.075C109.574 123.096 110.67 123.173 111.645 123.497L112.591 120.65C111.149 120.171 109.658 120.097 108.336 120.075C106.942 120.052 105.782 120.083 104.657 119.917L104.219 122.885ZM111.645 123.497C112.044 123.629 112.609 123.745 113.198 123.547C113.877 123.318 114.238 122.799 114.402 122.365C114.546 121.986 114.57 121.606 114.578 121.379C114.585 121.162 114.578 120.859 114.578 120.741H111.578C111.578 120.848 111.58 120.969 111.581 121.052C111.582 121.145 111.581 121.217 111.579 121.279C111.574 121.431 111.559 121.402 111.597 121.302C111.621 121.238 111.677 121.119 111.792 120.995C111.914 120.862 112.071 120.761 112.242 120.703C112.55 120.6 112.728 120.695 112.591 120.65L111.645 123.497ZM114.578 120.741C114.578 120.659 114.573 120.558 114.57 120.485C114.566 120.408 114.559 120.293 114.554 120.196C114.544 119.982 114.533 119.742 114.53 119.516C114.527 119.275 114.534 119.11 114.545 119.025C114.551 118.974 114.55 119.03 114.51 119.134C114.49 119.187 114.438 119.315 114.325 119.458C114.209 119.606 113.978 119.833 113.603 119.94L112.782 117.055C111.998 117.278 111.745 117.964 111.703 118.075C111.62 118.297 111.585 118.513 111.568 118.652C111.531 118.948 111.527 119.281 111.53 119.553C111.534 119.839 111.547 120.126 111.558 120.349C111.565 120.47 111.569 120.552 111.573 120.634C111.578 120.722 111.578 120.746 111.578 120.741H114.578ZM113.603 119.94C113.894 119.858 114.2 119.809 114.677 119.715C115.093 119.633 115.641 119.516 116.154 119.288L114.939 116.545C114.759 116.625 114.501 116.692 114.098 116.771C113.756 116.839 113.232 116.927 112.782 117.055L113.603 119.94ZM116.154 119.288C116.049 119.335 115.991 119.334 116.031 119.331C116.062 119.327 116.124 119.325 116.227 119.329C116.331 119.333 116.438 119.341 116.577 119.351C116.697 119.359 116.869 119.371 117.032 119.371V116.371C116.993 116.371 116.926 116.368 116.789 116.358C116.673 116.35 116.505 116.337 116.337 116.331C116.065 116.321 115.479 116.306 114.939 116.545L116.154 119.288ZM117.032 119.371C118.924 119.371 120.527 119.25 122.198 119.378L122.427 116.387C120.616 116.248 118.633 116.371 117.032 116.371V119.371ZM122.198 119.378C122.801 119.425 123.814 119.576 124.689 119.576V116.576C123.928 116.576 123.437 116.465 122.427 116.387L122.198 119.378ZM124.689 119.576C125.134 119.576 125.576 119.547 126.168 119.564C126.437 119.572 126.656 119.589 126.813 119.614C127.031 119.649 126.935 119.67 126.758 119.541L128.518 117.112C128.088 116.801 127.577 116.699 127.293 116.653C126.948 116.597 126.58 116.574 126.253 116.565C125.655 116.548 124.875 116.576 124.689 116.576V119.576ZM126.758 119.541C126.924 119.662 127.09 119.745 127.208 119.798C127.333 119.855 127.458 119.903 127.561 119.941C127.817 120.035 127.928 120.068 128.114 120.141C128.189 120.171 128.245 120.195 128.287 120.216C128.33 120.238 128.344 120.248 128.34 120.245C128.337 120.243 128.296 120.214 128.245 120.151C128.19 120.084 128.123 119.978 128.082 119.833L130.965 119.006C130.79 118.396 130.38 118.015 130.079 117.801C129.777 117.586 129.451 117.444 129.216 117.351C129.005 117.268 128.704 117.165 128.596 117.125C128.397 117.052 128.429 117.047 128.518 117.112L126.758 119.541ZM128.082 119.833C128.379 120.869 129.068 121.559 129.474 121.977C129.952 122.469 130.135 122.677 130.226 122.932L133.05 121.92C132.7 120.945 132.005 120.277 131.626 119.886C131.175 119.422 131.028 119.224 130.965 119.006L128.082 119.833ZM130.226 122.932C130.513 123.734 131.043 124.46 131.364 124.931C131.749 125.497 131.931 125.82 131.991 126.089L134.919 125.436C134.717 124.528 134.197 123.761 133.843 123.241C133.424 122.627 133.177 122.273 133.05 121.92L130.226 122.932ZM131.991 126.089C132.11 126.622 132.439 127.044 132.63 127.271C132.862 127.546 133.135 127.809 133.387 128.035C133.885 128.483 134.447 128.911 134.669 129.087L136.538 126.742C136.245 126.508 135.803 126.172 135.391 125.802C135.187 125.619 135.028 125.461 134.924 125.337C134.9 125.308 134.881 125.285 134.868 125.267C134.862 125.259 134.857 125.252 134.854 125.247C134.85 125.242 134.849 125.24 134.849 125.24C134.849 125.24 134.851 125.243 134.854 125.249C134.858 125.256 134.863 125.266 134.869 125.281C134.881 125.308 134.902 125.361 134.919 125.436L131.991 126.089ZM134.669 129.087C134.799 129.192 134.907 129.347 135.212 129.794C135.457 130.154 135.879 130.778 136.572 131.2L138.132 128.637C138.059 128.593 137.955 128.492 137.692 128.106C137.488 127.807 137.105 127.193 136.538 126.742L134.669 129.087ZM136.572 131.2C136.476 131.141 136.458 131.09 136.521 131.18C136.552 131.223 136.585 131.275 136.64 131.362C136.689 131.439 136.76 131.551 136.838 131.663C136.995 131.888 137.248 132.213 137.642 132.473C138.062 132.752 138.555 132.899 139.101 132.899V129.899C139.098 129.899 139.124 129.899 139.169 129.912C139.215 129.925 139.26 129.947 139.297 129.971C139.363 130.015 139.366 130.043 139.298 129.946C139.264 129.898 139.23 129.844 139.173 129.754C139.123 129.676 139.051 129.562 138.971 129.449C138.813 129.224 138.548 128.891 138.132 128.637L136.572 131.2ZM139.101 132.899C139.794 132.899 140.333 132.582 140.691 132.25C141.038 131.928 141.277 131.542 141.439 131.209C141.754 130.562 141.938 129.786 141.938 129.19H138.938C138.938 129.19 138.938 129.198 138.937 129.214C138.935 129.23 138.933 129.251 138.93 129.277C138.922 129.33 138.91 129.395 138.892 129.469C138.855 129.62 138.802 129.772 138.742 129.895C138.677 130.028 138.635 130.065 138.651 130.05C138.678 130.025 138.835 129.899 139.101 129.899V132.899ZM141.938 129.19C141.938 127.881 141.504 126.704 141.263 125.861L138.379 126.688C138.704 127.823 138.938 128.426 138.938 129.19H141.938ZM141.263 125.861C140.553 123.388 139.504 121.035 138.516 118.82L135.777 120.042C136.778 122.287 137.737 124.451 138.379 126.688L141.263 125.861ZM138.516 118.82C137.704 117 137.001 115.433 137.001 113.875H134.001C134.001 116.2 135.04 118.391 135.777 120.042L138.516 118.82ZM137.001 113.875C137.001 113.307 136.926 112.466 136.905 111.978C136.878 111.358 136.904 110.939 136.984 110.67L134.109 109.815C133.876 110.596 133.879 111.446 133.908 112.107C133.942 112.899 134.001 113.349 134.001 113.875H137.001ZM136.984 110.67C137.146 110.125 137.344 109.595 137.562 108.996C137.774 108.415 138.003 107.776 138.184 107.1L135.286 106.325C135.143 106.859 134.956 107.386 134.744 107.968C134.538 108.533 134.303 109.162 134.109 109.815L136.984 110.67ZM138.184 107.1C138.401 106.29 139.032 105.602 140.08 104.702C140.993 103.918 142.394 102.86 143.179 101.492L140.577 99.9994C140.122 100.793 139.3 101.417 138.125 102.426C137.086 103.319 135.765 104.534 135.286 106.325L138.184 107.1ZM143.179 101.492C143.15 101.542 143.123 101.542 143.362 101.35C143.522 101.221 143.97 100.884 144.262 100.36L141.642 98.8992C141.682 98.8275 141.727 98.815 141.48 99.0138C141.311 99.1495 140.874 99.4815 140.577 99.9994L143.179 101.492ZM144.262 100.36C144.405 100.104 144.478 99.8611 144.521 99.6804C144.558 99.5269 144.589 99.3364 144.597 99.2937C144.628 99.1238 144.623 99.2894 144.477 99.451L142.25 97.44C141.795 97.944 141.69 98.5114 141.646 98.753C141.616 98.916 141.615 98.9336 141.603 98.9843C141.598 99.0079 141.605 98.9653 141.642 98.8992L144.262 100.36ZM144.477 99.451C144.931 98.948 145.204 98.266 145.361 97.7464C145.528 97.1964 145.641 96.5736 145.641 96.0429H142.641C142.641 96.2033 142.596 96.5257 142.49 96.8763C142.44 97.0423 142.384 97.1864 142.33 97.2976C142.272 97.4175 142.238 97.4535 142.25 97.4401L144.477 99.451ZM145.641 96.0429C145.641 93.3862 144.903 91.7691 143.881 89.7337L141.2 91.0792C142.167 93.0059 142.641 94.1067 142.641 96.0429H145.641ZM143.881 89.7337C143.808 89.5871 143.751 89.3725 143.748 89.1744C143.745 88.9664 143.8 88.9376 143.757 88.9899L141.439 87.0861C140.887 87.7579 140.739 88.5672 140.748 89.2156C140.757 89.8737 140.926 90.5336 141.2 91.0793L143.881 89.7337ZM143.757 88.9899C143.982 88.7164 144.171 88.4034 144.315 88.1554C144.486 87.8612 144.589 87.6689 144.735 87.4279C144.869 87.2068 144.973 87.0581 145.059 86.9614C145.148 86.8607 145.152 86.8903 145.062 86.9263L143.951 84.1395C143.443 84.3422 143.07 84.6817 142.812 84.9738C142.55 85.27 142.336 85.597 142.168 85.8741C142.013 86.1312 141.831 86.4594 141.721 86.6478C141.585 86.8822 141.498 87.0137 141.439 87.0861L143.757 88.9899ZM145.062 86.9263C146.963 86.1687 147.875 84.7295 148.443 83.3643C148.715 82.7103 148.933 82.0094 149.126 81.4245C149.33 80.8075 149.519 80.2779 149.756 79.8063L147.074 78.4608C146.731 79.144 146.486 79.8546 146.278 80.4827C146.06 81.1429 145.889 81.692 145.673 82.2121C145.264 83.1951 144.801 83.8008 143.951 84.1395L145.062 86.9263ZM149.756 79.8063C149.932 79.455 150.315 79.1395 151.128 78.6238C151.799 78.1982 152.91 77.5606 153.626 76.5791L151.203 74.8104C150.903 75.2223 150.402 75.5315 149.521 76.0907C148.781 76.5598 147.673 77.267 147.074 78.4608L149.756 79.8063ZM153.626 76.5791C154.211 75.7782 154.311 74.8382 154.328 74.1821C154.337 73.8346 154.322 73.4945 154.308 73.2108C154.293 72.9063 154.281 72.684 154.281 72.4837H151.281C151.281 72.7778 151.299 73.0988 151.312 73.3574C151.325 73.6369 151.335 73.8798 151.329 74.1061C151.316 74.5976 151.234 74.7686 151.203 74.8104L153.626 76.5791ZM154.281 72.4837C154.281 71.9813 154.268 71.3475 154.328 70.7412C154.358 70.4423 154.401 70.2049 154.452 70.0356C154.51 69.8448 154.54 69.8646 154.456 69.9481L152.339 67.8229C151.917 68.2432 151.701 68.7664 151.58 69.1698C151.452 69.5947 151.383 70.0424 151.343 70.444C151.264 71.2385 151.281 72.0669 151.281 72.4837H154.281ZM154.456 69.9481C154.913 69.4931 155.302 68.9189 155.567 68.5509C155.881 68.1157 156.084 67.8703 156.271 67.7254L154.433 65.3541C153.862 65.7971 153.434 66.3797 153.133 66.798C152.783 67.2835 152.575 67.5882 152.339 67.8229L154.456 69.9481ZM156.271 67.7254C156.772 67.3368 157.215 66.8008 157.542 66.2423C157.864 65.6918 158.148 64.9909 158.187 64.2505L155.191 64.0922C155.186 64.1997 155.125 64.4316 154.952 64.7276C154.784 65.0157 154.581 65.2399 154.433 65.3541L156.271 67.7254ZM158.187 64.2504C158.265 62.7659 157.993 61.5278 157.431 60.3956C156.89 59.3039 156.107 58.3697 155.283 57.4669L153.067 59.489C153.86 60.3586 154.4 61.0348 154.744 61.7285C155.068 62.3818 155.243 63.1042 155.191 64.0922L158.187 64.2504ZM155.283 57.4669C154.797 56.934 153.86 55.8778 152.78 55.3675C152.191 55.0892 151.395 54.891 150.537 55.1708C149.684 55.449 149.071 56.1017 148.636 56.882L151.256 58.3431C151.471 57.9584 151.576 57.9875 151.467 58.023C151.353 58.06 151.329 57.9999 151.499 58.08C151.678 58.1649 151.921 58.3379 152.22 58.6139C152.512 58.8829 152.79 59.1856 153.067 59.489L155.283 57.4669ZM148.636 56.882C148.138 57.7763 148.209 58.7101 148.236 59.18C148.271 59.7979 148.254 59.8929 148.227 59.9505L150.957 61.1957C151.353 60.3276 151.253 59.4074 151.231 59.0089C151.199 58.4625 151.236 58.3788 151.256 58.3431L148.636 56.882ZM148.227 59.9505C147.743 61.0122 147.243 61.6796 146.542 62.9013L149.145 64.3938C149.667 63.4839 150.402 62.411 150.957 61.1957L148.227 59.9505ZM146.542 62.9013C146.524 62.9339 146.43 63.0501 146.016 63.2936C145.923 63.3485 145.825 63.4034 145.715 63.4655C145.608 63.5253 145.487 63.5933 145.367 63.6633C145.131 63.801 144.845 63.9785 144.577 64.2015L146.493 66.5096C146.716 66.3246 146.955 66.2221 147.537 65.8793C147.989 65.6135 148.703 65.1638 149.145 64.3938L146.542 62.9013ZM144.577 64.2015C144.378 64.3663 144.124 64.5061 143.703 64.7206C143.331 64.9104 142.788 65.1781 142.296 65.5591L144.134 67.9304C144.359 67.7556 144.631 67.6154 145.067 67.3928C145.455 67.1949 146.001 66.918 146.493 66.5096L144.577 64.2015ZM142.296 65.5591C142.165 65.6608 141.869 65.8176 141.313 66.0675C140.828 66.2859 140.171 66.5651 139.573 66.8687C138.976 67.1718 138.3 67.5648 137.76 68.0814C137.208 68.6092 136.675 69.3878 136.675 70.4227H139.675C139.675 70.4964 139.625 70.4491 139.833 70.2502C140.053 70.04 140.416 69.8054 140.931 69.5437C141.445 69.2826 141.974 69.06 142.545 68.8032C143.045 68.5781 143.674 68.2865 144.134 67.9304L142.296 65.5591ZM136.675 70.4227C136.675 70.9409 136.467 71.2823 135.987 71.6213C135.431 72.0131 134.647 72.2925 133.724 72.5754L134.603 75.4436C135.499 75.169 136.72 74.7752 137.716 74.0729C138.786 73.318 139.675 72.1447 139.675 70.4227H136.675ZM133.724 72.5754C133.728 72.5742 133.711 72.5794 133.658 72.5908C133.608 72.6016 133.548 72.6134 133.467 72.629C133.319 72.6574 133.1 72.6983 132.883 72.752C132.671 72.8046 132.389 72.8859 132.114 73.0204C131.854 73.147 131.445 73.3945 131.169 73.8618L133.752 75.387C133.674 75.5206 133.585 75.6049 133.528 75.6506C133.473 75.6954 133.433 75.7145 133.429 75.7166C133.428 75.7169 133.476 75.6958 133.604 75.6641C133.727 75.6336 133.86 75.6084 134.033 75.5751C134.171 75.5487 134.402 75.5053 134.603 75.4436L133.724 72.5754ZM131.169 73.8618C130.965 74.2073 130.809 74.5477 130.686 74.8142C130.555 75.0988 130.458 75.3085 130.341 75.5105L132.935 77.0177C133.136 76.6719 133.291 76.3318 133.412 76.0684C133.541 75.787 133.638 75.5814 133.752 75.387L131.169 73.8618ZM130.341 75.5105C130.172 75.802 129.885 76.0615 129.348 76.5116C128.895 76.8913 128.17 77.4765 127.711 78.3006L130.331 79.7616C130.473 79.5063 130.732 79.266 131.275 78.8109C131.734 78.4263 132.456 77.8419 132.935 77.0177L130.341 75.5105ZM127.711 78.3006C127.735 78.2566 127.729 78.2923 127.598 78.39C127.474 78.4832 127.297 78.5885 127.061 78.7081C126.825 78.8274 126.576 78.9383 126.299 79.0623C126.045 79.1765 125.739 79.3137 125.475 79.4588L126.92 82.0877C127.059 82.0118 127.249 81.9242 127.527 81.7996C127.783 81.6847 128.103 81.5428 128.415 81.3852C128.958 81.1107 129.855 80.614 130.331 79.7616L127.711 78.3006ZM125.475 79.4588C125.477 79.4576 125.469 79.4623 125.447 79.4724C125.426 79.4821 125.398 79.4943 125.363 79.5085C125.293 79.5372 125.205 79.5693 125.107 79.6007C124.902 79.6664 124.705 79.7118 124.565 79.7284C124.495 79.7367 124.474 79.7334 124.492 79.735C124.497 79.7353 124.64 79.744 124.827 79.8497C125.056 79.979 125.304 80.2318 125.398 80.6031C125.479 80.92 125.401 81.1427 125.39 81.1737L122.572 80.1451C122.466 80.4346 122.369 80.8643 122.491 81.3442C122.628 81.8786 122.977 82.2505 123.353 82.4627C123.688 82.6513 124.023 82.7066 124.249 82.725C124.489 82.7446 124.72 82.7309 124.916 82.7078C125.641 82.6223 126.475 82.3327 126.92 82.0877L125.475 79.4588ZM125.39 81.1737C125.556 80.7194 125.757 80.4011 126.071 79.7661C126.349 79.2053 126.666 78.4706 126.713 77.573L123.717 77.4147C123.702 77.6937 123.605 77.9856 123.382 78.4355C123.197 78.8111 122.812 79.4872 122.572 80.1451L125.39 81.1737ZM126.713 77.573C126.717 77.4976 126.733 77.4198 126.791 77.1619C126.84 76.9439 126.921 76.581 126.921 76.1616H123.921C123.921 76.2171 123.911 76.2924 123.863 76.5078C123.824 76.6834 123.737 77.0343 123.717 77.4147L126.713 77.573ZM126.921 76.1616C126.921 75.934 126.903 75.6916 126.841 75.4456C126.774 75.1768 126.67 74.9654 126.561 74.7937C126.514 74.7205 126.469 74.6585 126.446 74.6264C126.416 74.5859 126.409 74.5763 126.399 74.5622C126.392 74.5521 126.388 74.5465 126.379 74.5257L123.639 75.7479C123.737 75.9661 123.838 76.1315 123.928 76.2625C123.967 76.3191 124.006 76.3726 124.021 76.3926C124.041 76.4209 124.038 76.4168 124.029 76.4035C124.018 76.3852 123.997 76.351 123.977 76.3048C123.956 76.258 123.941 76.2134 123.931 76.1747C123.914 76.1036 123.921 76.0828 123.921 76.1616H126.921ZM126.379 74.5257C126.319 74.391 126.062 73.716 125.786 73.2337C125.532 72.7896 124.916 71.8458 123.755 71.7012L123.384 74.6782C123.182 74.6531 123.074 74.5577 123.064 74.5488C123.063 74.5478 123.107 74.5916 123.182 74.723C123.254 74.848 123.325 75.0013 123.403 75.1842C123.442 75.2752 123.477 75.3625 123.517 75.4584C123.554 75.548 123.596 75.6514 123.639 75.7479L126.379 74.5257ZM123.755 71.7012C123.784 71.7048 123.797 71.7094 123.793 71.7083C123.79 71.7074 123.779 71.7032 123.76 71.6936C123.719 71.6732 123.673 71.6419 123.634 71.6059C123.616 71.5889 123.603 71.5745 123.595 71.5643C123.587 71.5539 123.586 71.5512 123.589 71.5578C123.595 71.5691 123.629 71.6378 123.629 71.7549H120.629C120.629 72.6837 121.148 73.3933 121.599 73.8104C122.058 74.2334 122.697 74.5926 123.384 74.6782L123.755 71.7012ZM123.629 71.7549C123.629 69.9495 122.124 68.9311 120.994 68.5657C119.849 68.1954 118.146 68.1631 117.002 69.3031L119.119 71.4283C119.12 71.428 119.182 71.369 119.379 71.3437C119.574 71.3187 119.823 71.3401 120.071 71.4201C120.321 71.5012 120.493 71.6168 120.58 71.7069C120.655 71.785 120.629 71.7968 120.629 71.7549H123.629ZM117.002 69.3031C116.589 69.7143 116.23 70.2634 115.974 70.7972C115.726 71.3131 115.487 71.9947 115.487 72.6773H118.487C118.487 72.6794 118.486 72.6643 118.492 72.6298C118.497 72.5959 118.507 72.5505 118.523 72.4941C118.556 72.3795 118.608 72.2429 118.678 72.0967C118.827 71.7872 119.005 71.5426 119.119 71.4283L117.002 69.3031ZM115.487 72.6773C115.487 72.8349 115.472 73.0504 115.447 73.3516C115.424 73.6307 115.393 73.9786 115.374 74.3198C115.341 74.9183 115.312 75.8851 115.662 76.6702L118.402 75.4481C118.41 75.4666 118.381 75.4034 118.366 75.199C118.352 75.008 118.354 74.7699 118.37 74.4839C118.385 74.1966 118.411 73.9103 118.437 73.5982C118.461 73.3083 118.487 72.9758 118.487 72.6773H115.487ZM115.662 76.6702C115.804 76.9884 115.847 77.8372 115.527 78.6889C115.197 79.5669 114.807 79.6832 114.678 79.6832V82.6832C116.709 82.6832 117.851 81.0319 118.335 79.7452C118.829 78.4321 118.969 76.7189 118.402 75.4481L115.662 76.6702ZM114.678 79.6832C114.297 79.6832 114.13 79.6324 114.076 79.61C114.052 79.6003 114.061 79.6054 114.053 79.5942C114.023 79.5519 113.963 79.4403 113.88 79.1623C113.794 78.8745 113.725 78.5543 113.611 78.0789L110.693 78.7762C110.787 79.1677 110.888 79.6255 111.004 80.0169C111.124 80.4181 111.296 80.887 111.597 81.3169C112.313 82.3378 113.41 82.6832 114.678 82.6832V79.6832ZM113.611 78.0789C113.484 77.5462 113.352 76.8152 113.289 76.0927C113.223 75.3355 113.248 74.7382 113.339 74.3947L110.44 73.6243C110.212 74.4809 110.226 75.498 110.3 76.3525C110.378 77.2416 110.536 78.1196 110.693 78.7762L113.611 78.0789ZM113.339 74.3947C113.507 73.7628 113.993 72.9354 114.707 72.1276C115.413 71.3281 116.209 70.6983 116.833 70.3875L115.495 67.7023C114.434 68.2307 113.343 69.1402 112.458 70.1417C111.581 71.1348 110.773 72.3702 110.44 73.6244L113.339 74.3947ZM116.833 70.3875C116.822 70.3929 116.837 70.3845 116.9 70.3621C116.959 70.3408 117.032 70.3167 117.131 70.2851C117.31 70.2278 117.583 70.1436 117.843 70.0447C118.099 69.9474 118.435 69.8025 118.746 69.5845C119.051 69.3703 119.473 68.9856 119.651 68.3652L116.767 67.5383C116.81 67.3891 116.88 67.2819 116.933 67.2169C116.984 67.1556 117.023 67.129 117.023 67.1289C117.024 67.1283 117.006 67.1407 116.959 67.1634C116.914 67.1855 116.854 67.2112 116.777 67.2405C116.613 67.303 116.441 67.3561 116.217 67.4277C116.039 67.4844 115.744 67.5779 115.495 67.7023L116.833 70.3875ZM119.651 68.3652C119.925 67.4094 119.763 66.5286 119.2 65.8231C118.759 65.2708 118.119 64.9156 117.803 64.7289L116.277 67.3123C116.481 67.4325 116.615 67.5128 116.726 67.5911C116.834 67.6672 116.86 67.7009 116.855 67.6945C116.839 67.6746 116.802 67.615 116.787 67.5323C116.774 67.4571 116.794 67.4461 116.767 67.5383L119.651 68.3652ZM117.803 64.729L117.795 64.7244L116.269 67.3076L116.277 67.3122L117.803 64.729ZM117.795 64.7243C116.965 64.2342 115.935 64.2111 115.283 64.2233C114.914 64.2302 114.547 64.2549 114.243 64.2749C113.918 64.2962 113.679 64.311 113.489 64.311V67.311C113.797 67.311 114.141 67.288 114.439 67.2684C114.758 67.2475 115.053 67.2282 115.339 67.2228C115.626 67.2175 115.858 67.2276 116.039 67.254C116.228 67.2816 116.285 67.3165 116.27 67.3076L117.795 64.7243ZM113.489 64.311C112.314 64.311 110.841 64.2043 109.313 64.7682L110.352 67.5826C111.247 67.2523 112.032 67.311 113.489 67.311V64.311ZM109.313 64.7682C108.995 64.8854 108.67 65.018 108.363 65.1437C108.048 65.2727 107.751 65.3954 107.452 65.5095C106.845 65.7418 106.337 65.8976 105.91 65.9508L106.281 68.9278C107.077 68.8287 107.858 68.5662 108.524 68.3115C108.862 68.182 109.197 68.044 109.501 67.9198C109.812 67.7923 110.09 67.679 110.352 67.5826L109.313 64.7682ZM105.91 65.9508C105.724 65.974 105.541 66.0045 105.381 66.0323C105.209 66.0622 105.076 66.0866 104.934 66.1096C104.64 66.1571 104.495 66.1644 104.427 66.159C104.375 66.1547 104.581 66.1599 104.774 66.3738C104.959 66.578 104.909 66.7281 104.909 66.517H101.909C101.909 67.1329 102.047 67.8304 102.549 68.3858C103.06 68.9508 103.714 69.111 104.185 69.1491C104.64 69.186 105.092 69.123 105.412 69.0712C105.811 69.0068 106.011 68.9614 106.281 68.9278L105.91 65.9508ZM104.909 66.517C104.909 66.324 104.939 66.2374 104.95 66.208C104.96 66.1833 104.977 66.1516 105.032 66.0964C105.099 66.0295 105.208 65.943 105.409 65.8125C105.507 65.7485 105.615 65.682 105.742 65.6034C105.866 65.5277 106.009 65.4402 106.156 65.3471L104.549 62.8134C104.151 63.0656 103.419 63.4688 102.914 63.9715C102.269 64.6146 101.909 65.4396 101.909 66.517H104.909ZM106.156 65.3471C106.6 65.0653 106.988 64.6418 107.162 64.0696C107.334 63.5008 107.244 62.9556 107.047 62.5279C106.68 61.7302 105.888 61.179 105.038 61.058L104.615 64.0281C104.546 64.0183 104.499 63.9945 104.466 63.9704C104.436 63.9485 104.373 63.8949 104.322 63.782C104.265 63.6595 104.216 63.4455 104.291 63.1974C104.368 62.9459 104.519 62.8324 104.549 62.8134L106.156 65.3471ZM105.038 61.058C102.713 60.7271 100.393 60.1805 97.8976 59.6849C95.451 59.1989 92.899 58.7771 90.3352 58.7771V61.7771C92.5931 61.7771 94.9085 62.1497 97.3131 62.6274C99.6694 63.0955 102.183 63.6819 104.615 64.0281L105.038 61.058ZM90.3352 58.7771C89.529 58.7771 88.7175 58.6466 87.7621 58.4895C86.8466 58.3389 85.7897 58.1622 84.6895 58.1622V61.1622C85.5047 61.1622 86.3215 61.2929 87.2753 61.4497C88.1892 61.6 89.2429 61.7771 90.3352 61.7771V58.7771ZM84.6895 58.1622C83.9782 58.1622 83.5059 58.054 82.5394 57.9737L82.2911 60.9634C82.8679 61.0113 83.8415 61.1622 84.6895 61.1622V58.1622ZM82.5394 57.9737C81.7787 57.9106 80.8547 57.9398 80.2113 57.9311C79.476 57.9212 78.9191 57.8694 78.4881 57.7262L77.5425 60.5733C78.4371 60.8704 79.3852 60.9203 80.1709 60.9309C81.0486 60.9427 81.6618 60.9112 82.2911 60.9634L82.5394 57.9737ZM78.4881 57.7262C77.1788 57.2914 75.8522 57.2932 74.7697 57.3045C73.6085 57.3167 72.7188 57.338 71.8772 57.134L71.1706 60.0496C72.4553 60.361 73.7691 60.3151 74.801 60.3044C75.9115 60.2928 76.7674 60.3159 77.5425 60.5733L78.4881 57.7262ZM71.8772 57.134C70.5204 56.8052 69.1489 56.7051 67.8628 56.6567C66.5226 56.6062 65.3653 56.6112 64.1688 56.5158L63.9305 59.5063C65.2026 59.6077 66.5742 59.6103 67.7499 59.6546C68.9796 59.7009 70.1109 59.7928 71.1706 60.0496L71.8772 57.134ZM64.1688 56.5158C64.2617 56.5232 64.308 56.5588 64.1455 56.4843C64.0364 56.4342 63.6781 56.2532 63.2531 56.1799L62.7433 59.1363C62.7013 59.129 62.6719 59.1088 62.8944 59.2109C63.0635 59.2885 63.444 59.4676 63.9305 59.5063L64.1688 56.5158ZM63.2531 56.1799C62.9857 56.1338 62.7263 56.1416 62.5796 56.1479C62.4951 56.1515 62.4106 56.1568 62.3416 56.1612C62.2675 56.1659 62.2082 56.1696 62.1507 56.1724C62.0944 56.175 62.0518 56.1761 62.0186 56.1759C61.9849 56.1757 61.9714 56.1743 61.973 56.1745C61.9733 56.1745 62.0061 56.1778 62.0596 56.1936C62.113 56.2094 62.2089 56.244 62.3196 56.3175L60.6597 58.8165C61.0339 59.065 61.4222 59.1323 61.6501 59.157C61.8953 59.1836 62.1302 59.1767 62.2932 59.169C62.3787 59.1649 62.4633 59.1595 62.5307 59.1552C62.6032 59.1506 62.658 59.1473 62.7072 59.1452C62.8278 59.14 62.8136 59.1484 62.7433 59.1363L63.2531 56.1799ZM62.3196 56.3175C61.6084 55.8452 60.825 55.7297 60.2913 55.674C59.6307 55.6051 59.3572 55.6139 59.0113 55.5351L58.3452 58.4602C58.6724 58.5347 58.9918 58.5711 59.2587 58.5957C59.581 58.6253 59.7273 58.6315 59.9801 58.6578C60.4261 58.7044 60.5877 58.7687 60.6597 58.8165L62.3196 56.3175ZM59.0113 55.5351C58.782 55.4829 58.5049 55.3768 58.0002 55.2106C57.6219 55.0861 56.9899 54.8828 56.404 54.8828V57.8828C56.3873 57.8828 56.4353 57.8823 56.5775 57.9166C56.7096 57.9484 56.8689 57.9965 57.0619 58.0601C57.3799 58.1648 57.9321 58.3661 58.3452 58.4602L59.0113 55.5351ZM56.404 54.8828C55.2158 54.8828 54.4194 54.9582 53.5904 54.8052L53.0461 57.7554C54.2345 57.9747 55.5457 57.8828 56.404 57.8828V54.8828ZM53.5904 54.8052C52.3586 54.5779 51.1292 54.4027 49.9286 54.2369C48.7186 54.0697 47.5447 53.913 46.3755 53.7188L45.884 56.6783C47.1041 56.8809 48.329 57.0444 49.5182 57.2087C50.7168 57.3742 51.8871 57.5415 53.0461 57.7554L53.5904 54.8052ZM46.3755 53.7188C45.6416 53.597 45.2376 53.5775 44.6077 53.4491C44.0545 53.3365 43.7246 53.1995 43.54 53.0564L41.7024 55.4277C42.4366 55.9967 43.312 56.2468 44.0089 56.3888C44.6291 56.5151 45.5199 56.6178 45.884 56.6783L46.3755 53.7188ZM43.54 53.0564C43.0214 52.6545 42.3826 52.3556 41.8607 52.1349C41.5879 52.0196 41.3152 51.9129 41.0723 51.8183C40.8211 51.7205 40.6097 51.6385 40.4243 51.5608L39.2638 54.3272C39.4932 54.4234 39.7473 54.5218 39.9834 54.6137C40.2276 54.7089 40.4638 54.8015 40.6926 54.8982C41.1738 55.1016 41.5088 55.2777 41.7024 55.4277L43.54 53.0564ZM40.4243 51.5608C39.9567 51.3646 39.2164 51.1115 38.4279 51.2535C37.4563 51.4284 36.7983 52.1129 36.4778 53.0072L39.3018 54.0195C39.3299 53.941 39.3305 53.9842 39.2509 54.0582C39.2113 54.095 39.1618 54.1298 39.105 54.1575C39.0489 54.1847 38.9981 54.1991 38.9595 54.206C38.8886 54.2188 38.8728 54.2046 38.942 54.2188C39.0095 54.2327 39.1145 54.2646 39.2638 54.3272L40.4243 51.5608ZM36.4778 53.0072C36.4697 53.0296 36.4345 53.112 36.3717 53.2156C36.3084 53.32 36.2527 53.3869 36.2251 53.4137C36.1779 53.4596 36.2807 53.3331 36.5405 53.2876C36.6901 53.2614 36.8641 53.2684 37.0363 53.3275C37.203 53.3847 37.3089 53.4702 37.3599 53.5211L35.2425 55.6463C35.7104 56.1125 36.3578 56.3652 37.0577 56.2427C37.6475 56.1395 38.0713 55.8028 38.3159 55.5651C38.8092 55.0857 39.1505 54.4415 39.3018 54.0195L36.4778 53.0072ZM37.3599 53.5211C37.0093 53.1717 36.5875 52.7572 36.0197 52.5049C35.4291 52.2424 34.8335 52.2183 34.2898 52.2183V55.2183C34.7899 55.2183 34.8315 55.2597 34.8013 55.2463C34.7869 55.2399 34.804 55.2433 34.8743 55.3007C34.9542 55.3659 35.0622 55.4666 35.2425 55.6463L37.3599 53.5211Z" fill="#ACE5FC"/>
    </g>
    <path fill-rule="evenodd" clip-rule="evenodd" d="M86.2476 105.053C89.7871 106.607 115.744 105.882 129.902 99.6682C139.163 95.6035 136.981 89.5708 128.722 85.687C117.988 80.6391 105.125 83.3571 98.0461 88.7931C89.787 93.4534 82.708 103.5 86.2476 105.053ZM106.305 95.7842C109.844 97.3375 119.283 98.8914 125.182 95.7841C127.788 94.4117 129.902 91.1241 122.823 88.3777C116.082 85.7625 111.024 86.8247 107.485 88.3778C102.765 90.4489 102.765 94.2309 106.305 95.7842Z" fill="#EFEFEF"/>
    <path fill-rule="evenodd" clip-rule="evenodd" d="M90.3447 104.254C96.0156 104.254 111.894 82.9856 111.894 71.2432C111.894 59.5008 102.246 49.9817 90.3447 49.9817C78.4432 49.9817 68.7952 59.5008 68.7952 71.2432C68.7952 82.9856 84.6737 104.254 90.3447 104.254ZM90.3449 81.3138C95.9824 81.3138 100.553 76.8047 100.553 71.2426C100.553 65.6804 95.9824 61.1713 90.3449 61.1713C84.7074 61.1713 80.1373 65.6804 80.1373 71.2426C80.1373 76.8047 84.7074 81.3138 90.3449 81.3138Z" fill="#FF4B53"/>
    <defs>
        <filter id="filter0_d_6100_131019" x="26.3457" y="51.2122" width="139.854" height="109.715" filterUnits="userSpaceOnUse" color-interpolation-filters="sRGB">
            <feFlood flood-opacity="0" result="BackgroundImageFix"/>
            <feColorMatrix in="SourceAlpha" type="matrix" values="0 0 0 0 0 0 0 0 0 0 0 0 0 0 0 0 0 0 127 0" result="hardAlpha"/>
            <feOffset dx="4" dy="23"/>
            <feGaussianBlur stdDeviation="2"/>
            <feComposite in2="hardAlpha" operator="out"/>
            <feColorMatrix type="matrix" values="0 0 0 0 0 0 0 0 0 0 0 0 0 0 0 0 0 0 0.25 0"/>
            <feBlend mode="normal" in2="BackgroundImageFix" result="effect1_dropShadow_6100_131019"/>
            <feBlend mode="normal" in="SourceGraphic" in2="effect1_dropShadow_6100_131019" result="shape"/>
        </filter>
    </defs>
</svg>
