<svg width="711" height="207" viewBox="0 0 711 207" fill="none" xmlns="http://www.w3.org/2000/svg">
<path fill-rule="evenodd" clip-rule="evenodd" d="M138.978 17.6572C140.128 7.61797 131.554 0 121.449 0H20C8.95431 0 0 8.9543 0 20V116.324C0 120.631 1.40221 124.814 3.91885 128.309C9.04205 135.423 13.6551 142.272 17.7841 148.403L17.7842 148.403L17.7843 148.403C25.7461 160.224 31.9086 169.374 36.4582 172.596C54.2979 184.795 75.3449 181.867 91.8058 173.61C119.81 155.074 123.009 122.411 125.872 93.1885V93.1884V93.1883C126.054 91.3256 126.235 89.4769 126.421 87.6467C128.932 73.4677 131.298 60.7254 133.732 47.6093L133.733 47.6056C135.097 40.2589 136.482 32.7948 137.928 24.8953C138.337 22.5265 138.698 20.1047 138.978 17.6572ZM170.838 90.6239C155.67 73.8566 158.302 47.1904 176.716 31.0633C195.13 14.9361 222.354 15.4551 237.522 32.2224C252.69 48.9896 250.058 75.6559 231.644 91.783C213.229 107.91 186.006 107.391 170.838 90.6239Z" fill="#6FCF97"/>
<path fill-rule="evenodd" clip-rule="evenodd" d="M699.056 78.8788C706.61 77.5687 711 70.3587 711 62.6924V20C711 8.9543 702.046 0 691 0H640.153C633.631 0 627.113 3.21617 626.187 9.67216C625.8 12.3779 625.69 15.4632 625.813 19.0388C625.956 23.2258 625.613 27.856 625.258 32.6403L625.258 32.6451L625.258 32.6468C623.643 54.4253 621.792 79.3964 664.481 80.3156C680.615 80.6631 691.256 80.2316 699.056 78.8788ZM701.717 168.493C703.375 161.812 711 165.051 711 171.935C711 176.03 707.615 180.135 704.355 177.658C704.263 177.588 704.173 177.516 704.083 177.442C701.394 175.21 700.869 171.912 701.717 168.493ZM691.87 185.925C689.436 179.677 685.84 173.93 681.289 168.999C673.916 160.61 662.19 157.479 651.596 161.07C645.181 163.074 639.183 166.258 633.94 170.456C633.849 170.544 633.75 170.619 633.65 170.694L633.65 170.694C628.639 174.66 626.697 181.338 628.785 187.358C630.876 193.368 636.557 197.419 642.943 197.457C647.782 197.364 652.603 197.886 657.308 199.007C661.945 200.38 666.382 202.331 670.527 204.823C676.076 207.971 683.028 207.294 687.854 203.131C692.683 198.959 694.351 192.207 692.002 186.275C691.954 186.161 691.905 186.047 691.87 185.925ZM634.466 141.58C637.667 160.06 619.158 163.249 615.956 144.768C612.767 126.28 631.274 123.102 634.466 141.58ZM671.352 128.095C669.965 139.179 662.825 147.409 655.41 146.488C647.999 145.556 643.121 135.829 644.508 124.745C645.905 113.665 653.034 105.432 660.446 106.364C667.861 107.285 672.738 117.012 671.352 128.095ZM701.071 117.21C707.954 120.107 709.998 130.789 705.649 141.081C701.289 151.371 692.185 157.364 685.301 154.467C678.415 151.581 676.36 140.896 680.72 130.606C685.08 120.317 694.185 114.324 701.071 117.21Z" fill="#6FCF97"/>
</svg>