<svg width="13" height="13" viewBox="0 0 13 13" fill="none" xmlns="http://www.w3.org/2000/svg">
<path d="M0.875 2.125C0.875 1.79348 1.0067 1.47554 1.24112 1.24112C1.47554 1.0067 1.79348 0.875 2.125 0.875H4.175C4.30612 0.8751 4.43389 0.916435 4.54022 0.993156C4.64656 1.06988 4.72607 1.1781 4.7675 1.3025L5.70375 4.11063C5.75119 4.25334 5.74558 4.40837 5.68795 4.54728C5.63032 4.68619 5.52453 4.79966 5.39 4.86688L3.97938 5.57313C4.67082 7.10346 5.89654 8.32918 7.42687 9.02063L8.13312 7.61C8.20034 7.47547 8.31381 7.36968 8.45272 7.31205C8.59163 7.25442 8.74666 7.24881 8.88937 7.29625L11.6975 8.2325C11.822 8.27397 11.9303 8.35357 12.007 8.46003C12.0838 8.56649 12.125 8.6944 12.125 8.82562V10.875C12.125 11.2065 11.9933 11.5245 11.7589 11.7589C11.5245 11.9933 11.2065 12.125 10.875 12.125H10.25C5.0725 12.125 0.875 7.9275 0.875 2.75V2.125Z" stroke="black" stroke-width="1.25" stroke-linecap="round" stroke-linejoin="round"/>
</svg>
