<svg width="28" height="28" viewBox="0 0 28 28" fill="none" xmlns="http://www.w3.org/2000/svg">
<path d="M20.44 1.4C18.13 1.4 16.24 3.29 16.24 5.6C16.24 6.00796 16.3056 6.39845 16.415 6.7725L10.1587 10.7099C9.44227 10.1422 8.53882 9.79986 7.55994 9.79986C5.24994 9.79986 3.35994 11.6899 3.35994 13.9999C3.35994 16.3099 5.24994 18.1999 7.55994 18.1999C8.54322 18.1999 9.44994 17.8531 10.1674 17.2811L16.4148 21.2185C16.3032 21.5947 16.2398 21.9885 16.2398 22.3997C16.2398 24.7097 18.1298 26.5998 20.4398 26.5998C22.7498 26.5998 24.6398 24.7097 24.6398 22.3997C24.6398 20.0898 22.7498 18.1997 20.4398 18.1997C19.1404 18.1997 17.9745 18.7969 17.2024 19.731L11.2611 15.986C11.5816 15.3932 11.7599 14.7173 11.7599 13.9998C11.7599 13.2812 11.5739 12.6063 11.2524 12.0135C13.22 10.76 15.2194 9.51317 17.2024 8.26849C17.9745 9.20254 19.1405 9.79975 20.4397 9.79975C22.7497 9.79975 24.6397 7.90975 24.6397 5.59975C24.6397 3.28975 22.7497 1.39975 20.4397 1.39975L20.44 1.4ZM20.44 3.08C21.8422 3.08 22.96 4.19782 22.96 5.6C22.96 7.00219 21.8422 8.12 20.44 8.12C19.0378 8.12 17.92 7.00219 17.92 5.6C17.92 4.19782 19.0378 3.08 20.44 3.08ZM7.56 11.48C8.96218 11.48 10.08 12.5978 10.08 14C10.08 15.4022 8.96218 16.52 7.56 16.52C6.15781 16.52 5.04 15.4022 5.04 14C5.04 12.5978 6.15781 11.48 7.56 11.48ZM20.44 19.88C21.8422 19.88 22.96 20.9978 22.96 22.4C22.96 23.8022 21.8422 24.92 20.44 24.92C19.0378 24.92 17.92 23.8022 17.92 22.4C17.92 20.9978 19.0378 19.88 20.44 19.88Z" fill="black"/>
</svg>