<svg width="12" height="14" viewBox="0 0 12 14" fill="none" xmlns="http://www.w3.org/2000/svg">
<path d="M9.2202 0.699955C8.0652 0.699955 7.1202 1.64496 7.1202 2.79996C7.1202 3.00394 7.15302 3.19918 7.2077 3.38621L4.07954 5.35489C3.72134 5.07106 3.26962 4.89989 2.78018 4.89989C1.62518 4.89989 0.680176 5.84489 0.680176 6.99989C0.680176 8.15489 1.62518 9.09988 2.78018 9.09988C3.27181 9.09988 3.72518 8.92652 4.08393 8.64052L7.20761 10.6092C7.15182 10.7973 7.12011 10.9942 7.12011 11.1998C7.12011 12.3548 8.06511 13.2998 9.22011 13.2998C10.3751 13.2998 11.3201 12.3548 11.3201 11.1998C11.3201 10.0448 10.3751 9.09983 9.22011 9.09983C8.57042 9.09983 7.98745 9.39842 7.60143 9.86546L4.63077 7.99296C4.791 7.69655 4.88013 7.35859 4.88013 6.99983C4.88013 6.64053 4.78717 6.30311 4.62638 6.0067C5.61021 5.37997 6.6099 4.75654 7.60138 4.1342C7.98748 4.60122 8.57045 4.89983 9.22006 4.89983C10.3751 4.89983 11.3201 3.95483 11.3201 2.79983C11.3201 1.64483 10.3751 0.699829 9.22006 0.699829L9.2202 0.699955ZM9.2202 1.53996C9.9213 1.53996 10.4802 2.09886 10.4802 2.79996C10.4802 3.50105 9.9213 4.05996 9.2202 4.05996C8.51911 4.05996 7.9602 3.50105 7.9602 2.79996C7.9602 2.09886 8.51911 1.53996 9.2202 1.53996ZM2.7802 5.73995C3.4813 5.73995 4.0402 6.29886 4.0402 6.99996C4.0402 7.70105 3.4813 8.25996 2.7802 8.25996C2.07911 8.25996 1.5202 7.70105 1.5202 6.99996C1.5202 6.29886 2.07911 5.73995 2.7802 5.73995ZM9.2202 9.93995C9.9213 9.93995 10.4802 10.4989 10.4802 11.2C10.4802 11.901 9.9213 12.46 9.2202 12.46C8.51911 12.46 7.9602 11.901 7.9602 11.2C7.9602 10.4989 8.51911 9.93995 9.2202 9.93995Z" fill="black" fill-opacity="0.65"/>
</svg>