<svg width="234" height="213" viewBox="0 0 234 213" fill="none" xmlns="http://www.w3.org/2000/svg">
<path d="M0 3C0 1.34315 1.34315 0 3 0H231C232.657 0 234 1.34315 234 3V213H0V3Z" fill="#FFC6C0"/>
<path d="M117 192C166.153 192 206 152.153 206 103C206 53.8467 166.153 14 117 14C67.8467 14 28 53.8467 28 103C28 152.153 67.8467 192 117 192Z" fill="#FFC6C0"/>
<path d="M117 199.378C166.989 199.378 207.513 190.158 207.513 178.783C207.513 167.409 166.989 158.189 117 158.189C67.0111 158.189 26.4871 167.409 26.4871 178.783C26.4871 190.158 67.0111 199.378 117 199.378Z" fill="#A6A6A6"/>
<path d="M117 123.132C155.507 123.132 186.723 117.147 186.723 109.764C186.723 102.381 155.507 96.3962 117 96.3962C78.4932 96.3962 47.2773 102.381 47.2773 109.764C47.2773 117.147 78.4932 123.132 117 123.132Z" fill="#333333"/>
<path d="M90.7983 177.262C67.3112 166.501 47.2773 135.538 47.2773 109.711C47.2773 117.098 78.4896 123.061 117 123.061C155.51 123.061 186.723 117.08 186.723 109.711C186.723 135.521 166.689 166.501 143.202 177.262C125.911 180.777 108.089 180.777 90.7983 177.262Z" fill="white"/>
<path d="M161.705 124.102C162.185 123.541 162.906 123.123 163.075 122.055C163.116 121.912 163.116 121.761 163.075 121.619C162.986 121.452 162.846 121.318 162.675 121.236C160.779 120.088 159.4 120.132 158.51 118.032C157.62 115.932 156.792 113.965 155.938 111.936C155.626 110.866 154.941 109.943 154.006 109.337C151.683 108.215 149.556 111.304 147.999 108.91C146.913 107.201 149.2 102.68 148.301 101.558L151.666 105.67C151.326 104.403 151.379 103.062 151.817 101.825C152.378 100.65 154.015 99.9028 155.03 100.73C155.537 101.14 155.92 101.914 156.596 101.754L156.97 97.7935C156.984 97.337 157.094 96.8885 157.29 96.4763C157.94 95.3104 159.613 95.3727 160.93 95.5863L160.61 89.9081C160.539 88.7155 160.717 87.158 161.883 86.8821C162.773 86.6774 163.511 87.3449 164.126 87.959C163.743 87.5763 164.037 84.399 164.126 83.7938C164.304 81.6934 164.766 82.9038 165.968 81.8714C167.837 80.1982 165.265 77.8931 164.045 76.8251C162.472 75.5479 161.39 73.7645 160.984 71.7788C160.862 71.3154 160.857 70.8291 160.968 70.3632C161.08 69.8973 161.306 69.4663 161.625 69.1088C162.443 68.3434 163.716 68.4858 164.829 68.3434C165.941 68.201 167.232 67.2843 166.84 66.2341C166.66 65.8831 166.401 65.5786 166.084 65.3441C165.354 64.6944 163.262 62.6741 163.467 61.5705C163.672 60.4669 165.906 59.9329 166.92 59.6036L160.957 56.809L165.407 49.689C161.847 51.2643 157.824 49.689 157.006 45.6929C156.667 44.0108 157.006 42.2308 156.605 40.5665C155.48 41.8357 153.959 42.6859 152.289 42.9784C152.36 39.7803 152.315 36.5882 152.155 33.402L149.627 35.9919C148.186 34.4611 148.648 33.1439 148.399 31.355C148.195 29.8776 146.895 28.5337 145.916 27.4034C145.76 27.1676 145.552 26.9705 145.309 26.8271C145.065 26.6837 144.792 26.5977 144.51 26.5757C143.958 26.6202 143.575 27.1275 143.264 27.5814C141.518 30.1931 139.939 32.9131 138.538 35.7249C137.523 37.7719 136.758 41.7324 135.165 43.3344C133.065 45.4348 132.246 43.5925 129.825 42.4444C128.712 41.9104 122.251 41.3586 122.002 41.0293C118.381 36.0937 113.956 31.8032 108.91 28.3379C105.932 31.7057 104.367 36.092 104.54 40.5843C104.682 45.15 107.139 48.71 106.979 53.249C107.004 53.7349 106.887 54.2177 106.64 54.6374C106.292 55.0369 105.818 55.3066 105.297 55.4028C103.232 55.9724 100.722 56.2928 99.6717 58.1351L102.529 58.233C102.819 58.2139 103.108 58.2854 103.356 58.4377C103.997 58.9361 103.356 59.9418 102.716 60.4402C100.37 62.2885 97.8791 63.9434 95.2662 65.3886C96.1713 65.7424 97.1466 65.8795 98.1142 65.7891C98.4212 66.337 98.5287 66.9745 98.4183 67.5928C98.308 68.2111 97.9866 68.7721 97.509 69.18C95.7824 70.8354 93.6108 70.2391 92.258 72.3929C93.0323 73.3452 95.0793 72.028 95.64 73.1138C95.7068 73.3546 95.715 73.6079 95.6639 73.8525C95.6128 74.0972 95.5039 74.326 95.3463 74.52L92.8009 78.8098C93.6061 78.6042 94.4444 78.5619 95.2662 78.6852C95.6738 78.7566 96.0517 78.9454 96.3537 79.2283C96.6556 79.5113 96.8684 79.8762 96.9661 80.2783C97.7315 85.289 88.698 92.2132 98.2744 92.1064C98.4168 95.7643 92.9344 101.959 91.1544 105.261C88.1877 110.666 85.4465 116.178 82.9308 121.797C82.6014 122.376 82.441 123.036 82.468 123.701C82.702 124.566 83.2431 125.316 83.9899 125.811C89.6116 130.639 94.8792 135.865 99.7518 141.448C102.012 144.029 105.492 147.153 106.916 150.286C108.26 153.24 107.005 156.952 111.251 157.45C114.989 157.886 118.718 158.189 122.545 158.928C123.542 159.114 124.85 159.168 125.277 158.242C125.427 157.841 125.458 157.406 125.366 156.987L124.743 151.443C125.738 151.604 126.665 152.049 127.413 152.724C127.446 150.268 126.929 147.835 125.9 145.604C124.85 143.344 123.23 141.154 123.426 138.644H125.402C125.962 136.989 124.378 135.467 123.097 134.275C119.786 131.195 117.703 127.003 114.579 123.719C117.685 123.719 120.809 123.675 123.898 123.603C126.63 123.55 135.939 123.256 135.939 123.256C136.829 123.559 139.33 124.004 139.882 124.645C140.107 124.943 140.257 125.291 140.318 125.659C140.647 127.092 140.585 128.668 141.413 129.878C142.108 130.737 143.008 131.407 144.029 131.827C146.904 133.287 150.713 135.076 154.06 134.426C157.246 133.812 156.472 131.071 158.972 130.074C160.245 129.566 161.936 129.851 163.147 129.13C162.817 127.742 161.447 126.879 161.304 125.446C161.268 125.206 161.285 124.961 161.354 124.729C161.423 124.497 161.543 124.283 161.705 124.102Z" fill="#9E7343"/>
<path d="M124.173 90.8782C124.248 90.4577 124.411 90.0579 124.651 89.7054C124.892 89.3528 125.205 89.0555 125.57 88.8332C125.934 88.6109 126.342 88.4688 126.766 88.4163C127.189 88.3638 127.619 88.402 128.027 88.5286C129.958 89.2495 130.519 91.7059 130.484 93.7707C130.421 96.6187 129.745 99.4311 129.647 102.279C129.549 105.127 130.128 108.198 132.139 110.218C134.15 112.238 137.888 112.656 139.748 110.494C140.79 109.274 141.039 107.583 141.208 105.99C141.648 103.287 141.554 100.523 140.932 97.8558C140.309 95.7465 139.081 93.7974 138.876 91.6258C138.672 89.4542 140.14 86.802 142.338 86.98C141.105 85.5474 139.556 84.4212 137.813 83.6901C136.07 82.959 134.181 82.6432 132.295 82.7675C130.409 82.8918 128.578 83.4528 126.946 84.4063C125.314 85.3598 123.926 86.6796 122.892 88.2616" fill="#FFC6C0"/>
<path d="M101.087 91.43C103.229 90.0217 105.569 88.9389 108.029 88.2171C107.379 91.341 106.738 94.6696 107.842 97.6689C108.011 98.1317 108.314 98.639 108.803 98.6657C109.293 98.6924 109.569 98.3186 109.844 97.9893C110.72 96.9551 111.701 96.0154 112.773 95.1858C113.12 94.9188 113.574 94.6429 113.965 94.8387C114.203 94.9913 114.373 95.2308 114.437 95.5062C115.158 97.5087 114.935 100.125 116.706 101.309C119.971 98.2956 122.706 94.7545 124.796 90.8337C125.418 89.4594 126.204 88.1654 127.137 86.98C130.172 83.6336 135.672 83.7938 139.651 85.9209C141.199 86.6708 142.622 87.6555 143.869 88.8401C145.088 90.095 145.507 91.7415 146.148 93.3702C146.326 93.8152 146.735 94.3581 147.153 94.1267L148.221 90.4421C148.237 90.235 148.299 90.0339 148.402 89.8535C148.505 89.6731 148.647 89.5177 148.817 89.3985C148.987 89.2794 149.182 89.1995 149.386 89.1645C149.591 89.1294 149.801 89.1403 150.001 89.1961C151.427 89.2939 152.847 89.4632 154.255 89.7034L154.638 84.9508C154.593 84.684 154.604 84.4107 154.671 84.1485C154.738 83.8862 154.859 83.641 155.027 83.4287C155.195 83.2164 155.405 83.0418 155.645 82.9161C155.885 82.7904 156.148 82.7165 156.418 82.6991L159.222 82.0227C159.498 81.9604 159.818 81.8536 159.916 81.5866C159.937 81.4615 159.932 81.3332 159.899 81.2104C159.867 81.0876 159.809 80.9731 159.729 80.8746C158.244 78.4927 156.605 76.2096 154.825 74.0394C153.784 72.5924 152.411 71.4172 150.82 70.6129C149.734 70.1501 138.458 70.1323 138.912 71.6542C138.182 69.2423 141.653 67.4267 141.751 64.9169C141.813 63.3327 140.541 62.0689 139.49 60.8852C137.124 58.1883 135.526 54.9056 134.862 51.38C132.59 53.1105 130.602 55.1855 128.971 57.5299L126.39 55.7499C126.247 55.6218 126.079 55.5261 125.896 55.4692C125.713 55.4124 125.52 55.3958 125.33 55.4206C125.055 55.5401 124.836 55.7596 124.716 56.0347C123.639 57.9927 124.031 60.3957 124.538 62.5584C123.552 61.7735 122.434 61.1707 121.236 60.7784C120.551 60.5559 119.572 60.547 119.341 61.2323C119.109 61.9176 119.732 62.3893 120.231 62.7809C122.057 64.1894 123.593 65.9396 124.752 67.934C126.247 70.5061 125.838 73.3897 122.411 73.3986C119.919 73.3986 117.49 72.4196 114.971 72.8112C109.925 73.63 104.175 77.8575 101.87 82.3609C101.155 83.7507 100.697 85.2582 100.517 86.8109C100.491 87.2559 100.909 91.5101 101.087 91.43Z" fill="#DBA258"/>
<path d="M122.479 73.534C123.791 73.5086 124.831 72.2649 124.802 70.7562C124.772 69.2475 123.685 68.045 122.373 68.0704C121.061 68.0958 120.021 69.3395 120.05 70.8482C120.079 72.357 121.167 73.5594 122.479 73.534Z" fill="#333333"/>
<path d="M142.726 71.905C144.038 71.8795 145.078 70.6359 145.049 69.1271C145.02 67.6184 143.933 66.416 142.62 66.4414C141.308 66.4668 140.268 67.7105 140.298 69.2192C140.327 70.7279 141.414 71.9304 142.726 71.905Z" fill="#333333"/>
<path d="M129.825 77.6439C129.644 77.9106 129.525 78.2148 129.478 78.5339C129.38 79.4773 130.128 80.3139 130.813 80.928C131.089 81.2357 131.429 81.4788 131.81 81.64C132.1 81.7177 132.4 81.7478 132.7 81.729H134.409C134.901 81.7654 135.395 81.7111 135.868 81.5688C136.639 81.1963 137.281 80.6011 137.71 79.86C137.849 79.6881 137.96 79.496 138.04 79.2904C138.106 79.0776 138.125 78.8526 138.093 78.6318C137.844 76.7806 135.779 76.5225 134.311 76.2288C132.7 75.9262 130.822 76.1487 129.825 77.6439Z" fill="#333333"/>
</svg>
