<svg width="76" height="76" viewBox="0 0 76 76" fill="none" xmlns="http://www.w3.org/2000/svg">
<g clip-path="url(#clip0_11912_269336)">
<path d="M38 77.5C59.8152 77.5 77.5 59.8152 77.5 38C77.5 16.1848 59.8152 -1.5 38 -1.5C16.1848 -1.5 -1.5 16.1848 -1.5 38C-1.5 59.8152 16.1848 77.5 38 77.5Z" fill="#9DD87D" stroke="white" stroke-width="3"/>
<path d="M62.2783 49.0199C61.8033 50.3879 60.7583 51.4747 59.5651 52.3487C57.5017 53.8497 55.9133 53.5305 54.2223 53.3633C53.4129 53.2835 52.9303 52.6223 52.1665 52.3563C53.6977 50.6436 55.4159 49.1077 57.2889 47.7773" fill="#DBA258"/>
<path d="M54.9328 31.2626C54.9024 30.5634 54.8986 29.8642 54.9328 29.165C54.8978 28.7329 55.0162 28.3024 55.2672 27.949C55.6472 27.531 56.297 27.5386 56.8632 27.569C63.0154 28.101 67.5678 32.737 68.457 38.8322C69.122 43.3922 67.792 48.0586 65.6336 52.1322C65.322 52.7212 64.9572 53.333 64.3568 53.6256C63.9097 53.8091 63.4226 53.8732 62.9432 53.8118C60.534 53.637 58.292 52.4248 56.4832 50.825C56.3004 50.6872 56.1671 50.4939 56.1032 50.274C56.0837 50.0959 56.1085 49.9158 56.1754 49.7496C56.5554 48.4804 57.0532 47.4354 56.7188 46.151C56.3388 44.631 55.8714 43.168 55.4192 41.686C54.5262 38.7524 53.637 35.6706 54.2032 32.566" fill="#66AF37"/>
<path d="M46.5158 64.0414C48.4994 63.8096 50.2512 62.7684 51.756 61.4574C54.3438 59.2078 54.3362 57.0608 54.5642 54.8188C54.6744 53.7472 53.9068 52.9188 53.751 51.87C51.0348 53.3685 48.4934 55.1643 46.1738 57.2242" fill="#DBA258"/>
<path d="M47.6711 57.2849C45.1669 58.7175 42.2105 59.2191 39.3111 59.1051C36.4117 58.9911 33.6111 58.2881 30.8485 57.4445C29.6401 57.0645 28.3785 56.6351 27.5387 55.6851C27.4662 55.6268 27.4177 55.5439 27.4023 55.4521C27.3869 55.3604 27.4056 55.2662 27.4551 55.1873C28.3291 55.7915 30.3583 55.0771 31.4261 54.9973C33.2463 54.8605 35.0741 54.8605 36.8981 54.7579C40.419 54.5636 43.9112 54.0136 47.3215 53.1163C50.2703 52.3373 53.2457 51.2467 55.4497 49.1377C56.3541 48.2751 57.1369 47.1769 57.2015 45.9305C57.2851 44.3383 56.1717 42.9171 54.8873 41.9747C53.6029 41.0323 52.1019 40.4091 50.8441 39.4363C49.5863 38.4635 48.5375 36.9663 48.7427 35.3855C48.8947 34.1923 49.7345 33.0067 49.3013 31.8819C49.1418 31.5332 48.9218 31.2154 48.6515 30.9433C47.6141 29.7691 46.4931 28.6253 45.1023 27.9033C43.7115 27.1813 41.9977 26.9305 40.5765 27.5879C39.1553 28.2453 38.2965 29.5981 36.9399 30.3201C36.2882 30.6646 35.5622 30.8446 34.8252 30.8446C34.0881 30.8446 33.3621 30.6646 32.7105 30.3201C31.5401 29.6399 30.5863 28.4353 29.2373 28.2225C27.8883 28.0097 26.5773 28.9217 25.7109 30.0009C24.8445 31.0801 24.2593 32.3683 23.3169 33.3753C20.5163 36.3659 17.4573 31.8895 16.0969 35.7921C15.3369 37.9923 14.0297 41.2261 13.7105 43.2933C13.3761 45.4897 13.1025 50.8629 13.8473 53.4051C16.1273 61.2331 19.1065 64.2845 25.6273 66.8571C38.7107 72.0137 49.9473 66.8571 49.9473 66.8571C49.9473 66.8571 48.8529 61.6435 48.7617 60.9747C48.7351 60.6821 47.9599 57.1215 47.6711 57.2849Z" fill="#66AF37"/>
<path d="M36.7727 32.1025C41.6144 32.1025 45.5393 26.8692 45.5393 20.4137C45.5393 13.9581 41.6144 8.72485 36.7727 8.72485C31.931 8.72485 28.0061 13.9581 28.0061 20.4137C28.0061 26.8692 31.931 32.1025 36.7727 32.1025Z" fill="#9E7343"/>
<path d="M25.5323 35.3855C26.0088 35.3824 26.4801 35.2856 26.9193 35.1005C27.2666 34.9071 27.5684 34.6416 27.8043 34.3217C28.0403 34.0018 28.205 33.635 28.2873 33.2461C28.4346 32.6393 28.4656 32.0101 28.3785 31.3917C28.3177 30.8445 28.7927 30.3353 29.2145 30.0579C29.7161 29.7235 30.4229 29.4499 30.8675 29.0395C30.4141 28.3922 30.0199 27.7055 29.6895 26.9875C29.3285 26.1781 29.2107 24.8633 29.2107 23.1533C29.1124 21.5692 28.931 19.9913 28.6673 18.4261C27.9795 18.4261 26.8509 18.8973 26.1441 18.9011C25.1713 18.9011 22.6519 22.4693 21.6829 22.4769C21.6829 22.4769 18.1299 24.2211 15.6029 24.2211C15.1383 24.2211 14.6927 24.4057 14.3642 24.7342C14.0356 25.0628 13.8511 25.5083 13.8511 25.9729V27.5689H13.8777C14.0487 30.1909 20.2009 31.8591 17.2179 32.6989C14.8429 38.4522 14.1057 41.5758 14.1057 41.5758C15.2911 42.4458 16.6407 43.0663 18.0729 43.3997C20.2009 43.8253 22.4847 43.3237 22.4847 43.2135C22.4847 43.2135 22.4847 42.4535 22.4505 41.9671C22.3859 40.9815 22.3859 39.9926 22.4505 39.0069C22.5379 37.9087 22.7051 36.0087 23.9705 35.5869C24.4792 35.4479 25.0049 35.3801 25.5323 35.3855Z" fill="#DBA258"/>
<path d="M28.8991 21.3332C29.0631 22.1452 29.3542 22.9262 29.7617 23.6474C30.6471 22.2718 30.7573 20.5428 30.6965 18.9088C30.6623 17.9816 30.5749 17.0506 30.5787 16.1196C30.5787 15.39 30.5141 14.4096 30.9587 13.7826C31.1518 13.5342 31.4016 13.3355 31.6872 13.2033C31.9728 13.0711 32.2859 13.0092 32.6003 13.0226C33.2318 13.0505 33.8527 13.1948 34.4319 13.4482C35.2907 13.7712 36.1343 14.136 36.9779 14.5084C37.7151 14.8314 41.9179 16.929 43.4379 17.195C44.6045 17.4002 45.8205 17.575 46.9681 17.2634C47.4317 17.1342 47.9333 16.853 48.0131 16.378C48.0663 16.0512 47.9143 15.6484 48.0777 15.3444C48.2411 15.0404 48.6439 14.9226 48.8719 14.706C49.0027 14.6008 49.103 14.4625 49.1624 14.3055C49.2219 14.1486 49.2383 13.9785 49.2101 13.813C49.1113 13.452 48.7313 13.2582 48.3931 13.1024C47.0631 12.4906 45.7749 11.8028 44.5019 11.0846C43.2289 10.3664 42.0851 9.56464 40.7741 9.05164C38.5736 8.15222 36.108 8.15222 33.9075 9.05164C32.1329 9.76224 30.8181 10.9516 29.6135 12.3842C29.0229 13.0902 28.553 13.8888 28.2227 14.7478C28.0582 15.1756 27.9311 15.6168 27.8427 16.0664C27.8009 16.264 27.5463 17.2064 27.6831 17.3508C26.8103 16.3818 25.7452 15.6053 24.5557 15.0708C23.4602 14.693 22.3213 14.4555 21.1661 14.364C20.7586 14.3643 20.3515 14.3859 19.9463 14.4286C10.8263 15.0138 8.92627 24.776 8.92627 28.6102C8.92627 30.8902 8.92627 32.9232 8.92627 34.2342C8.93325 34.6398 9.09927 35.0264 9.38856 35.3107C9.67785 35.595 10.0673 35.7543 10.4729 35.7542H14.8961C15.592 35.7547 16.2813 35.6181 16.9244 35.3521C17.5675 35.0861 18.1519 34.696 18.6442 34.2041C19.1365 33.7121 19.527 33.128 19.7935 32.4851C20.0599 31.8421 20.1971 31.153 20.1971 30.457V28.4012H20.1743C20.1743 28.0242 20.2486 27.6508 20.393 27.3024C20.5374 26.9541 20.7491 26.6377 21.0159 26.3712C21.2827 26.1047 21.5995 25.8935 21.948 25.7495C22.2965 25.6056 22.67 25.5317 23.0471 25.5322H23.1573C25.1143 25.5322 27.2119 24.8102 28.4089 23.2294C28.722 22.8317 28.9532 22.3757 29.0891 21.888C29.2221 21.5688 29.3361 21.2458 29.4387 20.9228C30.061 19.146 30.4617 17.2992 30.6319 15.4242C30.6319 14.9552 30.6906 14.4879 30.8067 14.0334" fill="black"/>
<path d="M28.405 31.54H25.9768C25.9768 31.54 26.5354 32.9878 28.4354 32.8358L28.405 31.54Z" fill="#FFFEFD"/>
<path d="M36.8183 28.7585C37.316 28.7696 37.8099 28.6685 38.2632 28.4626C38.7164 28.2567 39.1175 27.9513 39.4365 27.5691C38.9957 27.5045 38.5473 27.5159 38.0951 27.4855C37.6429 27.4551 37.1337 27.4057 36.6587 27.3449C36.1837 27.2841 35.7201 27.2157 35.2261 27.1321C34.7593 27.0717 34.2963 26.9855 33.8391 26.8737C33.8391 27.0675 34.7435 28.7585 36.8183 28.7585Z" fill="#FFFEFD"/>
<path d="M25.0686 27.4322C25.2995 27.4322 25.4866 27.1175 25.4866 26.7292C25.4866 26.341 25.2995 26.0262 25.0686 26.0262C24.8378 26.0262 24.6506 26.341 24.6506 26.7292C24.6506 27.1175 24.8378 27.4322 25.0686 27.4322Z" fill="black"/>
<path d="M34.0594 21.2306C34.2902 21.2306 34.4774 20.9158 34.4774 20.5276C34.4774 20.1393 34.2902 19.8246 34.0594 19.8246C33.8285 19.8246 33.6414 20.1393 33.6414 20.5276C33.6414 20.9158 33.8285 21.2306 34.0594 21.2306Z" fill="black"/>
<path d="M41.1084 21.2306C41.3393 21.2306 41.5264 20.9158 41.5264 20.5276C41.5264 20.1393 41.3393 19.8246 41.1084 19.8246C40.8776 19.8246 40.6904 20.1393 40.6904 20.5276C40.6904 20.9158 40.8776 21.2306 41.1084 21.2306Z" fill="black"/>
<path d="M37.7644 25.2282L37.0044 25.1332C37.0918 24.3732 38.1064 24.2744 38.9272 24.1908C39.1136 24.1775 39.2989 24.1521 39.482 24.1148C39.5666 24.0961 39.6443 24.0539 39.7062 23.9932C39.7062 23.9932 39.6796 23.9514 39.6644 23.921L39.3718 23.2484C38.8512 22.0704 37.9848 20.0944 37.7492 19.4484L38.4636 19.1938C38.6916 19.8322 39.6036 21.8538 40.0672 22.9634L40.3636 23.6398C40.4214 23.7587 40.455 23.8879 40.4624 24.0198C40.4452 24.2225 40.3612 24.4138 40.2237 24.5637C40.0862 24.7136 39.9029 24.8137 39.7024 24.8482C39.4727 24.9029 39.2388 24.9385 39.0032 24.9546C38.6992 24.9774 37.8708 25.08 37.7644 25.2282Z" fill="black"/>
<path d="M45.9041 34.3634C44.6868 34.0014 43.3795 34.0935 42.225 34.6226C41.0704 35.1516 40.1471 36.0816 39.6265 37.24C39.4025 37.6723 39.3213 38.1646 39.3947 38.646C39.4385 38.8843 39.5592 39.1018 39.7383 39.2651C39.9174 39.4285 40.1451 39.5286 40.3865 39.5504C40.9679 39.5504 41.3669 38.9918 41.7849 38.5852C42.2188 38.1773 42.7518 37.8898 43.331 37.7512C43.9101 37.6126 44.5155 37.6276 45.0871 37.7948" fill="#FFC6C0"/>
<path d="M62.5709 31.8402C62.5554 31.7856 62.5253 31.7362 62.4838 31.6975C62.4423 31.6587 62.391 31.632 62.3355 31.6203C62.2799 31.6086 62.2222 31.6122 62.1686 31.6309C62.115 31.6496 62.0675 31.6825 62.0313 31.7262C61.0965 32.8662 58.5657 35.7998 57.5321 36.0734C56.5973 36.3204 57.4789 30.704 56.4643 30.2176C55.9133 29.9554 53.9373 34.9562 50.2361 34.7016C48.6256 34.5751 47.1271 33.8286 46.0561 32.6192C46.0252 32.5839 45.9819 32.5618 45.9352 32.5576C45.8885 32.5533 45.842 32.5672 45.8053 32.5964C45.1821 33.0562 42.7653 35.0246 43.5025 37.3692C43.8825 38.5548 44.7033 39.5808 45.5355 40.4776C45.9573 40.9298 46.4057 41.363 46.8655 41.7772C47.1011 41.9862 48.0359 42.465 47.5229 42.8108C47.3406 42.9057 47.1309 42.9339 46.9301 42.8906C46.0045 42.7846 45.1044 42.5185 44.2701 42.104C44.1864 42.0456 44.0914 42.0056 43.9912 41.9866C43.891 41.9676 43.7879 41.9701 43.6887 41.9938C43.5907 42.0413 43.5079 42.1149 43.4493 42.2066C43.2248 42.5344 43.0966 42.9185 43.0791 43.3154C43.0617 43.7123 43.1557 44.1062 43.3505 44.4524C43.3639 44.4789 43.3711 44.5082 43.3715 44.5379C43.3718 44.5677 43.3653 44.5971 43.3524 44.6239C43.3396 44.6507 43.3207 44.6742 43.2973 44.6926C43.2739 44.711 43.2466 44.7237 43.2175 44.7298C41.9863 44.9654 40.7171 45.0224 39.4669 45.2504C39.1707 44.5995 38.7471 44.0144 38.2213 43.5298C37.6954 43.0451 37.0778 42.6706 36.4049 42.4284C35.7321 42.1862 35.0175 42.0811 34.3034 42.1193C33.5892 42.1576 32.89 42.3384 32.2469 42.6512C30.2215 43.6354 29.0625 45.7558 27.5273 47.3062C27.2537 47.5836 26.8775 47.8724 26.5165 47.7318C26.3928 47.6633 26.286 47.568 26.2038 47.453C26.1216 47.3379 26.0662 47.206 26.0415 47.0668C25.8294 46.1469 25.7198 45.2064 25.7147 44.2624C25.7096 43.3151 25.4652 42.3844 25.0041 41.5568C24.7367 41.1419 24.361 40.8079 23.9177 40.591C23.4744 40.374 22.9802 40.2822 22.4885 40.3256C22.4391 40.9754 22.5227 43.8026 22.5265 44.6006C22.5265 46.1738 22.5949 47.747 22.7431 49.3164C22.8989 51.015 23.9439 52.6908 25.0801 53.9372C27.4361 56.525 30.8865 58.2844 34.2913 58.9912C39.0603 59.983 43.0313 59.6752 47.0441 57.9728C49.7535 56.8328 52.5161 54.9328 55.6511 51.9422C63.1333 44.84 64.0073 36.5484 62.5709 31.8402Z" fill="white"/>
<path d="M34.5801 57.1672L34.5459 56.4072C35.4848 56.3087 36.3848 55.9797 37.1658 55.4493C37.9468 54.9189 38.5845 54.2037 39.0223 53.3672C40.6145 50.445 39.1705 47.1998 39.1553 47.1656L39.8469 46.8502C39.9153 46.9984 41.4619 50.4792 39.6911 53.732C39.1924 54.6848 38.4638 55.498 37.5713 56.0978C36.6788 56.6977 35.6506 57.0653 34.5801 57.1672Z" fill="black"/>
<path d="M48.9249 54.7201C47.8999 54.6167 46.9106 54.2874 46.0281 53.7558C45.1457 53.2242 44.3921 52.5036 43.8215 51.6459C43.6826 51.4554 43.589 51.2358 43.5479 51.0037C43.5318 50.7279 43.5923 50.453 43.7227 50.2095C44.1283 49.2909 44.5982 48.402 45.1287 47.5494C45.3035 47.2568 45.4897 46.949 45.6911 46.5994C44.6045 46.348 43.631 45.7457 42.9209 44.8856L43.4909 44.3802C44.1976 45.2519 45.2183 45.8114 46.3333 45.9382L46.8995 46.0028L46.6221 46.5007C46.3105 47.0555 46.0331 47.5153 45.7823 47.9409C45.2724 48.7496 44.8215 49.5941 44.4333 50.4678C44.3578 50.5991 44.3135 50.7461 44.3041 50.8973C44.3323 51.0141 44.384 51.124 44.4561 51.2202C44.9665 51.9848 45.6403 52.6265 46.4289 53.099C47.2175 53.5715 48.1012 53.863 49.0161 53.9524L48.9249 54.7201Z" fill="black"/>
<path d="M49.8863 47.5684L49.2061 47.234C49.7023 46.2248 50.0064 45.1321 50.1029 44.0116C49.2279 43.4812 48.2229 43.2037 47.1997 43.2098V42.4498C48.4519 42.4345 49.6791 42.8003 50.7185 43.4986L50.8971 43.6202V43.8368C50.8112 45.1354 50.4676 46.404 49.8863 47.5684Z" fill="black"/>
<path d="M54.7973 39.2181C55.1514 38.9153 55.2925 38.4992 55.1125 38.2886C54.9325 38.0781 54.4995 38.1528 54.1453 38.4556C53.7912 38.7583 53.6501 39.1745 53.8301 39.385C54.0101 39.5956 54.4431 39.5208 54.7973 39.2181Z" fill="black"/>
<path d="M45.6228 33.687C45.5433 33.6473 45.459 33.6179 45.372 33.5996C45.2531 33.5948 45.1345 33.615 45.0239 33.6589C44.9133 33.7027 44.8131 33.7693 44.7298 33.8542C44.5614 34.0251 44.3407 34.1348 44.1028 34.1658C44.1151 33.9819 44.1966 33.8095 44.3308 33.6832C44.6317 33.2937 44.9703 32.9348 45.3416 32.6116C45.4708 32.509 45.6076 32.338 45.7938 32.3684C45.8886 32.3968 45.9705 32.4572 46.0256 32.5394L46.341 32.9194C46.4703 33.0863 46.6154 33.2402 46.7742 33.3792C46.7742 33.3792 46.8084 33.4172 46.8008 33.4362C46.7967 33.4476 46.7886 33.4571 46.778 33.4628C46.6923 33.5433 46.5965 33.6123 46.493 33.668C46.3962 33.7078 46.2934 33.7309 46.189 33.7364C45.9989 33.7619 45.8056 33.7451 45.6228 33.687Z" fill="#9E7343"/>
<path d="M57.0266 28.0099C56.4148 31.6959 53.9866 34.8499 50.4032 34.8499C46.8198 34.8499 43.852 31.6313 43.852 27.8959C43.8315 26.775 43.9116 25.6546 44.0914 24.5481C44.5778 22.2681 47.8914 21.1281 50.3196 21.1281C53.2456 21.1281 56.2704 22.7355 57.0684 25.5209C57.2088 26.3459 57.1947 27.1899 57.0266 28.0099Z" fill="#DBA258"/>
<path d="M57.1102 27.759C57.1102 27.759 55.9208 26.7102 55.8524 26.6646C53.5306 25.2472 50.6996 25.0344 48.0358 25.1142C46.5842 25.156 45.087 25.3346 43.7076 24.871C43.5556 24.8178 43.3808 24.738 43.3276 24.5784C43.3427 24.2384 43.4433 23.9077 43.6202 23.617C43.7887 23.2895 43.9805 22.9746 44.194 22.6746C44.6242 22.0757 45.1358 21.5398 45.714 21.0824C46.8659 20.1549 48.2685 19.5926 49.742 19.4674H49.7838C50.0118 19.4674 50.2398 19.4446 50.4678 19.4446C51.6674 19.4058 52.8564 19.6794 53.9182 20.2388C54.2602 20.4402 54.5718 20.9342 54.9556 20.9988C55.5408 21.128 56.24 20.482 56.6314 20.14C57.7068 19.209 58.9114 18.3578 60.3212 18.0994C61.731 17.841 63.3308 18.3046 64.0794 19.5168C64.524 20.2388 64.6342 21.1622 65.2194 21.7968C65.9528 22.591 67.165 22.6404 68.2594 22.6366C67.1194 23.845 65.5994 24.8216 63.9616 24.7722C61.6968 24.7 59.8538 22.8 57.6118 22.534C57.1444 22.4808 56.7492 22.5682 56.7986 23.1002C56.8632 23.769 57.0912 24.3428 57.152 25.118C57.1976 25.6842 57.3268 27.2346 57.1102 27.759Z" fill="black"/>
<path d="M45.9307 28.8306C46.1616 28.8306 46.3487 28.5158 46.3487 28.1276C46.3487 27.7393 46.1616 27.4246 45.9307 27.4246C45.6998 27.4246 45.5127 27.7393 45.5127 28.1276C45.5127 28.5158 45.6998 28.8306 45.9307 28.8306Z" fill="black"/>
<path d="M51.6763 28.8306C51.9072 28.8306 52.0943 28.5158 52.0943 28.1276C52.0943 27.7393 51.9072 27.4246 51.6763 27.4246C51.4454 27.4246 51.2583 27.7393 51.2583 28.1276C51.2583 28.5158 51.4454 28.8306 51.6763 28.8306Z" fill="black"/>
<path d="M48.4651 30.6356C48.1585 30.5549 47.8715 30.4127 47.6215 30.2176C47.4935 30.1266 47.4041 29.9911 47.3707 29.8376C47.3495 29.7211 47.3627 29.6009 47.4087 29.4918C47.7693 28.5275 48.0538 27.5365 48.2599 26.5278L49.0199 26.6646C48.8236 27.6856 48.5466 28.6895 48.1915 29.6666C48.345 29.774 48.516 29.8537 48.6969 29.9022L48.4651 30.6356Z" fill="black"/>
<path d="M50.5135 32.3494C50.9505 32.1366 51.3647 31.8744 51.8093 31.6806C51.8661 31.6469 51.9299 31.6266 51.9957 31.6214C52.0616 31.6161 52.1278 31.626 52.1893 31.6502C52.2544 31.6978 52.3013 31.7661 52.3223 31.844C52.3772 32.0813 52.3509 32.3301 52.2476 32.5506C52.1442 32.7711 51.9698 32.9505 51.7523 33.06C51.3097 33.2692 50.813 33.3356 50.3311 33.25C50.1183 33.2234 49.3279 33.1246 49.3963 32.8168C49.4419 32.6192 50.3273 32.4368 50.5135 32.3494Z" fill="#FFFEFD"/>
</g>
<defs>
<clipPath id="clip0_11912_269336">
<rect width="76" height="76" fill="white"/>
</clipPath>
</defs>
</svg>
