<svg width="19" height="19" viewBox="0 0 19 19" fill="none" xmlns="http://www.w3.org/2000/svg">
<g id="Icon / Check Mark">
<path id="Vector" d="M13.4751 5.50562C13.179 5.51453 12.8977 5.63773 12.6914 5.85C10.9123 7.63273 9.54154 9.1275 7.91172 10.7959L6.25515 9.39464C6.02582 9.18906 5.72226 9.08441 5.41499 9.10519C5.10772 9.12598 4.82124 9.2707 4.62233 9.50598C4.42268 9.74125 4.32768 10.047 4.35812 10.3543C4.3878 10.6608 4.54144 10.9429 4.78265 11.1343L7.25265 13.2243C7.70538 13.608 8.37707 13.5798 8.7964 13.159C10.8463 11.1047 12.3032 9.46656 14.3064 7.45902C14.6411 7.13097 14.7406 6.63074 14.5565 6.19879C14.3732 5.76758 13.9435 5.49222 13.4752 5.50559L13.4751 5.50562Z" fill="#66AF37"/>
</g>
</svg>
