<svg width="101" height="100" viewBox="0 0 101 100" fill="none" xmlns="http://www.w3.org/2000/svg">
<g clip-path="url(#clip0_430_1525)">
<path d="M6.86177 49.2905C-1.87044 65.4094 26.4912 79.1527 49.6471 81.1121C72.8029 83.0714 79.0545 84.2066 86.3247 69.5496C93.595 54.8925 114.438 36.2658 83.4908 19.9372C52.5438 3.60849 53.3098 9.49078 30.5543 13.7791C7.79875 18.0674 15.594 33.1716 6.86177 49.2905Z" fill="#6FCF97" fill-opacity="0.6"/>
<g clip-path="url(#clip1_430_1525)">
<mask id="mask0_430_1525" style="mask-type:luminance" maskUnits="userSpaceOnUse" x="4" y="6" width="85" height="85">
<path d="M88.3 6.94531H4.30005V90.9453H88.3V6.94531Z" fill="white"/>
</mask>
<g mask="url(#mask0_430_1525)">
<path d="M83.8062 7.49135C83.4113 6.9874 82.7226 6.80256 82.1347 7.05467C80.228 7.86107 74.667 9.85194 71.8614 9.39826L71.7439 9.38131C68.0647 8.79343 59.4547 7.41585 55.515 18.6381C55.3387 19.1254 55.1875 19.6208 55.0699 20.1081C54.2132 23.3926 54.5575 25.9715 54.8599 28.2393C55.4396 32.5233 55.935 36.2277 47.7703 44.4849C43.6794 48.6261 40.0423 51.3058 36.8251 53.6661C29.5087 59.0506 24.6703 62.6037 24.5023 76.5561C24.4856 77.774 24.7207 79.1349 25.1826 80.5462C19.5547 81.1846 15.2118 80.3361 12.5742 78.0428C10.3651 76.1192 9.27303 73.0952 9.34029 69.0548C9.34877 68.2736 8.72697 67.6269 7.94575 67.6099H7.9206C7.14786 67.6099 6.51786 68.2314 6.50092 69.0044C6.42545 73.9268 7.83639 77.69 10.7176 80.1848C13.313 82.4361 17.0848 83.587 21.7804 83.587C23.2167 83.587 24.7455 83.4694 26.3416 83.2594C27.904 86.1827 30.4325 88.9967 33.8596 90.7858C34.0611 90.8949 34.2881 90.9455 34.5147 90.9455H56.9931C57.371 90.9455 57.7407 90.7942 58.001 90.517C58.2698 90.2482 58.4126 89.8785 58.4044 89.5006C58.4044 89.3158 58.2783 85.8382 53.9859 84.1667C55.6994 83.2342 57.7492 81.9827 59.6307 80.4288C60.5716 85.2085 60.0759 89.2992 60.0759 89.3497C60.0256 89.7529 60.1513 90.1645 60.4205 90.4669C60.6892 90.7693 61.0756 90.9457 61.4871 90.9457H75.7419C76.523 90.9457 77.1615 90.3072 77.1615 89.5261C77.1615 84.78 72.3651 82.9487 69.0135 82.5036C68.7868 78.8327 69.7947 71.4324 70.3071 68.2404C72.4408 65.3089 78.1275 53.4984 76.078 41.9568C74.2384 31.6164 77.4135 26.1481 83.1256 20.6712C88.0902 15.9333 85.7465 9.97801 83.8062 7.49161V7.49135ZM81.1768 18.6214C74.9608 24.5768 71.2396 30.9105 73.2976 42.4521C75.2298 53.3638 69.5261 64.8045 67.888 66.7449C67.7201 66.9382 67.6192 67.1734 67.577 67.4253C67.4931 67.9292 65.561 79.7649 66.3592 84.0741C66.4767 84.7292 67.0395 85.208 67.7031 85.2332C67.7619 85.2332 72.6928 85.4599 74.0198 88.106L63.0326 88.1062C63.1335 85.9138 63.0999 81.7559 61.8314 77.3794C61.3023 75.5648 60.6135 73.8849 59.7735 72.3816C59.3957 71.6927 58.5302 71.4491 57.8414 71.827C57.1526 72.2049 56.909 73.0703 57.2868 73.7591C57.9002 74.8595 58.4124 76.0692 58.8408 77.3713C56.5981 79.4461 53.8763 81.0589 51.8686 82.0921C53.0026 77.5813 52.5407 73.7594 50.4826 70.685C45.871 63.8138 35.0098 63.5114 34.5562 63.503C33.7666 63.4862 33.1284 64.1078 33.1113 64.889C33.0946 65.6702 33.7162 66.3169 34.4974 66.3339C34.5983 66.3339 44.3506 66.6194 48.139 72.2642C50.1129 75.2127 50.1381 79.2194 48.2314 84.1922C48.1893 84.2931 48.1642 84.3938 48.1475 84.4946V84.5031C48.1307 84.5871 48.1307 84.6795 48.1307 84.7719V84.7886C48.1392 84.9398 48.1645 85.0995 48.2232 85.2422C48.2317 85.2589 48.2399 85.2759 48.2484 85.2925C48.2568 85.3092 48.2568 85.3177 48.265 85.3346C48.2986 85.402 48.3323 85.4607 48.366 85.5195C48.3745 85.5361 48.3826 85.5446 48.3911 85.5616C48.4414 85.6289 48.492 85.6961 48.5507 85.7549C48.5592 85.7634 48.5592 85.7634 48.5675 85.7716C48.6178 85.8219 48.6766 85.8641 48.7438 85.9061C48.7689 85.9228 48.7942 85.9398 48.8193 85.9482C48.8696 85.9819 48.9284 86.007 48.9789 86.0321C48.9957 86.0406 49.0126 86.0489 49.0293 86.0574C49.0378 86.0574 49.046 86.0574 49.0545 86.0659C49.1217 86.091 49.1889 86.108 49.2645 86.1246C49.3066 86.1331 49.3568 86.1331 49.3989 86.1413C49.4242 86.1413 49.4411 86.1498 49.4663 86.1498C52.6247 86.3177 54.1535 87.2585 54.8927 88.1152L34.8846 88.1147C29.6261 85.2082 27.3077 79.6642 27.3413 76.5982C27.4926 64.0571 31.4068 61.1842 38.5049 55.9595C41.7977 53.5319 45.5357 50.7849 49.7862 46.4926C58.9337 37.2442 58.2953 32.4815 57.6737 27.8782C57.5226 26.7861 57.3798 25.7195 57.3628 24.5856L62.2767 32.3387C62.8059 33.1702 63.6628 33.6996 64.6456 33.7836C64.738 33.7921 64.8305 33.7921 64.9228 33.7921C65.8049 33.7921 66.6365 33.4224 67.2328 32.7587C69.6605 30.0709 74.3561 22.8467 65.5949 13.8083C65.0489 13.2456 64.1501 13.2287 63.5874 13.7747C63.0247 14.3208 63.0077 15.2196 63.5538 15.7823C70.0471 22.4857 67.9888 27.6851 65.1162 30.8603C65.0407 30.9442 64.9483 30.9612 64.881 30.9527C64.8222 30.9442 64.7298 30.9191 64.671 30.8182L57.9761 20.2426C58.0434 20.0241 58.1107 19.806 58.1946 19.5875C61.353 10.5994 67.3338 11.557 71.2986 12.187L71.4162 12.2037C74.7089 12.7328 79.8498 10.9859 82.1429 10.1122C83.0754 11.7586 84.5035 15.4377 81.1768 18.6214Z" fill="black"/>
</g>
<path d="M67.5973 48.14C67.1969 47.738 66.7214 47.4191 66.198 47.2016C65.6746 46.984 65.1137 46.8721 64.5472 46.8721C63.9807 46.8721 63.4197 46.984 62.8964 47.2016C62.373 47.4191 61.8975 47.738 61.497 48.14L60.6659 48.9738L59.8347 48.14C59.0258 47.3284 57.9286 46.8725 56.7845 46.8725C55.6405 46.8725 54.5433 47.3284 53.7344 48.14C52.9254 48.9515 52.4709 50.0522 52.4709 51.1999C52.4709 52.3476 52.9254 53.4483 53.7344 54.2598L60.6659 61.2135L67.5973 54.2598C67.998 53.8581 68.3159 53.381 68.5327 52.856C68.7496 52.331 68.8612 51.7682 68.8612 51.1999C68.8612 50.6316 68.7496 50.0688 68.5327 49.5438C68.3159 49.0188 67.998 48.5417 67.5973 48.14Z" stroke="black" stroke-width="2.5" stroke-linecap="round" stroke-linejoin="round"/>
</g>
</g>
<defs>
<clipPath id="clip0_430_1525">
<rect width="100" height="100" fill="white" transform="translate(0.300049)"/>
</clipPath>
<clipPath id="clip1_430_1525">
<rect width="84" height="84" fill="white" transform="translate(4.30005 6.94531)"/>
</clipPath>
</defs>
</svg>
