<svg width="1646" height="40" viewBox="0 0 1646 40" fill="none" xmlns="http://www.w3.org/2000/svg">
<path d="M114.83 12.0893C106.32 -10.959 52.6379 -30.4548 23.701 -10.7961C-5.23582 8.8626 -14.6449 19.2912 -6.13401 39.6277C2.37684 59.9642 11.4069 86.5593 54.293 83.0125C97.179 79.4657 102.427 70.17 109.654 61.5875C116.881 53.005 123.341 35.1375 114.83 12.0893Z" fill="#27AE60"/>
<path d="M417.615 43.2004C399.225 20.1522 283.234 0.656268 220.71 20.315C158.186 39.9737 137.855 50.4023 156.245 70.7388C174.634 91.0753 194.146 117.67 286.81 114.124C379.475 110.577 390.813 101.281 406.429 92.6986C422.045 84.1161 436.004 66.2486 417.615 43.2004Z" fill="#27AE60"/>
<path d="M1252.05 -43.4663C1233.66 -66.5145 1117.66 -86.0104 1055.14 -66.3517C992.616 -46.693 972.286 -36.2644 990.675 -15.9279C1009.06 4.40868 1028.58 31.0037 1121.24 27.4569C1213.91 23.9101 1225.24 14.6145 1240.86 6.03198C1256.48 -2.55051 1270.43 -20.4181 1252.05 -43.4663Z" fill="#27AE60"/>
<path d="M563.907 -23.4663C555.092 -46.5145 499.493 -66.0104 469.523 -46.3517C439.552 -26.693 429.807 -16.2644 438.622 4.07214C447.437 24.4087 456.789 51.0037 501.207 47.4569C545.625 43.9101 551.06 34.6145 558.545 26.032C566.03 17.4495 572.721 -0.41806 563.907 -23.4663Z" fill="#27AE60"/>
<path d="M1504.98 7.64483C1492.06 -15.4034 1410.58 -34.8993 1366.65 -15.2406C1322.73 4.41816 1308.45 14.8467 1321.37 35.1833C1334.29 55.5198 1347.99 82.1149 1413.09 78.568C1478.18 75.0212 1486.15 65.7256 1497.12 57.1431C1508.09 48.5606 1517.89 30.6931 1504.98 7.64483Z" fill="#27AE60"/>
<path d="M1695.53 5.4226C1686.72 -17.6256 1631.12 -37.1215 1601.15 -17.4628C1571.18 2.19593 1561.43 12.6245 1570.25 32.961C1579.06 53.2976 1588.41 79.8926 1632.83 76.3458C1677.25 72.799 1682.68 63.5034 1690.17 54.9209C1697.66 46.3384 1704.35 28.4708 1695.53 5.4226Z" fill="#27AE60"/>
</svg>
