<svg width="768" height="40" viewBox="0 0 768 40" fill="none" xmlns="http://www.w3.org/2000/svg">
<g clip-path="url(#clip0_5772_504)">
<path d="M92.4592 10.9782C85.0137 -12.0701 38.0502 -31.566 12.7348 -11.9072C-12.5806 7.75149 -20.8121 18.18 -13.3664 38.5166C-5.92066 58.8531 1.9793 85.4482 39.4981 81.9014C77.0169 78.3546 81.6076 69.0589 87.9304 60.4764C94.2531 51.8939 99.9048 34.0264 92.4592 10.9782Z" fill="#27AE60"/>
<path d="M275.962 44.2438C263.264 26.206 183.175 10.9484 140.003 26.3335C96.8313 41.7186 82.7937 49.88 95.4913 65.7956C108.189 81.7111 121.661 102.525 185.644 99.7489C249.627 96.9731 257.456 89.6983 268.238 82.9816C279.021 76.2648 288.659 62.2815 275.962 44.2438Z" fill="#27AE60"/>
<path d="M735.333 -24.5774C727.621 -47.6256 678.981 -67.1215 652.761 -47.4628C626.542 -27.8041 618.016 -17.3755 625.728 2.96103C633.439 23.2976 641.621 49.8926 680.48 46.3458C719.339 42.799 724.094 33.5034 730.642 24.9209C737.191 16.3384 743.044 -1.52917 735.333 -24.5774Z" fill="#27AE60"/>
</g>
<defs>
<clipPath id="clip0_5772_504">
<rect width="1440" height="40" fill="white" transform="matrix(-1 0 0 -1 1440 40)"/>
</clipPath>
</defs>
</svg>
