<svg width="390" height="40" viewBox="0 0 390 40" fill="none" xmlns="http://www.w3.org/2000/svg">
<g clip-path="url(#clip0_5772_483)">
<path d="M21.4592 5.4226C14.0137 -17.6256 -32.9498 -37.1215 -58.2652 -17.4628C-83.5806 2.19593 -91.8121 12.6245 -84.3664 32.961C-76.9207 53.2976 -69.0207 79.8926 -31.5019 76.3458C6.01685 72.799 10.6076 63.5034 16.9304 54.9209C23.2531 46.3384 28.9048 28.4708 21.4592 5.4226Z" fill="#27AE60"/>
<path d="M377.349 59.867C361.262 36.8188 259.787 17.3229 205.088 36.9817C150.388 56.6404 132.603 67.0689 148.691 87.4055C164.779 107.742 181.848 134.337 262.915 130.79C343.983 127.243 353.902 117.948 367.564 109.365C381.225 100.783 393.437 82.9153 377.349 59.867Z" fill="#27AE60"/>
<path d="M455.333 -24.5774C447.621 -47.6256 398.981 -67.1215 372.761 -47.4628C346.542 -27.8041 338.016 -17.3755 345.728 2.96104C353.439 23.2976 361.621 49.8926 400.48 46.3458C439.339 42.799 444.094 33.5034 450.642 24.9209C457.191 16.3384 463.044 -1.52916 455.333 -24.5774Z" fill="#27AE60"/>
</g>
<defs>
<clipPath id="clip0_5772_483">
<rect width="1440" height="40" fill="white" transform="matrix(-1 0 0 -1 1440 40)"/>
</clipPath>
</defs>
</svg>
